<svg width="38" height="48" fill="none" xmlns="http://www.w3.org/2000/svg"><path fill-rule="evenodd" clip-rule="evenodd" d="M2.815 9.452c0-3.34 2.73-6.05 6.099-6.05H21.58v12.101h13.136v15.356h2.815V13.415l-.446-.414L24.145.987 23.74.611H8.914C3.99.61 0 4.569 0 9.452v28.852c0 4.883 3.99 8.841 8.914 8.841h16.42v-2.792H8.913c-3.369 0-6.1-2.708-6.1-6.05V9.454zm21.58 3.258V5.043l8.257 7.667h-8.257zm-6.91-.917l.016-.002c.011.027.024.06.038.102.157.479.206 1.392.034 2.761-.038.307-.087.627-.144.96-.482-1.123-.734-2.072-.751-2.77-.012-.494.097-.713.163-.799.046-.059.18-.2.643-.252zM20.365 15c-.162 1.29-.471 2.758-.89 4.31 1.483 2.236 3.365 4.46 5.226 6.148a23.438 23.438 0 012.26-.318c1.837-.155 3.332.184 4.38.893 1.022.689 1.743 1.866 1.424 3.139-.34 1.349-1.623 1.988-2.934 1.994-1.298.006-2.854-.55-4.594-1.718-.437-.293-.88-.62-1.324-.978-2.735.61-6.123 1.65-9.168 2.883-.837 1.589-1.71 3.027-2.577 4.19-.896 1.202-1.896 2.263-2.961 2.813-.554.286-1.212.48-1.922.392-.736-.091-1.35-.462-1.825-.989-.745-.826-.948-1.843-.614-2.84.29-.87.949-1.611 1.654-2.22 1.436-1.238 3.666-2.429 6.074-3.468l.13-.056a58.525 58.525 0 002.018-4.532 59.22 59.22 0 001.705-4.896c-.225-.37-.438-.738-.638-1.103-1.083-1.974-1.885-4.023-1.926-5.734-.021-.877.155-1.808.751-2.573.612-.784 1.509-1.194 2.518-1.315.678-.1 1.382.006 1.987.434.584.413.911 1.01 1.096 1.573.356 1.088.334 2.511.15 3.97zm-3.024 10.665c.39-.983.759-1.98 1.096-2.97a37.33 37.33 0 003 3.504 65.969 65.969 0 00-4.95 1.514c.296-.675.582-1.36.854-2.048zm12.464 2.709c-.343-.001-.896-.109-1.661-.47.825.044 1.339.251 1.614.437l.02.014.027.019zm.221.242s-.003-.006-.004-.018c.005.012.004.018.004.018zm-21.679 6.19c.464-.4 1.07-.818 1.791-1.244-.078.11-.156.217-.233.32-.831 1.115-1.52 1.75-1.999 1.998a.789.789 0 01-.264.096.486.486 0 01-.084-.078c-.06-.067-.06-.068-.05-.082a.072.072 0 00.01-.019c.055-.166.266-.505.83-.991zm21.911 7.132v-9.219h4.222v9.219H38l-5.63 5.673-5.63-5.673h3.52z" fill="url(#paint0_linear)"/><defs><linearGradient id="paint0_linear" x1="18.765" y1=".611" x2="18.765" y2="47.145" gradientUnits="userSpaceOnUse"><stop stop-color="#AD844C"/><stop offset=".219" stop-color="#BDA180"/><stop offset=".438" stop-color="#AD844C"/></linearGradient></defs></svg>