<svg width="38" height="48" fill="none" xmlns="http://www.w3.org/2000/svg"><path fill-rule="evenodd" clip-rule="evenodd" d="M2.775 9.35c0-3.302 2.692-5.98 6.012-5.98h12.488v11.96h12.95v15.18H37V13.269l-.44-.41L23.805.984l-.4-.372H8.787C3.934.61 0 4.524 0 9.35v28.52c0 4.827 3.934 8.74 8.787 8.74h16.188v-2.76H8.787c-3.32 0-6.012-2.678-6.012-5.98V9.35zm21.275 3.22V4.993l8.14 7.579h-8.14zm-6.813-.906l.016-.002c.012.027.024.06.038.101.155.474.203 1.376.034 2.73-.038.303-.086.62-.143.948-.475-1.11-.723-2.047-.74-2.738-.012-.487.095-.704.161-.789.046-.058.178-.198.634-.25zm2.841 3.17c-.16 1.277-.465 2.727-.877 4.26 1.461 2.211 3.317 4.41 5.152 6.079.822-.153 1.575-.26 2.228-.315 1.81-.152 3.284.183 4.319.883 1.006.681 1.717 1.845 1.402 3.102-.334 1.334-1.6 1.966-2.892 1.972-1.28.006-2.814-.544-4.53-1.698-.43-.29-.866-.614-1.304-.967-2.696.603-6.037 1.631-9.039 2.85-.825 1.57-1.686 2.992-2.54 4.142-.884 1.188-1.87 2.237-2.92 2.78-.545.283-1.194.474-1.894.388-.725-.09-1.331-.457-1.8-.978-.734-.817-.933-1.822-.605-2.807.287-.86.936-1.593 1.632-2.195 1.415-1.224 3.614-2.4 5.987-3.428l.128-.055a57.9 57.9 0 001.99-4.48 58.591 58.591 0 001.68-4.84c-.221-.366-.431-.73-.628-1.09-1.068-1.952-1.858-3.977-1.9-5.668-.02-.867.153-1.788.742-2.544.603-.775 1.487-1.18 2.482-1.3.668-.099 1.362.006 1.958.43.576.408.899.998 1.08 1.554.352 1.075.33 2.483.15 3.925zm-2.981 10.544c.385-.973.747-1.958 1.08-2.936a36.867 36.867 0 002.958 3.463 64.965 64.965 0 00-4.88 1.497c.292-.668.573-1.345.842-2.024zm12.288 2.677c-.34-.001-.884-.108-1.638-.465.813.043 1.32.249 1.591.432l.02.014.027.019zm.218.239s-.004-.006-.005-.017c.005.01.005.017.005.017zM8.23 34.413c.457-.395 1.055-.809 1.766-1.23-.077.109-.154.215-.23.317-.82 1.102-1.498 1.73-1.97 1.975a.777.777 0 01-.26.095.48.48 0 01-.083-.077c-.06-.067-.06-.068-.05-.081l.01-.019c.054-.164.262-.5.817-.98z" fill="url(#paint0_linear)"/><path fill-rule="evenodd" clip-rule="evenodd" d="M38 36.777c0 1.197-.985 2.167-2.2 2.167a2.21 2.21 0 01-1.38-.48l-3.107 2.04a2.136 2.136 0 010 1.213l3.107 2.04c.377-.3.857-.48 1.38-.48 1.215 0 2.2.97 2.2 2.167 0 1.197-.985 2.167-2.2 2.167-1.215 0-2.2-.97-2.2-2.167 0-.21.03-.414.087-.606l-3.107-2.04c-.377.3-.857.48-1.38.48-1.215 0-2.2-.97-2.2-2.167 0-1.197.985-2.167 2.2-2.167.523 0 1.003.18 1.38.48l3.107-2.04a2.136 2.136 0 01-.087-.607c0-1.196.985-2.166 2.2-2.166 1.215 0 2.2.97 2.2 2.166z" fill="url(#paint1_linear)"/><defs><linearGradient id="paint0_linear" x1="18.5" y1=".611" x2="18.5" y2="46.611" gradientUnits="userSpaceOnUse"><stop stop-color="#AD844C"/><stop offset=".219" stop-color="#BDA180"/><stop offset=".438" stop-color="#AD844C"/></linearGradient><linearGradient id="paint1_linear" x1="35.8" y1="43.277" x2="35.8" y2="47.611" gradientUnits="userSpaceOnUse"><stop stop-color="#AD844C"/><stop offset=".219" stop-color="#BDA180"/><stop offset=".438" stop-color="#AD844C"/></linearGradient></defs></svg>