<svg width="75" height="70" fill="none" xmlns="http://www.w3.org/2000/svg"><path d="M37.216 0l1.722 5.3h5.573l-4.508 3.276 1.722 5.3-4.509-3.276-4.508 3.276 1.722-5.3L29.92 5.3h5.573L37.216 0z" fill="url(#paint0_linear)"/><path d="M28.167 30.09l9.05-16.453 9.048 16.452a.4.4 0 01-.35.593H28.518a.4.4 0 01-.35-.593z" fill="url(#paint1_linear)"/><circle cx="37.216" cy="43.466" r="4.261" fill="url(#paint2_linear)"/><path fill-rule="evenodd" clip-rule="evenodd" d="M55.282 25.213l-.935-2.46-.934 2.46c-.083.217-.273.513-.62.905-.338.383-.774.802-1.289 1.272-.215.197-.444.402-.682.616-.87.782-1.861 1.671-2.75 2.638-.83.903-1.619 1.92-2.186 3.06v-.613H28.184v12.784H20.37v-5.966h-7.89v5.966H8.594v-5.966H.705v29.273h45.181v-26.42h14.478v4.26h8.932a3 3 0 013 3v18.16h2v-18.16a5 5 0 00-5-5h-6.932v-3.785c.141-.092.292-.222.409-.405 1.301-2.055 1.549-3.99 1.068-5.772-.467-1.73-1.589-3.2-2.803-4.438-.963-.982-2.053-1.883-3.009-2.672a88.587 88.587 0 01-.706-.587c-.56-.47-1.035-.89-1.4-1.272-.375-.394-.566-.681-.64-.877zm-7.604 14.431a2.736 2.736 0 01-.122-.028c-.655-1.51-.65-2.823-.289-4.004.393-1.281 1.229-2.474 2.277-3.614.818-.89 1.712-1.693 2.573-2.466.25-.224.496-.446.736-.666.524-.479 1.027-.956 1.44-1.424l.075-.087.107.115c.446.468.992.946 1.562 1.424.249.21.503.42.76.632.948.783 1.931 1.596 2.813 2.495 1.119 1.14 1.965 2.316 2.3 3.559.31 1.146.212 2.452-.715 4a2.69 2.69 0 01-.2.047c-.332.068-.824.125-1.476.169-1.294.087-3.079.113-5.172.113-2.097 0-3.896-.017-5.199-.099-.656-.041-1.146-.098-1.47-.166zm13.634-.106s-.004.003-.016.007a.079.079 0 01.016-.007zm-13.897.034l-.004-.002a.13.13 0 01.004.002zM30.184 35.09v12.784H18.37v-5.966h-3.89v5.966H6.594v-5.966H2.705v25.274h41.181V35.09H30.184z" fill="url(#paint3_linear)"/><path d="M47.727 49.432a1.705 1.705 0 113.41 0v3.409h-3.41v-3.41z" fill="url(#paint4_linear)"/><path d="M47.727 57.955a1.705 1.705 0 113.41 0v3.409h-3.41v-3.41z" fill="url(#paint5_linear)"/><path d="M54.545 49.432a1.705 1.705 0 113.41 0v3.409h-3.41v-3.41z" fill="url(#paint6_linear)"/><path d="M54.545 57.955a1.705 1.705 0 113.41 0v3.409h-3.41v-3.41z" fill="url(#paint7_linear)"/><path d="M61.364 57.955a1.705 1.705 0 113.41 0v3.409h-3.41v-3.41z" fill="url(#paint8_linear)"/><defs><linearGradient id="paint0_linear" x1="37.216" y1="0" x2="37.216" y2="15.341" gradientUnits="userSpaceOnUse"><stop stop-color="#AD844C"/><stop offset=".255" stop-color="#BDA180"/><stop offset="1" stop-color="#AD844C"/></linearGradient><linearGradient id="paint1_linear" x1="37.216" y1="13.636" x2="37.216" y2="30.682" gradientUnits="userSpaceOnUse"><stop stop-color="#AD844C"/><stop offset=".255" stop-color="#BDA180"/><stop offset="1" stop-color="#AD844C"/></linearGradient><linearGradient id="paint2_linear" x1="37.216" y1="39.205" x2="37.216" y2="47.727" gradientUnits="userSpaceOnUse"><stop stop-color="#AD844C"/><stop offset=".255" stop-color="#BDA180"/><stop offset="1" stop-color="#AD844C"/></linearGradient><linearGradient id="paint3_linear" x1="19.103" y1="22.754" x2="19.103" y2="69.182" gradientUnits="userSpaceOnUse"><stop stop-color="#AD844C"/><stop offset=".255" stop-color="#BDA180"/><stop offset="1" stop-color="#AD844C"/></linearGradient><linearGradient id="paint4_linear" x1="49.432" y1="47.727" x2="49.432" y2="52.841" gradientUnits="userSpaceOnUse"><stop stop-color="#AD844C"/><stop offset=".255" stop-color="#BDA180"/><stop offset="1" stop-color="#AD844C"/></linearGradient><linearGradient id="paint5_linear" x1="49.432" y1="56.25" x2="49.432" y2="61.364" gradientUnits="userSpaceOnUse"><stop stop-color="#AD844C"/><stop offset=".255" stop-color="#BDA180"/><stop offset="1" stop-color="#AD844C"/></linearGradient><linearGradient id="paint6_linear" x1="56.25" y1="47.727" x2="56.25" y2="52.841" gradientUnits="userSpaceOnUse"><stop stop-color="#AD844C"/><stop offset=".255" stop-color="#BDA180"/><stop offset="1" stop-color="#AD844C"/></linearGradient><linearGradient id="paint7_linear" x1="56.25" y1="56.25" x2="56.25" y2="61.364" gradientUnits="userSpaceOnUse"><stop stop-color="#AD844C"/><stop offset=".255" stop-color="#BDA180"/><stop offset="1" stop-color="#AD844C"/></linearGradient><linearGradient id="paint8_linear" x1="63.068" y1="56.25" x2="63.068" y2="61.364" gradientUnits="userSpaceOnUse"><stop stop-color="#AD844C"/><stop offset=".255" stop-color="#BDA180"/><stop offset="1" stop-color="#AD844C"/></linearGradient></defs></svg>