<svg width="75" height="25" fill="none" xmlns="http://www.w3.org/2000/svg"><path d="M17.728 18.915a2 2 0 012 2v1.158a2 2 0 01-2 2H2a2 2 0 01-2-2V2.472a2 2 0 012-2h15.272a2 2 0 012 2v1.159a2 2 0 01-2 2H8.87a1.99 1.99 0 100 3.979h6.928a2 2 0 012 2v.99a2 2 0 01-2 2H8.88a2 2 0 00-2 2v.315a2 2 0 002 2h8.848z" fill="url(#paint0_linear)"/><path d="M35.802 24.546c-2.574 0-4.891-.517-6.95-1.552-2.036-1.056-3.64-2.517-4.81-4.383-1.17-1.865-1.755-3.978-1.755-6.338s.585-4.473 1.755-6.339c1.17-1.866 2.774-3.315 4.81-4.35C30.91.529 33.228 0 35.802 0c2.247 0 4.271.382 6.073 1.146 1.17.496 2.21 1.134 3.123 1.914.827.705.715 1.96-.105 2.673L43.46 6.978c-.836.726-2.086.605-2.978-.05-1.272-.932-2.714-1.399-4.329-1.399-1.334 0-2.527.281-3.58.843a6.084 6.084 0 00-2.422 2.394c-.562 1.012-.843 2.18-.843 3.507 0 1.326.28 2.506.843 3.54a6.148 6.148 0 002.422 2.36c1.053.562 2.246.843 3.58.843 1.615 0 3.057-.466 4.329-1.398.892-.655 2.142-.777 2.978-.05l1.433 1.245c.82.713.932 1.967.105 2.673a11.965 11.965 0 01-3.123 1.913c-1.802.764-3.826 1.146-6.073 1.146z" fill="url(#paint1_linear)"/><path d="M61.345 24.546c-2.598 0-4.938-.529-7.021-1.585-2.06-1.057-3.686-2.518-4.88-4.383-1.17-1.866-1.755-3.968-1.755-6.305 0-2.338.585-4.44 1.756-6.305 1.193-1.866 2.82-3.327 4.879-4.383C56.407.528 58.747 0 61.344 0c2.598 0 4.927.528 6.986 1.585 2.083 1.056 3.71 2.517 4.88 4.383C74.403 7.833 75 9.935 75 12.273c0 2.337-.597 4.439-1.79 6.305-1.17 1.865-2.797 3.326-4.88 4.383-2.06 1.056-4.388 1.585-6.985 1.585zm0-5.53c1.24 0 2.363-.281 3.37-.843a6.215 6.215 0 002.387-2.36c.585-1.034.877-2.214.877-3.54s-.292-2.495-.877-3.507a6.15 6.15 0 00-2.387-2.394c-1.007-.562-2.13-.843-3.37-.843-1.24 0-2.364.281-3.37.843a6.15 6.15 0 00-2.387 2.394c-.585 1.012-.878 2.18-.878 3.507 0 1.326.293 2.506.878 3.54a6.215 6.215 0 002.387 2.36c1.006.562 2.13.843 3.37.843z" fill="url(#paint2_linear)"/><defs><linearGradient id="paint0_linear" x1="39.02" y1="-11.014" x2="39.02" y2="24.029" gradientUnits="userSpaceOnUse"><stop stop-color="#AD844C"/><stop offset=".469" stop-color="#BDA180"/><stop offset=".682" stop-color="#AD844C"/></linearGradient><linearGradient id="paint1_linear" x1="39.02" y1="-11.014" x2="39.02" y2="24.029" gradientUnits="userSpaceOnUse"><stop stop-color="#AD844C"/><stop offset=".469" stop-color="#BDA180"/><stop offset=".682" stop-color="#AD844C"/></linearGradient><linearGradient id="paint2_linear" x1="39.02" y1="-11.014" x2="39.02" y2="24.029" gradientUnits="userSpaceOnUse"><stop stop-color="#AD844C"/><stop offset=".469" stop-color="#BDA180"/><stop offset=".682" stop-color="#AD844C"/></linearGradient></defs></svg>