<svg width="60" height="53" fill="none" xmlns="http://www.w3.org/2000/svg"><path d="M1.5 3.303l9.333 2.003c1.24.26 2.527.396 3.812.396h16.838" stroke="url(#paint0_linear)" stroke-width="3" stroke-miterlimit="10" stroke-linecap="round" stroke-linejoin="round"/><path d="M51.872 31.487l1.3-1.836 4.697-.683" stroke="url(#paint1_linear)" stroke-width="3" stroke-miterlimit="10" stroke-linecap="round" stroke-linejoin="round"/><path fill-rule="evenodd" clip-rule="evenodd" d="M12.364 28.996a1.686 1.686 0 00-2.372 0L8.45 30.537c-.65.65-.65 1.722 0 2.373a1.686 1.686 0 002.376-.004l1.538-1.538c.65-.65.65-1.722 0-2.372zM7.87 26.874a4.686 4.686 0 016.616 0 4.66 4.66 0 011.363 3.13 4.66 4.66 0 013.13 1.364 4.66 4.66 0 011.364 3.13 4.66 4.66 0 014.494 4.493 4.66 4.66 0 013.13 1.364 4.686 4.686 0 010 6.616l-1.539 1.538a4.66 4.66 0 01-6.618.003 4.66 4.66 0 01-1.362-3.12 4.675 4.675 0 01-3.13-1.373 4.66 4.66 0 01-1.364-3.131 4.66 4.66 0 01-4.494-4.494 4.648 4.648 0 01-3.131-1.363A4.682 4.682 0 015.1 30.589l-3.856-.667a1.5 1.5 0 11.51-2.956l5.136.888.98-.98zm14.065 17.142a1.687 1.687 0 00-.004 2.375 1.66 1.66 0 002.367.006l.006-.006 1.542-1.542c.65-.65.65-1.722 0-2.372a1.687 1.687 0 00-2.34-.033l-.032.033-1.539 1.539zm-.582-6.033c.64.64.65 1.686.032 2.34l-.033.032-1.542 1.542a1.66 1.66 0 01-2.372 0 1.686 1.686 0 010-2.372l1.542-1.542c.65-.65 1.722-.65 2.373 0zm-4.495-4.494a1.686 1.686 0 00-2.372 0l-1.542 1.542c-.65.65-.65 1.722 0 2.372.65.65 1.722.65 2.373 0l1.541-1.541c.65-.65.65-1.722 0-2.373z" fill="url(#paint2_linear)"/><path d="M57.869 3.56c-5.308 1.368-8.639 2.735-12.23 0-1.717-1.366-4.015-2.399-8.13-.595-3.229 1.41-15.823 7.46-21.015 9.947a1.69 1.69 0 00-.29 2.88c1.744 1.323 4.566 2.908 8.143 2.908 6.167 0 11.722-3.33 11.722-3.33l15.692 15.692s1.076 2.181-.815 4.057c-1.89 1.876-4.537 1.105-5.642 0 1.105 1.105 1.76 3.81.087 5.468-1.672 1.658-4.188 1.455-6.326-.683 2.269 2.268.509 4.872-.262 5.642-.77.771-3.17 2.4-5.817-1.105 1.672 1.673.945 6.588-2.647 6.588-3.592 0-4.853-3.35-4.853-3.35" stroke="url(#paint3_linear)" stroke-width="3" stroke-miterlimit="10" stroke-linecap="round" stroke-linejoin="round"/><defs><linearGradient id="paint0_linear" x1="8.096" y1="-5.092" x2="15.292" y2="8.7" gradientUnits="userSpaceOnUse"><stop stop-color="#AD844C"/><stop offset=".479" stop-color="#BDA180"/><stop offset="1" stop-color="#AD844C"/></linearGradient><linearGradient id="paint1_linear" x1="51.872" y1="26.69" x2="54.815" y2="31.062" gradientUnits="userSpaceOnUse"><stop stop-color="#AD844C"/><stop offset=".479" stop-color="#BDA180"/><stop offset="1" stop-color="#AD844C"/></linearGradient><linearGradient id="paint2_linear" x1="14.667" y1="25.508" x2="14.667" y2="49.889" gradientUnits="userSpaceOnUse"><stop stop-color="#AD844C"/><stop offset=".354" stop-color="#BDA180"/><stop offset=".635" stop-color="#AD844C"/></linearGradient><linearGradient id="paint3_linear" x1="36.698" y1="2" x2="36.698" y2="51.029" gradientUnits="userSpaceOnUse"><stop stop-color="#AD844C"/><stop offset=".479" stop-color="#BDA180"/><stop offset="1" stop-color="#AD844C"/></linearGradient></defs></svg>