<svg width="82" height="57" fill="none" xmlns="http://www.w3.org/2000/svg"><path d="M20.781 39.065c-4.742 0-8.603 3.861-8.603 8.604 0 4.742 3.86 8.603 8.603 8.603 4.743.008 8.603-3.853 8.603-8.603s-3.86-8.604-8.603-8.604zm0 14.595a5.995 5.995 0 01-5.991-5.991 5.995 5.995 0 015.991-5.992 5.995 5.995 0 015.991 5.992 5.995 5.995 0 01-5.99 5.99z" fill="url(#paint0_linear)"/><path d="M20.782 44.077a3.592 3.592 0 100 7.183 3.592 3.592 0 000-7.183z" fill="url(#paint1_linear)"/><path d="M64.777 39.065c-4.742 0-8.603 3.861-8.603 8.604 0 4.742 3.86 8.603 8.603 8.603s8.603-3.861 8.603-8.603c0-4.743-3.86-8.604-8.603-8.604zm0 14.595a5.995 5.995 0 01-5.99-5.991 5.995 5.995 0 015.99-5.992 5.995 5.995 0 015.992 5.992 6 6 0 01-5.992 5.99z" fill="url(#paint2_linear)"/><path d="M64.777 44.077a3.592 3.592 0 100 7.183 3.592 3.592 0 000-7.183z" fill="url(#paint3_linear)"/><path d="M81.192 21.892l-7.216-3.02c-.922-1.641-4.416-7.706-7.158-10.09a1.31 1.31 0 00-.857-.318H55.25V1.306A1.31 1.31 0 0053.947 0H1.306A1.31 1.31 0 000 1.306v31.923a1.31 1.31 0 001.306 1.306h2.27v9.542a1.31 1.31 0 001.305 1.306h5.763c.555 0 1.045-.35 1.232-.865a9.465 9.465 0 018.906-6.285c3.983 0 7.558 2.53 8.897 6.285.187.522.677.865 1.232.865H54.64c.555 0 1.045-.35 1.233-.865a9.465 9.465 0 018.905-6.285c3.992 0 7.559 2.53 8.906 6.285.187.522.677.865 1.232.865h5.779A1.31 1.31 0 0082 44.077V23.1a1.332 1.332 0 00-.808-1.208zM55.276 11.076h10.17c2.743 2.67 6.424 9.38 6.457 9.453.139.26.367.465.645.58l6.832 2.864v8.105H55.276V11.076zM2.612 2.612H52.64v27.467H2.612V2.612zm0 29.311V30.08H52.64v1.844H2.612zM79.38 42.771h-3.584c-1.926-4.318-6.244-7.158-11.019-7.158s-9.093 2.84-11.02 7.158H31.802a12.096 12.096 0 00-11.02-7.158c-4.774 0-9.092 2.84-11.019 7.158H6.195v-8.089H79.38v8.09z" fill="url(#paint4_linear)"/><path d="M63.749 13.33h-6.89v8.162h12.71l-.066-.114c-1.42-2.392-3.901-6.049-5.754-8.048z" fill="url(#paint5_linear)"/><path d="M62.851 24.594h-4.138v1.502h4.138v-1.502z" fill="url(#paint6_linear)"/><circle cx="28.5" cy="17.372" r="10.5" stroke="url(#paint7_linear)" stroke-width="2"/><path d="M29.5 10.872v6.5l-4.5 4.5" stroke="url(#paint8_linear)" stroke-width="2" stroke-linecap="round"/><defs><linearGradient id="paint0_linear" x1="20.781" y1="39.065" x2="20.781" y2="56.272" gradientUnits="userSpaceOnUse"><stop stop-color="#AD844C"/><stop offset=".641" stop-color="#BDA180"/><stop offset="1" stop-color="#AD844C"/></linearGradient><linearGradient id="paint1_linear" x1="20.782" y1="44.077" x2="20.782" y2="51.26" gradientUnits="userSpaceOnUse"><stop stop-color="#AD844C"/><stop offset=".641" stop-color="#BDA180"/><stop offset="1" stop-color="#AD844C"/></linearGradient><linearGradient id="paint2_linear" x1="64.777" y1="39.065" x2="64.777" y2="56.272" gradientUnits="userSpaceOnUse"><stop stop-color="#AD844C"/><stop offset=".641" stop-color="#BDA180"/><stop offset="1" stop-color="#AD844C"/></linearGradient><linearGradient id="paint3_linear" x1="64.777" y1="44.077" x2="64.777" y2="51.26" gradientUnits="userSpaceOnUse"><stop stop-color="#AD844C"/><stop offset=".641" stop-color="#BDA180"/><stop offset="1" stop-color="#AD844C"/></linearGradient><linearGradient id="paint4_linear" x1="41" y1="0" x2="21.671" y2="52.266" gradientUnits="userSpaceOnUse"><stop stop-color="#AD844C"/><stop offset=".641" stop-color="#BDA180"/><stop offset="1" stop-color="#AD844C"/></linearGradient><linearGradient id="paint5_linear" x1="63.214" y1="13.33" x2="63.214" y2="21.492" gradientUnits="userSpaceOnUse"><stop stop-color="#AD844C"/><stop offset=".641" stop-color="#BDA180"/><stop offset="1" stop-color="#AD844C"/></linearGradient><linearGradient id="paint6_linear" x1="60.782" y1="24.594" x2="60.782" y2="26.096" gradientUnits="userSpaceOnUse"><stop stop-color="#AD844C"/><stop offset=".641" stop-color="#BDA180"/><stop offset="1" stop-color="#AD844C"/></linearGradient><linearGradient id="paint7_linear" x1="28.5" y1="5.872" x2="28.5" y2="28.872" gradientUnits="userSpaceOnUse"><stop stop-color="#AD844C"/><stop offset=".328" stop-color="#BDA180"/><stop offset="1" stop-color="#AD844C"/></linearGradient><linearGradient id="paint8_linear" x1="27.25" y1="10.872" x2="27.25" y2="21.872" gradientUnits="userSpaceOnUse"><stop stop-color="#AD844C"/><stop offset=".26" stop-color="#BDA180"/><stop offset="1" stop-color="#AD844C"/></linearGradient></defs></svg>