<svg width="50" height="70" fill="none" xmlns="http://www.w3.org/2000/svg"><path d="M26.703 27.459a3.168 3.168 0 100-6.337 3.168 3.168 0 000 6.337z" fill="url(#paint0_linear)"/><path d="M29.343 5.28a2.64 2.64 0 100-5.28 2.64 2.64 0 000 5.28z" fill="url(#paint1_linear)"/><path d="M19.838 12.673a3.696 3.696 0 100-7.392 3.696 3.696 0 000 7.392z" fill="url(#paint2_linear)"/><path fill-rule="evenodd" clip-rule="evenodd" d="M36.423 10.029h-23.4a1.5 1.5 0 100 3h2.164v17.22C6.269 33.977 0 42.784 0 53.063A24.623 24.623 0 005.615 68.75l.45.547h37.317l.45-.547a24.623 24.623 0 005.615-15.687c0-10.274-6.264-19.081-15.182-22.811V13.029h2.158a1.5 1.5 0 000-3zm-18.236 21.24V13.03h13.078v19.29l.981.362a21.768 21.768 0 0113.025 13.313H4.176a21.775 21.775 0 0113.03-13.318l.981-.361V31.27zM3.38 48.996a21.851 21.851 0 00-.38 4.07c0 4.98 1.675 9.567 4.497 13.234H41.95a21.617 21.617 0 004.497-13.235c0-1.39-.13-2.75-.38-4.069H3.38z" fill="url(#paint3_linear)"/><defs><linearGradient id="paint0_linear" x1="26.703" y1="21.122" x2="26.703" y2="27.459" gradientUnits="userSpaceOnUse"><stop stop-color="#AD844C"/><stop offset=".313" stop-color="#BDA180"/><stop offset="1" stop-color="#AD844C"/></linearGradient><linearGradient id="paint1_linear" x1="29.343" y1="0" x2="29.343" y2="5.281" gradientUnits="userSpaceOnUse"><stop stop-color="#AD844C"/><stop offset=".313" stop-color="#BDA180"/><stop offset="1" stop-color="#AD844C"/></linearGradient><linearGradient id="paint2_linear" x1="19.838" y1="5.281" x2="19.838" y2="12.673" gradientUnits="userSpaceOnUse"><stop stop-color="#AD844C"/><stop offset=".313" stop-color="#BDA180"/><stop offset="1" stop-color="#AD844C"/></linearGradient><linearGradient id="paint3_linear" x1="24.724" y1="10.029" x2="24.724" y2="69.299" gradientUnits="userSpaceOnUse"><stop stop-color="#AD844C"/><stop offset=".229" stop-color="#BDA180"/><stop offset="1" stop-color="#AD844C"/></linearGradient></defs></svg>