<svg width="75" height="71" viewBox="0 0 75 71" fill="none" xmlns="http://www.w3.org/2000/svg">
<path d="M38.0107 70.4326C37.255 70.4326 36.4994 70.4571 35.746 70.4259C34.968 70.3947 34.1901 70.3434 33.4188 70.2386C32.2798 70.0826 31.1363 69.931 30.0217 69.6657C28.535 69.3112 27.0638 68.8787 25.6037 68.4239C24.6475 68.1252 23.6912 67.7864 22.7862 67.3606C20.6396 66.3462 18.5488 65.2248 16.6184 63.8204C14.9511 62.6076 13.4085 61.2477 11.9663 59.7875C10.9633 58.7731 10.0672 57.6473 9.17556 56.5304C8.52468 55.7167 7.90054 54.8673 7.36334 53.9756C6.3714 52.3281 5.42182 50.6517 4.7219 48.8526C4.25157 47.6465 3.84588 46.4137 3.42458 45.1898C3.26632 44.7283 3.31313 44.6837 3.81244 44.6704C4.24488 44.6592 4.67732 44.6614 5.10975 44.6325C5.41291 44.6124 5.56894 44.7395 5.66033 45.0181C5.86541 45.6468 6.05265 46.2822 6.30676 46.8908C6.8083 48.0857 7.3143 49.2829 7.89162 50.4421C8.3575 51.3762 8.8947 52.2813 9.46311 53.1597C10.464 54.7068 11.5629 56.1849 12.8424 57.5136C13.7251 58.4298 14.59 59.3773 15.5663 60.1843C16.7388 61.1541 18.0227 61.9879 19.2554 62.884C20.711 63.943 22.3114 64.7455 23.9476 65.4612C25.1936 66.0073 26.511 66.3953 27.8038 66.8344C28.37 67.0284 28.9451 67.2156 29.5291 67.3405C30.501 67.5478 31.4795 67.7395 32.4648 67.8688C33.6395 68.0227 34.8209 68.1542 36.0023 68.2077C37.8992 68.2902 39.7939 68.1787 41.6797 67.9357C44.281 67.6013 46.8066 66.9526 49.2452 66.0118C50.6071 65.4879 51.9089 64.7946 53.2084 64.1258C54.693 63.3611 56.075 62.4248 57.3991 61.4082C59.2068 60.0193 60.8675 58.4677 62.332 56.7244C63.2816 55.5963 64.1933 54.4282 65.0202 53.2065C66.0322 51.7151 66.8704 50.1166 67.5346 48.4379C68.083 47.0468 68.5644 45.6312 69.0883 44.2312C69.1306 44.1175 69.2844 43.9793 69.3959 43.9703C69.9933 43.9258 70.5951 43.9102 71.1947 43.9102C71.2527 43.9102 71.3753 44.1063 71.3552 44.1777C71.1658 44.8465 70.9607 45.5086 70.7422 46.1685C70.5862 46.6456 70.4012 47.1137 70.234 47.5886C69.358 50.0966 68.1231 52.424 66.6631 54.6355C65.1384 56.9451 63.3774 59.063 61.3356 60.9267C60.1052 62.0503 58.7833 63.0847 57.4347 64.0656C56.3113 64.8815 55.121 65.6239 53.8972 66.286C52.6958 66.937 51.4296 67.4787 50.1658 68.0026C48.3513 68.7539 46.4655 69.2533 44.5396 69.6545C42.8299 70.009 41.1069 70.2163 39.3749 70.3768C38.9224 70.4192 38.4632 70.3835 38.0062 70.3835C38.0107 70.4058 38.0107 70.4192 38.0107 70.4326Z" fill="url(#paint0_linear)"/>
<path d="M71.0051 25.5182C70.332 25.5182 69.6855 25.5182 69.0413 25.5182C68.7783 25.5182 68.7159 25.322 68.6423 25.1236C68.2411 24.0579 67.8622 22.9834 67.4253 21.9312C66.8011 20.4308 66.021 19.0085 65.1561 17.633C63.9346 15.6935 62.5325 13.8966 60.9409 12.2447C59.6102 10.8625 58.1813 9.594 56.6143 8.49717C55.4485 7.679 54.2203 6.94109 52.9809 6.23216C52.0381 5.69266 51.0573 5.2089 50.0586 4.78086C49.1024 4.37067 48.1104 4.03627 47.1185 3.72193C46.1221 3.40759 45.1168 3.09549 44.0937 2.8993C42.7562 2.64293 41.3987 2.48465 40.0435 2.32191C39.3213 2.23496 38.5901 2.19706 37.8612 2.18815C35.7971 2.16139 33.7375 2.28178 31.7046 2.64739C29.8856 2.9751 28.0846 3.39868 26.3325 4.01397C24.8658 4.52895 23.4325 5.11526 22.0772 5.87324C20.9025 6.53089 19.7033 7.15511 18.6044 7.92423C17.3271 8.81596 16.1056 9.7991 14.9398 10.8357C13.2836 12.3071 11.8369 13.9813 10.5262 15.776C9.60119 17.0422 8.76752 18.3598 8.04531 19.7442C7.28297 21.2022 6.54961 22.6757 6.07704 24.2608C5.90541 24.8337 5.71371 25.4045 5.50195 25.9618C5.45514 26.0822 5.28127 26.2271 5.15867 26.2338C4.60809 26.265 4.05529 26.2471 3.50248 26.2516C3.25728 26.2538 3.17704 26.1602 3.25282 25.9172C3.54037 25.0121 3.76105 24.0802 4.11324 23.2019C4.6928 21.7573 5.30802 20.3216 6.00126 18.9282C6.54069 17.8448 7.18043 16.8081 7.84692 15.7982C8.54016 14.7482 9.27575 13.7205 10.0693 12.7418C11.5895 10.867 13.3103 9.1838 15.2028 7.68346C16.6205 6.55987 18.1207 5.56113 19.6788 4.64487C22.1998 3.16237 24.8747 2.0477 27.6945 1.28304C29.7965 0.712325 31.9342 0.311045 34.1097 0.12378C36.1181 -0.0501079 38.1265 -0.0300439 40.1393 0.117092C41.5303 0.219642 42.8922 0.478245 44.2631 0.701179C45.1592 0.846085 45.9795 1.21393 46.8644 1.37221C48.1327 1.5996 49.3208 2.09674 50.4955 2.59389C51.7973 3.14676 53.1035 3.71078 54.3295 4.40857C55.6803 5.17769 56.9509 6.08948 58.2415 6.96338C59.6927 7.94429 60.9766 9.1303 62.1959 10.3743C63.2213 11.4198 64.1708 12.5434 65.0914 13.6826C66.6919 15.6623 67.9625 17.8515 69.0569 20.1499C69.8193 21.7506 70.4367 23.4025 70.9739 25.0879C70.9962 25.157 71.0185 25.2261 71.0274 25.2974C71.0341 25.342 71.0185 25.3911 71.0051 25.5182Z" fill="url(#paint1_linear)"/>
<path d="M9.22913 33.0849C9.22913 32.0884 9.22913 31.0941 9.22913 30.0976C9.22913 29.5804 9.22913 29.0632 9.21353 28.5482C9.20461 28.2628 9.30046 28.1358 9.60807 28.1358C10.8942 28.1402 12.1804 28.1313 13.4643 28.109C13.7251 28.1046 13.772 28.216 13.772 28.4278C13.7764 29.7855 13.7764 31.1431 13.7898 32.5008C13.8032 33.7158 13.8411 34.9286 13.8567 36.1413C13.879 37.8824 13.8879 39.6235 13.9057 41.3647C13.9079 41.6054 13.9146 41.8462 13.9213 42.087C13.9324 42.3901 13.7898 42.5105 13.4866 42.5083C12.6574 42.5016 11.8304 42.5105 11.0012 42.5172C10.5822 42.5195 10.1631 42.5261 9.74404 42.5351C9.51222 42.5395 9.38516 42.4548 9.38294 42.2029C9.37179 40.7494 9.35396 39.2936 9.33613 37.8401C9.3339 37.6952 9.32275 37.5525 9.32052 37.4076C9.31161 36.7811 9.31161 36.7678 8.68747 36.7744C7.46371 36.7856 6.24219 36.828 5.01843 36.8235C4.71751 36.8235 4.63504 36.9305 4.63726 37.1913C4.64172 37.9114 4.64172 38.6337 4.65287 39.3538C4.66624 40.2901 4.69076 41.2264 4.70859 42.1628C4.71305 42.3812 4.68853 42.5796 4.39207 42.5796C3.09698 42.5819 1.8019 42.5774 0.506814 42.5997C0.1836 42.6064 0.150165 42.4459 0.147935 42.2051C0.134561 40.9567 0.116729 39.7083 0.105583 38.4598C0.094438 37.198 0.094438 35.9362 0.0788346 34.6722C0.056544 32.7037 0.020879 30.7329 0.000817436 28.7644C-0.00586975 28.2316 0.0164209 28.2539 0.54025 28.2361C1.7484 28.1937 2.95878 28.2205 4.16916 28.1982C4.44111 28.1937 4.52804 28.2695 4.53027 28.537C4.54142 29.9906 4.56148 31.4419 4.59937 32.8954C4.6016 33.0002 4.76432 33.1897 4.84903 33.1897C6.30014 33.1763 7.75349 33.1406 9.20461 33.1072C9.2113 33.1027 9.22021 33.0916 9.22913 33.0849Z" fill="url(#paint2_linear)"/>
<path d="M29.6738 38.8879C28.9627 37.0866 28.2427 35.2897 27.5361 33.4884C26.8451 31.7317 26.1585 29.9727 25.4831 28.2093C25.3962 27.9797 25.2468 27.9329 25.0395 27.9351C24.188 27.9485 23.3343 27.9597 22.4828 27.973C21.9545 27.9819 21.4262 27.9753 20.9002 28.0109C20.7374 28.0221 20.4811 28.1113 20.4343 28.2294C19.9818 29.3775 19.5605 30.5345 19.1414 31.696C18.5753 33.2632 18.0269 34.8394 17.4585 36.4066C16.7675 38.3082 16.0653 40.2054 15.3654 42.1048C15.2852 42.321 15.361 42.4392 15.5794 42.4459C15.8424 42.4548 16.1055 42.4414 16.3685 42.4392C17.4474 42.428 18.5284 42.4236 19.6073 42.3991C19.7121 42.3968 19.877 42.2854 19.9082 42.1895C20.1044 41.5854 20.2827 40.9723 20.4432 40.357C20.5012 40.1251 20.6327 40.0315 20.8444 40.0293C22.2844 40.0114 23.7244 39.9914 25.1644 39.9981C25.2937 39.9981 25.4943 40.1541 25.5433 40.2834C25.7484 40.8341 25.9312 41.3959 26.0827 41.9643C26.1608 42.2631 26.3324 42.35 26.5999 42.3456C27.5472 42.33 28.4946 42.3143 29.4419 42.3032C29.9279 42.2987 30.4138 42.3032 31.0023 42.3032C30.5253 41.0771 30.104 39.9802 29.6738 38.8879ZM24.2081 36.7789C23.3365 36.7901 22.465 36.7834 21.502 36.7834C21.9701 35.2028 22.4204 33.6824 22.8729 32.1597C22.9086 32.1597 22.9442 32.1575 22.9821 32.1575C23.3053 33.1607 23.6285 34.1639 23.9518 35.1671C24.0855 35.5884 24.2126 36.0165 24.3552 36.4356C24.4109 36.6072 24.4444 36.7744 24.2081 36.7789Z" fill="url(#paint3_linear)"/>
<path d="M46.6729 34.4915C46.8423 33.6109 46.9247 32.7036 47.1989 31.8564C47.8164 29.9548 48.9933 28.5302 50.9727 27.8971C52.1987 27.5047 53.447 27.3643 54.7309 27.4468C55.9301 27.5248 57.0915 27.75 58.1146 28.3942C59.3339 29.1634 60.0517 30.3405 60.5421 31.6647C60.5644 31.7271 60.4596 31.9077 60.3883 31.9255C59.2225 32.2198 58.0544 32.4962 56.8842 32.7749C56.6657 32.8262 56.5587 32.7102 56.4852 32.5118C56.2623 31.8876 55.8499 31.4261 55.2637 31.1029C54.4122 30.6325 52.8964 30.9089 52.221 31.6134C51.5434 32.3223 51.3628 33.1806 51.3606 34.0924C51.3583 34.9307 51.3829 35.7756 51.4965 36.6027C51.6726 37.8823 52.4171 38.6871 53.5629 38.8275C55.0697 39.0126 56.0862 38.4285 56.5654 36.8836C56.6434 36.6339 56.6836 36.3151 56.8574 36.1746C56.9756 36.0788 57.3032 36.2259 57.5328 36.2906C58.5248 36.567 59.5122 36.8568 60.5042 37.131C60.7026 37.1867 60.8006 37.2603 60.736 37.481C60.4306 38.54 60.0339 39.561 59.2871 40.3948C58.4044 41.3779 57.2966 41.9798 55.977 42.1314C55.1946 42.2206 54.401 42.2942 53.6164 42.2674C52.2098 42.2228 50.8189 41.9798 49.642 41.1661C48.4227 40.3257 47.6091 39.1396 47.1566 37.7173C46.8244 36.6718 46.7442 35.5995 46.7598 34.5115C46.7353 34.5049 46.7041 34.4982 46.6729 34.4915Z" fill="url(#paint4_linear)"/>
<path d="M41.3367 36.2549C41.6844 36.3352 42.0121 36.3954 42.3286 36.4868C43.1578 36.7253 43.9826 36.9861 44.8118 37.2224C45.2598 37.3495 45.2955 37.374 45.1662 37.8154C44.7338 39.2935 44.0339 40.5887 42.7076 41.4693C41.9586 41.9665 41.1405 42.2563 40.2489 42.3165C39.4041 42.3722 38.5548 42.4391 37.71 42.4079C36.4617 42.3611 35.2536 42.0935 34.2148 41.3534C32.6701 40.2543 31.7896 38.7451 31.4441 36.8791C31.2324 35.7377 31.2881 34.6052 31.3616 33.466C31.3795 33.1829 31.4999 32.9064 31.5667 32.6256C31.8387 31.4618 32.3291 30.4141 33.1583 29.5379C33.8359 28.8223 34.6651 28.343 35.5969 28.0554C36.8964 27.6541 38.2316 27.5204 39.5847 27.6519C40.9511 27.7857 42.2417 28.1268 43.296 29.0898C44.1097 29.8322 44.5911 30.7774 45.008 31.7695C45.0949 31.9768 45.0169 32.0883 44.8096 32.1373C43.6995 32.4026 42.5917 32.6657 41.4838 32.9377C41.1561 33.0179 41.038 32.844 40.9399 32.5698C40.6301 31.6915 39.6538 30.9736 38.7577 30.9981C37.2263 31.0427 36.172 31.9456 35.9713 33.4437C35.822 34.5606 35.7953 35.6842 35.9914 36.8167C36.328 38.7451 38.4835 39.7193 40.075 38.5667C40.4674 38.2836 40.7126 37.7686 40.9644 37.3272C41.1361 37.0307 41.1985 36.6718 41.3367 36.2549Z" fill="url(#paint5_linear)"/>
<path d="M74.7479 30.2557C74.554 29.5646 74.155 28.9916 73.6401 28.5123C72.9513 27.8703 72.0575 27.6362 71.1681 27.5537C70.0736 27.4534 68.968 27.4913 67.8668 27.4868C66.9685 27.4846 66.0702 27.5091 65.1719 27.518C64.4742 27.5247 63.7765 27.527 63.081 27.5314C62.7913 27.5314 62.6575 27.6384 62.6664 27.9639C62.6976 28.9961 62.7043 30.0283 62.7088 31.0605C62.7155 32.7057 62.711 34.351 62.711 35.9962H62.7779C62.7779 36.5023 62.7734 37.0061 62.7801 37.5099C62.7935 38.8431 62.8247 40.1762 62.8225 41.5094C62.8225 41.8036 62.8982 41.9396 63.1969 41.9352C64.4809 41.9218 65.7648 41.8928 67.0488 41.9062C67.401 41.9084 67.4411 41.7858 67.4344 41.4871C67.401 39.9845 67.3965 38.4819 67.3631 36.9771C67.3541 36.6784 67.4901 36.5959 67.7376 36.5914C68.2881 36.5848 68.8365 36.5848 69.3871 36.5781C70.506 36.5647 71.6183 36.5134 72.6549 36.0207C73.7627 35.4946 74.4805 34.6252 74.8037 33.457C75.1001 32.3936 75.0444 31.3168 74.7479 30.2557ZM69.3804 33.4124C68.8409 33.515 68.2859 33.5372 67.7353 33.5796C67.4812 33.5997 67.3029 33.5239 67.3252 33.1962C67.3519 32.8127 67.3319 32.427 67.3319 32.0436H67.285C67.285 31.6356 67.2806 31.2277 67.2873 30.8197C67.2895 30.6324 67.3385 30.5009 67.5837 30.521C68.2257 30.5767 68.8699 30.5968 69.5119 30.6525C70.0691 30.7015 70.3188 31.1273 70.4548 31.5799C70.7067 32.4226 70.3745 33.2251 69.3804 33.4124Z" fill="url(#paint6_linear)"/>
<path d="M19.6184 44.481C19.8926 44.481 20.1735 44.5167 20.4432 44.4743C21.054 44.3785 21.3883 44.6884 21.6937 45.1677C22.1105 45.8253 22.5608 46.4674 23.0557 47.0693C24.3931 48.7012 25.9757 50.07 27.8147 51.1022C28.9092 51.7152 30.0638 52.2302 31.2318 52.6939C32.8501 53.3359 34.5621 53.5767 36.2985 53.6547C39.1183 53.784 41.8199 53.2891 44.4279 52.2034C45.8946 51.5926 47.2477 50.8012 48.5071 49.856C49.869 48.8327 51.0415 47.6066 52.0468 46.2288C52.428 45.7072 52.7713 45.1565 53.1101 44.6036C53.3174 44.267 53.5849 44.0797 53.9861 44.0797C54.6459 44.0797 55.3079 44.0708 55.9677 44.0597C56.2375 44.0552 56.2531 44.1845 56.1416 44.3762C55.5843 45.3415 55.0783 46.3425 54.4542 47.2655C53.0989 49.2674 51.4004 50.9506 49.4299 52.3484C47.4706 53.7372 45.3307 54.765 43.0236 55.436C41.4476 55.8952 39.8383 56.1561 38.1977 56.2163C36.5103 56.2787 34.8318 56.2006 33.1845 55.8105C31.9853 55.5274 30.7905 55.213 29.618 54.8341C28.9181 54.6089 28.2449 54.27 27.5985 53.9133C26.689 53.4095 25.784 52.8812 24.9325 52.2859C23.5594 51.3251 22.3557 50.1747 21.2546 48.904C20.2738 47.7693 19.4535 46.5365 18.7157 45.2412C18.3412 44.5836 18.3434 44.5568 19.0812 44.481C19.2573 44.4632 19.4379 44.4788 19.6184 44.481Z" fill="url(#paint7_linear)"/>
<path d="M18.3123 26.022C18.6087 25.4669 18.8339 24.9609 19.137 24.5039C19.7545 23.5742 20.3697 22.6357 21.0696 21.7707C22.222 20.3462 23.584 19.1334 25.0708 18.0499C26.484 17.0222 28.0131 16.2219 29.6337 15.6177C30.7794 15.1919 31.9742 14.8843 33.1645 14.6012C34.7025 14.2355 36.2763 14.1709 37.85 14.2333C38.9979 14.2779 40.1504 14.3403 41.2716 14.6368C42.2546 14.8977 43.2532 15.1094 44.2139 15.4349C46.3182 16.1528 48.2508 17.205 50.014 18.5671C51.4718 19.693 52.7669 20.9793 53.8658 22.4484C54.539 23.3491 55.1096 24.3278 55.7204 25.2752C55.8519 25.4803 55.8474 25.652 55.542 25.6564C54.7775 25.6698 54.0151 25.6787 53.2506 25.681C52.8649 25.681 52.7379 25.3399 52.5752 25.0924C51.7415 23.815 50.7562 22.6758 49.6373 21.6414C48.2597 20.3684 46.7194 19.3474 45.0387 18.5181C43.6812 17.8471 42.2479 17.4101 40.7745 17.1158C38.7884 16.7213 36.7823 16.6856 34.7672 16.942C32.7766 17.1961 30.8908 17.7891 29.0942 18.6452C28.1803 19.0821 27.3489 19.6952 26.484 20.2347C25.2892 20.9815 24.2973 21.9669 23.3789 23.0124C22.6924 23.7927 22.1173 24.6778 21.5332 25.5427C21.3059 25.8771 21.1097 26.0934 20.6572 26.0622C19.9997 26.0198 19.3376 26.0644 18.6778 26.0689C18.5887 26.0778 18.4995 26.051 18.3123 26.022Z" fill="url(#paint8_linear)"/>
<path d="M17.9801 16.7346C17.6613 16.9509 17.6546 17.1114 17.9132 17.3299C18.3434 17.6932 18.7491 18.0856 19.2128 18.5114C18.972 18.7856 18.7603 19.0576 18.5106 19.2872C18.4504 19.3407 18.2186 19.2917 18.1272 19.2136C17.4808 18.6563 16.85 18.0811 16.2169 17.5104C15.7622 17.1002 15.3119 16.6834 14.8527 16.2776C14.6944 16.1394 14.6699 16.0257 14.8126 15.854C15.5816 14.9266 15.4122 15.1005 16.15 15.7292C16.3239 15.8763 16.4732 16.0569 16.6605 16.1817C16.7363 16.233 16.8812 16.1817 16.9948 16.1773C16.9859 16.0658 17.0194 15.912 16.9592 15.8518C16.6627 15.5553 16.344 15.2789 16.0274 15.0024C15.8313 14.8308 15.8157 14.6725 16.0118 14.4897C16.1166 14.3916 16.2147 14.2846 16.3061 14.1731C16.6204 13.7986 16.6248 13.7919 16.9681 14.1062C18.0247 15.0693 19.0723 16.0435 20.1356 16.9999C20.3741 17.2139 20.3563 17.3655 20.1244 17.5461C20.0576 17.5974 19.9974 17.6576 19.9417 17.72C19.5449 18.1659 19.643 18.2595 19.0924 17.769C18.7201 17.4369 18.359 17.0869 17.9801 16.7346Z" fill="url(#paint9_linear)"/>
<path d="M39.8562 9.71443C39.6378 8.21632 39.4349 6.71597 39.2053 5.21786C39.1897 5.11754 39.0159 4.97486 38.9044 4.96594C38.5232 4.93696 38.1376 4.95926 37.752 4.95703C37.3129 4.95703 37.2727 5.0083 37.2215 5.43188C37.1145 6.34367 36.9874 7.25547 36.8626 8.16504C36.7779 8.76473 36.6798 9.36442 36.5862 9.97972C36.7444 9.99756 36.8492 10.0065 36.954 10.0198C37.9058 10.1246 37.9058 10.1246 38.0039 9.16601C38.4965 9.04786 38.5411 9.07684 38.5857 9.5071C38.6302 9.96857 38.6793 10.0154 39.1518 10.0399C39.2833 10.0466 39.4193 10.0109 39.5464 10.031C39.8139 10.0734 39.8941 9.97749 39.8562 9.71443ZM37.9972 8.19402C38.0841 7.52299 38.1666 6.87426 38.2491 6.22552C38.2847 6.22329 38.3204 6.22329 38.3538 6.22329C38.4006 6.84082 38.4586 7.45834 38.4809 8.07587C38.4898 8.27428 38.3627 8.2988 37.9972 8.19402Z" fill="url(#paint10_linear)"/>
<path d="M16.1417 47.3813C16.106 48.0055 15.7271 48.3332 15.2656 48.6186C14.5702 49.0466 14.4364 49.002 14.1533 48.224C14.0597 47.9654 14.0909 47.7959 14.3584 47.6689C14.5858 47.5619 14.8087 47.4303 15.0004 47.2698C15.0851 47.1985 15.0895 47.0313 15.1297 46.9087C15.0093 46.8908 14.8644 46.8195 14.7752 46.8619C14.082 47.1918 13.3999 47.5418 12.7178 47.894C12.4749 48.0211 12.2363 48.1616 12.0112 48.3198C11.9466 48.3667 11.8864 48.545 11.9154 48.5784C11.9822 48.652 12.1249 48.73 12.2074 48.7055C12.4347 48.6431 12.6554 48.545 12.8627 48.4291C13.0433 48.3288 13.1681 48.3109 13.2729 48.516C13.391 48.7523 13.5337 48.9797 13.6295 49.2227C13.6585 49.2963 13.5983 49.4769 13.5359 49.5036C13.1725 49.6597 12.807 49.838 12.4236 49.9027C12.0469 49.9651 11.737 49.7043 11.4896 49.439C11.1419 49.0689 10.8945 48.6141 10.939 48.1058C10.9636 47.8138 11.124 47.4393 11.3492 47.2787C11.9421 46.8574 12.6019 46.5319 13.2372 46.1752C13.4668 46.0459 13.7053 45.93 13.946 45.8208C14.6036 45.5153 15.4529 45.7695 15.7917 46.4071C15.9522 46.7125 16.028 47.058 16.1417 47.3813Z" fill="url(#paint11_linear)"/>
<path d="M33.7082 9.99089C33.4051 8.71571 33.0997 7.44053 32.8077 6.16089C32.616 5.3182 32.7854 5.3405 31.8091 5.6147C31.5215 5.69496 31.4836 5.8421 31.5572 6.09178C31.6196 6.30803 31.653 6.53096 31.7132 6.80963C31.5371 6.76504 31.4457 6.74052 31.3543 6.716C30.6432 6.53765 30.1016 7.00135 30.2376 7.71251C30.3981 8.56189 30.5764 9.41126 30.806 10.245C31.0133 11.0008 31.6909 11.1524 32.2816 10.6196C32.3463 10.5616 32.4755 10.4702 32.5112 10.4925C32.8233 10.6998 33.1153 10.5148 33.4162 10.4769C33.735 10.439 33.7706 10.254 33.7082 9.99089ZM32.2103 10.0711C32.1278 9.99981 31.9941 9.93962 31.9718 9.85267C31.7823 9.1103 31.604 8.36348 31.4457 7.61442C31.4234 7.5141 31.5215 7.38926 31.5661 7.27779C31.6619 7.35136 31.8202 7.41155 31.8447 7.50518C32.0453 8.25647 32.2192 9.01444 32.4087 9.79917C32.3396 9.89503 32.2749 9.98197 32.2103 10.0711Z" fill="url(#paint12_linear)"/>
<path d="M32.8261 59.5805C33.1649 59.6852 33.5193 59.7588 33.8403 59.9037C34.324 60.1244 34.5001 60.4856 34.4444 61.0162C34.4154 61.3015 34.3775 61.5891 34.3329 61.8722C34.3218 61.9525 34.266 62.0929 34.2438 62.0907C33.9451 62.0573 33.6397 62.026 33.3521 61.9436C33.2607 61.9168 33.1627 61.7429 33.1582 61.6337C33.1515 61.4353 33.2184 61.2346 33.2407 61.0318C33.2652 60.8244 33.3521 60.5525 33.0646 60.4989C32.9732 60.4811 32.7637 60.7152 32.7213 60.8668C32.5764 61.3974 32.4739 61.9391 32.3713 62.4808C32.2978 62.871 32.2309 63.2633 32.1997 63.6557C32.1908 63.7738 32.3201 63.9009 32.3847 64.0235C32.4895 63.9321 32.6009 63.8452 32.699 63.7471C32.7302 63.7181 32.7302 63.6579 32.7436 63.6111C32.9353 62.9312 33.1983 62.7952 33.8715 63.0649C33.9517 63.0984 34.0253 63.2522 34.0298 63.3547C34.0342 63.4929 33.9674 63.6334 33.9361 63.7738C33.6575 65.0758 32.5898 65.02 31.7784 64.7057C31.1677 64.4694 30.86 64.0347 30.9938 63.3525C31.1766 62.4117 31.3148 61.4598 31.5421 60.5302C31.6647 60.0531 32.0192 59.5559 32.8261 59.5805Z" fill="url(#paint13_linear)"/>
<path d="M42.1924 6.40382C42.237 6.38152 42.3306 6.32802 42.4309 6.29012C43.1732 6.01368 43.7037 6.46624 43.6012 7.08599C43.4585 7.93537 43.3916 8.7959 43.2802 9.65196C43.2467 9.91056 43.2601 10.2606 43.1041 10.3899C42.9547 10.5125 42.6114 10.3899 42.3551 10.3988C42.0297 10.4099 41.9472 10.3007 42.0051 9.96407C42.1656 9.04335 42.2771 8.11149 42.4175 7.18854C42.4487 6.98345 42.3908 6.82293 42.1968 6.82516C42.1144 6.82516 41.9784 7.02357 41.9583 7.14619C41.8045 8.09365 41.6797 9.04558 41.5326 9.99528C41.5192 10.08 41.41 10.2227 41.352 10.2182C41.031 10.1937 40.7123 10.1402 40.3958 10.0778C40.3601 10.0711 40.3155 9.95961 40.3222 9.90387C40.4448 9.0166 40.5785 8.12932 40.7078 7.24205C40.7502 6.94555 40.7925 6.64904 40.8282 6.35254C40.8616 6.06496 41.0065 5.94457 41.2941 6.00923C41.4702 6.04712 41.6552 6.06496 41.8201 6.12961C41.9383 6.1742 42.0319 6.2812 42.1924 6.40382Z" fill="url(#paint14_linear)"/>
<path d="M60.5221 48.8102C60.58 48.5628 60.6068 48.2574 60.7271 47.9921C60.8921 47.6287 61.2866 47.5083 61.6344 47.6978C62.1938 47.9988 62.7355 48.3287 63.2839 48.6475C63.6762 48.8749 64.0707 49.1045 64.463 49.3319C64.5254 49.3676 64.6414 49.43 64.6391 49.4367C64.4987 49.7443 64.3627 50.0542 64.1866 50.3396C64.1532 50.3931 63.9236 50.3842 63.8277 50.3284C63.1501 49.9428 62.4881 49.537 61.8149 49.1424C61.65 49.0466 61.4761 48.9507 61.2955 48.8972C61.193 48.8682 61.0659 48.9217 60.9523 48.9396C61.0058 49.0376 61.0325 49.1736 61.115 49.2271C61.6901 49.5972 62.2741 49.9517 62.8581 50.3106C63.1234 50.4733 63.3953 50.6294 63.6606 50.7944C63.7163 50.83 63.7988 50.9237 63.7854 50.9482C63.6383 51.2335 63.509 51.5412 63.2995 51.7753C63.2326 51.8488 62.9138 51.7686 62.7556 51.6794C61.8216 51.1377 60.9055 50.5647 59.9692 50.0208C59.7307 49.8826 59.6973 49.7555 59.8422 49.5392C59.9425 49.3899 60.0027 49.2071 60.1208 49.0755C60.2211 48.9641 60.3772 48.9017 60.5221 48.8102Z" fill="url(#paint15_linear)"/>
<path d="M57.0382 58.2538C56.7462 57.9171 56.4743 57.5627 56.1822 57.2283C55.995 57.0187 55.9192 56.8448 56.1934 56.6375C56.3338 56.5327 56.4364 56.3722 56.55 56.2318C56.7596 55.9732 56.8398 55.6744 56.6303 55.4024C56.2959 54.9655 55.9281 54.5531 55.5492 54.154C55.4533 54.0537 55.2639 54.0425 55.1034 53.9868C54.9251 54.0492 54.7222 54.0782 54.5729 54.183C54.1293 54.4906 53.7147 54.8362 53.2778 55.1505C53.0526 55.3133 53.0682 55.4426 53.2377 55.6454C54.0646 56.6464 54.8693 57.6652 55.6985 58.664C56.2135 59.2882 56.1042 59.4888 56.8487 58.8066C56.8911 58.7665 56.9446 58.7353 56.9936 58.7019C57.1876 58.5703 57.1898 58.4299 57.0382 58.2538ZM55.3575 56.1849C55.0989 55.8795 54.8381 55.5741 54.5617 55.2464C54.8827 54.9833 55.0878 55.048 55.4021 55.4559C55.6428 55.7703 55.6384 55.9865 55.3575 56.1849Z" fill="url(#paint16_linear)"/>
<path d="M40.0166 61.355C40.2284 61.1164 40.5137 60.9715 40.9283 61.0451C41.2538 61.1031 41.4455 61.2234 41.4789 61.5467C41.5703 62.3961 41.6528 63.2432 41.7375 64.0926C41.762 64.3445 41.7887 64.5964 41.8088 64.8483C41.8266 65.049 41.7531 65.1716 41.5302 65.1761C41.3028 65.1783 41.071 65.2206 40.8503 65.1894C40.7545 65.1761 40.614 65.0267 40.6051 64.9286C40.5293 64.1394 40.4825 63.3458 40.4223 62.5566C40.409 62.3649 40.4045 62.1665 40.3465 61.9859C40.3153 61.8878 40.1816 61.8209 40.0947 61.7384C40.0389 61.8321 39.9319 61.9279 39.9342 62.0216C39.9564 62.6458 40.001 63.2722 40.0412 63.8964C40.0634 64.2442 40.0857 64.5942 40.1236 64.9398C40.1481 65.1716 40.059 65.2585 39.8294 65.2853C38.9935 65.3856 38.9534 65.3789 38.8776 64.5764C38.7817 63.5598 38.726 62.5388 38.6569 61.5177C38.6458 61.3416 38.6993 61.219 38.9155 61.2078C39.1183 61.1989 39.3212 61.1231 39.5196 61.1387C39.6689 61.1521 39.8093 61.2613 40.0166 61.355Z" fill="url(#paint17_linear)"/>
<path d="M22.7862 14.695C22.1821 14.0284 21.6047 13.3329 21.0074 12.6574C20.5303 12.1179 20.1313 12.0577 19.5183 12.4344C18.7515 12.9026 18.2812 13.7141 18.9276 14.5367C19.0993 14.7552 19.2419 14.8087 19.4492 14.6058C19.6209 14.4386 19.8928 14.3049 19.9441 14.1109C19.9842 13.9571 19.7435 13.7386 19.6565 13.538C19.6209 13.4555 19.6476 13.3351 19.6766 13.2437C19.6855 13.2147 19.8037 13.1946 19.8594 13.2125C20.1581 13.3106 20.3587 13.801 20.2316 14.0975C20.0868 14.4408 19.9285 14.7775 19.8126 15.1297C19.7702 15.2635 19.7791 15.4641 19.8549 15.5733C20.0355 15.8364 20.2428 16.0995 20.488 16.3023C20.9516 16.6858 21.5401 16.5253 21.7586 15.9813C21.8121 15.8542 21.8143 15.7049 21.8589 15.4686C22.0283 15.7472 22.1665 15.7316 22.327 15.5644C22.4429 15.4418 22.5788 15.3415 22.7171 15.2456C22.9511 15.0829 23.0046 14.9358 22.7862 14.695ZM21.4755 15.3972C21.4465 15.4374 21.3172 15.4374 21.2503 15.4106C20.9093 15.2679 20.6841 14.7217 20.8335 14.2759C21.0765 14.5924 21.2971 14.8666 21.4978 15.1542C21.5356 15.21 21.52 15.3415 21.4755 15.3972Z" fill="url(#paint18_linear)"/>
<path d="M50.3884 61.4486C50.2301 61.0072 50.0585 60.5702 49.8958 60.131C49.5302 59.1523 49.1245 58.9316 48.117 59.11C47.2856 59.2571 46.8152 59.9995 47.0827 60.7151C47.3056 61.3103 47.533 61.9033 47.7693 62.4963C47.9632 62.9801 48.2886 63.2722 48.8504 63.2811C49.5391 63.29 50.5199 62.746 50.4887 61.8476C50.4709 61.7718 50.4441 61.6046 50.3884 61.4486ZM49.2717 62.4607C49.1825 62.4518 49.0643 62.3849 49.0265 62.3069C48.837 61.9189 48.6676 61.5199 48.4982 61.1231C48.3711 60.8266 48.2374 60.5278 48.1393 60.2202C48.1036 60.1065 48.1638 59.9638 48.1816 59.8323C48.2842 59.8947 48.438 59.9304 48.4781 60.0196C48.8147 60.7463 49.1268 61.4842 49.4522 62.2311C49.3764 62.3336 49.3162 62.4674 49.2717 62.4607Z" fill="url(#paint19_linear)"/>
<path d="M60.3639 54.0115C59.9805 53.5812 59.5592 53.1844 59.1245 52.8032C58.1392 51.9404 57.1986 52.4554 56.7728 53.3315C56.5432 53.8041 56.5611 54.2455 56.9356 54.6156C57.4549 55.1306 57.9921 55.6277 58.5494 56.1026C58.7099 56.2408 58.9618 56.3389 59.1713 56.3389C59.8779 56.3456 60.6603 55.5096 60.7383 54.7605C60.618 54.5086 60.5444 54.2121 60.3639 54.0115ZM59.6639 55.2978C59.5525 55.2933 59.4143 55.2911 59.3385 55.2265C58.9417 54.8787 58.5583 54.5153 58.1727 54.1541C58.0055 54.0003 57.8294 53.8487 57.6867 53.6748C57.6243 53.5968 57.6332 53.463 57.611 53.356C57.7135 53.3627 57.8517 53.3315 57.9186 53.3872C58.2775 53.6815 58.6252 53.9914 58.9685 54.308C59.207 54.5264 59.4321 54.7583 59.6595 54.9879C59.7063 55.037 59.7375 55.1016 59.7865 55.1707C59.7375 55.222 59.6996 55.3 59.6639 55.2978Z" fill="url(#paint20_linear)"/>
<path d="M27.9333 11.7743C27.4853 10.9116 27.0395 10.0466 26.5803 9.18829C26.5112 9.05676 26.3908 8.92969 26.2638 8.85389C25.7511 8.5507 24.8795 8.77363 24.3981 9.31091C23.9589 9.79913 23.9522 10.3587 24.3958 10.9762C24.4605 10.9517 24.5051 10.9361 24.5474 10.9183C24.777 10.8157 25.0467 10.76 25.2295 10.6017C25.5126 10.3609 25.176 10.1358 25.127 9.89945C25.1247 9.8883 25.1158 9.87493 25.118 9.86601C25.1381 9.77684 25.1604 9.68989 25.1805 9.60295C25.2763 9.6297 25.3989 9.62747 25.4635 9.68766C25.7645 9.97748 25.7756 10.2918 25.5215 10.6284C25.4145 10.7733 25.3231 10.9339 25.1961 11.0609C24.7436 11.5202 24.7904 11.9906 25.1381 12.481C25.2005 12.568 25.2406 12.6705 25.3008 12.7619C25.5104 13.0763 25.8692 13.2212 26.2036 13.0406C26.4555 12.9024 26.645 12.6505 26.8233 12.4855C27.015 12.4632 27.2044 12.4632 27.3828 12.4164C27.5187 12.3807 27.6324 12.267 27.7684 12.2224C28.0225 12.1377 28.0426 11.9839 27.9333 11.7743ZM26.5157 12.0842C26.4778 12.1199 26.373 12.1266 26.3217 12.102C25.9918 11.9438 25.8403 11.2527 26.1011 10.9071C26.2727 11.246 26.4399 11.5558 26.5848 11.8746C26.6093 11.9259 26.5647 12.0374 26.5157 12.0842Z" fill="url(#paint21_linear)"/>
<path d="M46.7352 7.15514C46.5613 7.07488 46.3808 7.00577 46.2002 6.94781C45.391 6.68475 44.6978 7.06374 44.5217 7.8663C44.5083 7.93318 44.5373 8.03796 44.5864 8.08254C45.0567 8.53287 45.4802 8.4437 45.7165 7.86853C45.7544 7.77712 45.8926 7.72585 45.984 7.65674C46.0419 7.77044 46.1623 7.89082 46.1467 7.99114C46.0887 8.35006 45.9037 8.60644 45.4936 8.63319C45.2662 8.64879 45.0433 8.71344 44.8159 8.73797C44.3791 8.78032 44.1673 9.05453 44.0581 9.44467C44.0246 9.56059 44.0068 9.67875 43.9711 9.79467C43.8552 10.1625 43.8418 10.5192 44.1784 10.7778C44.5284 11.0453 44.9051 11.0275 45.1971 10.8558C45.3732 10.9807 45.5003 11.0921 45.6452 11.1702C45.7588 11.2326 45.9104 11.2304 46.0152 11.2995C46.2492 11.4555 46.383 11.4199 46.4588 11.1434C46.7173 10.1692 46.9893 9.19944 47.2456 8.22299C47.3705 7.74814 47.1743 7.35801 46.7352 7.15514ZM45.5047 10.1647C45.4713 10.2584 45.3286 10.3119 45.235 10.3854C45.1882 10.2784 45.0901 10.1625 45.1035 10.0622C45.157 9.66983 45.2395 9.2797 45.7856 9.17269C45.6875 9.53384 45.6162 9.85709 45.5047 10.1647Z" fill="url(#paint22_linear)"/>
<path d="M25.9494 58.118C25.8491 58.0489 25.7532 57.9731 25.644 57.9262C24.768 57.5517 24.3043 57.4982 23.7738 58.3431C23.6713 58.5103 23.6423 58.6196 23.8318 58.7622C24.4225 59.2081 24.4804 59.2059 24.9173 58.6352C24.973 58.5616 25.0823 58.5304 25.167 58.4791C25.2182 58.5794 25.3141 58.6798 25.3141 58.7801C25.3119 59.1056 25.0043 59.3753 24.681 59.3686C24.4537 59.3642 24.2241 59.3597 23.9967 59.3552C23.25 59.3374 23.085 59.4444 22.7908 60.1288C22.7574 60.2046 22.7239 60.2827 22.6883 60.3607C22.5144 60.753 22.6236 61.1588 23.007 61.3349C23.25 61.4464 23.5353 61.4642 23.834 61.5311C23.8385 61.89 24.2531 61.8967 24.5005 62.0906C24.7635 62.2935 24.9039 62.1754 25.0265 61.9346C25.4501 61.112 25.8758 60.2916 26.2971 59.4667C26.5646 58.945 26.4331 58.4479 25.9494 58.118ZM24.1773 60.8979C24.1305 60.9693 23.9878 60.9737 23.8875 61.0094C23.8585 60.889 23.7783 60.753 23.8117 60.655C23.941 60.2827 24.1461 59.9705 24.7323 59.9705C24.525 60.325 24.3667 60.6215 24.1773 60.8979Z" fill="url(#paint23_linear)"/>
<path d="M36.6334 61.0472C35.9535 60.9313 35.3584 61.2947 35.1979 61.9702C35.0864 62.4472 35.0307 62.9377 34.9504 63.4215C34.9705 63.4237 34.9883 63.4259 35.0062 63.4282C35.0062 63.7046 35.0151 63.9788 35.0039 64.2552C34.9861 64.681 35.1934 64.9508 35.5612 65.1358C35.9892 65.3498 36.4305 65.3677 36.8897 65.283C37.3355 65.2005 37.69 64.8794 37.739 64.4336C37.8081 63.8027 37.8683 63.1695 37.8861 62.5364C37.9106 61.6157 37.5406 61.201 36.6334 61.0472ZM36.6445 63.8294C36.6312 64.0323 36.6111 64.2374 36.5621 64.4336C36.5464 64.5049 36.4238 64.6142 36.3815 64.6008C36.299 64.5763 36.1853 64.4826 36.1787 64.4068C36.1519 64.1594 36.1675 63.9052 36.1675 63.6912C36.2165 63.1272 36.25 62.6011 36.3146 62.0794C36.328 61.9679 36.464 61.8743 36.542 61.7717C36.6066 61.8743 36.7225 61.9768 36.7225 62.0794C36.7114 62.6635 36.678 63.2453 36.6445 63.8294Z" fill="url(#paint24_linear)"/>
<path d="M50.6787 11.6516C50.9974 11.1634 51.3184 10.6774 51.6349 10.1892C51.6617 10.149 51.675 10.1022 51.6951 10.0576C51.9827 9.48914 52.3638 9.40666 52.8342 9.84361C52.8988 9.9038 52.8854 10.1356 52.823 10.2315C52.3504 10.956 51.8556 11.6672 51.3652 12.3806C51.1869 12.637 51.0041 12.8911 50.8169 13.1408C50.4803 13.5844 50.1392 13.6736 49.6332 13.4551C49.3702 13.3414 49.0982 13.2389 48.8553 13.0917C48.7594 13.0338 48.6502 12.8376 48.6836 12.764C48.7327 12.6526 48.8999 12.5277 49.018 12.5255C49.29 12.5188 49.4014 12.394 49.4705 12.1554C49.7558 11.15 50.0567 10.1513 50.3443 9.14582C50.4691 8.71556 50.5271 8.67989 50.9506 8.83595C51.441 9.01652 51.4655 9.06111 51.3006 9.55156C51.0687 10.2382 50.8302 10.9226 50.5939 11.6092C50.6229 11.6226 50.6497 11.636 50.6787 11.6516Z" fill="url(#paint25_linear)"/>
<path d="M56.5453 16.097C56.6545 16.1951 56.7659 16.2999 56.8841 16.4002C57.1426 16.6187 57.2964 16.8283 56.9465 17.1159C56.8685 17.1805 56.8974 17.3767 56.8752 17.5127C57.0267 17.4859 57.2452 17.5104 57.3143 17.419C57.4257 17.2786 57.4815 17.0579 57.477 16.8729C57.4725 16.6365 57.3878 16.4025 57.3366 16.1684C57.1828 15.4751 57.3655 15.1451 57.9652 14.6502C58.2126 14.4473 58.5313 14.4027 58.8144 14.561C59.3628 14.8665 59.8175 15.2677 59.9111 15.9454C59.9579 16.2776 59.744 16.69 59.4542 16.8193C59.443 16.8238 59.4274 16.8372 59.423 16.8327C59.2335 16.6834 59.0284 16.5474 58.8679 16.3713C58.7944 16.2888 58.7966 16.1238 58.7966 15.9967C58.7966 15.9388 58.9014 15.8875 58.917 15.8251C58.9393 15.7225 58.9259 15.611 58.9281 15.5018C58.8189 15.513 58.6473 15.4817 58.6094 15.5397C58.5001 15.7069 58.3865 15.9076 58.382 16.097C58.3798 16.3556 58.4645 16.6187 58.5358 16.8729C58.7543 17.6464 58.489 18.0299 57.7445 18.4847C57.4012 18.6942 56.7258 18.4312 56.3402 17.9875C55.6871 17.2318 55.7517 16.5518 56.5453 16.097Z" fill="url(#paint26_linear)"/>
<path d="M51.8199 13.5088C51.8935 13.3595 52.0071 13.0964 52.1498 12.8512C52.1766 12.8044 52.3326 12.7865 52.3995 12.8177C52.5622 12.8913 52.7093 12.9983 52.8609 13.0942C53.0347 13.2034 53.0816 13.335 52.9478 13.5133C52.8899 13.5891 52.823 13.6783 52.8163 13.7652C52.8096 13.8588 52.8408 13.9971 52.9077 14.0417C52.9701 14.084 53.1239 14.0662 53.1908 14.0127C53.4115 13.8366 53.4583 13.5913 53.358 13.3283C53.2621 13.0808 53.144 12.8445 53.0459 12.5993C52.7918 11.9661 52.9835 11.2617 53.5407 10.8782C53.67 10.7891 53.8662 10.7177 54.0133 10.7445C54.6374 10.8582 55.1724 11.1391 55.4867 11.7254C55.6784 12.0821 55.616 12.4343 55.353 12.7263C55.2861 12.7999 55.0944 12.8289 54.9985 12.7888C54.8269 12.7152 54.6486 12.5993 54.5394 12.4521C54.4725 12.363 54.5371 12.1802 54.526 12.0397C54.5171 11.9171 54.4903 11.7967 54.4703 11.6741C54.3588 11.7187 54.1738 11.7387 54.1515 11.8101C54.0913 11.9974 54.0534 12.2203 54.098 12.4075C54.156 12.6483 54.2964 12.869 54.4101 13.0942C54.7868 13.8455 54.39 14.4652 53.8528 14.8866C53.4917 15.1675 53.1217 14.9601 52.765 14.8063C52.2256 14.57 51.8132 14.0662 51.8199 13.5088Z" fill="url(#paint27_linear)"/>
<path d="M21.1479 59.8656C20.5973 59.8077 20.1448 59.5847 19.8104 59.1567C19.5608 58.8357 19.4961 58.4455 19.7191 58.1089C20.1983 57.3799 20.7088 56.6688 21.2482 55.9844C21.3596 55.8439 21.6583 55.8149 21.8746 55.7971C22.5009 55.7458 23.5842 56.5194 23.368 57.3286C23.3034 57.5761 23.1496 57.8013 23.0337 58.0331C23.0203 58.0621 22.9646 58.1022 22.9534 58.0955C22.7216 57.9595 22.4831 57.8302 22.2736 57.6653C22.2111 57.6162 22.2267 57.4557 22.229 57.3487C22.2312 57.2952 22.2869 57.2462 22.3137 57.1927C22.3872 57.0321 22.6079 56.856 22.3649 56.7089C22.2914 56.6643 22.0417 56.807 21.9481 56.9251C21.5447 57.4312 21.1657 57.9595 20.7845 58.4834C20.7288 58.5592 20.6709 58.6551 20.6709 58.742C20.6709 58.8491 20.7288 58.9561 20.7623 59.0631C20.8581 59.0319 20.9718 59.0252 21.0476 58.965C21.159 58.878 21.2237 58.7175 21.344 58.6573C21.4711 58.5904 21.6717 58.5369 21.7832 58.5927C21.9882 58.693 22.151 58.8758 22.3315 59.0252C22.0997 59.2749 21.8857 59.5468 21.6271 59.7631C21.5157 59.8589 21.3084 59.8367 21.1479 59.8656Z" fill="url(#paint28_linear)"/>
<path d="M52.8852 61.4709C52.5553 61.6359 52.2789 61.7785 51.998 61.9078C51.8308 61.9836 51.7305 61.9324 51.6347 61.7495C50.957 60.4744 50.2705 59.2037 49.5683 57.9396C49.4212 57.6766 49.4792 57.5227 49.7132 57.3756C50.4421 56.9141 50.4577 56.903 50.8634 57.6364C51.5009 58.789 52.1139 59.9549 52.7358 61.1164C52.7916 61.219 52.8272 61.3304 52.8852 61.4709Z" fill="url(#paint29_linear)"/>
<path d="M23.9297 13.4174C24.1682 13.2725 24.3376 13.1856 24.4914 13.0764C24.6653 12.9537 24.7968 12.9649 24.9082 13.1522C25.013 13.3305 25.2158 13.4977 24.9662 13.7117C24.9127 13.7585 24.8592 13.8076 24.799 13.8477C24.4379 14.084 24.0723 14.3159 23.7135 14.5566C23.5173 14.6859 23.3301 14.6748 23.2141 14.4831C23.0737 14.2512 22.9444 13.9971 22.8798 13.7362C22.7171 13.083 22.5945 12.4209 22.4518 11.7633C22.4295 11.663 22.3849 11.5671 22.3337 11.4222C22.1888 11.5091 22.0662 11.5582 21.9748 11.6429C21.7229 11.8814 21.5602 11.7744 21.3952 11.5359C21.2347 11.3018 21.2347 11.1346 21.5045 10.9786C21.8678 10.7712 22.2267 10.5483 22.5677 10.3031C22.8196 10.1225 22.94 10.1983 23.1183 10.4234C23.5195 10.9384 23.524 11.5649 23.6644 12.1512C23.7558 12.5435 23.8294 12.9426 23.9297 13.4174Z" fill="url(#paint30_linear)"/>
<path d="M27.7749 58.0354C28.1159 58.1758 28.4235 58.2784 28.7021 58.43C28.7757 58.4701 28.8225 58.6841 28.7846 58.7822C28.5483 59.4109 28.2898 60.0306 28.0334 60.6504C27.7303 61.3816 27.4137 62.1084 27.1217 62.8441C27.0081 63.1272 26.8632 63.1762 26.5957 63.0425C25.8735 62.6791 25.8556 62.6791 26.1521 61.9412C26.5065 61.0628 26.8921 60.2001 27.2577 59.3284C27.4338 58.9138 27.5943 58.4924 27.7749 58.0354Z" fill="url(#paint31_linear)"/>
<path d="M43.6638 64.7812C43.2983 64.7523 42.9973 64.6631 42.9171 64.2663C42.7588 63.4882 42.6139 62.7102 42.4401 61.9366C42.4066 61.785 42.2484 61.6646 42.1926 61.5153C42.1347 61.357 42.1057 61.1809 42.1057 61.0114C42.1057 60.8911 42.2372 60.7484 42.2016 60.6525C42.0857 60.327 42.2461 60.2379 42.5136 60.2C42.6318 60.1821 42.7566 60.1754 42.8681 60.1375C43.1935 60.0261 43.3651 60.1219 43.4097 60.4742C43.4186 60.55 43.5368 60.6325 43.6215 60.677C43.8711 60.8108 43.909 61.0315 43.7352 61.2567C43.6616 61.3548 43.5947 61.5086 43.6126 61.62C43.7329 62.3067 43.8644 62.9933 44.0249 63.671C44.0584 63.8137 44.2367 63.9163 44.3281 64.05C44.4195 64.1838 44.5131 64.3287 44.5465 64.4825C44.5577 64.5316 44.386 64.6564 44.279 64.6854C44.074 64.7433 43.8555 64.7545 43.6638 64.7812Z" fill="url(#paint32_linear)"/>
<path d="M50.0299 7.52323C49.894 7.871 49.7714 8.19649 49.6421 8.51751C49.2208 9.56084 48.7928 10.6019 48.376 11.6475C48.1977 12.0956 48.1843 12.1112 47.7184 11.9306C47.0452 11.6698 47.043 11.6698 47.3283 10.9653C47.8209 9.74364 48.3225 8.5242 48.8017 7.29806C48.902 7.04169 49.0336 6.98818 49.2654 7.08851C49.4838 7.18437 49.7067 7.27577 49.9185 7.38055C49.9698 7.40507 49.9987 7.48087 50.0299 7.52323Z" fill="url(#paint33_linear)"/>
<path d="M18.5976 52.5733C18.7024 52.5131 18.8227 52.4707 18.9074 52.3905C19.0902 52.2188 19.2418 52.2389 19.3956 52.4217C19.4803 52.522 19.5628 52.6312 19.6675 52.7093C19.9462 52.9211 19.9551 53.115 19.6898 53.3513C19.6274 53.4071 19.6497 53.552 19.6207 53.65C19.5873 53.766 19.5672 53.9064 19.487 53.98C19.4157 54.0424 19.273 54.0246 19.1615 54.0446C19.0679 54.0625 18.9476 54.0536 18.8896 54.1093C18.3702 54.5931 17.8531 55.0791 17.3605 55.5896C17.2579 55.6966 17.2735 55.9084 17.2089 56.06C17.1532 56.1915 17.0885 56.3431 16.9793 56.4167C16.9102 56.4635 16.7542 56.3877 16.6382 56.3632C16.6293 56.3609 16.6204 56.3476 16.6115 56.3386C15.867 55.6453 15.8558 55.3377 16.5803 54.622C17.015 54.1918 17.4808 53.7905 17.9133 53.358C18.0359 53.2332 18.1139 53.0481 18.1674 52.8765C18.2343 52.6602 18.31 52.4975 18.5976 52.5733Z" fill="url(#paint34_linear)"/>
<path d="M64.9712 48.213C64.7549 48.1394 64.5566 48.0882 64.3693 48.0079C63.6984 47.7181 63.0341 47.4149 62.3609 47.1318C62.2539 47.0872 62.1046 47.1541 61.9864 47.1229C61.8193 47.0805 61.6454 47.0203 61.5072 46.9244C61.3757 46.8308 61.3021 46.6502 61.1684 46.5633C61.0168 46.4652 60.9589 46.3872 61.048 46.2177C61.1104 46.1018 61.1483 45.9747 61.1996 45.8521C61.3155 45.5668 61.4359 45.3126 61.826 45.52C61.8973 45.5579 62.031 45.5066 62.1246 45.4687C62.3966 45.355 62.5749 45.4509 62.6418 45.7295C62.6685 45.8388 62.751 45.977 62.8469 46.0216C63.4978 46.327 64.1553 46.6213 64.8196 46.8977C64.9399 46.9467 65.1004 46.8955 65.2431 46.8977C65.4237 46.9022 65.6042 46.9178 65.7848 46.9289C65.7647 47.0738 65.7825 47.2366 65.7179 47.3569C65.5841 47.6066 65.4192 47.8407 65.2453 48.0636C65.1851 48.1417 65.0626 48.1662 64.9712 48.213Z" fill="url(#paint35_linear)"/>
<path d="M27.26 7.9355C27.6033 7.81066 27.8886 7.67244 28.1895 7.61894C28.3121 7.59664 28.4659 7.7683 28.6376 7.86862C28.671 7.78168 28.7156 7.61448 28.8003 7.4718C28.8471 7.38931 28.9496 7.31352 29.041 7.29122C29.0812 7.28231 29.1748 7.40715 29.2104 7.48741C29.2929 7.67467 29.342 7.87531 29.4244 8.06035C29.5515 8.3457 29.5582 8.55972 29.2439 8.76036C29.1257 8.83615 29.0522 9.13043 29.0968 9.28648C29.2639 9.88617 29.4735 10.4747 29.6919 11.0588C29.7878 11.3152 29.7499 11.4422 29.4891 11.5582C28.6955 11.9082 28.6933 11.9171 28.4057 11.1145C28.029 10.0757 27.6568 9.03902 27.26 7.9355Z" fill="url(#paint36_linear)"/>
<path d="M16.4202 50.2351C16.6699 50.3287 16.8972 50.4157 17.1246 50.5026C17.1202 50.545 17.1179 50.5896 17.1135 50.6319C16.8059 50.8348 16.5094 51.051 16.1884 51.2271C16.1104 51.2717 15.9142 51.2272 15.8518 51.1558C15.6178 50.8928 15.3703 50.9128 15.1118 51.08C14.637 51.3832 14.1711 51.6975 13.703 52.0119C13.2973 52.2861 13.1925 52.2705 12.934 51.8581C12.827 51.6864 12.7267 51.5103 12.5818 51.2717C13.0321 50.9752 13.4779 50.6854 13.9192 50.3911C14.5055 49.9988 15.0962 49.6153 15.669 49.2029C15.9209 49.0223 16.0903 49.0045 16.2419 49.301C16.2843 49.3857 16.3556 49.4548 16.4135 49.5306C16.7033 49.9007 16.7033 49.9052 16.4202 50.2351Z" fill="url(#paint37_linear)"/>
<path d="M45.5763 60.5656C45.7279 60.3204 45.8639 60.0952 46.0021 59.8723C46.0467 59.879 46.0935 59.8835 46.1381 59.8902C46.254 60.2736 46.3788 60.6526 46.4747 61.0405C46.4903 61.1051 46.3944 61.2411 46.3164 61.2813C45.9731 61.4618 45.9285 61.7405 46.0177 62.0749C46.1626 62.6211 46.3008 63.1695 46.4613 63.7112C46.5482 64.0055 46.4747 64.1616 46.1715 64.2418C45.4203 64.4447 45.4003 64.4402 45.184 63.6956C44.9009 62.7147 44.6178 61.736 44.3392 60.7551C44.3169 60.6793 44.3058 60.53 44.3325 60.5188C44.6312 60.3895 44.9366 60.2624 45.2509 60.1867C45.3089 60.1733 45.4225 60.3895 45.5117 60.4988C45.5273 60.5144 45.5429 60.53 45.5763 60.5656Z" fill="url(#paint38_linear)"/>
<path d="M57.7067 13.393C57.6532 13.4822 57.6175 13.5602 57.5663 13.6226C56.8017 14.5188 56.0349 15.4128 55.2726 16.309C55.0942 16.5185 54.9248 16.5453 54.7331 16.3357C54.6685 16.2644 54.5972 16.1998 54.5236 16.1373C54.109 15.7896 54.1068 15.7071 54.45 15.308C55.1567 14.4899 55.8633 13.6717 56.5543 12.8424C56.7281 12.635 56.8552 12.6128 57.0491 12.7978C57.2052 12.9449 57.3902 13.0631 57.5551 13.2035C57.6131 13.2503 57.6554 13.3239 57.7067 13.393Z" fill="url(#paint39_linear)"/>
<path d="M18.1897 51.8801C18.1028 52.005 18.0649 52.1008 17.9936 52.1566C17.0819 52.9012 16.1657 53.6413 15.2541 54.3837C15.0735 54.5308 14.9219 54.4907 14.7882 54.3257C14.65 54.1585 14.4962 54.0002 14.3959 53.8107C14.3468 53.7193 14.3624 53.5098 14.4293 53.454C15.2607 52.7696 16.1078 52.1031 16.9526 51.432C16.9793 51.4097 17.0217 51.4053 17.0462 51.3808C17.1822 51.2381 17.3003 50.9906 17.5344 51.189C17.7729 51.3919 17.9691 51.6438 18.1897 51.8801Z" fill="url(#paint40_linear)"/>
<path d="M62.5305 52.937C62.2875 53.209 62.049 53.4854 61.7927 53.7418C61.7637 53.7707 61.6099 53.7061 61.5386 53.6526C60.638 52.9771 59.7464 52.2882 58.8414 51.6172C58.5739 51.4188 58.5494 51.2627 58.7567 50.9841C59.2471 50.3264 59.227 50.322 59.8779 50.8213C60.6759 51.4344 61.4828 52.0363 62.292 52.636C62.3789 52.7007 62.4948 52.723 62.5974 52.7653C62.5729 52.8233 62.5528 52.879 62.5305 52.937Z" fill="url(#paint41_linear)"/>
<path d="M18.4063 57.9974C18.1633 57.7945 17.9917 57.6674 17.8378 57.5203C17.4589 57.1547 17.4455 57.1168 17.7888 56.7289C18.5199 55.8996 19.231 55.0457 20.0246 54.2788C20.4637 53.8575 20.6197 54.553 20.9251 54.6957C21.1435 54.796 21.0566 54.961 20.905 55.126C20.1672 55.933 19.445 56.7534 18.7206 57.5738C18.6113 57.6986 18.5199 57.8413 18.4063 57.9974Z" fill="url(#paint42_linear)"/>
<path d="M36.0243 7.67233C35.9976 8.25419 35.5807 8.67776 35.048 8.66215C34.4707 8.64432 34.0471 8.18731 34.056 7.59653C34.065 7.11054 34.5955 6.63569 35.1037 6.65798C35.6097 6.68028 36.0466 7.15958 36.0243 7.67233Z" fill="url(#paint43_linear)"/>
<path d="M53.1303 59.3061C52.5775 59.2883 52.1451 58.8402 52.1629 58.3007C52.1785 57.8191 52.6667 57.3153 53.108 57.3309C53.6987 57.3488 54.1289 57.7567 54.12 58.2895C54.1089 58.8892 53.6876 59.3239 53.1303 59.3061Z" fill="url(#paint44_linear)"/>
<path d="M28.5996 61.4752C28.6241 60.8666 29.041 60.4185 29.5604 60.4363C30.1087 60.4564 30.5567 60.9223 30.5278 61.4417C30.4943 62.0214 30.0686 62.4338 29.5291 62.407C28.963 62.3803 28.5796 61.9946 28.5996 61.4752Z" fill="url(#paint45_linear)"/>
<path d="M58.4512 49.8513C58.975 50.043 58.9995 50.1121 58.7053 50.5223C58.6206 50.6383 58.5337 50.752 58.449 50.8679C58.333 51.0217 58.2461 51.2001 58.0031 50.995C57.778 50.8055 57.8047 50.6628 57.9831 50.4666C58.1569 50.2749 58.2996 50.0542 58.4512 49.8513Z" fill="url(#paint46_linear)"/>
<path d="M57.4277 11.9236C57.6885 12.1354 57.9337 12.3115 58.1433 12.5233C58.2124 12.5924 58.2346 12.8309 58.1878 12.8666C58.0764 12.9491 57.8669 13.0271 57.7732 12.9736C57.5592 12.8554 57.3675 12.6726 57.207 12.4831C56.973 12.2134 57.2338 12.093 57.4277 11.9236Z" fill="url(#paint47_linear)"/>
<path d="M18.9498 51.3696C18.8272 51.4833 18.7469 51.5948 18.6377 51.6416C18.5597 51.6772 18.4014 51.6661 18.3524 51.6104C18.1874 51.4276 18.0225 51.2292 17.9199 51.0062C17.8709 50.8992 17.9356 50.7075 18.0091 50.596C18.0381 50.5537 18.2855 50.5893 18.3591 50.6629C18.5686 50.8658 18.7402 51.111 18.9498 51.3696Z" fill="url(#paint48_linear)"/>
<path d="M21.6494 54.2655C21.6003 54.3235 21.5401 54.4416 21.4465 54.4907C21.3752 54.5263 21.2325 54.5063 21.1657 54.4528C20.9695 54.3012 20.7622 54.1429 20.6285 53.94C20.575 53.8575 20.6552 53.5878 20.7533 53.5254C20.9271 53.4139 21.6627 54.0024 21.6494 54.2655Z" fill="url(#paint49_linear)"/>
<defs>
<linearGradient id="paint0_linear" x1="37.3506" y1="43.9102" x2="37.3506" y2="70.4417" gradientUnits="userSpaceOnUse">
<stop stop-color="#AD844C"/>
<stop offset="0.3125" stop-color="#BDA180"/>
<stop offset="1" stop-color="#AD844C"/>
</linearGradient>
<linearGradient id="paint1_linear" x1="37.1272" y1="0" x2="37.1272" y2="26.2527" gradientUnits="userSpaceOnUse">
<stop stop-color="#AD844C"/>
<stop offset="0.3125" stop-color="#BDA180"/>
<stop offset="1" stop-color="#AD844C"/>
</linearGradient>
<linearGradient id="paint2_linear" x1="6.96095" y1="28.1089" x2="6.96095" y2="42.5999" gradientUnits="userSpaceOnUse">
<stop stop-color="#AD844C"/>
<stop offset="0.3125" stop-color="#BDA180"/>
<stop offset="1" stop-color="#AD844C"/>
</linearGradient>
<linearGradient id="paint3_linear" x1="23.1683" y1="27.9351" x2="23.1683" y2="42.4489" gradientUnits="userSpaceOnUse">
<stop stop-color="#AD844C"/>
<stop offset="0.3125" stop-color="#BDA180"/>
<stop offset="1" stop-color="#AD844C"/>
</linearGradient>
<linearGradient id="paint4_linear" x1="53.7143" y1="27.4241" x2="53.7143" y2="42.273" gradientUnits="userSpaceOnUse">
<stop stop-color="#AD844C"/>
<stop offset="0.3125" stop-color="#BDA180"/>
<stop offset="1" stop-color="#AD844C"/>
</linearGradient>
<linearGradient id="paint5_linear" x1="38.2636" y1="27.603" x2="38.2636" y2="42.4158" gradientUnits="userSpaceOnUse">
<stop stop-color="#AD844C"/>
<stop offset="0.3125" stop-color="#BDA180"/>
<stop offset="1" stop-color="#AD844C"/>
</linearGradient>
<linearGradient id="paint6_linear" x1="68.8331" y1="27.4834" x2="68.8331" y2="41.9353" gradientUnits="userSpaceOnUse">
<stop stop-color="#AD844C"/>
<stop offset="0.3125" stop-color="#BDA180"/>
<stop offset="1" stop-color="#AD844C"/>
</linearGradient>
<linearGradient id="paint7_linear" x1="37.3382" y1="44.0596" x2="37.3382" y2="56.2355" gradientUnits="userSpaceOnUse">
<stop stop-color="#AD844C"/>
<stop offset="0.3125" stop-color="#BDA180"/>
<stop offset="1" stop-color="#AD844C"/>
</linearGradient>
<linearGradient id="paint8_linear" x1="37.0573" y1="14.2124" x2="37.0573" y2="26.0706" gradientUnits="userSpaceOnUse">
<stop stop-color="#AD844C"/>
<stop offset="0.3125" stop-color="#BDA180"/>
<stop offset="1" stop-color="#AD844C"/>
</linearGradient>
<linearGradient id="paint9_linear" x1="17.5125" y1="13.8806" x2="17.5125" y2="19.3097" gradientUnits="userSpaceOnUse">
<stop stop-color="#AD844C"/>
<stop offset="0.3125" stop-color="#BDA180"/>
<stop offset="1" stop-color="#AD844C"/>
</linearGradient>
<linearGradient id="paint10_linear" x1="38.2256" y1="4.95093" x2="38.2256" y2="10.0654" gradientUnits="userSpaceOnUse">
<stop stop-color="#AD844C"/>
<stop offset="0.3125" stop-color="#BDA180"/>
<stop offset="1" stop-color="#AD844C"/>
</linearGradient>
<linearGradient id="paint11_linear" x1="13.5377" y1="45.6919" x2="13.5377" y2="49.912" gradientUnits="userSpaceOnUse">
<stop stop-color="#AD844C"/>
<stop offset="0.3125" stop-color="#BDA180"/>
<stop offset="1" stop-color="#AD844C"/>
</linearGradient>
<linearGradient id="paint12_linear" x1="31.9752" y1="5.44482" x2="31.9752" y2="10.9356" gradientUnits="userSpaceOnUse">
<stop stop-color="#AD844C"/>
<stop offset="0.3125" stop-color="#BDA180"/>
<stop offset="1" stop-color="#AD844C"/>
</linearGradient>
<linearGradient id="paint13_linear" x1="32.7086" y1="59.5796" x2="32.7086" y2="64.8936" gradientUnits="userSpaceOnUse">
<stop stop-color="#AD844C"/>
<stop offset="0.3125" stop-color="#BDA180"/>
<stop offset="1" stop-color="#AD844C"/>
</linearGradient>
<linearGradient id="paint14_linear" x1="41.9677" y1="5.99219" x2="41.9677" y2="10.4447" gradientUnits="userSpaceOnUse">
<stop stop-color="#AD844C"/>
<stop offset="0.3125" stop-color="#BDA180"/>
<stop offset="1" stop-color="#AD844C"/>
</linearGradient>
<linearGradient id="paint15_linear" x1="62.1974" y1="47.6089" x2="62.1974" y2="51.8041" gradientUnits="userSpaceOnUse">
<stop stop-color="#AD844C"/>
<stop offset="0.3125" stop-color="#BDA180"/>
<stop offset="1" stop-color="#AD844C"/>
</linearGradient>
<linearGradient id="paint16_linear" x1="55.1278" y1="53.9868" x2="55.1278" y2="59.2335" gradientUnits="userSpaceOnUse">
<stop stop-color="#AD844C"/>
<stop offset="0.3125" stop-color="#BDA180"/>
<stop offset="1" stop-color="#AD844C"/>
</linearGradient>
<linearGradient id="paint17_linear" x1="40.2334" y1="61.0259" x2="40.2334" y2="65.3297" gradientUnits="userSpaceOnUse">
<stop stop-color="#AD844C"/>
<stop offset="0.3125" stop-color="#BDA180"/>
<stop offset="1" stop-color="#AD844C"/>
</linearGradient>
<linearGradient id="paint18_linear" x1="20.7737" y1="12.1941" x2="20.7737" y2="16.5127" gradientUnits="userSpaceOnUse">
<stop stop-color="#AD844C"/>
<stop offset="0.3125" stop-color="#BDA180"/>
<stop offset="1" stop-color="#AD844C"/>
</linearGradient>
<linearGradient id="paint19_linear" x1="48.7485" y1="59.0537" x2="48.7485" y2="63.2812" gradientUnits="userSpaceOnUse">
<stop stop-color="#AD844C"/>
<stop offset="0.3125" stop-color="#BDA180"/>
<stop offset="1" stop-color="#AD844C"/>
</linearGradient>
<linearGradient id="paint20_linear" x1="58.6804" y1="52.3596" x2="58.6804" y2="56.3389" gradientUnits="userSpaceOnUse">
<stop stop-color="#AD844C"/>
<stop offset="0.3125" stop-color="#BDA180"/>
<stop offset="1" stop-color="#AD844C"/>
</linearGradient>
<linearGradient id="paint21_linear" x1="26.0311" y1="8.71729" x2="26.0311" y2="13.1194" gradientUnits="userSpaceOnUse">
<stop stop-color="#AD844C"/>
<stop offset="0.3125" stop-color="#BDA180"/>
<stop offset="1" stop-color="#AD844C"/>
</linearGradient>
<linearGradient id="paint22_linear" x1="45.5898" y1="6.86499" x2="45.5898" y2="11.3917" gradientUnits="userSpaceOnUse">
<stop stop-color="#AD844C"/>
<stop offset="0.3125" stop-color="#BDA180"/>
<stop offset="1" stop-color="#AD844C"/>
</linearGradient>
<linearGradient id="paint23_linear" x1="24.5207" y1="57.667" x2="24.5207" y2="62.1942" gradientUnits="userSpaceOnUse">
<stop stop-color="#AD844C"/>
<stop offset="0.3125" stop-color="#BDA180"/>
<stop offset="1" stop-color="#AD844C"/>
</linearGradient>
<linearGradient id="paint24_linear" x1="36.4188" y1="61.0259" x2="36.4188" y2="65.3302" gradientUnits="userSpaceOnUse">
<stop stop-color="#AD844C"/>
<stop offset="0.3125" stop-color="#BDA180"/>
<stop offset="1" stop-color="#AD844C"/>
</linearGradient>
<linearGradient id="paint25_linear" x1="50.7771" y1="8.75122" x2="50.7771" y2="13.5695" gradientUnits="userSpaceOnUse">
<stop stop-color="#AD844C"/>
<stop offset="0.3125" stop-color="#BDA180"/>
<stop offset="1" stop-color="#AD844C"/>
</linearGradient>
<linearGradient id="paint26_linear" x1="57.9065" y1="14.4656" x2="57.9065" y2="18.5579" gradientUnits="userSpaceOnUse">
<stop stop-color="#AD844C"/>
<stop offset="0.3125" stop-color="#BDA180"/>
<stop offset="1" stop-color="#AD844C"/>
</linearGradient>
<linearGradient id="paint27_linear" x1="53.709" y1="10.7388" x2="53.709" y2="15.0254" gradientUnits="userSpaceOnUse">
<stop stop-color="#AD844C"/>
<stop offset="0.3125" stop-color="#BDA180"/>
<stop offset="1" stop-color="#AD844C"/>
</linearGradient>
<linearGradient id="paint28_linear" x1="21.4894" y1="55.7947" x2="21.4894" y2="59.8656" gradientUnits="userSpaceOnUse">
<stop stop-color="#AD844C"/>
<stop offset="0.3125" stop-color="#BDA180"/>
<stop offset="1" stop-color="#AD844C"/>
</linearGradient>
<linearGradient id="paint29_linear" x1="51.1865" y1="57.053" x2="51.1865" y2="61.9416" gradientUnits="userSpaceOnUse">
<stop stop-color="#AD844C"/>
<stop offset="0.3125" stop-color="#BDA180"/>
<stop offset="1" stop-color="#AD844C"/>
</linearGradient>
<linearGradient id="paint30_linear" x1="23.1858" y1="10.2024" x2="23.1858" y2="14.6423" gradientUnits="userSpaceOnUse">
<stop stop-color="#AD844C"/>
<stop offset="0.3125" stop-color="#BDA180"/>
<stop offset="1" stop-color="#AD844C"/>
</linearGradient>
<linearGradient id="paint31_linear" x1="27.3849" y1="58.0354" x2="27.3849" y2="63.1136" gradientUnits="userSpaceOnUse">
<stop stop-color="#AD844C"/>
<stop offset="0.3125" stop-color="#BDA180"/>
<stop offset="1" stop-color="#AD844C"/>
</linearGradient>
<linearGradient id="paint32_linear" x1="43.3264" y1="60.0935" x2="43.3264" y2="64.7812" gradientUnits="userSpaceOnUse">
<stop stop-color="#AD844C"/>
<stop offset="0.3125" stop-color="#BDA180"/>
<stop offset="1" stop-color="#AD844C"/>
</linearGradient>
<linearGradient id="paint33_linear" x1="48.5892" y1="7.04102" x2="48.5892" y2="12.0385" gradientUnits="userSpaceOnUse">
<stop stop-color="#AD844C"/>
<stop offset="0.3125" stop-color="#BDA180"/>
<stop offset="1" stop-color="#AD844C"/>
</linearGradient>
<linearGradient id="paint34_linear" x1="17.9639" y1="52.2725" x2="17.9639" y2="56.4316" gradientUnits="userSpaceOnUse">
<stop stop-color="#AD844C"/>
<stop offset="0.3125" stop-color="#BDA180"/>
<stop offset="1" stop-color="#AD844C"/>
</linearGradient>
<linearGradient id="paint35_linear" x1="63.3953" y1="45.4219" x2="63.3953" y2="48.213" gradientUnits="userSpaceOnUse">
<stop stop-color="#AD844C"/>
<stop offset="0.3125" stop-color="#BDA180"/>
<stop offset="1" stop-color="#AD844C"/>
</linearGradient>
<linearGradient id="paint36_linear" x1="28.5" y1="7.29077" x2="28.5" y2="11.7844" gradientUnits="userSpaceOnUse">
<stop stop-color="#AD844C"/>
<stop offset="0.3125" stop-color="#BDA180"/>
<stop offset="1" stop-color="#AD844C"/>
</linearGradient>
<linearGradient id="paint37_linear" x1="14.8532" y1="49.0718" x2="14.8532" y2="52.1964" gradientUnits="userSpaceOnUse">
<stop stop-color="#AD844C"/>
<stop offset="0.3125" stop-color="#BDA180"/>
<stop offset="1" stop-color="#AD844C"/>
</linearGradient>
<linearGradient id="paint38_linear" x1="45.4061" y1="59.8723" x2="45.4061" y2="64.3559" gradientUnits="userSpaceOnUse">
<stop stop-color="#AD844C"/>
<stop offset="0.3125" stop-color="#BDA180"/>
<stop offset="1" stop-color="#AD844C"/>
</linearGradient>
<linearGradient id="paint39_linear" x1="55.9543" y1="12.6719" x2="55.9543" y2="16.4802" gradientUnits="userSpaceOnUse">
<stop stop-color="#AD844C"/>
<stop offset="0.3125" stop-color="#BDA180"/>
<stop offset="1" stop-color="#AD844C"/>
</linearGradient>
<linearGradient id="paint40_linear" x1="16.2785" y1="51.115" x2="16.2785" y2="54.4746" gradientUnits="userSpaceOnUse">
<stop stop-color="#AD844C"/>
<stop offset="0.3125" stop-color="#BDA180"/>
<stop offset="1" stop-color="#AD844C"/>
</linearGradient>
<linearGradient id="paint41_linear" x1="60.608" y1="50.4666" x2="60.608" y2="53.7489" gradientUnits="userSpaceOnUse">
<stop stop-color="#AD844C"/>
<stop offset="0.3125" stop-color="#BDA180"/>
<stop offset="1" stop-color="#AD844C"/>
</linearGradient>
<linearGradient id="paint42_linear" x1="19.2993" y1="54.145" x2="19.2993" y2="57.9974" gradientUnits="userSpaceOnUse">
<stop stop-color="#AD844C"/>
<stop offset="0.3125" stop-color="#BDA180"/>
<stop offset="1" stop-color="#AD844C"/>
</linearGradient>
<linearGradient id="paint43_linear" x1="35.0405" y1="6.65723" x2="35.0405" y2="8.66257" gradientUnits="userSpaceOnUse">
<stop stop-color="#AD844C"/>
<stop offset="0.3125" stop-color="#BDA180"/>
<stop offset="1" stop-color="#AD844C"/>
</linearGradient>
<linearGradient id="paint44_linear" x1="53.1412" y1="57.3306" x2="53.1412" y2="59.3066" gradientUnits="userSpaceOnUse">
<stop stop-color="#AD844C"/>
<stop offset="0.3125" stop-color="#BDA180"/>
<stop offset="1" stop-color="#AD844C"/>
</linearGradient>
<linearGradient id="paint45_linear" x1="29.564" y1="60.4358" x2="29.564" y2="62.4083" gradientUnits="userSpaceOnUse">
<stop stop-color="#AD844C"/>
<stop offset="0.3125" stop-color="#BDA180"/>
<stop offset="1" stop-color="#AD844C"/>
</linearGradient>
<linearGradient id="paint46_linear" x1="58.3679" y1="49.8513" x2="58.3679" y2="51.0874" gradientUnits="userSpaceOnUse">
<stop stop-color="#AD844C"/>
<stop offset="0.3125" stop-color="#BDA180"/>
<stop offset="1" stop-color="#AD844C"/>
</linearGradient>
<linearGradient id="paint47_linear" x1="57.6635" y1="11.9236" x2="57.6635" y2="12.9912" gradientUnits="userSpaceOnUse">
<stop stop-color="#AD844C"/>
<stop offset="0.3125" stop-color="#BDA180"/>
<stop offset="1" stop-color="#AD844C"/>
</linearGradient>
<linearGradient id="paint48_linear" x1="18.4263" y1="50.5779" x2="18.4263" y2="51.6621" gradientUnits="userSpaceOnUse">
<stop stop-color="#AD844C"/>
<stop offset="0.3125" stop-color="#BDA180"/>
<stop offset="1" stop-color="#AD844C"/>
</linearGradient>
<linearGradient id="paint49_linear" x1="21.1304" y1="53.5115" x2="21.1304" y2="54.5086" gradientUnits="userSpaceOnUse">
<stop stop-color="#AD844C"/>
<stop offset="0.3125" stop-color="#BDA180"/>
<stop offset="1" stop-color="#AD844C"/>
</linearGradient>
</defs>
</svg>
