<svg width="75" height="71" fill="none" xmlns="http://www.w3.org/2000/svg"><path d="M38.01 70.433c-.755 0-1.51.024-2.264-.007a24.6 24.6 0 01-2.327-.187c-1.14-.156-2.283-.308-3.397-.573-1.487-.355-2.958-.787-4.418-1.242-.956-.299-1.913-.638-2.818-1.063-2.146-1.015-4.237-2.136-6.168-3.54a37.85 37.85 0 01-4.652-4.033c-1.003-1.015-1.899-2.14-2.79-3.258a23.843 23.843 0 01-1.813-2.554c-.992-1.648-1.941-3.324-2.641-5.123-.47-1.206-.876-2.44-1.297-3.663-.159-.462-.112-.506.387-.52.433-.01.865-.009 1.298-.038.303-.02.459.108.55.386.205.629.393 1.264.647 1.873.501 1.195 1.007 2.392 1.585 3.551.465.934 1.003 1.84 1.571 2.718 1.001 1.547 2.1 3.025 3.38 4.354.882.916 1.747 1.863 2.723 2.67 1.173.97 2.457 1.804 3.69 2.7 1.455 1.059 3.055 1.862 4.692 2.577 1.246.546 2.563.934 3.856 1.373.566.194 1.141.382 1.725.507.972.207 1.95.399 2.936.528 1.174.154 2.356.285 3.537.339 1.897.082 3.792-.03 5.678-.272a32.473 32.473 0 007.565-1.924c1.362-.524 2.664-1.217 3.963-1.886 1.485-.765 2.867-1.701 4.191-2.718 1.808-1.389 3.468-2.94 4.933-4.684a42.368 42.368 0 002.688-3.517 24.598 24.598 0 002.515-4.77c.548-1.39 1.03-2.806 1.553-4.206.043-.114.196-.252.308-.26.597-.045 1.2-.06 1.799-.06.058 0 .18.195.16.267-.19.669-.394 1.33-.613 1.99-.156.478-.34.946-.508 1.42-.876 2.509-2.11 4.836-3.57 7.047-1.526 2.31-3.287 4.428-5.328 6.292-1.23 1.123-2.553 2.158-3.901 3.139a31.698 31.698 0 01-3.538 2.22c-1.201.651-2.467 1.193-3.731 1.717-1.815.75-3.7 1.25-5.626 1.651-1.71.355-3.433.562-5.165.723-.453.042-.912.007-1.369.007a.217.217 0 01.005.049z" fill="url(#paint0_linear)"/><path d="M71.005 25.518h-1.964c-.263 0-.325-.196-.399-.394-.4-1.066-.78-2.14-1.217-3.193-.624-1.5-1.404-2.922-2.269-4.298a33.372 33.372 0 00-4.215-5.388c-1.33-1.382-2.76-2.651-4.327-3.748-1.165-.818-2.394-1.556-3.633-2.265a28.483 28.483 0 00-2.922-1.451c-.957-.41-1.949-.745-2.94-1.06-.997-.313-2.002-.626-3.025-.822-1.338-.256-2.695-.414-4.05-.577a20.364 20.364 0 00-2.183-.134c-2.064-.027-4.123.094-6.156.46-1.82.327-3.62.75-5.372 1.366-1.467.515-2.9 1.101-4.256 1.86-1.175.657-2.374 1.281-3.473 2.05a39.982 39.982 0 00-3.664 2.912c-1.656 1.471-3.103 3.145-4.414 4.94a31.16 31.16 0 00-2.48 3.968c-.763 1.458-1.496 2.932-1.969 4.517a24.994 24.994 0 01-.575 1.7c-.047.121-.22.266-.343.273-.55.031-1.104.013-1.657.018-.245.002-.325-.092-.25-.335.288-.905.51-1.837.861-2.715a58.386 58.386 0 011.888-4.274c.54-1.083 1.18-2.12 1.846-3.13a38.705 38.705 0 012.222-3.056 32.887 32.887 0 015.134-5.059 39.009 39.009 0 014.476-3.038 32.536 32.536 0 018.016-3.362A36.5 36.5 0 0134.11.123c2.008-.173 4.017-.153 6.03-.006 1.39.103 2.752.361 4.123.584.896.145 1.717.513 2.601.671 1.269.228 2.457.725 3.632 1.222 1.301.553 2.607 1.117 3.834 1.815 1.35.769 2.62 1.68 3.912 2.554 1.45.981 2.735 2.167 3.954 3.411 1.025 1.046 1.975 2.17 2.895 3.309 1.6 1.98 2.872 4.169 3.966 6.467.762 1.6 1.38 3.253 1.917 4.938.022.069.044.138.053.21.007.044-.008.093-.022.22z" fill="url(#paint1_linear)"/><path d="M9.23 33.085v-2.987c0-.518 0-1.035-.016-1.55-.01-.285.086-.412.394-.412a185.56 185.56 0 003.856-.027c.261-.004.308.107.308.319.004 1.357.004 2.715.018 4.073.013 1.215.051 2.428.067 3.64.022 1.741.03 3.483.049 5.224.002.24.009.481.015.722.011.303-.131.423-.434.421-.83-.006-1.657.002-2.486.01-.419.002-.838.008-1.257.017-.232.005-.359-.08-.361-.332-.011-1.454-.029-2.91-.047-4.363-.002-.145-.013-.288-.015-.432-.01-.627-.01-.64-.634-.634-1.223.012-2.445.054-3.669.05-.3 0-.383.107-.38.367.004.72.004 1.443.015 2.163.013.936.038 1.872.056 2.809.004.218-.02.417-.317.417-1.295.002-2.59-.003-3.885.02-.323.006-.357-.154-.36-.395-.012-1.248-.03-2.497-.041-3.745-.012-1.262-.012-2.524-.027-3.788C.057 32.704.02 30.732 0 28.764c-.007-.532.015-.51.54-.528 1.207-.042 2.418-.015 3.628-.038.272-.004.359.072.361.339.011 1.454.031 2.905.07 4.358.002.105.164.295.249.295 1.451-.014 2.904-.05 4.356-.083.006-.004.015-.015.024-.022z" fill="url(#paint2_linear)"/><path d="M29.674 38.888c-.711-1.801-1.431-3.598-2.138-5.4a630.294 630.294 0 01-2.053-5.279c-.087-.23-.236-.276-.444-.274-.851.014-1.705.025-2.556.038-.529.009-1.057.002-1.583.038-.163.011-.419.1-.466.218a126.837 126.837 0 00-1.293 3.467c-.566 1.567-1.114 3.143-1.682 4.71-.692 1.902-1.394 3.8-2.094 5.699-.08.216-.004.334.214.34.263.01.526-.004.79-.006 1.078-.011 2.16-.015 3.238-.04.105-.002.27-.114.301-.21a32.48 32.48 0 00.535-1.832c.058-.232.19-.325.401-.328 1.44-.018 2.88-.038 4.32-.03.13 0 .33.155.38.284.204.551.387 1.113.539 1.681.078.3.25.386.517.382a538.65 538.65 0 012.842-.043c.486-.004.972 0 1.56 0-.477-1.226-.898-2.323-1.328-3.415zm-5.466-2.11c-.871.012-1.743.005-2.706.005l1.37-4.623.11-.002.97 3.01c.133.42.26.849.403 1.268.056.171.09.338-.147.343z" fill="url(#paint3_linear)"/><path d="M46.673 34.492c.17-.881.252-1.788.526-2.636.617-1.901 1.794-3.326 3.774-3.959a10.072 10.072 0 013.758-.45c1.2.078 2.36.303 3.384.947 1.219.77 1.937 1.947 2.427 3.27.022.063-.082.244-.154.261-1.166.295-2.334.571-3.504.85-.218.051-.325-.065-.399-.263-.223-.624-.635-1.086-1.221-1.41-.852-.47-2.368-.193-3.043.511-.678.71-.858 1.568-.86 2.48-.003.838.022 1.683.136 2.51.176 1.28.92 2.084 2.066 2.224 1.507.186 2.523-.398 3.002-1.943.078-.25.119-.569.292-.71.119-.095.446.052.676.117.992.276 1.98.566 2.971.84.199.056.297.13.232.35-.305 1.059-.702 2.08-1.449 2.914-.883.983-1.99 1.585-3.31 1.736-.782.09-1.576.163-2.36.136-1.407-.044-2.798-.287-3.975-1.1-1.22-.841-2.033-2.027-2.485-3.45-.333-1.045-.413-2.117-.397-3.206a1.88 1.88 0 00-.087-.02z" fill="url(#paint4_linear)"/><path d="M41.337 36.255c.347.08.675.14.992.232.829.238 1.654.5 2.483.735.448.127.483.152.354.593-.432 1.479-1.132 2.774-2.458 3.654a4.99 4.99 0 01-2.46.847c-.844.056-1.693.123-2.538.092-1.248-.047-2.456-.315-3.495-1.055-1.545-1.099-2.425-2.608-2.77-4.474-.213-1.141-.157-2.274-.083-3.413.018-.283.138-.56.205-.84.272-1.164.762-2.212 1.591-3.088.678-.716 1.507-1.195 2.439-1.483a10.1 10.1 0 013.988-.403c1.366.134 2.657.475 3.711 1.438.814.742 1.295 1.687 1.712 2.68.087.207.009.318-.198.367-1.11.266-2.218.529-3.326.8-.328.08-.446-.093-.544-.367-.31-.878-1.286-1.596-2.182-1.572-1.532.045-2.586.948-2.787 2.446-.149 1.117-.176 2.24.02 3.373.337 1.928 2.492 2.902 4.084 1.75.392-.283.638-.798.89-1.24.171-.296.233-.655.372-1.072z" fill="url(#paint5_linear)"/><path d="M74.748 30.256c-.194-.691-.593-1.264-1.108-1.744-.689-.642-1.582-.876-2.472-.958-1.094-.1-2.2-.063-3.301-.067-.898-.002-1.797.022-2.695.031-.698.007-1.395.009-2.091.013-.29 0-.424.107-.415.433.032 1.032.038 2.064.043 3.097.006 1.645.002 3.29.002 4.935h.067c0 .506-.005 1.01.002 1.514.014 1.333.045 2.666.042 4 0 .294.076.43.375.425 1.284-.013 2.568-.042 3.852-.029.352.002.392-.12.385-.419-.033-1.503-.037-3.005-.07-4.51-.01-.299.126-.381.374-.386.55-.006 1.099-.006 1.65-.013 1.118-.013 2.23-.065 3.267-.557 1.108-.526 1.826-1.396 2.149-2.564.296-1.063.24-2.14-.056-3.201zm-5.368 3.156c-.54.103-1.094.125-1.645.168-.254.02-.432-.056-.41-.384.027-.383.007-.769.007-1.152h-.047c0-.408-.004-.816.002-1.224.002-.188.051-.32.297-.299.642.056 1.286.076 1.928.131.557.05.807.475.943.928.252.843-.08 1.645-1.075 1.832z" fill="url(#paint6_linear)"/><path d="M19.618 44.481c.275 0 .556.036.825-.007.611-.095.945.214 1.25.694.417.657.868 1.3 1.363 1.901 1.337 1.632 2.92 3.001 4.759 4.033 1.094.613 2.249 1.128 3.417 1.592 1.618.642 3.33.883 5.066.96 2.82.13 5.522-.365 8.13-1.45a18.85 18.85 0 004.08-2.348c1.361-1.023 2.533-2.25 3.539-3.627.381-.522.724-1.072 1.063-1.625.207-.337.475-.524.876-.524.66 0 1.322-.01 1.982-.02.27-.005.285.124.174.316-.558.966-1.064 1.967-1.688 2.89-1.355 2.001-3.054 3.685-5.024 5.082a21.285 21.285 0 01-6.406 3.088c-1.576.46-3.186.72-4.826.78-1.688.063-3.366-.015-5.014-.406a45.848 45.848 0 01-3.566-.976c-.7-.225-1.373-.564-2.02-.92-.909-.505-1.814-1.033-2.665-1.628-1.374-.96-2.577-2.111-3.678-3.382-.981-1.135-1.802-2.368-2.54-3.663-.374-.657-.372-.684.366-.76.176-.018.357-.002.537 0z" fill="url(#paint7_linear)"/><path d="M18.312 26.022c.297-.555.522-1.061.825-1.518.617-.93 1.233-1.868 1.933-2.733 1.152-1.425 2.514-2.638 4-3.721a18.998 18.998 0 014.564-2.432c1.145-.426 2.34-.734 3.53-1.017 1.538-.366 3.112-.43 4.686-.368 1.148.045 2.3.107 3.422.404.983.26 1.981.472 2.942.798a20.007 20.007 0 015.8 3.132 20.168 20.168 0 013.852 3.881c.673.901 1.244 1.88 1.854 2.827.132.205.127.377-.178.381-.764.014-1.527.023-2.291.025-.386 0-.513-.341-.676-.589a18.344 18.344 0 00-2.938-3.45c-1.377-1.274-2.918-2.295-4.598-3.124-1.358-.67-2.791-1.108-4.264-1.402-1.987-.395-3.993-.43-6.008-.174-1.99.254-3.876.847-5.673 1.703-.914.437-1.745 1.05-2.61 1.59-1.195.747-2.187 1.732-3.105 2.777-.687.78-1.262 1.666-1.846 2.53-.227.335-.423.551-.876.52-.657-.042-1.32.002-1.98.007-.088.009-.177-.018-.365-.047z" fill="url(#paint8_linear)"/><path d="M17.98 16.735c-.319.216-.325.376-.067.595.43.363.836.756 1.3 1.181-.241.275-.453.547-.702.776-.06.054-.292.005-.384-.073-.646-.558-1.277-1.133-1.91-1.704-.455-.41-.905-.827-1.364-1.232-.159-.139-.183-.252-.04-.424.769-.927.6-.753 1.337-.125.174.147.323.328.51.453.076.051.221 0 .335-.005-.01-.111.024-.265-.036-.325-.296-.297-.615-.573-.932-.85-.196-.171-.211-.33-.015-.512.105-.098.203-.205.294-.317.314-.374.319-.381.662-.067 1.057.963 2.104 1.938 3.168 2.894.238.214.22.366-.012.546a1.354 1.354 0 00-.182.174c-.397.446-.299.54-.85.049-.372-.332-.733-.682-1.112-1.034z" fill="url(#paint9_linear)"/><path d="M39.856 9.714c-.218-1.498-.421-2.998-.65-4.496-.016-.1-.19-.243-.302-.252-.38-.029-.766-.007-1.152-.009-.44 0-.48.051-.53.475-.108.912-.235 1.823-.36 2.733-.084.6-.182 1.2-.276 1.815.158.018.263.027.368.04.952.105.952.105 1.05-.854.492-.118.537-.09.582.341.044.462.093.508.566.533.131.007.267-.03.394-.009.268.042.348-.054.31-.317zm-1.859-1.52c.087-.671.17-1.32.252-1.968.036-.003.071-.003.105-.003.047.618.105 1.235.127 1.853.009.198-.118.223-.484.118z" fill="url(#paint10_linear)"/><path d="M16.142 47.381c-.036.624-.415.952-.876 1.238-.696.428-.83.383-1.113-.395-.093-.259-.062-.428.205-.555.228-.107.45-.239.642-.4.085-.07.09-.238.13-.36-.12-.018-.266-.09-.355-.047-.693.33-1.375.68-2.057 1.032a6.34 6.34 0 00-.707.426c-.064.047-.125.225-.096.258.067.074.21.152.292.127.228-.062.448-.16.656-.276.18-.1.305-.118.41.087.118.236.26.464.357.707.028.073-.032.254-.094.28-.364.157-.729.335-1.112.4-.377.062-.687-.199-.934-.464-.348-.37-.595-.825-.551-1.333.025-.292.185-.667.41-.827.593-.422 1.253-.747 1.888-1.104.23-.13.468-.245.709-.354.658-.306 1.507-.051 1.846.586.16.306.236.651.35.974z" fill="url(#paint11_linear)"/><path d="M33.708 9.99c-.303-1.274-.608-2.55-.9-3.83-.192-.842-.023-.82-.999-.545-.288.08-.325.227-.252.477.063.216.096.439.156.718-.176-.045-.267-.07-.359-.094-.71-.178-1.252.285-1.116.997.16.849.338 1.698.568 2.532.207.756.885.907 1.476.375.064-.058.194-.15.23-.127.311.207.603.022.904-.016.319-.038.355-.223.292-.486zm-1.498.081c-.082-.071-.216-.131-.238-.218a54.22 54.22 0 01-.526-2.239c-.023-.1.075-.225.12-.336.096.073.254.134.279.227.2.751.374 1.51.564 2.294l-.199.272z" fill="url(#paint12_linear)"/><path d="M32.826 59.58c.339.105.693.179 1.014.324.484.22.66.582.604 1.112a15.77 15.77 0 01-.111.856c-.011.08-.067.22-.09.219-.298-.034-.603-.065-.89-.147-.092-.027-.19-.201-.195-.31-.007-.199.06-.4.083-.602.024-.208.111-.48-.176-.533-.092-.018-.301.216-.344.368-.145.53-.247 1.072-.35 1.614-.073.39-.14.782-.171 1.175-.01.118.12.245.185.367.105-.09.216-.178.314-.276.031-.029.031-.09.045-.136.191-.68.454-.816 1.127-.546.08.033.154.187.159.29.004.138-.063.278-.094.419-.279 1.302-1.346 1.246-2.158.932-.61-.237-.918-.671-.784-1.354.183-.94.32-1.892.548-2.822.123-.477.477-.974 1.284-.95z" fill="url(#paint13_linear)"/><path d="M42.192 6.404c.045-.022.139-.076.239-.114.742-.276 1.273.176 1.17.796-.142.85-.21 1.71-.32 2.566-.034.259-.02.609-.177.738-.15.122-.493 0-.749.009-.325.01-.408-.098-.35-.435.16-.92.272-1.853.412-2.775.032-.206-.026-.366-.22-.364-.083 0-.219.199-.239.321-.154.948-.278 1.9-.425 2.85-.014.084-.123.227-.181.222a8.168 8.168 0 01-.956-.14c-.036-.007-.08-.118-.074-.174.123-.887.256-1.775.386-2.662.042-.296.084-.593.12-.89.034-.287.178-.407.466-.343.176.038.361.056.526.12.118.045.212.152.372.275z" fill="url(#paint14_linear)"/><path d="M60.522 48.81c.058-.247.085-.553.205-.818.165-.363.56-.484.907-.294.56.3 1.102.63 1.65.95l1.179.684c.062.036.178.098.176.105-.14.307-.276.617-.452.903-.034.053-.263.044-.36-.012-.677-.385-1.339-.791-2.012-1.186a2.455 2.455 0 00-.52-.245c-.102-.029-.23.025-.343.043.054.098.08.234.163.287.575.37 1.16.725 1.743 1.084.265.162.537.318.803.483.055.036.138.13.124.154-.147.285-.276.593-.485.827-.067.074-.386-.006-.544-.096-.934-.541-1.85-1.114-2.787-1.658-.238-.138-.272-.266-.127-.482.1-.15.16-.332.279-.464.1-.11.256-.173.401-.265z" fill="url(#paint15_linear)"/><path d="M57.038 58.254c-.292-.337-.564-.691-.856-1.026-.187-.21-.263-.383.011-.59.14-.105.243-.266.357-.406.21-.259.29-.558.08-.83a15.628 15.628 0 00-1.08-1.248c-.097-.1-.286-.112-.447-.167-.178.062-.38.091-.53.196-.444.308-.858.653-1.295.968-.225.162-.21.292-.04.494.827 1.001 1.631 2.02 2.46 3.019.516.624.406.825 1.15.143.043-.04.097-.072.146-.105.194-.132.196-.272.044-.448zm-1.68-2.07c-.26-.304-.52-.61-.796-.938.32-.263.526-.198.84.21.24.314.236.53-.044.729z" fill="url(#paint16_linear)"/><path d="M40.017 61.355c.211-.239.497-.383.911-.31.326.058.518.178.55.502.092.85.175 1.696.26 2.546.024.251.05.503.07.755.019.201-.055.324-.278.328-.227.002-.459.045-.68.013-.096-.013-.236-.162-.245-.26-.076-.79-.122-1.583-.183-2.372-.013-.192-.017-.39-.075-.571-.032-.098-.165-.165-.252-.248-.056.094-.163.19-.16.284.021.624.066 1.25.106 1.874.022.348.045.698.083 1.044.024.232-.065.319-.295.345-.836.1-.876.094-.951-.709-.096-1.016-.152-2.037-.221-3.058-.011-.176.042-.299.259-.31.202-.01.405-.085.604-.07.149.014.29.123.497.217z" fill="url(#paint17_linear)"/><path d="M22.786 14.695c-.604-.667-1.181-1.362-1.779-2.038-.477-.54-.876-.6-1.489-.223-.767.469-1.237 1.28-.59 2.103.171.218.314.272.521.069.172-.167.444-.301.495-.495.04-.154-.2-.372-.287-.573-.036-.082-.01-.203.02-.294.009-.03.127-.05.182-.031.3.098.5.588.373.885-.145.343-.303.68-.42 1.032-.042.133-.033.334.043.443.18.263.388.526.633.73.464.383 1.052.222 1.27-.322.054-.127.056-.276.1-.512.17.278.308.263.469.095a2.43 2.43 0 01.39-.318c.234-.163.288-.31.07-.551zm-1.31.702c-.03.04-.159.04-.226.014-.34-.143-.566-.69-.416-1.135.242.316.463.59.664.878.038.056.022.188-.023.243z" fill="url(#paint18_linear)"/><path d="M50.388 61.449c-.158-.442-.33-.879-.492-1.318-.366-.979-.772-1.2-1.779-1.021-.831.147-1.302.89-1.034 1.605.223.595.45 1.188.686 1.781.194.484.52.776 1.081.785.69.009 1.67-.535 1.639-1.433-.018-.076-.045-.243-.1-.4zm-1.116 1.012c-.09-.01-.208-.076-.245-.154-.19-.388-.36-.787-.529-1.184-.127-.296-.26-.595-.359-.903-.035-.114.025-.256.043-.388.102.063.256.098.296.188.337.726.649 1.464.974 2.211-.076.103-.136.236-.18.23z" fill="url(#paint19_linear)"/><path d="M60.364 54.011c-.383-.43-.805-.827-1.24-1.208-.985-.863-1.925-.348-2.351.529-.23.472-.212.913.163 1.284a29.092 29.092 0 001.613 1.487c.16.138.413.236.622.236.707.007 1.49-.83 1.567-1.578-.12-.252-.194-.549-.374-.75zm-.7 1.287c-.111-.005-.25-.007-.325-.072-.397-.347-.78-.71-1.166-1.072-.168-.154-.344-.305-.486-.48-.063-.077-.054-.211-.076-.318.103.007.24-.025.308.031.359.294.706.604 1.05.921.238.218.463.45.69.68.047.049.078.114.127.183-.049.051-.086.129-.122.127z" fill="url(#paint20_linear)"/><path d="M27.933 11.774c-.448-.862-.893-1.727-1.353-2.586a.894.894 0 00-.316-.334c-.513-.303-1.384-.08-1.866.457-.44.488-.446 1.048-.002 1.665.064-.024.11-.04.151-.058.23-.102.5-.158.683-.316.283-.241-.054-.466-.103-.703-.002-.01-.011-.024-.009-.033.02-.09.042-.176.063-.263.095.027.218.024.282.085.302.29.313.604.058.94-.107.145-.198.306-.325.433-.452.46-.406.93-.058 1.42.063.087.103.19.163.28.21.315.568.46.903.28.252-.139.441-.39.62-.556.191-.022.38-.022.559-.069.136-.035.25-.149.385-.194.255-.084.275-.238.165-.448zm-1.417.31c-.038.036-.143.043-.194.018-.33-.158-.482-.85-.22-1.195.17.339.338.649.483.968.024.05-.02.162-.07.21z" fill="url(#paint21_linear)"/><path d="M46.735 7.155a4.731 4.731 0 00-.535-.207c-.809-.263-1.502.116-1.678.918a.269.269 0 00.064.217c.47.45.894.36 1.13-.214.038-.092.177-.143.268-.212.058.113.178.234.163.334-.058.36-.243.615-.653.642-.228.016-.45.08-.678.105-.437.042-.649.317-.758.707-.033.116-.051.234-.087.35-.116.367-.13.724.207.983.35.267.727.25 1.02.078.175.125.302.236.447.314.114.063.265.06.37.13.234.155.368.12.444-.157.258-.974.53-1.944.787-2.92.124-.475-.072-.865-.51-1.068zm-1.23 3.01c-.034.093-.176.147-.27.22-.047-.107-.145-.223-.132-.323.054-.392.136-.782.683-.89-.099.362-.17.685-.281.993z" fill="url(#paint22_linear)"/><path d="M25.95 58.118c-.1-.07-.197-.145-.306-.192-.876-.374-1.34-.428-1.87.417-.103.167-.132.277.058.42.59.445.648.443 1.085-.128.056-.073.165-.105.25-.156.051.1.147.2.147.301-.002.326-.31.595-.633.589l-.684-.014c-.747-.018-.912.09-1.206.774-.034.076-.067.154-.103.232-.174.392-.064.798.319.974.243.111.528.13.827.196.005.359.42.366.666.56.264.203.404.084.526-.156.424-.823.85-1.643 1.271-2.468.268-.522.136-1.02-.348-1.349zm-1.773 2.78c-.046.071-.19.076-.29.111-.029-.12-.109-.256-.075-.354.129-.372.334-.684.92-.684-.207.354-.365.65-.555.927z" fill="url(#paint23_linear)"/><path d="M36.633 61.047c-.68-.116-1.275.248-1.435.923-.112.477-.167.968-.248 1.452l.056.006c0 .277.01.55-.002.827-.018.426.19.696.557.88.428.215.87.233 1.329.148.446-.082.8-.404.849-.85.07-.63.13-1.264.147-1.897.025-.92-.345-1.335-1.253-1.489zm.011 2.782a3.423 3.423 0 01-.082.605c-.016.07-.138.18-.18.167-.083-.025-.197-.118-.203-.194-.027-.248-.012-.502-.012-.716.05-.564.083-1.09.148-1.612.013-.111.149-.205.227-.307.065.102.18.205.18.307-.01.584-.044 1.166-.078 1.75z" fill="url(#paint24_linear)"/><path d="M50.679 11.652c.318-.489.64-.975.956-1.463.027-.04.04-.087.06-.131.288-.569.669-.651 1.14-.214.064.06.05.292-.012.388-.473.724-.967 1.435-1.458 2.149-.178.256-.36.51-.548.76-.337.443-.678.533-1.184.314-.263-.114-.535-.216-.778-.363-.096-.058-.205-.254-.171-.328.049-.111.216-.236.334-.239.272-.006.383-.131.453-.37.285-1.005.586-2.004.873-3.01.125-.43.183-.465.607-.309.49.18.514.225.35.716-.232.686-.47 1.37-.707 2.057.029.014.056.027.085.043z" fill="url(#paint25_linear)"/><path d="M56.545 16.097c.11.098.22.203.34.303.258.219.411.428.062.716-.079.064-.05.26-.072.397.152-.027.37-.003.44-.094a.897.897 0 00.162-.546c-.005-.236-.09-.47-.14-.705-.154-.693.028-1.023.628-1.518a.74.74 0 01.85-.089c.548.306 1.003.707 1.096 1.384.047.333-.167.745-.457.874-.011.005-.027.018-.031.014-.19-.15-.395-.286-.555-.462-.074-.082-.071-.247-.071-.374 0-.058.104-.11.12-.172.022-.102.009-.214.011-.323-.11.011-.28-.02-.319.038-.109.167-.223.368-.227.557-.002.259.083.522.154.776.218.773-.047 1.157-.791 1.612-.344.21-1.02-.054-1.405-.497-.653-.756-.588-1.436.205-1.891z" fill="url(#paint26_linear)"/><path d="M51.82 13.509c.074-.15.187-.413.33-.658.027-.047.183-.065.25-.033.162.073.31.18.46.276.175.11.222.241.088.42-.058.075-.125.164-.132.251-.006.094.025.232.092.277.062.042.216.024.283-.03.22-.175.267-.42.167-.684-.096-.247-.214-.483-.312-.729-.254-.633-.063-1.337.495-1.72.129-.09.325-.161.472-.134.624.113 1.16.394 1.474.98.191.357.129.71-.134 1.001-.067.074-.259.103-.355.063a1.14 1.14 0 01-.459-.337c-.067-.089-.002-.272-.013-.412-.009-.123-.036-.243-.056-.366-.111.045-.296.065-.319.136-.06.187-.098.41-.053.598.058.24.198.461.312.686.377.752-.02 1.371-.557 1.793-.361.28-.731.073-1.088-.08-.54-.237-.952-.74-.945-1.298z" fill="url(#paint27_linear)"/><path d="M21.148 59.866c-.55-.058-1.003-.281-1.338-.71-.25-.32-.314-.71-.09-1.047a30.5 30.5 0 011.528-2.125c.112-.14.41-.17.627-.187.626-.051 1.71.722 1.493 1.532-.065.247-.218.472-.334.704-.014.03-.07.07-.08.063-.232-.136-.47-.266-.68-.43-.063-.05-.047-.21-.045-.317.002-.054.058-.103.085-.156.073-.16.294-.337.05-.484-.073-.045-.322.098-.416.216-.403.506-.782 1.035-1.163 1.558-.056.076-.114.172-.114.259 0 .107.058.214.091.321.096-.031.21-.038.286-.098.111-.087.176-.248.296-.308.127-.067.328-.12.44-.064.204.1.367.283.547.432-.231.25-.445.522-.704.738-.111.096-.319.074-.48.103z" fill="url(#paint28_linear)"/><path d="M52.885 61.47c-.33.166-.606.309-.887.438-.167.076-.267.024-.363-.159a233.822 233.822 0 00-2.067-3.81c-.147-.262-.089-.416.145-.563.73-.462.745-.473 1.15.26.638 1.153 1.25 2.319 1.873 3.48.056.103.091.214.15.355z" fill="url(#paint29_linear)"/><path d="M23.93 13.417c.238-.144.408-.231.561-.34.174-.123.306-.112.417.075.105.179.308.346.058.56-.053.046-.107.096-.167.136-.361.236-.727.468-1.085.709-.197.129-.384.118-.5-.074a2.77 2.77 0 01-.334-.747c-.163-.653-.285-1.315-.428-1.973-.023-.1-.067-.196-.118-.34-.145.086-.268.135-.36.22-.251.238-.414.131-.579-.107-.16-.234-.16-.401.11-.557.363-.208.722-.43 1.063-.676.252-.18.372-.105.55.12.402.515.406 1.142.546 1.728.092.393.165.792.266 1.266z" fill="url(#paint30_linear)"/><path d="M27.775 58.035c.34.14.649.243.927.395.074.04.12.254.083.352-.237.629-.495 1.249-.752 1.868-.303.732-.62 1.458-.911 2.194-.114.283-.259.332-.526.198-.723-.363-.74-.363-.444-1.1.354-.88.74-1.742 1.106-2.614.176-.414.336-.836.517-1.293z" fill="url(#paint31_linear)"/><path d="M43.664 64.781c-.366-.029-.667-.118-.747-.515-.158-.778-.303-1.556-.477-2.33-.033-.151-.192-.271-.247-.42a1.49 1.49 0 01-.087-.505c0-.12.131-.263.096-.358-.116-.326.044-.415.312-.453.118-.018.243-.025.354-.063.325-.11.497-.015.542.337.009.076.127.159.212.203.25.134.287.355.113.58-.073.098-.14.252-.122.363.12.687.251 1.373.412 2.051.033.143.212.245.303.379s.185.279.218.433c.012.049-.16.173-.267.202-.205.058-.424.07-.615.096z" fill="url(#paint32_linear)"/><path d="M50.03 7.523c-.136.348-.259.673-.388.995-.421 1.043-.85 2.084-1.266 3.13-.178.448-.192.463-.658.283-.673-.261-.675-.261-.39-.966.493-1.221.994-2.44 1.474-3.667.1-.256.232-.31.463-.21.219.096.442.188.654.293.05.024.08.1.11.142z" fill="url(#paint33_linear)"/><path d="M18.598 52.573c.104-.06.225-.102.31-.182.182-.172.334-.152.488.03.084.101.167.21.271.288.28.212.288.406.023.642-.063.056-.04.201-.07.299-.033.116-.053.256-.133.33-.071.062-.214.045-.325.065-.094.017-.214.009-.272.064-.52.484-1.037.97-1.53 1.48-.102.108-.087.32-.151.471-.056.131-.12.283-.23.357-.069.047-.225-.03-.34-.054-.01-.002-.019-.015-.027-.024-.745-.694-.756-1.001-.032-1.717.435-.43.9-.831 1.333-1.264.123-.125.2-.31.254-.481.067-.217.143-.38.43-.304z" fill="url(#paint34_linear)"/><path d="M64.971 48.213c-.216-.074-.414-.125-.602-.205-.67-.29-1.335-.593-2.008-.876-.107-.045-.256.022-.375-.01a1.494 1.494 0 01-.479-.198c-.131-.093-.205-.274-.339-.36-.151-.099-.21-.177-.12-.346.062-.116.1-.243.152-.366.115-.285.236-.54.626-.332.071.038.205-.013.299-.051.272-.114.45-.018.517.26.026.11.109.248.205.293.65.305 1.308.6 1.973.876.12.049.28-.003.423 0 .18.004.361.02.542.03-.02.146-.002.309-.067.429-.134.25-.299.484-.473.707-.06.078-.182.102-.274.149z" fill="url(#paint35_linear)"/><path d="M27.26 7.936c.343-.125.629-.264.93-.317.122-.022.276.15.448.25.033-.087.078-.255.162-.397a.417.417 0 01.241-.18c.04-.01.134.115.17.195.082.188.131.388.213.573.128.286.134.5-.18.7-.118.076-.192.37-.147.526.167.6.377 1.189.595 1.773.096.256.058.383-.203.5-.794.35-.796.358-1.083-.444-.377-1.04-.75-2.076-1.146-3.18z" fill="url(#paint36_linear)"/><path d="M16.42 50.235c.25.094.477.18.705.268-.005.042-.007.087-.012.129-.307.203-.604.419-.925.595-.078.045-.274 0-.336-.071-.234-.263-.482-.243-.74-.076-.475.303-.94.617-1.409.932-.406.274-.51.258-.769-.154-.107-.172-.207-.348-.352-.586.45-.297.896-.587 1.337-.88.586-.393 1.177-.777 1.75-1.19.252-.18.421-.197.573.099.042.085.114.154.171.23.29.37.29.374.007.704z" fill="url(#paint37_linear)"/><path d="M45.576 60.566l.426-.694c.045.007.091.011.136.018.116.384.24.763.337 1.15.015.065-.08.201-.159.241-.343.18-.388.46-.298.794.145.546.283 1.094.443 1.636.087.294.014.45-.29.53-.75.204-.77.2-.987-.545-.283-.981-.566-1.96-.845-2.94-.022-.077-.033-.226-.006-.237.298-.13.604-.257.918-.332.058-.014.172.203.26.312.016.015.032.031.065.067z" fill="url(#paint38_linear)"/><path d="M57.707 13.393c-.054.09-.09.167-.14.23-.765.896-1.532 1.79-2.294 2.686-.179.21-.348.236-.54.027a2.209 2.209 0 00-.21-.199c-.414-.347-.416-.43-.073-.829a182.3 182.3 0 002.104-2.466c.174-.207.301-.23.495-.044.156.147.341.265.506.405.058.047.1.12.152.19z" fill="url(#paint39_linear)"/><path d="M18.19 51.88c-.087.125-.125.22-.196.277-.912.744-1.828 1.484-2.74 2.227-.18.147-.332.107-.466-.058-.138-.168-.292-.326-.392-.515-.05-.092-.034-.301.033-.357.832-.684 1.679-1.35 2.524-2.022.026-.022.069-.027.093-.051.136-.143.254-.39.488-.192.239.203.435.455.656.691z" fill="url(#paint40_linear)"/><path d="M62.53 52.937c-.242.272-.481.548-.737.805-.03.029-.183-.036-.254-.09-.901-.675-1.793-1.364-2.698-2.035-.267-.198-.292-.354-.084-.633.49-.658.47-.662 1.12-.163.799.613 1.606 1.215 2.415 1.815.087.065.203.087.305.13-.024.057-.044.113-.066.171z" fill="url(#paint41_linear)"/><path d="M18.406 57.997c-.243-.203-.414-.33-.568-.477-.38-.365-.393-.403-.05-.791.732-.83 1.443-1.683 2.237-2.45.439-.422.595.274.9.417.218.1.132.265-.02.43-.738.807-1.46 1.627-2.184 2.448-.11.125-.201.267-.315.423z" fill="url(#paint42_linear)"/><path d="M36.024 7.672c-.026.582-.443 1.006-.976.99-.577-.018-1-.475-.992-1.065.009-.486.54-.961 1.048-.939.506.022.943.502.92 1.014z" fill="url(#paint43_linear)"/><path d="M53.13 59.306a.984.984 0 01-.967-1.005c.016-.482.504-.986.945-.97.59.018 1.02.426 1.012.958-.011.6-.432 1.035-.99 1.017z" fill="url(#paint44_linear)"/><path d="M28.6 61.475c.024-.608.441-1.056.96-1.039.549.02.997.486.968 1.006-.034.58-.46.992-.999.965-.566-.027-.95-.412-.93-.932z" fill="url(#paint45_linear)"/><path d="M58.451 49.851c.524.192.548.261.254.671-.084.116-.171.23-.256.346-.116.154-.203.332-.446.127-.225-.19-.198-.332-.02-.528.174-.192.317-.413.468-.616z" fill="url(#paint46_linear)"/><path d="M57.428 11.924c.26.211.506.388.715.6.07.068.092.307.045.343-.112.082-.321.16-.415.107a2.12 2.12 0 01-.566-.49c-.234-.27.027-.391.22-.56z" fill="url(#paint47_linear)"/><path d="M18.95 51.37c-.123.113-.203.225-.312.272-.078.035-.237.024-.286-.032-.165-.182-.33-.38-.432-.604-.05-.107.016-.298.09-.41.028-.042.275-.007.35.067.209.203.38.448.59.707z" fill="url(#paint48_linear)"/><path d="M21.65 54.266c-.05.058-.11.176-.203.225-.072.035-.214.015-.281-.038-.197-.152-.404-.31-.538-.513-.053-.082.027-.352.125-.415.174-.111.91.477.896.74z" fill="url(#paint49_linear)"/><defs><linearGradient id="paint0_linear" x1="37.351" y1="43.91" x2="37.351" y2="70.442" gradientUnits="userSpaceOnUse"><stop stop-color="#AD844C"/><stop offset=".313" stop-color="#BDA180"/><stop offset="1" stop-color="#AD844C"/></linearGradient><linearGradient id="paint1_linear" x1="37.127" y1="0" x2="37.127" y2="26.253" gradientUnits="userSpaceOnUse"><stop stop-color="#AD844C"/><stop offset=".313" stop-color="#BDA180"/><stop offset="1" stop-color="#AD844C"/></linearGradient><linearGradient id="paint2_linear" x1="6.961" y1="28.109" x2="6.961" y2="42.6" gradientUnits="userSpaceOnUse"><stop stop-color="#AD844C"/><stop offset=".313" stop-color="#BDA180"/><stop offset="1" stop-color="#AD844C"/></linearGradient><linearGradient id="paint3_linear" x1="23.168" y1="27.935" x2="23.168" y2="42.449" gradientUnits="userSpaceOnUse"><stop stop-color="#AD844C"/><stop offset=".313" stop-color="#BDA180"/><stop offset="1" stop-color="#AD844C"/></linearGradient><linearGradient id="paint4_linear" x1="53.714" y1="27.424" x2="53.714" y2="42.273" gradientUnits="userSpaceOnUse"><stop stop-color="#AD844C"/><stop offset=".313" stop-color="#BDA180"/><stop offset="1" stop-color="#AD844C"/></linearGradient><linearGradient id="paint5_linear" x1="38.264" y1="27.603" x2="38.264" y2="42.416" gradientUnits="userSpaceOnUse"><stop stop-color="#AD844C"/><stop offset=".313" stop-color="#BDA180"/><stop offset="1" stop-color="#AD844C"/></linearGradient><linearGradient id="paint6_linear" x1="68.833" y1="27.483" x2="68.833" y2="41.935" gradientUnits="userSpaceOnUse"><stop stop-color="#AD844C"/><stop offset=".313" stop-color="#BDA180"/><stop offset="1" stop-color="#AD844C"/></linearGradient><linearGradient id="paint7_linear" x1="37.338" y1="44.06" x2="37.338" y2="56.236" gradientUnits="userSpaceOnUse"><stop stop-color="#AD844C"/><stop offset=".313" stop-color="#BDA180"/><stop offset="1" stop-color="#AD844C"/></linearGradient><linearGradient id="paint8_linear" x1="37.057" y1="14.212" x2="37.057" y2="26.071" gradientUnits="userSpaceOnUse"><stop stop-color="#AD844C"/><stop offset=".313" stop-color="#BDA180"/><stop offset="1" stop-color="#AD844C"/></linearGradient><linearGradient id="paint9_linear" x1="17.512" y1="13.881" x2="17.512" y2="19.31" gradientUnits="userSpaceOnUse"><stop stop-color="#AD844C"/><stop offset=".313" stop-color="#BDA180"/><stop offset="1" stop-color="#AD844C"/></linearGradient><linearGradient id="paint10_linear" x1="38.226" y1="4.951" x2="38.226" y2="10.065" gradientUnits="userSpaceOnUse"><stop stop-color="#AD844C"/><stop offset=".313" stop-color="#BDA180"/><stop offset="1" stop-color="#AD844C"/></linearGradient><linearGradient id="paint11_linear" x1="13.538" y1="45.692" x2="13.538" y2="49.912" gradientUnits="userSpaceOnUse"><stop stop-color="#AD844C"/><stop offset=".313" stop-color="#BDA180"/><stop offset="1" stop-color="#AD844C"/></linearGradient><linearGradient id="paint12_linear" x1="31.975" y1="5.445" x2="31.975" y2="10.936" gradientUnits="userSpaceOnUse"><stop stop-color="#AD844C"/><stop offset=".313" stop-color="#BDA180"/><stop offset="1" stop-color="#AD844C"/></linearGradient><linearGradient id="paint13_linear" x1="32.709" y1="59.58" x2="32.709" y2="64.894" gradientUnits="userSpaceOnUse"><stop stop-color="#AD844C"/><stop offset=".313" stop-color="#BDA180"/><stop offset="1" stop-color="#AD844C"/></linearGradient><linearGradient id="paint14_linear" x1="41.968" y1="5.992" x2="41.968" y2="10.445" gradientUnits="userSpaceOnUse"><stop stop-color="#AD844C"/><stop offset=".313" stop-color="#BDA180"/><stop offset="1" stop-color="#AD844C"/></linearGradient><linearGradient id="paint15_linear" x1="62.197" y1="47.609" x2="62.197" y2="51.804" gradientUnits="userSpaceOnUse"><stop stop-color="#AD844C"/><stop offset=".313" stop-color="#BDA180"/><stop offset="1" stop-color="#AD844C"/></linearGradient><linearGradient id="paint16_linear" x1="55.128" y1="53.987" x2="55.128" y2="59.233" gradientUnits="userSpaceOnUse"><stop stop-color="#AD844C"/><stop offset=".313" stop-color="#BDA180"/><stop offset="1" stop-color="#AD844C"/></linearGradient><linearGradient id="paint17_linear" x1="40.233" y1="61.026" x2="40.233" y2="65.33" gradientUnits="userSpaceOnUse"><stop stop-color="#AD844C"/><stop offset=".313" stop-color="#BDA180"/><stop offset="1" stop-color="#AD844C"/></linearGradient><linearGradient id="paint18_linear" x1="20.774" y1="12.194" x2="20.774" y2="16.513" gradientUnits="userSpaceOnUse"><stop stop-color="#AD844C"/><stop offset=".313" stop-color="#BDA180"/><stop offset="1" stop-color="#AD844C"/></linearGradient><linearGradient id="paint19_linear" x1="48.748" y1="59.054" x2="48.748" y2="63.281" gradientUnits="userSpaceOnUse"><stop stop-color="#AD844C"/><stop offset=".313" stop-color="#BDA180"/><stop offset="1" stop-color="#AD844C"/></linearGradient><linearGradient id="paint20_linear" x1="58.68" y1="52.36" x2="58.68" y2="56.339" gradientUnits="userSpaceOnUse"><stop stop-color="#AD844C"/><stop offset=".313" stop-color="#BDA180"/><stop offset="1" stop-color="#AD844C"/></linearGradient><linearGradient id="paint21_linear" x1="26.031" y1="8.717" x2="26.031" y2="13.119" gradientUnits="userSpaceOnUse"><stop stop-color="#AD844C"/><stop offset=".313" stop-color="#BDA180"/><stop offset="1" stop-color="#AD844C"/></linearGradient><linearGradient id="paint22_linear" x1="45.59" y1="6.865" x2="45.59" y2="11.392" gradientUnits="userSpaceOnUse"><stop stop-color="#AD844C"/><stop offset=".313" stop-color="#BDA180"/><stop offset="1" stop-color="#AD844C"/></linearGradient><linearGradient id="paint23_linear" x1="24.521" y1="57.667" x2="24.521" y2="62.194" gradientUnits="userSpaceOnUse"><stop stop-color="#AD844C"/><stop offset=".313" stop-color="#BDA180"/><stop offset="1" stop-color="#AD844C"/></linearGradient><linearGradient id="paint24_linear" x1="36.419" y1="61.026" x2="36.419" y2="65.33" gradientUnits="userSpaceOnUse"><stop stop-color="#AD844C"/><stop offset=".313" stop-color="#BDA180"/><stop offset="1" stop-color="#AD844C"/></linearGradient><linearGradient id="paint25_linear" x1="50.777" y1="8.751" x2="50.777" y2="13.569" gradientUnits="userSpaceOnUse"><stop stop-color="#AD844C"/><stop offset=".313" stop-color="#BDA180"/><stop offset="1" stop-color="#AD844C"/></linearGradient><linearGradient id="paint26_linear" x1="57.907" y1="14.466" x2="57.907" y2="18.558" gradientUnits="userSpaceOnUse"><stop stop-color="#AD844C"/><stop offset=".313" stop-color="#BDA180"/><stop offset="1" stop-color="#AD844C"/></linearGradient><linearGradient id="paint27_linear" x1="53.709" y1="10.739" x2="53.709" y2="15.025" gradientUnits="userSpaceOnUse"><stop stop-color="#AD844C"/><stop offset=".313" stop-color="#BDA180"/><stop offset="1" stop-color="#AD844C"/></linearGradient><linearGradient id="paint28_linear" x1="21.489" y1="55.795" x2="21.489" y2="59.866" gradientUnits="userSpaceOnUse"><stop stop-color="#AD844C"/><stop offset=".313" stop-color="#BDA180"/><stop offset="1" stop-color="#AD844C"/></linearGradient><linearGradient id="paint29_linear" x1="51.187" y1="57.053" x2="51.187" y2="61.942" gradientUnits="userSpaceOnUse"><stop stop-color="#AD844C"/><stop offset=".313" stop-color="#BDA180"/><stop offset="1" stop-color="#AD844C"/></linearGradient><linearGradient id="paint30_linear" x1="23.186" y1="10.202" x2="23.186" y2="14.642" gradientUnits="userSpaceOnUse"><stop stop-color="#AD844C"/><stop offset=".313" stop-color="#BDA180"/><stop offset="1" stop-color="#AD844C"/></linearGradient><linearGradient id="paint31_linear" x1="27.385" y1="58.035" x2="27.385" y2="63.114" gradientUnits="userSpaceOnUse"><stop stop-color="#AD844C"/><stop offset=".313" stop-color="#BDA180"/><stop offset="1" stop-color="#AD844C"/></linearGradient><linearGradient id="paint32_linear" x1="43.326" y1="60.093" x2="43.326" y2="64.781" gradientUnits="userSpaceOnUse"><stop stop-color="#AD844C"/><stop offset=".313" stop-color="#BDA180"/><stop offset="1" stop-color="#AD844C"/></linearGradient><linearGradient id="paint33_linear" x1="48.589" y1="7.041" x2="48.589" y2="12.039" gradientUnits="userSpaceOnUse"><stop stop-color="#AD844C"/><stop offset=".313" stop-color="#BDA180"/><stop offset="1" stop-color="#AD844C"/></linearGradient><linearGradient id="paint34_linear" x1="17.964" y1="52.273" x2="17.964" y2="56.432" gradientUnits="userSpaceOnUse"><stop stop-color="#AD844C"/><stop offset=".313" stop-color="#BDA180"/><stop offset="1" stop-color="#AD844C"/></linearGradient><linearGradient id="paint35_linear" x1="63.395" y1="45.422" x2="63.395" y2="48.213" gradientUnits="userSpaceOnUse"><stop stop-color="#AD844C"/><stop offset=".313" stop-color="#BDA180"/><stop offset="1" stop-color="#AD844C"/></linearGradient><linearGradient id="paint36_linear" x1="28.5" y1="7.291" x2="28.5" y2="11.784" gradientUnits="userSpaceOnUse"><stop stop-color="#AD844C"/><stop offset=".313" stop-color="#BDA180"/><stop offset="1" stop-color="#AD844C"/></linearGradient><linearGradient id="paint37_linear" x1="14.853" y1="49.072" x2="14.853" y2="52.196" gradientUnits="userSpaceOnUse"><stop stop-color="#AD844C"/><stop offset=".313" stop-color="#BDA180"/><stop offset="1" stop-color="#AD844C"/></linearGradient><linearGradient id="paint38_linear" x1="45.406" y1="59.872" x2="45.406" y2="64.356" gradientUnits="userSpaceOnUse"><stop stop-color="#AD844C"/><stop offset=".313" stop-color="#BDA180"/><stop offset="1" stop-color="#AD844C"/></linearGradient><linearGradient id="paint39_linear" x1="55.954" y1="12.672" x2="55.954" y2="16.48" gradientUnits="userSpaceOnUse"><stop stop-color="#AD844C"/><stop offset=".313" stop-color="#BDA180"/><stop offset="1" stop-color="#AD844C"/></linearGradient><linearGradient id="paint40_linear" x1="16.279" y1="51.115" x2="16.279" y2="54.475" gradientUnits="userSpaceOnUse"><stop stop-color="#AD844C"/><stop offset=".313" stop-color="#BDA180"/><stop offset="1" stop-color="#AD844C"/></linearGradient><linearGradient id="paint41_linear" x1="60.608" y1="50.467" x2="60.608" y2="53.749" gradientUnits="userSpaceOnUse"><stop stop-color="#AD844C"/><stop offset=".313" stop-color="#BDA180"/><stop offset="1" stop-color="#AD844C"/></linearGradient><linearGradient id="paint42_linear" x1="19.299" y1="54.145" x2="19.299" y2="57.997" gradientUnits="userSpaceOnUse"><stop stop-color="#AD844C"/><stop offset=".313" stop-color="#BDA180"/><stop offset="1" stop-color="#AD844C"/></linearGradient><linearGradient id="paint43_linear" x1="35.041" y1="6.657" x2="35.041" y2="8.663" gradientUnits="userSpaceOnUse"><stop stop-color="#AD844C"/><stop offset=".313" stop-color="#BDA180"/><stop offset="1" stop-color="#AD844C"/></linearGradient><linearGradient id="paint44_linear" x1="53.141" y1="57.331" x2="53.141" y2="59.307" gradientUnits="userSpaceOnUse"><stop stop-color="#AD844C"/><stop offset=".313" stop-color="#BDA180"/><stop offset="1" stop-color="#AD844C"/></linearGradient><linearGradient id="paint45_linear" x1="29.564" y1="60.436" x2="29.564" y2="62.408" gradientUnits="userSpaceOnUse"><stop stop-color="#AD844C"/><stop offset=".313" stop-color="#BDA180"/><stop offset="1" stop-color="#AD844C"/></linearGradient><linearGradient id="paint46_linear" x1="58.368" y1="49.851" x2="58.368" y2="51.087" gradientUnits="userSpaceOnUse"><stop stop-color="#AD844C"/><stop offset=".313" stop-color="#BDA180"/><stop offset="1" stop-color="#AD844C"/></linearGradient><linearGradient id="paint47_linear" x1="57.663" y1="11.924" x2="57.663" y2="12.991" gradientUnits="userSpaceOnUse"><stop stop-color="#AD844C"/><stop offset=".313" stop-color="#BDA180"/><stop offset="1" stop-color="#AD844C"/></linearGradient><linearGradient id="paint48_linear" x1="18.426" y1="50.578" x2="18.426" y2="51.662" gradientUnits="userSpaceOnUse"><stop stop-color="#AD844C"/><stop offset=".313" stop-color="#BDA180"/><stop offset="1" stop-color="#AD844C"/></linearGradient><linearGradient id="paint49_linear" x1="21.13" y1="53.511" x2="21.13" y2="54.509" gradientUnits="userSpaceOnUse"><stop stop-color="#AD844C"/><stop offset=".313" stop-color="#BDA180"/><stop offset="1" stop-color="#AD844C"/></linearGradient></defs></svg>