<svg width="58" height="56" fill="none" xmlns="http://www.w3.org/2000/svg"><path d="M10.552 17.39a5.323 5.323 0 100-10.646 5.323 5.323 0 000 10.646z" fill="url(#paint0_linear)"/><path fill-rule="evenodd" clip-rule="evenodd" d="M45.722.629L44.63 0l-.808.968-3.244 3.89a3.278 3.278 0 00-2.443-1.087h-5.128a3.287 3.287 0 00-3.155 2.36H19.277a10.54 10.54 0 00-8.726-4.616C4.725 1.515 0 6.24 0 12.067c0 3.009 1.26 5.724 3.28 7.646l13.729 23.84H9.465a4.761 4.761 0 00-4.762 4.763v5.05a2.43 2.43 0 002.43 2.43h36.365a2.43 2.43 0 002.432-2.43v-5.05a4.761 4.761 0 00-4.763-4.763h-6.828L19.829 18.35h10.058a3.287 3.287 0 003.12 2.252h5.129c.929 0 1.767-.385 2.365-1.004l2.755 3.468.767.966 1.096-.566 11.888-6.139a1.5 1.5 0 00-1.377-2.666l-10.792 5.574-3.416-4.3V8.533l3.898-4.674 10.25 5.896a1.5 1.5 0 101.497-2.6L45.722.629zm-25.14 14.72h9.138V9.132h-9.03c.269.931.413 1.916.413 2.935 0 1.146-.183 2.249-.52 3.282zM32.72 7.057c0-.159.128-.286.287-.286h5.128c.159 0 .287.127.287.286v10.257a.286.286 0 01-.287.287h-5.128a.286.286 0 01-.287-.287V7.057zM10.552 4.515a7.552 7.552 0 100 15.103 7.552 7.552 0 000-15.103zm20.326 39.038H20.47L8.273 22.372a10.59 10.59 0 002.279.246 10.51 10.51 0 006.829-2.507l13.497 23.442zm-21.413 3c-.974 0-1.762.789-1.762 1.763v4.48H42.93v-4.48c0-.974-.788-1.763-1.763-1.763H9.465z" fill="url(#paint1_linear)"/><defs><linearGradient id="paint0_linear" x1="10.552" y1="6.744" x2="10.552" y2="17.39" gradientUnits="userSpaceOnUse"><stop stop-color="#AD844C"/><stop offset=".245" stop-color="#BDA180"/><stop offset="1" stop-color="#AD844C"/></linearGradient><linearGradient id="paint1_linear" x1="28.909" y1="0" x2="28.909" y2="55.797" gradientUnits="userSpaceOnUse"><stop stop-color="#AD844C"/><stop offset=".245" stop-color="#BDA180"/><stop offset="1" stop-color="#AD844C"/></linearGradient></defs></svg>