<svg width="371" height="99" fill="none" xmlns="http://www.w3.org/2000/svg"><path d="M54.92 28.064c-.262-.086-.262-.345 0-.431 4.937-1.802 8.57-5.76 8.57-10.658 0-9.794-8.495-11.94-17.414-11.94-3.296 0-8.92.258-15.424.258-7.364 0-11.17-.259-12.39-.259-.434.26-.521 3.355 0 3.862 1.22.173 3.47.518 4.94.95 1.903.517 2.338 1.455 2.425 3.688.174 4.294.26 8.339.26 17.443 0 6.267-.086 15.469-.26 17.874-.174 2.664-.783 3.614-2.339 4.12-1.468.518-3.73.777-6.233 1.036-.522.432-.435 3.355.087 3.948 5.896 0 20.015.432 23.996.432 5.112 0 11.007-.777 14.989-2.492 7.276-3.096 11.257-7.907 11.257-14.95.011-7.552-5.797-11.08-12.465-12.88zM37.504 10.881c.087-.345.435-1.036.783-1.122.87-.173 1.903-.259 2.513-.259 7.711 0 11.431 3.7 11.431 10.053 0 3.096-1.207 5.588-3.208 6.785-1.044.605-3.47.863-6.755.863-1.99 0-3.557 0-4.416-.086-.174 0-.522-.259-.522-.518 0-5.318.087-14.174.174-15.716zm7.799 43.04c-1.556 0-4.59-.345-5.983-1.543-.783-.604-1.642-2.06-1.816-3.268-.261-3.355-.174-10.83-.174-16.925 0-.259.26-.431.522-.431.783-.173 2.86-.087 3.209-.087 9.006 0 13.857 4.12 13.857 11.337 0 7.4-4.329 10.917-9.615 10.917zm58.477-6.699c-3.557 2.32-6.58 3.442-10.486 3.442-3.73 0-6.07-.777-8.234-2.665-2.164-1.715-3.383-4.38-3.644-6.612 0-.26.174-.863.435-.95 7.016-.172 19.405-.862 22.353-1.8.348-.346-2.251-17.357-14.728-17.357-3.644 0-7.538 1.283-10.572 3.096-4.677 2.923-8.147 8.51-8.147 15.975 0 4.898 1.468 10.658 5.373 14.174 2.687 2.578 6.233 4.207 11.606 4.207 5.2 0 12.215-2.664 15.859-7.216.174-.432.696-2.578.609-3.528 0-.334-.337-.68-.424-.766zM86.888 25.573c3.643 0 5.895 3.776 6.32 9.018-.088.345-.349.69-.697.777-1.468.258-7.973.345-10.66.258-.435 0-.609-.517-.609-.69.098-5.07 2.263-9.363 5.646-9.363zm41.866 28.434c.261.69-.087 3.183-.609 3.949-1.382 0-4.329-.26-11.258-.26-4.503 0-8.321.26-9.703.26-.348-.605-.609-3.183-.087-3.949 1.218-.172 2.426-.431 3.644-.862 1.131-.432 1.382-2.234 1.469-3.69.174-2.319.174-11.078.174-19.071 0-10.399.087-15.814-.174-19.676 0-.776-.436-1.801-1.382-2.146-.696-.345-2.774-.604-4.59-.863-.435-.432-.435-2.837.174-3.355 4.677-.604 13.771-2.06 16.805-3.355.435.087.957 1.122.87 1.63-.87 1.8-.957 3.613-1.044 6.094-.174 4.293 0 15.123-.087 23.289 0 8.166-.087 14.605.087 17.96.174 1.974.348 2.837 2.165 3.269 1.033.345 1.729.517 3.546.776zm33.643-1.542c-3.644-1.036-11.084-1.37-15.25-1.716-2.077-.172-3.122-.949-3.122-2.06 0-.776.871-1.456 1.208-1.456.348 0 3.035-.086 3.47-.173 4.503-.431 8.06-2.146 9.876-3.44 3.122-2.579 4.938-5.157 4.938-10.745 0-.517-.261-1.887-.348-2.491 0-.087.087-.346.174-.346h1.73c1.642 0 2.426-.345 3.209-1.121 1.044-1.036 2.512-4.639 2.425-5.847-.087-.345-1.381-1.122-1.729-1.035-1.382 1.456-2.339 1.887-5.112 1.887-1.991 0-3.644-.259-5.548-.95-3.296-1.035-5.721-1.628-9.441-1.714-3.894 0-9.355 1.715-11.954 3.614-3.644 2.491-5.2 6.18-5.2 10.053 0 5.76 3.122 9.88 8.495 11.769.174.086.174.431 0 .517-1.555 1.209-5.199 3.355-6.493 3.948-.174.346-.348 1.036-.348 1.543.261 2.923 1.903 5.07 5.286 6.526.087 0 .087.259 0 .259-2.861 1.715-6.32 3.527-7.886 5.07-.435.776-.522 2.233-.522 3.355-.087 2.923 1.99 5.932 5.112 7.993 2.861 1.801 6.929 2.664 11.171 2.664 3.296 0 7.451-.604 11.171-2.319 6.842-3.182 11.432-8.587 11.432-14.864.011-4.973-3.459-7.983-6.744-8.921zm-15.25-27.151c4.677 0 6.581 4.552 6.581 9.967 0 3.01-.87 5.242-1.904 6.267-.696.95-2.077 1.456-3.208 1.456-4.155 0-6.842-3.44-6.842-10.226 0-4.714 2.338-7.464 5.373-7.464zm3.209 48.024c-3.557 0-7.016-1.036-9.18-3.01-1.643-1.543-2.078-2.923-2.078-4.725 0-1.283.87-2.923 2.948-4.293.435-.345 1.294-.69 2.338-.69 4.068 0 9.964.345 12.912 1.715 2.425 1.035 3.208 2.664 3.208 4.552-.021 3.02-2.871 6.45-10.148 6.45zm56.387-21.65c-1.218.26-1.903.346-3.208.346-1.904 0-2.6-1.122-2.6-2.924 0-3.613.348-9.794.348-14.001 0-3.269-.522-5.933-2.339-8.587-2.077-3.01-5.634-5.242-10.137-5.242-2.861 0-9.442 2.319-13.684 5.242-.783.69-1.903 5.33-2.077 6.354-.087.777 3.557 2.146 4.068 1.715.783-1.629 2.164-4.811 3.035-5.674.609-.69 2.164-1.208 3.894-1.208 2.425 0 4.677.776 6.069 2.664 1.044 1.37 1.207 3.096 1.207 4.552 0 .346 0 .863-.087 1.209-.087.345-.261.69-.696.862-2.947 1.284-14.031 3.862-17.24 5.588-.609.777-1.556 4.034-1.556 5.502 0 3.268 1.219 6.353 3.47 8.413 1.469 1.37 3.296 2.233 5.2 2.233 1.816 0 6.069-1.542 10.485-4.207.087-.086.435-.086.435.087.087.517.348 1.283.522 1.715.523 1.456 2.426 2.492 5.2 2.492 2.338 0 6.929-1.122 9.18-3.096.337-.335.685-3.776.511-4.035zm-15.674-2.06c0 .777-.261 1.37-.696 1.629-.783.518-1.816.777-2.774.777-2.947 0-5.808-1.716-5.808-5.674 0-.69.522-2.32.783-2.492 1.382-.95 6.233-2.492 8.321-3.269.174 0 .348.346.348.432 0 1.553 0 6.278-.174 8.597zm62.284 4.379c.348.604.087 3.355-.435 3.948-1.295 0-4.678-.259-10.486-.259-4.503 0-6.407.173-9.18.26-.261-.691-.436-3.442 0-3.949 1.131-.172 2.251-.431 2.86-.69.87-.345 1.132-1.122 1.132-2.406.174-3.613.348-13.483-.262-16.924-.174-1.457-1.044-3.183-2.512-4.207-1.131-.863-2.6-1.284-4.329-1.284-1.382 0-3.47.604-4.939 1.629-.522.259-.696 1.197-.696 1.888 0 6.008 0 13.397.174 18.812 0 1.801.435 2.32 1.73 2.664.957.26 1.294.346 2.773.518.349.518.175 3.355-.348 3.948-2.773-.086-5.721-.259-9.876-.259-5.286 0-8.408.173-9.964.26-.435-.691-.435-3.528 0-3.949 1.295-.172 1.904-.345 2.948-.604 1.382-.259 1.73-1.629 1.904-3.096.087-2.578.174-8.845.174-13.829 0-2.319 0-4.207-.174-5.415-.174-.949-1.295-1.974-4.504-3.268-.174-.777.174-2.75.523-3.182 4.938-.604 11.17-2.492 13.857-3.614.174.086.435.431.522.69.087.432.087 3.183.087 4.639 0 .259.348.345.522.259 3.894-3.01 8.147-5.33 11.258-5.33 4.155 0 7.016 1.716 9.268 4.726 1.816 2.664 2.512 6.267 2.512 10.398 0 5.933 0 11.855.087 14.865 0 .69.348 1.283.696 1.456 1.469.788 2.948 1.046 4.678 1.305zm24.31 0c.435.518.087 3.441-.435 3.948-1.294 0-4.329-.259-10.834-.259-4.677 0-8.06.26-9.963.26-.435-.519-.609-3.356-.087-3.949 1.816-.259 2.686-.518 3.731-.863 1.131-.345 1.294-.949 1.381-2.923.087-2.06.087-6.612.087-10.83v-7.734c0-.605-.174-1.543-.609-1.888-.696-.69-1.556-1.284-4.329-2.406-.435-.604-.087-2.837.348-3.268 2.251-.086 10.921-1.284 15.163-2.837v14.95c0 4.466 0 9.536.087 13.57 0 2.147.522 3.01 1.642 3.442.957.27 1.828.442 3.818.787zm36.352-6.353c.174.95-.174 3.268-.87 4.034-4.243 5.157-10.747 7.044-15.25 7.044-5.896 0-10.573-2.319-13.597-6.353-2.426-3.182-3.644-7.476-3.644-11.941 0-6.009 3.383-12.114 9.181-15.383 3.469-2.146 8.832-3.775 12.65-3.775 4.068 0 6.156.604 7.973 1.37.783.345 2.338 1.208 3.035 2.492.174.517.087 1.37-.087 1.801-.61 1.888-3.035 4.638-3.894 5.07-.349.086-1.295.172-1.469-.086-1.903-1.974-5.286-5.933-9.528-5.933-4.678 0-7.451 4.552-7.451 10.571 0 3.355.696 7.13 2.947 9.88 2.6 3.183 5.635 4.208 9.181 4.208 3.296 0 6.407-.863 10.137-3.862.261.173.599.431.686.863zm38.81 4.034c-1.218.26-1.904.346-3.209.346-1.903 0-2.6-1.122-2.6-2.924 0-3.613.348-9.794.348-14.001 0-3.269-.522-5.933-2.338-8.587-2.078-3.01-5.635-5.242-10.138-5.242-2.86 0-9.441 2.319-13.683 5.242-.783.69-1.904 5.33-2.078 6.354-.087.777 3.546 2.146 4.068 1.715.783-1.629 2.165-4.811 3.035-5.674.609-.69 2.165-1.208 3.894-1.208 2.426 0 4.677.776 6.07 2.664 1.044 1.37 1.207 3.096 1.207 4.552 0 .346 0 .863-.087 1.209-.087.345-.261.69-.696.862-2.948 1.284-14.032 3.862-17.241 5.588-.609.777-1.555 4.034-1.555 5.502 0 3.268 1.218 6.353 3.47 8.413 1.468 1.37 3.296 2.233 5.199 2.233 1.817 0 6.07-1.542 10.486-4.207.087-.086.435-.086.435.087.087.517.348 1.283.522 1.715.522 1.456 2.425 2.492 5.199 2.492 2.339 0 6.929-1.122 9.181-3.096.348-.335.685-3.776.511-4.035zm-15.674-2.06c0 .777-.261 1.37-.696 1.629-.784.518-1.817.777-2.774.777-2.948 0-5.809-1.716-5.809-5.674 0-.69.523-2.32.784-2.492 1.381-.95 6.232-2.492 8.321-3.269.174 0 .348.346.348.432 0 1.553 0 6.278-.174 8.597z" fill="#E5E5E5"/><path d="M265.937 17.051c3.274 0 5.929-2.632 5.929-5.879 0-3.246-2.655-5.879-5.929-5.879-3.274 0-5.928 2.633-5.928 5.88 0 3.246 2.654 5.878 5.928 5.878zM58.868 92.593c.13-.151.63.032 1 .108-.196.107-.674-.044-1-.108zm46.086-1.112c-.13-.021-.326-.01-.326-.075.392-.043 1.142-.14 1.479 0-.032-.237-.728-.194-1.305-.216-.065.216-.511.248-.848.346.272.129.859.086 1-.055zm30.827.993c-.892.032-1.73-.01-2.317.151 1.196-.076 3.208-.043 4.296-.14 1.436-.13-1.229-.022-1.979-.011zm4.633-.194c-.652.064-1.011-.14-1.327.14.359-.043 1.762-.022 1.327-.14zm-37.254-.971c.587-.108.402.054.979.086.108-.172-1.055-.367-.979-.086zm84.374.863c-.38-.227-.989-.022-1.316.194.533-.216 2.284.01 1.817-.323-.033.097-.261.107-.501.129zm9.605-.777c.566.14 1.914-.097 2.306-.302-.49.033-1.381.011-1.817.248-.239.033-.543-.302-.489.054zm172.676-16.148c-.076 0-.228.01-.348.01-.087 0-.239 0-.337.012-.174.01.076 0-.185.01-.087 0-.207 0-.326.011-.174.011-.305.011-.675.033-.576.021-.663.021-1.164.043-.195.01-.141.01-.174.021-.794.011-2.371.065-2.969.054l-1.327.033c-.076.054.5.054.631.086-1.099.054.098.043-.359.086l-.664.033c-.011.021.283.01.152.043-.913.043-1.044.054-1.816.097-.087-.022-.315-.022-.653-.011-.576.032.011.032-.337.054l-.663.032.011-.054c-.653.043-1.143.011-1.328.076.011.022.99-.076.827 0-1.718.086-3.426.194-5.134.302-.217.022-.261.054-.5.065-.011.043.283.032.152.097-.805.075-.718.118-1.664.162-.174.075.37.01.663-.011.522-.022-.293.043-.5.054-1.142.064-3.1.29-3.47.183-.326.065-.544.13-1.327.162.044-.033.49-.043.5-.086-.032-.022-.163-.011-.163-.033-.391.043-.772.086-.837.151-1.153.108-2.056.076-2.981.216.849-.14-.696-.022-.826.054-1.034.086-2.241.183-3.144.259-2.415.248-5.525.345-7.277.647-.293 0-.021-.065 0-.108-.195.022-.293.01-.326-.01-.468.043-.392.096-.827.14-.293.021-.696-.022-.989 0-.349.032-.436.129-.827.14-.359.032-.522.01-.5-.076-.359.076-.403.205-1.153.216.043-.043.326-.054.326-.108-.196-.054-.696.065-1.153.054-.055 0-.305-.054-.326-.054-1.208.065-2.546.28-3.307.313-.152.043-.25.097-.326.151-.642-.097-1.806.108-2.644.227v-.13c-.369.065-.892.097-.989.216-.512 0 .184-.14.163-.194-.577.043-.783.15-1.153.226-.729.011-1.73.119-2.317.28-.218-.01-.446-.02-.664-.032-2.338.421-5.047.777-7.755.906-.392.087-.794.173-1.153.27-.664.022-1.186-.01-1.98.076l-.011-.216c-.587.14-1.588.475-2.142.302.184-.173.859-.076 1.153-.108.402-.086.358-.27.989-.302-.108-.065-.359-.065-.663-.054.533-.13.239-.356.478-.475.588-.28 1.469-.204 2.306-.399.316 0 .718-.043.664.108l.663-.162c-.043-.086-.282-.097-.663-.054.381-.15 1.555-.161 1.99-.161-.184.172-.076.14.175.237.413-.043.543-.237.989-.13-.032-.053.033-.097.163-.118-.043-.151-1.359.194-1.163-.065.718-.054 1.49-.13 1.99-.108.62-.086.011-.172.326-.28-.511.032-.935.194-1.327.097.022-.097.109-.173.327-.227-.098-.064-.261-.108-.501-.118-.598.14.294.118.174.237-.358 0-.315.097-.326.173-.5.075-.609-.011-.99.021.055-.075.414-.075.664-.097-.261-.205-.881.097-1.153.194-.62.054-.805-.065-1.164-.118-.337.053-.044.27-.653.258-.282-.032-.37-.14-.5-.226-.218.065-.207.194-.489.248-1.567.13-3.633.291-5.624.453-.381.01-.174.183-.489.216.108.065.358.075.663.054-.446.226.196.334.348.474l-.326.033-.327.032c.229-.194.131-.334-.511-.291-.119.183.577.022.337.248-.652-.097-1.109.032-1.653.205.294.086.631-.065.99-.086.642-.033.99.075 1.501.086-.228.097-.587.356.011.334-.533.13-1.055.27-1.479.432-.446.086-.338-.076-.664-.054-.457-.01-.838.13-1.316.183-.272.033-.283-.032-.5-.01-.566.064-.99.183-1.48.204-1 .044-3.045.292-4.122.4-.305.032-.827-.087-.99.161-.446.087-.337-.086-.664-.054-.282.011-.304.076-.326.162-.533.108-.239-.183-.663-.118-.61.01-.914.248-1.317.129-.195.032-.13.13-.152.205-.511-.075-1.262-.022-2.154.097a.815.815 0 00-.315.227c-1.827.183-6.341.593-9.398 1.035-.468.065-.816.194-1.316.28-1.066.173-2.11.152-2.97.389.849-.032.599.13-.315.248.533-.065-3.394.324-4.786.518-.272.032-.283-.043-.5-.022-.294.033-.729.162-1.153.194-.359.033-.642-.01-.827.022-.392.054-.642.28-1.479.302-.174 0-.544-.086-.501-.086-.25.032-.522.248-.805.313-.087.021-.304-.044-.5-.022-.424.054-.848.237-1.305.291-.424.054-2.208.184-2.806.302-.185.033-.142.216-.49.205-.054-.118.141-.14.152-.237-.293.021-.337.13-.652.15-.022.087.043.13.174.13-.055.216-.522.065-.337-.118-.381.14-.588.162-.99.183-.131.01-.892.248-1.142.28-.316.033-.631-.01-.99.033-.99.13-2.252.356-3.133.42-.424.033-.892.249-1.305.303-.261.032-.294-.033-.5-.022-.501.01-.947.194-1.317.227-.326.021-.62-.065-.837-.065-.305 0-.783 0-1.001.032-.141.022-.424.205-.478.205-.272.043-.283-.043-.501-.021-.294.021-.348.118-.652.15-.349.033-.675-.021-.99.033-.479.065-1.73.529-2.633.367-.13.162-1.337.377-2.295.485-.239.032-.587-.021-.826.01-1.762.249-3.568.67-5.102.713-.326.01-.631-.173-1.001.021.033.087.305.033.501.033-.348.183-1.882.377-1.828.032-.097.216-.402.13-.978.27-.283.065-.664.345-1.48.323-.087-.161.229-.183.479-.215-.109-.065-.403-.26.152-.26-.13-.226-.348.12-.663.066a.335.335 0 00.141-.346c-.468-.021-.424.162-.816.173.163-.345-.533-.345-.848-.162.228.259.935.216 1.044.55-.239.151-.685.216-.805.41-.25-.075-.272-.28-.522-.356-.479.065-.37.432.185.313-.566.345-1.077-.065-1.186-.291-.293.205-.957.28-.783.658-.239.021-.468.032-.489.14-.348-.13-1.099 0-1.186-.291.435-.065.827-.119.674.172l.827-.086c.109-.323-.805-.01-.696-.345.511-.151.435-.086.837 0-.065-.27-.75-.162-.859-.41-.511.043-.718.367-1.153.205-.022-.378 1.142-.734.936-.928.369-.194.892-.021 1.479-.237-.261.194.022.108.022.324.783-.054.272-.583 1.12-.615.424-.043.207.043.174.15.37.011.229-.183.479-.215.75-.173.663.162 1.338.022.533-.184-.359-.162-.196-.389.109.13.783-.086.837.076.392-.065-.195-.205-.348-.205.403-.184 1.186-.043 1.643-.335-.337-.248-.566.194-.99.184-.087-.184-.751-.14-.359-.378-.761-.021-.631.291-1.305.302-.577.033-.153-.183-.827 0-.315.087-.5.194-.816.248-.326-.086-.729-.118-1.175-.13-.554.141.457-.02.185.227-.609.335-2.077.065-2.306.4-.282-.076-.565-.162-1.163-.044.25-.474.935.087 1.316-.215-.599-.26-1.393-.4-2.045-.626-.566.334.468.4.859.41-.043.302-1.283.15-.957.593-.283.033-.435-.021-.511-.118-.272.248-1.088.28-1.806.345.033-.173.729-.097.642-.313-.359-.065-.772-.097-1.175-.13-.424.054-.305.313-.294.529-.402-.01-1.196.227-1.327.043-.076-.388.729.032.979-.259-.5-.334-.946.184-1.49.065-.011.151.218.151.185.313l-1.49.15c-.522-.129 1.185-.064.968-.344-.413-.151-1.186.237-1.817.259.914.183-.902.215-1.479.312-.489-.097.838-.15 1.153-.194-.272-.334-1.283.043-1.653.162-.457-.183-1.686-.194-2.154.13.239.172 1.153-.087 1.664-.076.044.183-.587.097-.816.162-.598.065-1.305.075-1.479.313-.957-.14-1.631.064-2.828.097-.174.043-.098.183-.315.194-.435.065-.555-.065-.522-.291-1.088.377-1.828 0-2.807.258-.348-.14.066-.172.142-.355-.261.053-.294-.054-.501-.044-.206.044-.196.27.022.249-.424.377-1.164.258-1.806.42-.01.119-.01.237.185.237-.369.195-.892.011-1.479.227.348-.216.033-.464-.359-.475.098-.258.359.044.664-.064.021-.184-.153-.26-.512-.205-.718.14.12.431-.293.625-.751-.097-.805-.075-1.828 0l-.011-.248c-.826.076-1.044.4-1.968.42.217-.236-.283-.172-.348-.226-.12-.097.087-.366-.348-.312-.533.248.62.194.369.56-.652.108-.489-.28-1.174-.15-.229.053 0 .15.174.15-.338.26-.718-.021-1.164.011-.403.033-.903.227-1.316.28-.414.055-.827-.053-1.164.098-.055-.13.152-.162.152-.27-.5.022-.631.324-.99.173-.065-.194.468-.14.479-.291-.62-.033-.457.248-.979.258.12.216.707.151.696.453-.131-.032-.566.108-.664.054-.054-.021.24-.15.153-.183-.403-.173-.794-.28-1.675-.28-.446.118.511.15.021.334-.446-.022-.881-.032-1.337-.054l-.011-.248c-.359-.086-.37.065-.664.054-.587-.011-.631-.248-.99.162.348.054 1.099.205.185.323.294.173 1.262-.064 1.828-.064.076.28-.74.226-1.153.27-.523.042-1.121.085-1.491.118l-.021-.42c-.696.042-.892.237-.642.474l-.99.075c.054-.118.283-.15.316-.28-.751.108-1.045-.065-1.828.054.033-.076.163-.097.163-.184-1.283 0-1.979.162-3.154.162-.12.313-.62.453-1.469.453.066.324.936-.162 1.338.065-.272.216-1.261.13-1.816.227-.065-.14.12-.173.326-.195-.587-.043.011-.313-.348-.399-.772-.01.239.205-.315.28-.74.152-.392-.344-1.175-.172-.315.032.272.291-.141.432-.403-.184-1.404.258-1.001-.097a7.918 7.918 0 01-2.317.237c-.218.42.707.162 1.175.172-.12.335-.718.097-1.164.162-.392.054-.566.248-.99.237-.174-.27.218-.29.653-.29-.033-.184-.425-.152-.838-.109.076-.215.207-.312-.185-.41-.217.054.218.346-.315.443-.174.226.729.248.185.41-.425.032-.207-.054-.174-.162-.86.14-1.077.097-1.991.13-.043-.421.849.064.816-.303-.359-.205-.479-.021-1.001-.097-.37.022 0 .28.011.248-.141.302-.598-.021-.489.367-.62-.01-1.045.28-1.491.097-.359.302-1.881.237-3.143.356-.707.065-.772.162-1.327-.01-.185.032-.109.172-.326.183-2.143.043-3.372.388-5.145.27-.185.032-.109.172-.327.183-.402.054-.37-.13-.826-.043-.185-.302.348-.28.489-.432.294.13.968.334 1.501.086-.098-.237-.609 0-1.001-.108-.097-.032-.097-.226-.174-.237-.293-.065-.652 0-1-.032-.196.28.533.032.337.313-.25.13-1.251.345-.49.442-.076.119-1.49.27-1.327-.022-.826.324-2.088.162-3.491.216-1.523.054-3.426.237-4.656.334-.456.076-.337-.15-.663-.14-.359.097-.783.022-.827.033-.272.043-.25.29-.826.194-.316-.26.282-.162.5-.26.109-.042.217-.226.326-.258.218-.054.936.194.827-.108-.055-.14-.239.065-.5.022-.077-.011-.12-.4-.664-.216-.065.194.751-.076.5.227-.783.129-1.773-.13-2.491-.087.011.291 1.088.043 1.327.216.229.324-.358.259-.326.485-1.664.173-3.045.022-4.329-.075a8.854 8.854 0 01-3.165.216c-.131.29.185.377.663.377-.054.183-.728.087-.837.248.011.291.467 0 .663-.01.555-.022 1.142.075 1.828.043.185-.022.108-.162.337-.162.598-.054.805.075 1.164.14.38-.054-.207-.119.163-.237 1.142.14 2.393-.173 3.502.01-.457.281.936.184 1.001.454.446.01-.163-.443.5-.335-.021-.097-.304-.054-.5-.064-.533-.044.294-.12.5-.098.381.076.588.227 1.164.205.163-.248-.37-.13-.663-.14.021-.27.489-.086.837-.108.696-.054 1.741-.205 2.665-.172.076.172-.239.161-.5.183.304.378.935-.054 1.164-.205 1.338-.021 1.468.335 2.665.227.13-.313-.794-.076-1.164-.12 1.262-.441 2.937-.085 3.992-.226.119-.021.304-.183.326-.183.25-.022-.022.162 0 .162.326-.011.696-.194.99-.216.642-.032.816.237 1.338.183.196-.021.141-.161.163-.258 1.555.021 2.937-.389 3.992-.12.207-.01.065-.107 0-.085.555-.173 2.099-.227 2.491-.043.348-.098.728-.162.99-.303 1.337-.043 3.176.011 4.666.12.25.366.729.463.696.797 1.425-.194 2.099-.14 3.492-.226a.923.923 0 00.326-.27c.381-.054.642-.032.837.032.392-.053-.195-.215-.348-.226-.761-.054-.902.41-1.49.183.316-.194.827-.302 1.48-.345-.077-.065-.153-.14-.338-.15.087-.163.251-.044.338-.022.119.032.435.064.348.312.217 0 .446-.043.663-.043.207 0 .511.14.511.14.305-.021.305-.29.827-.226.065.313.935.13 1.022.431.501-.14-.261-.302.142-.431.511-.076.805.043.511.216.392-.292 1.24.118 1.153-.346-.141-.29-.772.313-.827.065-.184-.27.707-.183.99-.248.142-.032.414-.194.49-.205.87-.14 2.219-.259 2.665-.032.435-.162 1.185-.033 1.827-.14.392-.065.751-.238.979-.335-.751-.183-1.305.216-1.991.151.283-.313.979-.323 1.48-.367.522-.043 1.207.076 2.001-.064.163.259-.424.205-.478.377.5-.118.794-.323 1.305-.442.37.227.718 0 1.501.043.043-.226-.925.162-.674-.194.5-.065 1.294-.022 1.316-.28.413.097.989.086 1.185.323.24-.097.642-.118.479-.377.424-.14.729.194.652-.14.61-.055.653.237 1.023.334.446-.119-.446-.119-.196-.41 1.175.172 2.099-.227 3.155-.184.163-.064.163-.204.489-.215-.413.399.392.118.522.377.185-.172 1.327-.377.968-.507.142-.291.337.065.501.043.456-.129-.251-.204.141-.356 1.61-.086 3.024-.323 4.296-.485.272-.032.294.065.501.032.424-.053.761-.28 1.316-.29.174 0 .5-.033.674.107.588-.097 1.349-.173 1.98-.27 1.806-.27 3.22-.356 4.177.195-.033.345.043.614.544.614-.033.151-.272.216-.653.238.37.13-.337.68.544.615-.566.118-.5.485-.783.668-.131.087-.675.011-.479.216-1.697-.043-3.611.216-5.319.259-.272.01-.533-.108-.837-.086-.425.021-.849.194-1.316.205-.283.01-.359-.054-.664-.022-.576.065-.892.356-1.327.13-.174.032-.098.172-.315.194-.457.01-.892.13-1.327.13-.196 0-.512-.12-.512-.12-.185.011-.293.173-.489.216-.392.087-.827-.032-1.164.022-.315.043-.37.172-.653.226-.533.119-1.066.108-1.664.054-.283-.01-.304.097-.315.194-1.001-.053-2.35.173-3.818.335-.327-.097.272-.378-.359-.4-.501.152.261.303-.142.443-1.294.086-1.729.086-2.991.259.065-.108.207-.194.49-.216a.558.558 0 00-.816.324c-.772.13.217-.238-.348-.227-.359-.01-.305.14-.316.28l-1.163.087c-.283-.151.01-.108-.022-.335l-.501.044c-.348.075.631.302-.315.366-.674.076.022-.118-.185-.323-.457.043-.348-.119-.663.054-.37.043-.055.367-.142.517l-1.164.087a.325.325 0 00.153-.345c-.207.13-.882.075-.642.388-.925.151-1.403.032-1.675-.216-.316 0-.74.475-.827.065-.457.108.402.313-.489.291.076.065.152.14.337.14-.087.033-1.501.378-1.175-.086-.511.032-.381.335-.99.324l-.011-.248c-.098.15-.5.172-.652.302-.49.032-.631-.151-.849-.28-.011.377-1.229.29-1.49.344-.033.011.359.12.5.054-.892.313-2.066.054-3.165.195-.304-.27-.489-.475-1.196-.68-.512-.032-.316.248-.827.216.5.28-.511.399.185.496-.196.183-1.186.032-.816.474-1.925.346-4.547.249-6.33.432.087-.313 1-.194 1.664-.248.609-.043 1.272-.043 1.664-.173-.326-.097-.848-.075-1.012-.27-.674-.02-.402.367-.989.378v-.162a3.87 3.87 0 01-1.676-.172c-.184.032-.108.172-.326.183l-1.164.054c-.413-.097-.108-.162-.337-.237-.663.021.054.13-.326.27-.435.021-1.044-.033-.827.29-1.022-.129-2.523.109-3.339.076.555-.216 1.827-.118 2.665-.205.196-.13.478-.226.489-.431-.435 0-.718.064-.663.28-.642-.14-1.099.119-2.002.097.196-.118.066-.13-.011-.248-1.425.162-2.806.27-4.666.345-.413-.097.294-.258-.174-.323-.718.021.25.42-.827.356-.348-.184.229-.432.664-.507-.12-.291-1.099-.087-.827.27-.326-.022-.598.075-.337.097-3.263.161-8.027.15-11.193.356-.185.021-.098.086 0 .075-.38.065-1.077.032-1.838.097-.098-.248.598-.119.174-.313-.457-.172-.696-.043-.837-.064-.436-.087.598-.022.837-.173-.642-.086-1.164-.227-1.838-.291-.174.366-.783.528-1.349.722-.402-.043-.859-.053-.827-.302-.772.28-1.729.011-3.339.076-.13-.065-.174-.173-.163-.313-.359-.043-.315.108-.337.227-.762-.076-1.654-.011-2.676-.022-1.49-.01-2.937-.205-4.166-.259-.598-.021-1.197.14-1.501-.097-.218.022-.272.13-.511.14-.425-.021-.577-.15-.827-.248-1.294.248-3.046-.086-5.178-.075-.402-.184.262-.13.185-.356-.805-.011-.652.431-1.686.313.153-.12.479-.173.359-.421-.598-.065-.663.28-1.174.043.119-.14.783-.032.848-.194-.381-.173-.87.226-1.675.097-.044-.194.25-.227.685-.194-.304-.248-.587.108-1.001.043-.032-.14-.728-.043-.826-.173-.457.097-1.077.41-1.523.28.174-.085.185-.247.359-.334.305.011.348.108.663.108.109-.334-.935-.237-1.327-.205-.032-.205.392-.194.359-.41-.261.065-.424.184-.685.248-.576.011-.565-.204-.816-.323.794.01 2.654-.173 3.329.226.38-.021-.196-.118.185-.205.707.044 1.718-.032 2.164.12.163 0 .131-.087.174-.141.979 0 1.621.259 2.339-.022.446.227 2.164.119 2.828-.01.228.194.946.194 1.49.258.033-.28-.674-.258-.979-.388.229-.291.337.032.827.022.359.021.087-.26.185-.367-1.023-.086-1.371.162-1.849.334-2.089-.108-3.307-.032-4.819-.172.413-.076.348-.389.859-.421-.065-.162-.881-.022-.989-.162-.066.14.021.227.315.227-.054.226-.838.108-1.338.118-.011-.118.098-.27-.152-.29-.598-.076-.098.344-.849.204.305-.227.305-.172-.141-.356-.283.032-.12.162.152.151-.043.108-.5.01-.511.13-.392-.14-.772-.227-.468-.443-.674-.054-.685.205-1.501.087-.652-.011-.489-.324-1.142-.324-.478.076-.99.14-.696.4-.925-.044-1.381.064-1.36.29-.478.033-.424-.118-.826-.108-.066-.15.25-.118.51-.118 0-.205-.358-.27-.64-.378-.664.087-.523.097-1.165-.043-.185-.226.544-.032.348-.259.011-.162-.457.011-.337.13-.544-.022-.837.086-1.5.01-.066.151 0 .26.14.346.218-.087.73-.044 1.164-.022-.13.335.87.259.784.583-.947-.076-2.263-.108-3.557-.151-1.295-.076-2.556-.173-3.416-.302.044-.302.392-.044.675-.022 1.392.119 3.546.205 4.981.28-.446-.15-1.305-.15-1.468-.399-.566-.075-.24.27-.849.173-.37.01-.228-.14-.489-.173-.38-.14-.457.097-.511.097-.076 0-.207-.075-.327-.086-.217-.022-.282.043-.337.043-.74-.054-1.316-.237-2.153-.14-.283 0-.305-.076-.316-.151-.5.01.142.151-.022.259-.413-.022-.391-.173-.641-.237-.36-.033-.098.226-.196.312-1.316-.043-2.545-.043-3.666-.118-.185-.011-.24-.14-.315-.151-.185-.022-.729.01-1 0-.338-.011-.828-.119-1.002-.022-.13-.065-.446-.075-.478-.172-.849.107-2.72-.292-3.992-.26-.12-.204.446-.086.533-.194.653.12.99.151 1.653.151.326 0 .163-.226.685-.118-.489-.259-1 .032-1.5-.022-.153-.162-1.11-.097-.958-.334-.304.065.13.28-.38.334-.48 0-.414-.13-.816-.14-.196.162.359.14.641.183-.26.13-1.142.054-1.686.022a19.814 19.814 0 01-1.327-.13 2.18 2.18 0 01-.478-.161c-.196-.022-.24.086-.348.086-.37 0-.631-.194-1-.043-.284-.01-.306-.076-.316-.151-.479-.065-.523.075-1.012 0 .054-.097.305-.097.674-.032-.097-.13-.478-.195-.63-.313-.381-.033-.784-.054-.697.15-.108-.053-.957-.269-.837-.042.141.161.642 0 1.153.14-.152.065-.544.01-.849.01.077.184.87.227.947.41.75.011.88.098 1.305.27-.098.13-.685-.291-.838-.043.033.076.316.097.327.043.511.205-.827.291.446.4-.12.269-1.306-.292-1.512-.022.609.13.957.334 1.795.399.489 0-.196-.173.043-.291.413.086.392.28.61.42.39.022.706-.043 1 .108-.653.227-1.74-.118-2.85-.15.087-.076.533.02.37-.184-.631-.14-.305.216-1.023.032-.032.065.022.108.153.14-.566.044-1.251.011-1.404.27-.532-.032-.5-.162-.804-.227-.73-.15-1.012-.064-1.665-.183-.01-.119.164-.15.522-.097-.456-.334-1.762-.227-1.762-.582-.707-.033-.021.312.261.431.011.119-.587-.054-.837-.065.522-.097-.218-.27-.261-.42-.838-.022-1.218.172-2.371-.011-.446-.033-.294-.151-.468-.227-.142-.01-.174.033-.337 0-.348.011.457.205-.207.184-.359-.022-.304-.13-.304-.205-.512-.022-.925.01-1.676-.13-.424-.097-.424-.237-1.13-.302.01.065.293.097.489.14-.522.065-2.306-.431-3.318-.485-.326-.108-.087-.27-.61-.356-.25-.021.055.076-.032.14-.946-.172-1.903-.345-2.643-.42.011-.14-.152-.26-.783-.324.098.065.37.108.294.194-.337 0-.24-.13-.305-.15-.348-.087-.783 0-1.153-.217.577-.032 1.099.162 1.99.27.392.054.338-.108.85 0-.545.086 1.185.248 1.446.4.174-.022.348-.044.522-.055.413.108.38.27.598.4.522-.055.555.215 1.305.28.294-.248-.968-.378-.402-.529.413.162.794.324.74.54.707.161.783 0 .37-.14.119-.065.38.032.315.107.598.076.783.194 1.131.302.316.076.283-.183-.13-.183.25-.119.717.216 1 .119.066-.076-.141-.12-.13-.184-.283.022-1.045-.194-1.023-.021-.663-.065-.468-.238-1.131-.302-.065-.13.326-.022.359-.097-.033-.12-.305 0-.337-.011-.207-.033-.25-.151-.479-.184-.272-.032-.457.033-.837-.043-.229-.021-.164.097-.207.162-.674-.097-.729-.259-1.11-.388-.51-.108-.489.043-.696.075-.359-.13-.49-.291-.761-.42-.359.14-1.36-.044-2.186-.13.195-.14-.631-.162-.968-.27-.512-.075-.381.173-1.186-.054.13-.021.315-.01.511.011-.022-.108-.707-.172-.816-.172.12.064.174.13.294.194.424.226.761.205.446.28.49.097.979.216 1.48.291-.327.12-1.034-.183-1.817-.323a38.844 38.844 0 01-2.622-.55c.153-.108-.13-.194-.097-.291-.838-.238-1.24-.238-1.948-.443.098-.075.327-.086.697-.032-.435-.227-.762 0-1.186-.076-.587-.097-.359-.226-.946-.323-.305-.065 0 .183.456.226-.38.13-.565-.183-.957-.28-.674-.087-.239.097-.554.14-.642-.151.239-.13-.435-.302-.12.076-.838-.14-.707.054-.48-.162-1.414-.27-.958-.291-.446-.087-1.272-.356-1.468-.324-.283-.097 0-.075.032-.108-.51-.162-.26.065-.522.033-.228-.205-.456-.044-1.294-.324.12-.054.37-.032.533-.054 3.046.81 4.318.852 7.048 1.38.229.033.033-.064-.141-.118.587.086 1.207.14 1.653.248.13.033.261.14.468.184.109.021.403.043.337.021.25.076-.25.076.631.216-.337.205-1.153-.162-1.664-.205.674.302 1.686.582 2.882.863-.097.022-.184.032-.195.097.674.097.424-.13.25-.313-.707-.194-.577.032-1.175-.108.13-.172.816-.248-.218-.496 1.327.237 3.21.464 4.754.863.533-.054 1.697.194 2.654.345.326.033.174-.162.685-.032.37.194.348.291.424.42.794.087.631.098 1.654.227.087-.097-.087-.15-.12-.226-.283.064-.935-.065-1.196 0-.936-.475.75-.313 1.555-.097-.01 0-.207.064-.185.075.076.01.98.151.838.032.946.162 2.98.486 4.47.572 1.023.076 2.089.313 2.97.388.424.033.979-.021 1.512.033.652.054 1.283.162 1.675.043-.066-.205-.936-.248-.936-.464-.75.022-1.958-.172-2.12-.431-.197.183-.73.194-1.382.161-.163.13.206.173.12.292-1.023-.065-.48-.367-.25-.475-.153-.054-.838-.097-1.317-.216-.315-.032.218.227-.217.248.054.108.815-.075 1.153.151-.174.054-.468.044-.533.151-1.197-.215-2.622-.302-4.45-.636-.5-.183 1.023.183.85-.022.01-.129-.534-.183-.969-.258-.424-.087-.163.172-.685.043.424-.087-.174-.227-.468-.227-.38 0-.043.227-.337 0-.24-.183-.707-.313-1.131-.28.141.118.707.194.609.345-.522-.054-.403-.205-.794-.28-.13-.011-.174.021-.337 0-.142.107.315.15.456.226.131.13-.489-.032-.5-.032-.38-.022-.402.021-.674-.011-.729-.087-1.719-.302-2.633-.42.435-.066.642.064 1.328.16.01-.118-.534-.182-.969-.247.022-.14-.337-.227-.609-.335-.554 0 .403.184.098.302-.957-.118-.598-.377-1.066-.55-.609-.097-1.022-.237-1.447-.356-.304-.054-.13.13-.37.119-.848-.119-.63-.324-1.598-.431.141-.184-.566-.292-.392-.475.533.216 1.164.162 1.501.13-.032-.065-.402-.109-.642-.163.131-.01.196-.064.207-.14.36.054.511.13.457.216.228.065.435-.097.5.043.218.119.13.13-.348.032.283.13.109.26-.228.238.196.172.576.021.99.13.032.118.217.215.087.344.49.098.206-.194.707-.107.076-.108-.62-.151-.446-.27.228.065.859.097.805.194.283-.022.435-.097 1.011.01-.315.109-.26.249.61.325.413.172-.468.053-.055.226.207-.022.326-.086.837.032-.076.076.11.108.305.14-.13.098-.392.238-.087.378.305 0 .25-.162.849-.01.173.226-.566.01-.392.237.63.162.457-.065.696-.087.316.065-.033.216.63.249.11-.033.088-.173.545-.162-.12-.14-.435.064-1-.108.282-.087-.349-.151-.469-.216-.065-.043.066-.097.033-.14-.044-.065-.403-.108-.294-.194.196-.011.457 0 .827.075-.076.054-.305.033-.359.097.402.065.685.076.838.033-.022-.248-.805-.313-1.447-.367-.13-.162.38-.032.674 0-.282-.173-.424-.291.076-.335-.032-.053-.315-.075-.304-.14-.413-.043-.587.097-.99-.097.163-.194 1.512.097 2.49.205.556.065 1.002.054 1.491.162.011.043-.511.01-.663-.043.5.172.565.032.99.086.25.032.456.162.467.173.294.032.533-.054.849-.033.272.022.358.108.641.14.544.076 1.273.044 1.643.238-.174.248-.849.248-1.686.021.022.173.718.249 1.283.346.49.021.196-.054.207-.184.326.065.511.054.511-.043.294.022.816.14.675-.032 0-.097-.631.01-.816-.14.794-.055 1.697.194 2.643.237.207.01.424-.054.674-.033.73.065 1.73.151 2.48.216 1.24.108 2.622.237 3.46.378.021 0-.044.108-.022.118.152.076.467-.054.663.011-.402.335.36-.054 1.153.108.196.01.152-.097.196-.162.674.065 1.599.076 1.795.27.51.075.402-.151 1.011-.043.098.216-.13.28-.696.183-.043.183.479.216.968.259.142-.173-.141-.227-.12-.367 1.97.097 3.949.216 5.918.356 1.969.108 3.948.205 5.906.313 1.958.108 3.916.227 5.863.335 1.947.064 3.883.14 5.797.204 1.295.044 2.35.044 3.644.12.272.01.294-.066.501-.055.565.022 1.642.086 2.643.097.555.011 1.077-.097 1.664-.054.783.054 3.154.119 4.471.043.772-.043 1.751-.248 2.817.011.859-.108 1.501-.183 2.153-.021-.108-.076-.38-.076-.326-.227 1.229.097 2.154-.065 3.644-.032-.065.097-.294.118-.337.237.674.076.435-.27.837-.313.392.022.087.335-.01.389.467-.044.707-.195 1.163-.238.523.119.86 0 1.491-.01.293-.011.565.086.826.075.414-.01 1.088-.27 1.991-.205.239.022.424.14.5.14.283.011.435-.28.827-.021.565-.065 1.892-.335 2.654-.389.304-.021.587.065.663.065.294 0 .348-.097.664-.097.337 0 .337.13.5.14.087.011.305-.097.501-.097.717 0 1.827.086 2.48.01.293-.031.478-.16.826-.193.12.065.305.108.501.14.337-.173 1-.13 1.49-.14.348-.011.783-.184 1.153-.216.293-.022.348.075.663.054 1.11-.097 2.589-.227 3.807-.324.272-.021.294.076.501.065 1.12-.086 2.11-.28 2.806-.291.359 0 .25.097.5.14.892-.097 1.643-.259 2.644-.313.108.076.38.065.337.227.196-.022.13-.162.163-.26 1.077-.02 1.827-.485 2.643-.15.587-.097.598-.043 1.316-.162.185.086.479.119.348.4.74-.044.207-.206.49-.357.761-.118.805.162 1.49.087.304-.033.087-.292.315-.356.838.086 1.969-.205 3.144-.216.348 0 .761.108 1.164.086 1.022-.043 2.839-.518 3.48-.15a.874.874 0 00.316-.27c1.109.14 1.729-.335 2.98-.206.24-.388.631-.215 1.306-.355.054-.098-.283-.227-.349-.227-.174 0-.282.183-.489.205-.25.032-.315-.086-.5-.043-.24.043-.435.194-.653.215-.359.044-.609-.032-1.001-.021-.391.022-.924.15-1.653.119-.207-.011-.468-.13-.5-.13-.185 0-.718.151-1.153.162-.555.01-.631.065-1.327.086a33.76 33.76 0 00-2.317.162c-.055-.13.152-.151.152-.259-.5.043-1.088.13-1.001-.183-.195.032-.13.162-.152.259-.022.183.587 0 .827.021-.479.335-1.632.335-2.48.26-.414-.087-.501.355-.664.118-.348-.151.065-.162.326-.27.164-.065-.054-.183.327-.183.13 0 .163.086.337.064-.022.098-.294.087-.489.12.543.193 1.087-.13 1.653-.033.228-.475-1.295.075-1.012-.432-.913.184-1.174.594-2.306.475-.206.367.794.054.675.377-.762.065-1.436.087-1.828-.064.283-.13 1.219-.195.653-.453-.315.054-.12.334-.653.29.131-.484-1.109-.236-1.327-.01.153.14.522.151 1.001.108-.141.334-.838.119-1.316.162.37-.345-.316-.313-.675-.453-.174.334.588.259.174.485-.445-.021-.424-.323-1-.27-.468.076.272.108.337.151-1.599.27-3.97.4-6.113.508-.196.01-.914-.173-1.153.129-.925-.086-2.741.01-3.47.075.25-.29 1.121-.194 1.817-.248 1-.064 1.936-.054 2.643-.205-.065-.29-.457-.183-.174-.485-.598.097-.881-.108-1.153.054.206.032.337.075.826.13-.369.43-1-.011-1.653.075-.065.194.751-.076.5.226-3.807.151-9.169.367-13.215.518-.272.01-.555-.065-.827-.054-.37.022-.653.119-.99.108-.555-.01-1.229-.334-1.653-.022-.055-.172-.664-.086-.827-.204-.207.021-.174.161 0 .15-2.904.486-6.113 0-8.43.367-.239-.032.022-.064.011-.15-.576.096-1.185.183-1.99.183.021-.194.652-.119.674-.313-.522 0-1.251.302-1.653.097.021-.324.696.075.837-.237.522-.043.577.13 1.153.054.131-.022.163-.076.337-.076.055-.172-.032-.28-.315-.302.533-.097.631-.431.674-.54-.261-.29-.968.033-1.316-.129-.087-.237.533-.075.664-.086.174-.022.098-.14.174-.151.478-.065 1.098-.043 1.816-.108.272.13.24.561-.185.615-.13.172.599.302.653.14.511.119-.348.248-.337.389.359.01.522-.076.5-.238.522-.043.37.227.99.14-.294.313-1.066-.075-1.327.249-.566.01-1.24-.313-1.817-.044-.228.324 1.317-.021.653.292.685-.195 1.142-.033 1.653-.26.316.033.707.011.653.216.696-.237 2.088-.118 3.307-.043.62-.194 1.501-.291 1.979-.194.457-.108.838-.259 1.491-.28.021.14-.207.172-.164.323.414 0 .403-.183.664-.259.566-.043 1.338.022 1.653-.13-.109-.096-.348-.129-.663-.14.315-.15 1.055-.107 1.316-.28.74-.01.957.248 1.653.26.25-.044-.065-.098 0-.238.696-.043.892.183 1.654.108.163-.054.174-.184.5-.173.065-.14-.131-.15-.326-.15.533-.174.946-.076 1.316.031.37-.053-.196-.118.163-.248.544.033.228.518 1.153.356-.109-.075-.381-.064-.326-.226.565.13.609-.227.989-.13-.043-.01-.174.227 0 .238.153.021.446-.205.164-.173-.077-.216.902.022.826-.205-.206-.216-1.523.173-1.316-.259-.228.033-.141.205-.163.324l-.827.032c.066-.69 1.436-.755 2.469-.518.229-.043.011-.14-.163-.15.468-.27 1.077.064 1.48.086.206-.011.065-.108 0-.087.38-.118 1.468-.161 1.816-.01.25-.13.935-.065.816-.367.652.205 1.392.043 2.306-.032.402.086.381.388 1.001.355.391-.183-.925-.129-.338-.474.327-.043.512-.01.501.14 1.12-.097 2.61-.043 3.459-.28.359-.033.522.032.5.215.228-.313 1.164-.377 1.969-.29.163-.227.892-.217 1.316-.325.087.173-.229.173-.49.195.436.215 1.034-.184 1.491-.011.185-.032.087-.086 0-.086.163-.324.272.043.5.053 0 0 .729-.043.827-.053.272 0 .554-.054.826-.054.196 0 .501.14.501.14.185-.01.402-.237.652-.291.261-.054.294.075.501.054.13-.011.163-.097.326-.108.642-.011 1.077.118 1.49-.022.055-.022-.25-.086-.424-.065.729-.172 1.523-.043 2.23-.064.261-.011.522-.13.816-.14.097 0 .369.075.663.032.228-.033.022-.13.163-.184.294-.118.849.011 1.153-.086-.032.151-.272.216-.652.216.663.075-.207.324.184.496.131-.022.164-.097.327-.108.489-.086-.163-.172-.011-.334.12-.151.359.01.663-.043.066-.011.457-.195.49-.205.076-.011.761.215.653-.13.358-.075.239.14.5.13.283.01.304-.087.326-.195.718.12 1.251.151 1.98-.14.424.065.761.173 1.327.151.054-.15-.142-.15-.337-.14.272-.15.598-.021 1.153-.172.304-.033.087-.292.315-.367.522.086.696-.27.979-.335.152-.032.544-.01.827-.064 1.164-.249 3.459-.302 5.275-.421.359-.022.914-.291 1.164-.01.37.02.229-.184.49-.206 1.903-.108 3.274-.367 4.622-.226-.587.28-1.316 0-1.968.258-.207.324.598.13 1 .087.196-.022.522.043.501.043.391-.065.554-.259.815-.237.892.118 1.991.064 2.47-.292 1.468-.01 2.643-.366 3.643-.14.925-.388 2.763-.323 3.96-.356.348-.388 1.642-.226 2.795-.334.881-.087 1.719-.324 2.469-.389 1.045-.097 2.1-.183 2.97-.258.892-.097 1.849.043 2.469-.313.457.226.794-.065 1.316-.119.272-.032.283.054.5.043.914-.064 2.035-.334 3.122-.453.588-.064 1.121 0 1.654-.064.337-.044.63-.206.979-.26.369-.053.772.033 1.163-.021.555-.076 1.099-.324 1.643-.237.163-.022.119-.108.152-.184.403.011.762.054 1.327-.043.522.14.838.41 1.849.248.348.216-.641.453-.435.863.207.205.859-.086 1.153-.108.239-.097-.054-.118.142-.345.62-.118.38.28.848.248.62.033.457-.248.979-.259-.011.151.217.151.185.313.576.011.631-.183 1.153-.194.054.13-.142.151-.152.259.598-.108 1.12-.259 1.49-.054.196-.022.076-.108-.011-.086.468-.14 1.566-.227 1.99-.108.305-.086.098-.248.49-.13.446-.097.761-.237.968-.42.228.054.239.248.522.28.131-.054.261-.108.49-.13-.011-.193-.305-.204-.196-.463.424-.043.206.043.174.14.468.043.424-.172.816-.162.413.022.881.583 1.163.054-.043-.097-.5-.054-.5.043-.283-.053-.207-.323-.37-.453.392-.086.751-.183 1.316-.205-.054.184-.902.076-.805.313.631.13 1.871-.172 2.132-.431.544.032 1.578-.216 1.512.183.62.032.457-.237.979-.248.305.032-.098.097-.326.108.087.248 1.088.226.544.582.228.098.946.022 1.153-.107-.152-.108-.544-.065-.838-.087.261-.14-.293-.431.457-.518.772-.064-.174.13.022.313.555-.064.696-.334.99-.086.489-.097-.174-.151-.022-.313.326.108 1.099-.043 1.664-.065.327.087-.261.356.359.356.283-.021.424-.097.49-.205-.044-.107-.501.022-.512-.107-.185-.249.512-.173.816-.227-.174-.28-.663 0-1.164.022.25-.432 1.121-.194 1.98-.335-.054.108-.283.151-.315.26 1.065-.238 1.076.129 1.522.258.131-.022.164-.097.327-.108-.272-.226-.74-.323-.881-.626.369.033.674.098.685.335.522-.01.674-.162.816-.302.228.032.315.14.348.28.522-.097.185-.194.99-.161.261.01.663-.022.674.097.609-.108-.087-.227.305-.41l-.501.043c.152-.162 1.197-.162 1.012.14.729-.13 1 .01 1.664-.065-.402-.118-1.773-.01-1.36-.345.468-.054.403.194.849.162.13-.022.163-.086.326-.108.011-.14-.217-.14-.185-.291-.348 0-.435.086-.652.13-.316-.173 1.011-.238 1.327-.12.032.13-.196.184-.142.324.631-.194 1.74-.27 2.002-.021.304-.162-.164-.248-.359-.345.892-.292 1.751.27 2.828-.087.511-.097.217.237.837.076.533.021.327-.227.642-.28.805.085 1.305-.098 1.838.064.163-.065.163-.183.49-.194.217-.087.195-.27.478-.335-.185-.075-.152-.14.153-.161.054.215-.436.485.195.496.425-.054-.239-.108-.021-.291.641-.011 1.022-.238 1.479-.27.62-.054 1.066.162 1.838.065.403 0-.109-.324.479-.26.511-.075.087.087.174.13.109.065.533-.01.511.173.664-.14.185-.26.468-.475.511.054 1.327-.01 1.827-.15.37.118 0 .226-.141.366.283.13 1.022-.087 1.653-.205-.13.259.131.302-.468.464.055.097.425.021.664.021.37-.043.054-.302.141-.442.511-.032.381-.28.979-.291.196-.022.131-.14.152-.227 1.088.011 2.078-.162 2.992-.162.163-.01.119-.097.152-.15.696-.022 1.207-.14 1.653-.13.033 0-.021.13.011.14.142.043.653-.097.827-.064.174-.033.109-.14.326-.162.196-.238-.544-.011-.348-.248.729-.248.435.366 1.338.043.054.108-.152.13-.152.215.522.054.913-.27 1.164-.086.195-.021.13-.13.152-.216.99.044 1.599-.097 2.491-.237-.033.097-.49.054-.49.162.218.205 1.806-.388.653-.248.065-.151.816-.087 1.164-.14-.065.14.119.161.185.248.185-.022.087-.076 0-.065.38-.259 1.62.108 1.816-.248.522-.065.392.172 1.001.065.065-.14-.239-.108-.5-.098.152-.15.957-.053 1.163-.01.283-.043-.228-.205.49-.227.348-.054.326.076.337.173.555.01 1.033-.216 1.653-.302.098-.011.207.043.338.043.217-.01.272-.086.326-.086.413-.022 1.131-.043 1.827-.119.305-.032.849-.054 1.164-.076.435-.021.805-.204 1.164-.064.076.032.424.075.664.021.021-.01.163-.13.163-.13.065 0 1.174.217 1.327-.129a221.53 221.53 0 001.99-.172c.196-.011.718-.097.664-.097.217 0 .261.097.5.086.533-.021.446-.216.827-.043l.489-.194c2.459-.151 4.841-.346 6.983-.561a.813.813 0 01.338.15c1.577-.334 3.219-.366 4.818-.506.435 0 .131-.205.664-.173-.076.162.217.194.5.237.12-.161-.457-.075-.337-.237.413-.021.805-.032.838.076.217-.043.304-.119.326-.205 1.153-.076 1.555-.054 2.828-.097-.446.237-.424.27-.49.55.359.01.316-.087.327-.162.467.01.467.162.674.259.805-.13 1.545.032 2.002-.162.369-.032.239.086.5.076.185-.022.109-.098.337-.098.577-.053.642.054 1.164.011.098.087.261.162.838.108.38-.162-1.36-.01-.338-.119.272-.032.609-.01.664-.021.413-.032.5-.097.663-.108.294-.022.359.032.664.022 1.294-.044 2.904-.173 3.665-.151.196-.011.142-.076.164-.13.805.054 2.208-.043 3.002-.194.337-.022.544.022.837.022.305 0 .403-.076.501-.087.206 0 .228.065.337.076.087 0 .772-.043.837-.043.305-.011.512-.054 1.001-.043-.054-.054-.413-.022-.663-.033-.403-.065 1.098-.032 1.501-.054-.392.097.489.108-.174.184.152.097.315-.097.837-.044.229-.086-.424-.129 0-.14.664-.01-.054.054.326.097.316.011.207-.086.338-.108.13-.021.881.033.663-.075.925-.022 1.566.01 2.328.021-.087.108.359.12-.011.195.642.043 2.306.021 3.002-.033.142-.01.142-.032.163-.064 1.382-.044 2.915.043 3.666-.044.718.033 1.816.076 1.838-.043.457.033.859-.01 1.338-.01.305.01.751.021 1.001.032.185 0 .391-.043.5-.043.664-.022 1.479 0 2.165 0 .576 0 1.566.01 2.501.01.577-.01.979-.032 1.502-.032.609.01 1.218.032 1.838.022-.131.043.163.064.152.097-.62-.022-.37.054-.837.054.152.043.522-.022 1 .01-.424.044-.565.13.142.173.098 0 .369-.021.5-.021.37.01 1.142.021 1.827.032.609 0 .903-.022 1.501.01.381-.032 2.1.011 3.177.022h.837c1.044.033 1.958.065 2.828.087-.098.01.414.021.479.043.533.021 1.272.043 1.795.054-.349 0 0 .01.478.01-.62 0 .413.011.468.011h-.501.664c-.272 0-.283 0-.511.011-.24.097-.055.097.152.097zm-250.84 15.706c.022.237.098.453.642.442l.011-.453-.653.011zm.142.992l.5-.01c-.163-.227-.152-.529-.979-.443-.294.367.761.087.479.453zm12.541-.14c-.489-.01-.141-.453-.99-.28-.196.259.261.183.327.302-.12.13.772.097.663-.022zm7.581-1.09c.414-.086 1.425.087 1.317-.226-.414.086-1.414-.086-1.317.227zm1.828 1.047v-.41c-.316.108-.762.151-.827.367.468-.086.424.097.827.043zm.642-1.165c-1.121.076-1.338.28-2.47.205.066.345 1.382.01 1.98.065.022-.151.544-.087.49-.27zm.663-.194c.381.075-.315.334-.489.431.38.011.631-.043.826-.118.12-.194-.195-.54-.337-.313zm5.276-.335c-.077.26.206.324.5.378.065-.108.207-.183.489-.194.077-.26-.217-.324-.5-.378.022.14-.163.205-.489.194zm-.99.044c.087.205.315.323.5.463-.054-.215.218-.614-.5-.463zm2.001 1.208c-.283-.097-.196.065-.489.108-.501.086-1.545-.033-1.48.323.62-.15 1.806-.065 1.969-.431zm6.907-1.489c-.435.216-.837-.075-1.153.151.229.097 1.153.086 1.153-.15zm7.147.863c-.077-.496-1.153-.022-1.317.173.109.043.512.302.664.043-.435-.345.413-.076.653-.216zm.663.13c-.033-.151-.12-.27-.348-.313.228.345-.457.302-.642.464.414-.022.805-.044.99-.151zm-110.426.064c-.391.011-1.066-.13-1.033.065.511.14.37-.054.685-.022-.054.108-.076.216.272.28l.076-.323zm8.626 2.61c-.468-.086-.837-.129-1.012-.064.61.01.49.086.98.216l.032-.151zm3.35 1.133c-.13-.064-1.262-.323-1.164-.108.11.12 1.208.249 1.164.108zm1.762-.366c-.837-.076-1.392-.41-2.142-.346-.229.26.696.324.968.238.663.075.848.237 1.174.108zm.49.064c.24.335 1.294.26 1.816.248-.51-.248-1.294.011-1.816-.248zm2.382.95c-.75-.108-1.566-.475-2.154-.302.87.043 1.61.377 2.154.302zm-8.91-3.129l.49.076c-.087-.173.207-.162.228-.28-.598-.108-.533.107-.718.204zm-.239-.507c.38-.097.218-.215.892-.237-.587-.065-1.62.022-.892.237zm-3.002-.183c.033-.14.75-.183-.109-.313.13.205-.38.108-.544.173.316.021.349.097.653.14zm.098.313c-.055.065-.283.043-.359.097.218.054.294.118.642.15.076-.107.01-.193-.283-.247zm.935-.42c.066-.055.25-.066.207-.173a2.625 2.625 0 01-.642-.14c-.065.14-.087.269.435.312zm2.992 1.121c-.49-.216-1.056-.108-1.806-.28-.022-.076-.25-.13-.294-.195.011-.064.294 0 .348-.054-.391-.107-.326-.28-.946-.345-.337-.032-.457.033-.685.054.01.248.283.464 1.055.615.13-.086-.207-.097-.305-.151-.163-.075-.456-.291-.12-.27.392.108.686.227.599.4.827.129 1.577.226 2.154.226zm.957.302c.304-.13 0-.205-.62-.302-.218.313 1.403.572 1.914.582.142-.194-.892-.161-1.294-.28zm1.37-.086c-.533-.022-.5-.14-.63-.238-.305-.021-.555-.032-.675.011.642.119.707.184.294.26.413.064 1.229.02 1.011-.033zm.11-.626c.075-.13-.197-.194-.632-.237-.076.13.022.226.457.27.022-.033.044-.054.174-.033zm.195-.14c.457.118.24.356 1.11.399.195-.097-.283-.14-.294-.248 0-.022.402-.022.359-.119-.022-.054-.044-.14-.642-.183.12.313-.272.075-.533.15zm3.73.766c.12.356-1.359-.248-.87.172-.565-.108-.706-.021-1.011-.01-.533-.173-1.055-.346-1.762-.486l-.044.216c.74.065 1.153.162.784.313.88.086 1.5.054 2.338.118-.141-.27 1.588-.01.566-.323zm1.948-.572c-.664-.032-1.153.01-1.686.043-.577-.162-1.392-.27-2.284-.367-.077.119-.011.205.12.292.304-.033.957.097 1.174.021-.402-.14-.587 0-.816-.15.479-.087 1.077.129 1.295.258-.881-.01-.294.183-.881.227-.316-.022-.349-.108-.653-.13-.054.151.468.184.446.324-.065.021-.816-.011-.348.065.555.01.565-.238 1.37-.12-.402-.29.283-.226.544-.215-.315-.043.142-.205.37-.183-.109.27 1.131.259 1.262.485l.043-.28c-.435-.054-.979-.076-.968-.227.446.043 1.197.227 1.012-.043zm.652 1.1c.48.011.414.13.816.151.337-.216-.837-.302-.816-.15zm1.088-.442c-.707-.108-.24.13-.522.108-.435-.054-.968-.14-1.011 0 .62.118 1.066.032 1.316.15-.11-.172.26-.118.217-.258zm1.034-.173c-.294-.021-.794-.248-.99-.107.13.021.185.064.152.129.402.054.794.097.838-.022zm1.283.356c-.174-.032-.38-.13-.152-.13.544-.02.098.195.641.174.262 0 .164-.173.675-.065.228-.173-.533-.087-.294-.26.49.023.783.303.99.087-.49-.021-.49-.172-.979-.194-.62.043-1.033.205-1.86.13-.033.064 0 .161-.196.15-.816-.021.435.108.5 0 .24.011.48.27.675.108zm1.773.453c-.185-.086-.576-.118-.979-.15-.228.172.533.097.294.258-.511 0-.599-.118-.99-.15-.294.086 0 .075-.033.237.5-.011 1.327.118 1.512-.044-.772-.064.142-.086.196-.15zm1.392.788c-.522-.119-.152.183-.674.054-.261-.033-.109-.162-.479-.162l-.032.237c.63.011.783.151 1.316.184.109-.184-.555-.205-.13-.313zm-.141-.194c-.022-.119-.935-.291-1.153-.162.218.065 1.577.302 1.153.162zm.62-.788c-.577-.021-.925-.097-1.316-.172-.218-.022-1.197-.108-.675 0l.827.075c.13.14.25.583.772.432-.293-.043-.359-.14-.293-.27.293.01.826.13.685-.065zm-.044.291c.664-.021.316.227.98.206.217-.173-1.404-.335-.98-.206zm1.567.82c-.457-.097-.653-.259-1.295-.302-.12.205.925.41 1.295.302zm1.838-.021c-.403-.076-1.284-.367-1.49-.14.402.086 1.425.334 1.49.14zm.74-.55c-.414-.011-.73-.346-.98-.205.207.108.762.442.98.205zm.076-.561c-.38-.151-1.316-.151-1.969-.227-.196.227.925.097.794.313-.228-.01-.196.14.152.14.098-.086-.152-.334.207-.291.13.151.576.194.816.065zm6.102.474c.392.022.479.14.99.119.25-.194-.98-.216-.99-.119zm-5.776.874c.13 0 .326.032.337-.032-.652-.119-.533.13-.696.248l.664.065c.141-.162-.316-.162-.305-.28zm.642-1.143c.043-.151-.229-.216-.468-.292-.065.076-.25.097-.196.238l.664.054zm2.175 1.37c-.859-.13-1.066.032-1.675 0 .022-.162.479-.12.696-.195-.49-.204-.903.044-1.185.14.87.173 1.425.076 1.968.357-.12-.184.25-.14.196-.302zm-.38-.971c1.675.032-.642-.216-.675.021.305.022.38-.032.675-.021zm2.142.183l.033-.323c.022-.087 1.196.032.674-.087-.641-.021-1.218-.064-1.642-.162-.294.302.848.14.62.421-.316-.032-.37.054-.674.022.13-.335-1.502-.658-1.795-.302.663.054 1.272.118 1.48.15.282.335-.567.14-.545.357.772.054.947-.173 1.85-.076zm2.382 1.068c-.456.022-.315-.151-.652-.173-.38.065.196.173-.185.184-.054-.119-.218 0-.5-.032-.076-.216.337-.184.032-.324-.25 0-.609-.065-.674.021.087.011.185.065-.011.065-.86.032-.685-.237-1.131-.334.022.259-.338.334-.24.625.697-.021.816.065 1.49.162.033-.075.066-.15.349-.108.51.033.456.238 1.153.205.087-.108.5-.075.37-.291zm-.12-.4c-.62-.204-.282-.247-.826-.118.207-.226-.391-.205-.293-.41-.338-.075-.653.173-.349.173.011-.065.305-.065.327.022l-.011.129c-.348.022-1.077-.151-1.164-.01.305.15.783.085 1.164.075.413.27.979.183 1.642.302.13-.173-.282-.097-.49-.162zm1.872-.409c-.294-.054-.686-.075-.816-.183l1.164.064c.141-.064.24-.161.196-.323-.98-.14-1.045.15-1.839.086-.12.13.283.14.316.216 0-.011-.337.075-.348.108 0-.033.315.075.326.086.065.065-.359.13.152.14-.304-.334.762-.032.849-.194zm1.446.615c-.304-.14-1.087-.119-1.653-.173.076.4 1.164.291 1.653.173zm.697-.356c.032.075-.055.086-.131.086-.174-.032-.098 0 0 0 .054.011.141.033.283.054.196.043.109.14.49.162.119.01.63.075.674-.097-.283-.054-.98.021-.99-.13.783.108.478-.14.685-.161.185.086.577.108.99.118-.076-.291-1.294-.205-1.795-.367 0-.064.142-.075.174-.118-.5-.076-.315-.065-.826-.054-.272.237.74.054.467.291L92 94.232c-.196.291.74.097.805.27zm2.458.464c-.881-.097-.403.097-.675.108-.696.021-1.435-.248-1.98-.184.24.033.142.173.142.28.783-.15 1.349.055 2.491.076l.022-.28zm4.47.313c.011-.097-.065-.151-.152-.216-.413-.032-.533.086-.685.183.217.097.609.119.837.033zm1.871-.55c-.293.032-.968-.12-1 .032.206.097.978.15 1-.033zm3.677-.378c-.327-.13-.207.01-.664-.01-.152.269.773.29.664.01zm.119.712c-.38-.054-1.185-.313-1.653-.119.403.065 1.381.26 1.653.119zm3.111.992c-.261-.032-.13-.226-.652-.162l-.011.216c.239 0 .598.043.663-.054zm.664-.054c.533.076.522-.097.674-.205-.555-.14-1.251-.086-1.175.27.098.022.631.194.664.01-.098-.01-.196-.01-.163-.075zm2.991.13c.087-.345-.663-.022-1.001-.022-.402.011-1.142-.226-1.338.043.773-.01 1.839.119 2.339-.021zm1.36-.788c-.207-.108-.99-.14-1.001.054.305-.032.979.108 1.001-.054zm-9.224 1.478c-.544-.032-.62-.226-1.327-.205-.044.356.816.313 1.327.205zm1.827.13c-.565.075-.859-.302-1.164-.097.664.086.381.172-.021.28.5-.01 1.022-.01 1.185-.183zm6.994.161c.196.022.174.119.153.227.293.01.522 0 .674-.054.13-.183-.696-.334-.827-.173zm-5.036.54c-.152-.173-.033-.464-.642-.453-.087.27.338.334.642.453zm.522-.356c-.903-.119.642-.42-.478-.443-.261.227.065.572.478.443zm5.809.82c-.022-.108.076-.27-.153-.302.044.15-.478-.033-.5-.087.022-.118.424-.043.337-.216-.739-.043-1.751.098-2.502.011-.413-.054-.587-.291-.989-.323.533 0 1.479-.195 1.185-.346-.348.238-1.479.195-1.686.4.022-.022.533.064.327.15-.294-.053-.707.195-.838-.021.196-.01.468.022.5-.065-.25-.097-.674-.108-.826-.237.195-.097.185-.173-.153-.227.109.227-.576.076-.348.357.425 0 .533-.13.664.086a27.6 27.6 0 00-.533.647l.663.022c.229-.173-.652-.249-.152-.292.163 0 .74.011.664.087.01-.011-.468.032-.338.064.468.108.968.033 1.501.044.349 0 .936.226 1.001-.044-.794-.01-1.001-.27-1.653-.334.489-.216.957.183 1.327.259.337-.022 1.251-.151 1.501.043.022.216-1.088-.119-.849.194.805-.097 1.034.076 1.85.13zm3.23-1.694c-.076-.216-.576-.626-1.153-.377.185.01.261.086.326.15-.217.108-.728.076-1.163.076.195-.237-.251-.183-.327-.302-.576-.076-.641.097-1.164.054.109.226.109.15-.01.377 1.163.022 2.327.022 3.491.022zm4.666-.313a7.791 7.791 0 00-1.501.076c-.043-.173.479-.087.501-.227-.131-.021-.327 0-.327-.075h-.337c-.032.118.055.28-.174.302-.217-.335-.859-.011-1.327 0l.011-.227c-.685.237-1.74-.259-1.827.076.696-.065 1.218.172.816.377.652-.01 1.218-.054 1.501-.226.87-.065 2.349.453 2.664-.076zm3.459 2.244c-.489.108-.62-.086-.837.15.391.098.315-.01.837.087v-.237zm1.023-1.489c-.196-.086-.587-.075-1.001-.065-.239.26 1.001.195 1.001.065zm.174-.7c-1.11.053.152-.27-.326-.378-.74-.022-1.251.043-1.828.086-.413.108.294.237-.174.313-.391-.151-.718-.335-1.327-.378-.283.097-.457.259-.511.464.598 0 1.327.022.674-.151.577.043.881.205 1.491.227.391-.367 1.501.064 2.001-.184zm.174-.39c.196.012.098.087 0 .152.446-.011.359.237.827.215.326-.118-.457-.604-.827-.366zm74.346-1.66c.196-.033.468-.033.489-.13-.609 0 .414-.464-.359-.302-.174.097-.043.162-.13.432zm-8.419-1.327c.729-.054 1.153.021 1.653-.238-.196-.032-1.327.076-1.653.238zm-7.658 2.88c.501-.108.609.032 1.001 0 0-.248-.99-.27-1.001 0zm-2.48.291c.435-.237.958.065 1.327-.194-.174-.065-1.457-.119-1.327.194zm-15.957 1.187c.164-.119.153-.324.316-.442l-.664.043c-.021.205-.021.41.348.399zm-7.722-1.273c.63-.076.348.367 1.174.172.076-.27-.576-.183-.185-.41-.478.022-.837.087-.989.238zm-2.6 2.222c.522-.119.413.108.674.13.033-.249-.326-.27-.511-.389 0-.162.446-.13.326-.345-1 0-.38.226-.489.604zm-9.507.194c.479 0 .849-.043 1.001-.194-.62.076-.99-.205-1.001.194zm-4.362-1.489l.838-.032c.152-.334-1.001-.291-.838.032zm-1.316 1.263c.446-.011.979.01 1.001-.194-.348.053-1.164-.098-1.001.194zm-2.675-.151c.565.032 1.392-.227 1-.356-.065.097-1.294-.119-1 .356zm-3.84-1.112c.119.238.522.324 1.164.303.293-.443-.566-.303-1.164-.303zm-3.165 1.64c.511.216 1.098-.021 1.664.216.109-.216-.283-.086-.501-.151-.391-.108-.989-.388-1.163-.065zm-1.153-2.74c-.457.033-1.164-.205-1.491.033.37.021.131.41 0 .474.718-.075 1.143-.27 1.491-.507zm2.665.097c.097-.313-.914-.075-1.328-.13-.228.033-.315.12-.663.098.098-.205-.065-.28-.5-.227-.131.249.456.14.326.389-.642-.054-.718.15-1.001.259 1.012-.108 2.263-.486 3.166-.389zm8.799-.183c-.13-.01-.196-.065-.174-.151-.511.075-.315.065-.827.032-.141.238 1.11.162 1.001.119zm3.165-.043v-.248c-.38-.011-.62.043-.663.183.217.022.315.108.663.065zm1.164-.205c-.206-.227-.282-.507-1.011-.453-.174.302.206.15.337.313-.011-.022-.239.13 0 .161l.674-.021zm11.117-.734l-.011-.334c-.479.01-.838.065-.99.216.49-.043.511.161 1.001.118zm16.936-7.162c-.359-.151-.903.043-.979.248.62-.01.761.043.979-.248zm1.142 2.707c-.707-.054-.838.054-1.142.346.413-.098.924-.162 1.142-.346zm2.817-3.106c-.446.172-.783-.076-.979.248.228.097.99 0 .979-.248zm1.664.205c-.348-.054-.359-.302-.848-.27-.131.28.435.14.511.302.011.086.305.075.337-.032zm1.306-.356c-.196 0-.109-.087-.011-.173-.555.183-1.11-.183-1.306.367.686-.076.914.064 1.317-.194zm22.972 3.29c-.196-.227-1.066-.033-1.501-.108-.022.13.076.302-.141.356-.033-.151-.566 0-.675-.108-1.044.334-.38.108.174.15.381.033.664.228 1.001.076 0-.118-.087-.172-.185-.237.555-.313 1.023.097 1.327-.13zm.968-.346c-.478.054-.598.249-.805.41.316-.053.37.054.664.022-.142-.227.228-.237.141-.431zm10.91-1.067c-.261-.227.033-.324-.196-.475-.609.194-1.218.259-1.642.324.13.01.196.053.174.15.479.044 1.12-.248 1.153-.118-.033.172-.729.097-.642.313.609.108.609-.087 1.153-.194zm7.723-1.36c-.446.054-.783.27-.468.378.435-.022.533-.162.468-.378zm-3.818 2.45c.076.15-.348.258-.805.409.326-.032.229.205.675.097.087-.108.804-.604.13-.507zm3.622-.54c-.13 0-.196-.043-.174-.151-.555 0-.533.226-.805.334.283-.075.979 0 .979-.183zm3.068-1.381c-.512-.022-.544-.345-1.186-.291-.185.14-.174.226.022.323-.283.022-.424.108-.49.216.827-.27 1.349.076 1.654-.248zm4.981-4.617c.414-.021.805-.054.816-.237-.261-.108-.946-.032-.816.237zm-1.316.205c0-.14-.054-.248-.185-.302-.413.022-.511.173-.641.302.456-.119.435.065.826 0zm2.426 3.463c-.598 0-1.251.259-1.49.075.043.033.522-.118.163-.097-.261.216-1.49.076-1.295.453.631.054.305-.248.816-.248.316.043 1.664.205 1.806-.183zm1.175-4.358c.054-.26-.37-.227-.849-.162-.054.248.37.216.849.162zm1.501.097c-.588.032-.99.14-1.142.345.5.162.783-.226 1.142-.345zm.522 4.897c.152-.28-.522-.065-.838-.075 0 .323.446.162.838.075zm.674.087c-.272-.108-.859.021-.99.183.283.108.86-.022.99-.183zm1.556.787c-.12-.119-.642-.42-.849-.227.098-.01.196-.01.174.065-.304.043-.544.108-.652.227.478-.043 1.076-.162 1.327-.065zm2.675-2.18c-.098.281.599.217.838.076.087-.29-.609-.226-.838-.075zm21.342-6.612c.337.108 1.022-.064 1.316-.183-.653.076-1.012-.086-1.316.183zm-4.46.518c.609-.205.609.043 1.164.054.011-.183.293-.248-.022-.367-.272.14-1.207.044-1.142.313zm-9.431 1.025c.218.086.816.043.827-.151-.218-.076-.816-.043-.827.151zm2.078 5.836c.13-.291-1.099-.054-.99.108.392-.022.696.075.99-.108zm1.947-.745c-.642-.086-.631.41-.305.41-.141-.215.566-.15.305-.41zm-.849-.29c.392-.022.327.226.838.14.848-.292-.577-.54-.838-.14zm19.362-3.765c.098-.507-1.24-.022-1.827.032-1.012.097-1.947.065-2.818.119.011.118-.119.194-.315.248-1.436.01-2.165.259-3.459.474-.12-.15.457-.27-.185-.194-.185.151-.62.216-.805.367-1.218.065-2.371.356-2.98.216-.631.205-1.338.259-1.817.183.229.345-.826.248-1.131.41.044-.151.435-.194.479-.345-.555.194-.794.065-1.491.15-.239.324.718-.042.675.163-.087.28-.794.053-1.479.226-.011.097-.033.184-.316.184.305-.27-.065-.044-.5-.022-.696.032-1.229.065-1.48.302a.29.29 0 01.142-.313c-.62-.021-.522.216-.816.313-1.066.054-2.056.173-2.328.01.022-.096.283-.204-.011-.226-.239.119-.239.313-.467.432-.446.043-.794-.248-.99.097.718.032 1.262-.194 1.501 0-.272.097-.74.183-1.142.27-.696.161-.25-.011-.827.01-.783.594 3.068.043 2.981-.15.587.085.739-.109 1.316-.217-.131.313.631.011.663.011.348-.021.446.173.838.14-.142-.323.892-.237.968-.474.293-.01.826-.162.674.086-.511.087-.685-.108-.816.162.272.043.533.054.827-.01.294-.066 1.338-.67 1.479-.303-.087.01-.185.076 0 .076.196-.238.99.226 1.153-.194-.108-.098-.631.053-.674-.076.794-.108 1.392.054 1.816-.259.131-.01.283.183.349.183.141.011 1.055-.14 1.153-.118.021 0-.011.15.01.15.327-.02.664-.215.99-.172.033.087-.011.205.185.205.348-.183-.032-.237-.185-.345.685-.14.163-.313.968-.464.327-.032.218.173.675.076.108-.13.435-.173.652-.216a20.956 20.956 0 013.307-.324c.141-.118.228-.248.653-.28a79.151 79.151 0 014.405-.593zm.99-.097c.032-.205-.381-.173-.359-.378.13-.032.326-.032.326-.097-.881.097-.979.56.033.475zm4.111-.863c-.62-.011-1.555.248-2.469.366-.478.054-1.164-.118-1.316.195.392-.011.783.118 1.164.097.446-.022.5-.162.816-.216.163-.022.13.054.174.054.152 0 .152-.087.163-.087.837-.107 1.294-.194 1.468-.41zm22.353-1.392c.044-.237-.968.043-1.153.097.381 0 .849.043 1.153-.097zm-.185-.55c-.315.01-.359.097-.663.108-.066-.13-.653-.151-1.001-.151-.305 0-.413.097-.827.13-.402.031-.946-.044-1.327-.012-.217.011-.217.097-.489.097-.446.011-1.654.054-1.654.313.446-.075.327.097.501.14.663-.032 1.218-.097 1.479-.237.044.076.37.033.5.076.881-.27 2.187-.28 3.144-.313-.152-.108.957-.119.337-.151zm2.654-.27c-.022-.13-.739-.248-1.001-.086.403 0 .359.183 1.001.086zm2.48-.086c-.315.065-1.642.162-1.316.205.49-.01 1.599-.162 1.316-.205zm2.012.647c-.413.076-.685-.183-.989.032.174.022.761.14.989-.032zm2.491.162c-.293.032-.391-.022-.337-.13-.522.022-.576.14-1.153.151-.043.098.816.162 1.001.12.076-.012-.033-.13.163-.12 0 .087.446.13.326-.021zm2.807-.55c.076-.13-.87-.13-.99-.022.304.022.598.043.99.022zm12.237-1.78v-.173l-.501.033c-.043.118.065.183.501.14zm12.411.151c-.392.022-.305-.097-.827-.032-.098.097.674.118.827.032zm10.898-2.88c-.761-.033-1.566.108-.837.14.25-.054.837-.054.837-.14zm2.013-.076c-.631 0-.968.14-1.675.054-.153.065.533.054.826.054.414-.01 1.055-.043.849-.108zm1.49 1.856c-.141-.054-.25.064-.664.064-.01-.021-.043-.043-.326-.021.25.065-.565.054-.5.097.457-.043 1.544-.065 1.49-.14zm.174-1.866c-.576.01-.696-.033-.99-.054-.054.043.218.043.327.064-.109.054-.349.108.326.108.011-.032-.076-.043-.163-.065.359.011.522-.01.5-.053zm3.992.064c-.283-.01-.403-.01-.664-.021.218.032-.076.108.49.108.141-.022.217-.044.174-.087zm2.154 1.198c.108-.065-.479-.022-.99.01-.022.054.489.022.99-.01zm3.502-.28l-.011.042c.631-.021.653-.075.011-.043zM173.96 93.358c.979-.108 1.653-.12 2.153-.249-.576-.075-1.566.087-2.153.249zm14.575-1.198c.783-.097 1.382-.086 1.991-.086-.109-.345-1.578-.151-1.991.086zm2.371.734c.316.01.425.14.838.097.043-.054.391-.356-.022-.335-.022.356-.696 0-.816.238zm-123.097.744c.054.13.816.13 1.142.205.01-.076.098-.108.196-.14-.403-.14-1.132.14-1.48-.238-.511-.064-.5.108-1.174-.032-.066.259.946.205 1.316.205zm-13.096-3.064l-1.643-.237c.044.216 1.327.227 1.642.237zm.206.615c-.01-.15-.109-.29-.25-.42-.305-.054-.37 0-.663-.043.021.183.424.323.913.463zm-11.247-1.467c.218-.118-.598-.172-.435-.291.533.065.49.151.794.227.098-.173-.555-.205-.957-.26-.207-.032-.457-.096-.653-.118-.032 0-.087.054-.185.043-.185-.01-.456-.097-.652-.13-.11.087.51.335.783.281-.229-.194.87.14 1.305.248zm7.723.54c.566.108 1.044.172 1.327.13-.61-.152-.968-.314-1.62-.325.206.054.326.12.293.195zm-11.138-1.24c-.055-.066-.185-.12-.468-.184.196.194-.468-.033-.38.108.598.183.543.043.848.075zm1.066.517l-.653-.151c-.098.065.348.313.62.259-.283-.076.044-.033.033-.108zm56.104 3.311c.664-.15 1.458.206 1.828-.086-.61.022-1.686-.162-1.828.087zm-5.765-.29c2.252.183 2.861.183 5.113.269.206 0 .391-.01.337-.13a182.625 182.625 0 01-4.46-.15c-.391-.011-1.5-.108-.99.01zM3.851 78.763c.043 0 .282.064.652.162.022-.011-.26-.076.022-.022.729.183 1.273.313 1.936.485 1.044.26 2.132.529 3.23.799.207.053.447.129.48.129 1.62.4 3.262.69 4.883 1.046.272.065.675.162.968.238.142.021.511.086.664.108.239.053.565.14.805.194 1.12.237 2.523.528 3.72.82-.153.032.206.107.12.14.663.097-.033-.054.043-.108 1.207.205 1.773.345 2.306.367.391.01.446.108.642.15.348.076.707.055 1.142.216-.13-.194.49.043.848.054-.326-.086-.424-.162-.598-.248-.283-.01.043.108-.38.087-.523-.087-.556-.151-1.132-.238l.032-.097c-.543-.108-.14.108-.87-.01 0-.044.218-.011.196-.065-.63-.13-.881-.076-1.316-.216a9.26 9.26 0 01-1.817-.28c.24.021.577.075.99.15-.141-.064-.413-.14-.62-.204-.359-.076.142.075.142.075-.098.01-.283-.054-.49-.086-.26-.033-.294.043-.827-.14-.14-.087.36.053.5.064.142.011-.01-.086.36-.01-.587-.216-.957-.238-1.6-.389-.043.086.643.151.784.227.163.129-.566-.065-.685-.044-.533-.14-.066-.053-.12-.129-.283-.097-.402-.183-1.099-.313.033-.065.642.01.838.119.446.075-.413-.119-.12-.13.36.022.751.151 1.132.238.141.021.38.064.652.118.74.162 1.6.367 2.415.507.305.043.468.065.664.087 1.163.215 2.6.474 3.73.68.49.075.838.172 1.295.258 1.37.27 2.763.529 4.144.798 1.392.238 2.785.464 4.1.723.262.054.403.119.632.173.554.13 1.12.172 1.794.28.523.086.718.183 1.306.205.51.065.402.162.783.237.826.065 1.697.324 2.621.346.294.021-.032.15-.359.075.566.216 1.48.14 1.338.054.588.119 1.36.216 1.414.4.816-.087 2.067.42 2.796.29.315 0 .37.13.467.151.11.022.283-.01.5.022.708.13 1.926.4 2.905.54.24.02.816.075.838 0 .195.032.12.096.13.15.903.054 1.62.119 2.295.248.163.011.142-.043.185-.075.598.151.936.065 1.284.237.359.065.25-.064.51-.043.36.097 1.088.216 1.785.302.424.054 1.229.097 1.479.119.348.021.685-.011 1 .01 1.208.108 2.415.216 3.438.313.968.097 2.001-.032 2.621.216.283.01.381-.075.675-.054.26.011.282.087.478.097.37.011.914-.032 1.327 0 .925.065 1.795.248 2.774.291.25.011.294-.032.5-.032.283.011.533.097.816.108.207.01.479-.075.674-.075.088 0 .294.075.49.086.294.021.359-.043.663-.022 1.273.076 2.644.216 3.775.216.272 0 .272.086.49.086.598.011 1.38-.172 2.305.076.664-.14 1.6.064 2.796.054-.033.118-.544.021-.511.172.413.022.522-.075.674-.172.294.13 1.077.086 1.632.118.38.033.206-.183.51-.172 1.665 0 3.177.194 4.591.162.38-.011.642-.098 1-.098 1.034-.01 2.078.087 3.112.12.315 0 .685-.076.99-.055.304.011.478.119.815.151.294.022.511-.064.827-.054 1.207.022 2.632.119 3.937.195.087.215-.641.021-1.153.053-.315.022-1.087.313-1.153-.021-.576-.043-.424.237-1 .194.011-.119-.109-.183-.316-.216.066.151-.587.302-.99.054-.195.26.61.119.468.356-1.12.011-1.566.022-2.469.022-.163.259.707.13.457.42-1.142-.172-1.947.216-2.796-.118-.348.032-.359.097-.184.205-.381.086-.599-.194-.664-.022-.392-.032.207-.172.185-.259-1.164.108-1.904.162-3.133 0 0 .065.196.065.327.076-.588-.022-2.121.064-2.959-.13-.577-.054-.424.216-1.012.151-.195-.097-.554-.14-.968-.172-.272-.033-.315.032-.348.118-.359-.043-.88-.183-.99.022.11.151.925.065 1.306.119-.066.162.032.28.467.28.131-.01.174-.054.338-.054-.098-.064-.37-.086-.305-.205 4.068.302 5.863.248 9.713.443.196.097.055.107-.021.205 1.055.01 1.947-.022 2.806.064.185-.01.12-.14.337-.13.446.055.914.098.794.367.446-.075.522-.043.348-.27.163.055.163.163.49.152-.087.248-.718.248-1.023.399-.598-.14-.587-.108-1.479-.108-.24-.248.566-.032.511-.194-.315-.173-1.305-.043-.837.183-.642-.086-.968.13-1.316-.032-.066-.151.25-.13.5-.13-.218-.183-1.055-.064-1 .108-.827-.097-1.785-.108-2.807-.075-.468-.054-.685-.194-1.131-.259-.185.01-.12.13-.337.119-1.534-.119-3.525-.087-4.776-.292-.141-.226.523-.075.838-.086-.566-.259-1.207.032-1.501.13-2.056-.227-3.59-.27-5.591-.389-.109-.13-.49-.075-.141-.194-.512-.108-.414.065-.675.075a37.124 37.124 0 00-3.937-.334c-.62-.021-1.393-.043-1.98-.075-.511-.033-.849-.119-1.305-.151-.261-.022-.566 0-.827-.022-.25-.022-.37-.14-.642-.172-.228-.022-1.577-.087-1.99-.076-.174 0-.13.097-.348.076-.381-.12-.544-.12-1.142-.162-.555-.043-.675-.194-.99-.043-.522-.044-.522-.195-1.132-.216.011.065.294.075.48.097-.208.194-.62-.01-.99-.043-2.057-.173-3.906-.335-6.397-.723-.761-.119-2.186-.28-3.274-.4-.293-.031-.337-.096-.641-.129-.664-.064-1.501-.043-1.795-.27-.163.109-1.675-.053-1.98-.183-.065-.021.392-.01.5.033.066-.076-.891-.216-.663-.054-.25-.119-.653-.216-1.283-.291-.011.043.195.064.315.097-.674 0-2.012-.292-2.948-.4-.576-.205-1.24-.388-2.404-.528.076.097.827.13.61.259-.936-.184-1.11-.054-2.143-.237-.588-.12-1.273-.26-1.936-.389.043-.043.304.022.5.054-.326-.162-1.088-.194-.685-.01-.37-.055-.61-.12-.631-.195-.99-.065-2.545-.442-3.764-.615.588 0-.652-.259-.957-.248.065.14.848.054.63.184-1.565-.28-3.458-.626-4.557-.82.066-.043-.141-.076-.13-.119h-.511c-.697-.15-1.414-.302-2.1-.453-1.174-.227-2.425-.55-3.709-.82-.294-.054-.685-.13-.979-.183-1.36-.291-3.774-.788-5.493-1.22-.5-.107-.99-.215-1.468-.312-1.055-.259-2.034-.496-3.057-.744-1.272-.302-2.545-.594-3.72-.874-.293-.065-.337-.097-.63-.172a19.864 19.864 0 01-.642-.173c-.414-.119-.87-.27-1.284-.345-1.958-.54-2.197-.604-4.155-1.154-.01-.011.207.043.174.021l1.284.345c.348.097.087 0 .184.011-.402-.075-.293-.032-.543-.097-.403-.108-.142-.043-.316-.097-.25-.065-.446-.108-.49-.119-.39-.108-.445-.14-.782-.226zm84.896 13.063c.338 0 .642.323.98.108-.327.01-.632-.313-.98-.108zm7.005-.723c.305.076.773.097 1.142.162.12-.248-.837-.42-.957-.356.479.032-.26.086-.185.194zm-1.577-.777c-.022.195 1.077.28 1.305.162-.359-.086-.663-.183-1.305-.162zm-5.602-.01c.37.054 1.36.215 1.48-.011-.566.097-.968-.13-1.48.01zm-4.264 1.25c.207.152 1.48 0 1.164-.075-.152.13-1.044-.064-1.164.076zM73.27 89.82c.424.097.827.119 1.153.022-.348-.054-1.033-.205-1.153-.022zm-4.927-.313c.021.13.457-.021.51-.064l-1.478-.13c-.185.184.63.13.968.194zm-19.895-1.8c.511.096.685.042.849-.012-.414-.054-.838-.108-.849.011zm-.914.258c.61.043 1.893.475 2.132.28-.609-.15-.25-.053-.5-.032-.544.054-1.49-.518-1.632-.248zm-3.61-.453c.293.119 1 .162 1.01.022-.62-.13-.717-.033-1.01-.022zm-.305-.13c-.479-.064-.479-.161-.958-.226-.239.097.784.28.958.226zm-6.755-1.995l.653.108c.304-.13-.805-.26-.653-.108zm-2.458-.367c.88.097.456.237 1.261.345.022-.108-.522-.194-.761-.29-.163-.141.533.053.37-.076-.555-.097-.642-.011-.87.021zm-5.102-1.186l-.652-.12c-.163.076.74.249.652.12zm-1.077.086c.468.097.827.15.99.13-.185-.044-.239-.076-.304-.12-.403-.075-.631-.075-.686-.01zm-8.364-1.79c-.305-.109-.435-.195-.925-.324-.293.01.435.15.61.215.054.022-.055.022-.012.043.033.011.272.076.316.087.272.065.392.097.642.162.185-.033-.348-.12-.631-.184zm1.153.172c.272.054.544.118.816.162.271-.011-1.034-.27-.816-.162zm1.403.431c-.098-.14-.838-.162-1.11-.291.033.054-.478-.075-.51-.043.608.162.902.172 1.62.334zm1.381.033c-.402-.097-.478-.044-.837-.097-.174-.022-.849-.227-.827-.12.305.076 1.664.314 1.664.217zm2.59.507c-.403-.054-.85-.13-.85-.043.403.053.838.129.85.043zM9.625 80.285c.055.032.033.054.457.172.294.054.38.065.196-.021-.435-.119-.337-.065-.653-.151zm-2.273-.55c.174.053.24.075.305.107-.174-.043-.414-.108-.164-.032.36.075.544.162 1.12.313.077-.022-.565-.184-.946-.28.055-.011-.206-.087-.315-.109zm63.262 11.11c.62.054 1.642.259 2.143.151-.664-.032-1.73-.248-2.143-.15zm19.731 1.586c-.522-.022-1.675-.248-2.469-.119.468.119 1.98.216 2.47.119zm-16.468-1.1c.87.021 2.306.043 3.46.248-.066-.238-.85-.162-1.306-.216-.664-.076-1.871-.335-2.154-.032zm8.55.68c.75.064 1.86.14 2.806.172.685.032 2.632.172 2.317.043-2.197 0-3.546-.367-5.123-.216zM40.735 89.13c-.468-.14.24-.043.055-.183-.664-.205-.076.183-.544.075.032.097.424.183.49.108zm88.617 1.413c.957-.183 2.208-.15 3.296-.043.522.022.37-.259.99-.194-.033.065-.163.086-.163.162.891.053 1.218-.14 1.816-.227-.207.4.413.367.827.453-.392.388-1.501.054-1.817-.097-.109.302-.859.636-1.316.518-.065-.216.62-.097.664-.26-.164-.236-.555.055-.664.098-.163-.076-.783.13-.99.032-.022-.01.022-.162 0-.162-.206 0-.38.14-.663.184-.25.032-.24-.065-.327-.065-.228 0-.424.194-.826.033-.066-.033-.261-.033-.327-.065-.206-.087.348-.41-.5-.367zm.664.216c.739-.097 1.305.377 1.316-.205-.501.043-1.284-.043-1.316.205zm-1.665.68c.153.129-.011.42.49.377.152-.205.228-.431-.49-.378zm-1.153-.108c.762.032.229-.303.501-.335l1.153-.043c.032-.065.011-.151.163-.162.207.324-.555.227-.664.42.49-.031 1.164.184 1.317-.129-.697.044-.109-.172 0-.237-.349-.27-1.077.022-.99-.356-.664.065-1.055.248-.338.324-.978.108-1.153-.378-1.816-.011 1.338-.076.359.302.674.528zm76.119-6.753c.609-.108 1.654-.043 1.98-.27-.609.108-1.653.043-1.98.27zm-66.884 5.868c.044-.216-.228-.259-.663-.216-.044.216.239.26.663.216zm-14.488.302c-.62.119-1.48-.032-1.654.42.435-.032.533.098.49.292.685.054.652-.216 1.001-.324 0 .108-.077.173-.175.238 1.132-.011 1.85-.194 2.317-.507.261-.011.566 0 .501-.162-.218-.022-1.219.097-1.153.022-.022.021.457-.076.337-.087-.5-.043-.62-.118-.99.097.783-.054.239.065.326.302.131.011.327 0 .327.076-.294-.043-.968.108-.99-.054 0-.097.294-.076.337-.162-.511-.076-.402.13-.663.162-.294-.162 0-.108-.011-.313zm-3.971.83c-.554-.02-.707.14-1 .249.413-.043.99-.011 1-.248zm3.122.173c.229-.01.359.033.49.065.054-.162.446-.162.5-.313-.555-.01-.707.151-.99.248zm2.817-.582c-.13.248.37.183.49.226.087.033-.218.14-.163.162.13.054.794-.075.652.227-.543 0-.815-.12-1.479-.054.098-.162.479-.26.174-.389-.359 0-1.599-.01-.99.173.055-.162.783-.032.653.14-.337.086-1.197.043-1.49.335.903-.184 2.741.129 3.796-.13-.403 0-.033-.259.174-.237.674.01.957.194 1.642.183-.174-.431-2.077-.377-2.795-.324.315-.15.022-.194.011-.388.598.248 1.566.237 1.979-.118-.261 0-.576.032-.489-.14-.99-.087-1.153.204-1.98.194-.054.043-.032.14-.185.14zm195.41-15.965c.098-.097-.577-.119-.838-.108-.304.01-.968.086-1 .162.913-.022 1.109-.097 1.838-.054zm-99.831 7.648l-1.153.108c-.055.334 1.12.032 1.153-.108zm50.318-4.401c-.196 0-.468.043-.501-.032-.239.15-2.055.118-1.479.323.229-.14 1.762.022 1.98-.291zm-32.229 3.721c.01-.226-.425-.194-.849-.161-.054.258.37.226.849.161zm-122.032 8.112c-.109-.097-.348-.14-.653-.15.664-.033 1.229-.303 1.817-.41.435-.076.217.118.652-.022.849-.27 2.306-.367 4.112-.486.163.097.555.087.653.216.043.345-.947.227-.501.55-.587.13-.729-.021-1.316.108 0 .324.979.183 1.643.194.021.14-.207.162-.174.313-.827-.27-1.926 0-3.122-.01-.076-.163.239-.152.5-.163.381-.064.5-.237.674-.399-.587-.205-.522.076-.826.173-1.316.01-2.448-.194-3.459.086zm2.469-.367c.043.108.359.076.489.14.12-.301-.62-.204-1.142-.194-1.12.044.185.108.653.054zm111.894-7.842c-.109-.291-1.001-.054-1.664-.01-.675.043-1.458.194-1.827.086.337.464 2.403-.097 3.491-.076zm-1.262 1.004c-.587.075-.62-.184-1.174-.14-.153.312.63.075.522.355.391-.01.631-.075.652-.215zm-2.806.172c-.033.302.892.022 1.175.14-.011-.28-.631-.183-1.175-.14zm-4.307.313c-.577.01-.751-.227-1.501-.108-.164.388 1.468.13 1.501.108zm-114.603 7.993c.098-.227-.555-.194-.141-.356h-.49c.076.173.109.367.631.356zm119.204-8.824c.087.216-.903.022-.816.238.827-.13 1.283-.044 1.99-.097.109-.346-1.022.053-1.174-.14zm-125.295 8.738c-.098-.194.348-.13.511-.205-.359.162.152.453.479.291-.49-.119.576-.119.511-.27-.218.011-.479-.29-.653-.086.087 0 .185.065 0 .065-.598-.151-1.087.064-1.468-.162-.218.173.065.216-.185.28-.174-.043-.685.044-.827-.01-.032-.011.044-.13.011-.14-.424-.065-.935 0-1.48-.098-.26.26.74.033.468.28.893-.02 1.458.141 2.633.055zm10.301 1.553c.489-.022 1 .216 1.163-.065-.348.033-1.076-.097-1.163.065zm-10.595-2.19c-.239.033-.848-.097-.827.054.25.13.751.216.827-.054zm4.057 1.068c-.576 0-1.294.022-1.501.324.25.021.609-.01.653.086-.272 0-.109.194-.348.205-.381.01-.174-.205-.479-.226-.065.161-.522.15-.674.27.457.096.848.107 1.316.032.076.226 1.969.312 1.653-.108-.533-.011-.707.108-1.327.043l.022-.28c.479.312 1.795-.162 2.469.172-.326.13-.413.01-.826 0 .217.572 2.186.151 2.327-.205.435-.022.707.032.653.216-.609 0-.892.14-1.175.28.707-.097 1.49-.162 1.838-.431a6.155 6.155 0 00-1.131-.442c-.739.129-.859.28-1.664.29-.62.012-1.262-.226-1.806-.226zm11.411-1.035c.021-.238-.49-.205-.979-.216-.164.302.87.054.979.216zm-13.532.636c.403.076.348.032.979.086.25-.215-.968-.194-.979-.086zm-.087 1.338l-1.49-.043c-.098.258 1.523.237 1.49.043zm-.446-.788c-.38-.032-.696-.162-.826.054.195.097.794.13.826-.054zm.142.432c-.37-.043-.881-.184-.99.043.359.043.87.183.99-.043zm-5.57-.69c.61-.076 1.295.161 1.48.032-.403-.054-1.425-.248-1.48-.033zm18.59 1.25c.359.044 1.066.173 1.164-.086-.348.054-1.088-.075-1.164.087zm-.457-.97a.88.88 0 01-.337.226c-.24-.064-.522-.118-.479-.302.207-.01.392-.021.337-.15-.707 0-1.316.053-1.338.366.675.022 1.045-.183.979.227.925.129.914-.184 1.491-.216.021.216-.653.183-.011.302.424-.14.108-.184.511-.378-.544.054-.772-.054-1.153-.075zm-.022.593c.609-.032 1.643.086 1.991-.086-.62.065-1.654-.076-1.991.086zm.37-1.262c.479-.097.903.119 1.153.065.12-.033-.054-.151.174-.151.152 0 .283.334.489.065-.554-.055-.076-.14-.152-.378.294-.022.827.065.664-.162-.533-.075-.849.227-1.001.248-.207.022-.228-.108-.489-.065-.033 0-.066.13-.175.151-.293.065-.674-.086-.826.076.141.01.196.065.163.151zm-4.112.075c-.522-.053-1.163-.301-1.327.076.403-.054 1.197.086 1.327-.076zm-.043.874c-.435.043-.587-.032-.49-.226.533.032.849.162.968.367-.587.107-1.838.14-1.968-.151.065.226-.577.194-.185.366.587-.086 1.479-.01 2.317-.064.25-.011.576-.12.837-.14.316-.033 1.001.14.827-.14-.859-.055-1.349.16-1.817-.076l.011-.216c.468-.065.424.108.827.075-.033-.226-.729-.205-1.305-.226h-1.317c-.01.118-.456.043-.5.14.631.032 1.153.496 1.795.291zm3.992-.949c-.413.097-.381-.345-.653-.076.185.011.25.087.327.151-.262.108-.773.098-1.001.227.348.097 1.022-.15 1.327-.302zm-1.621-.453c-.304-.14-.413-.01-.827 0-.163-.086-.881-.27-1.153-.076.479.065 1.425.292 1.98.076zm-15.587 5.63c-.337-.053-.402.109-.174.13-.326.194-.783-.118-1.327-.064l.01-.14c1.273.01 2.492-.173 3.514-.12.555.033.62.238 1.327.13.196.097.055.119-.011.205.142.194.827.205 1.317.27.141.28-1.36-.14-1.012.086-.337.205-.479-.227-.642-.313-.424.087-.402-.14-.489-.162-.174-.043-.5.022-.664-.032-.076-.022-.01-.205-.326-.151-.174.01-.076.076-.011.14.207.184.348.022.827.173.032.01-.25.118-.174.13.282.075.979-.076.826.183-1.349-.087-2.023-.195-2.99-.28.097-.033.25-.163 0-.184zm.326.012c.316.043.283.215.827.172.218-.194-.685-.323-.827-.172zm-19.807-1.252c.033.162-.925-.15-.685.108.87.087 1.533.065 1.707-.194-1.12-.173-1.599-.162-2.643-.324.229.346 1.142.151 1.62.41zm4.699.108c.098.227-.62.043-.696.184.859-.022 1.207.172 1.664.161.076-.226-.587-.248-.968-.345zm2.186 1.327c.675.01 1.762.226 2.176.108-.642-.14-1.403-.173-2.176-.108zm7.266-.431c-.99-.044-.185.366.468.366.109-.215-1.066-.183-.468-.366zm-1-.14c.152.312-.468.237-.544.42.609.119.282-.227.848-.14.065-.14-.01-.238-.305-.28zm-6.157-.314c-.065.13-.63.011-.685.14.49.13.576-.01.99.14-.011-.129-.087-.226-.305-.28zm4.645.4c.51-.011.478.15.99.14-.022-.13.195-.13.195-.248-.435.021-1.098.162-.663-.119-.87-.054-1.077.205-1.708.27 0-.087-.207-.108-.141-.205.26.01.576.054.51-.097-.445-.076-.347.107-.674.086-.13-.173-.935-.097-1-.01.49.075-.174.129-.033.258.294.022.511.054.653.119.174-.108-.479-.248.032-.26.337.044.316.195.468.303.685-.119 1.599.291 2.012.021-.435-.021-.707-.086-.641-.258zm-10.986-.756c.728.033.924.205 1.653.238-.011-.216-.903-.205-1.305-.324-.011.076-.305.022-.348.087zm9.256 1.284c.424.248 2.012.302 2.165.173-.414-.108-1.197-.076-1.665-.13-.195-.021-.63-.291-.5-.043zm-9.452-1.057c.217.173 1.555.173 1.011-.022-.217.205-.815-.097-1.011.022zm-40.942-7.357c-.022.043-.218 0-.196.065.522.119.555 0 .86.01.663.066 1.24.335 1.794.357-.38-.097-.26-.194-.783-.291-.598-.098-1.055-.055-1.469-.281-.043.032 0 .108-.195.065-1.11-.238-2.546-.68-3.122-.55.326.108.707.215.946.312.098-.258 1.197.151 2.165.313zm7.788 3.02c-.087-.021-.076-.064-.316-.107-.25-.043-.532-.043-.837-.097-.359-.054-1.022-.248-1-.13.467.173.935.13 1.653.27.913.172 2.044.572 2.947.626-.826-.249-.783-.238-1.631-.346-.142-.172-.631-.172-.816-.215zm-10.029-2.491c-.141.14 1.077.377 1.284.356.663.205 1.283.367 1.49.248-.577-.173-1.85-.378-2.774-.604zm.392-1.262c-.588-.194-.74-.162-1.469-.28-.098-.13.457.032.37-.098l-.326-.065c.01-.021-.12-.064-.163-.032.413.14-.12.162-.533.054-.087-.119.315-.032.228-.151-.718-.13-.305.032-.707.054.446.108.207.151.62.237.12.022.174-.054.511.043.37.097.25.162.783.27.272.01.642.065.686-.032zm45.51 7.81c-.413-.098-1.12-.227-1.175.01-.01.195.675-.13.664.065-.511.076.196.345.446.42.304-.129 1.327.087 1.37-.172-.805-.14-.87.086-1.675-.043.087-.119.49-.065.37-.28zm-15.587-.68c.109.356-.838-.151-.881.151.522 0 .468.086 1.164.162-.055-.108.283-.291-.283-.313zm11.388.68c-.097-.011-.195-.033-.152-.076.098.01.196.01.174-.043-.391-.022-.696 0-1.011.01-.512-.366-1.915-.204-2.013-.086.403.022.348.14.816.14.033-.43 1.643.27 2.186.055zm-1.446-.507c-.163-.292-.957-.216-1.643-.28 0 .204-.435.204-.554.355 1.044.13.163-.324 1.207-.227-.435.195.5.054.99.151zm6.874 1.445c-1.055.043-2.077-.173-3.502-.248.087-.13-.457-.388-.642-.248.163.021.196.13-.01.118-.382-.15-.686-.021-1.176-.064-.391-.033-1.425-.367-1.512-.043 1.643.15 3.372.345 4.656.507.315.043.37-.022.674.01.316.033.36.108.653.13.63.054 1.294 0 1.664.183-.054-.172-.5-.237-.805-.345zm16.631-.529c2.296.14 5.406.367 7.821.292-1.12-.216-3.611.032-4.144-.346-.446-.021-.794.26-1.001-.043.207-.097.577-.108 1.001-.097.25.108.305.302.979.26.511-.173-.555-.12-.653-.173-.054-.022.076-.195.011-.216-.381-.097-.935.021-1.327-.13-.228.033-.043.27-.348.27-.033-.216-.685-.162-.827-.032.316.043 1.012-.054.827.172-.413.184-1.936-.15-2.339.043zm107.74-2.653l.5-.054c-.142-.216.315-.205.304-.367-.25.043-.609.032-.652.151.478.01-.25.162-.152.27zM93.305 96.282l.827.065c.282-.195-1.056-.281-.827-.065zm113.406-3.776c.457-.13.685-.15 1.153-.118.163-.378-1.381-.216-1.153.118zm2.11-.712c.163-.13.131-.323.468-.388.391-.108 1.229.065.827-.086-.436-.248-1.164-.011-1.48.237-.435-.205-.881-.183-1.327.13.827-.162.838.183 1.512.107zm-.25 1.111l-.827.087c-.119.367.838.172.827-.087zm3.6-.776c.24.334-.446.313-.631.485.229 0 .327.087.664.011.13-.076.337-.507-.033-.496zm1.828-.194c-.24.161-1.947.302-.479.215.316 0 .316.205.838.076l.326-.032c0-.227-.49-.151-.685-.26zm-3.775.884c.261.108.947.022.816-.248-.413.032-.805.065-.816.248zm.609-.895c.055-.27-.456-.173-.522-.367-.565.173-.783-.01-1.153.194.185.173 1.175-.162 1.338.033-.348-.065-.783.204-.315.204.076-.258.348.044.652-.064zm-2.501.086c-.12.324.565.043.837.086.098.011.011.26.337.13-.01-.108.283-.108.316-.205-.359-.076-.794-.13-1.49-.01zM33.785 87.512c-.925-.119-1.534-.486-2.284-.475.598.151 1.109.367.271.227.697.183.925.15 1.327.194.044.086.882.227.827.151-.12-.032-.174-.065-.141-.097zm183.477 3.506c.109-.346.185-.4.283-.615.195-.01.467-.065.5.032-.337.162-.218.507-.62.647.914-.129.729-.69 1.262-.96.13-.032.326-.032.326-.118-.478.13-.696-.011-1.001.021-.424.043-.598.324-1.153.205-.206.356.381.227.37.464-.206.119-.38-.13-.337-.13-.783.055-1.349.583-2.295.486-.044-.323-.74-.227-1.349-.194-.032.172.239.14.348.216-.761-.022-1.925-.238-2.665.01.316.162.849.108 1.327-.053.414.172.566.507 1.523.345.229-.076 0-.324.305-.367-.055.27.457.172.522.367-.207-.011-1.023.118-.49.13l1.654-.174c.228-.075 0-.323.304-.366.522.032.435-.011.816-.173.044.14.011.302.37.227zm2.469-.26c-.577-.118-.707.27-1.49.152.272.291-.37.205-.468.377.022-.032.381.216.022.248-.196-.053-.446-.064-.827 0-.119.28.555.076.838.076.293 0 .533.097.837 0 .033-.162-.239-.14-.348-.216.772-.064-.239-.302.468-.377-.011.183.587-.022.827 0-.022-.108.065-.184.141-.26zm-125.61 5.858c.5.076.402.087.663.032.435-.086 1.12.151 1.349-.14-.152 0-2.284-.388-2.012.108zm112.122-3.56c0 .227.283.14.022.335l.5-.054-.021-.335-.501.054zm-104.661 4.348c-.978.043-2.164-.216-3.176-.087.892.184 2.339.162 3.503.248.087-.194.729-.129.859-.312-.511-.022-.674.118-1.186.15zm52.255 1.316c1.218-.033 2.153.086 2.665-.378-.468 0-.805.173-1.327.227-.522.064-1.208-.13-1.338.15zm-50.927-1.111c-.098.215.467.172.663.172.381.01.794-.172 1.175-.01.043-.055.011-.14.174-.14.272.14.739.215 1 .02-.707.011-.968-.172-1.49-.194-.424.011-.815.281-1.522.152zm156.447-13.441c.25-.043.609-.032.652-.14-.098.01-.195.01-.174-.054.283-.022.425-.097.49-.194-.533.054-.881.172-.968.388zM1.425 78.224L0 77.771c.38.119 1.806.583 1.425.453zm2.676.874c.62.205 1.37.442 2.056.658a166.3 166.3 0 00-2.056-.658zM49.459 89.82c-.414-.107-.74-.194-.99-.13.413.109.74.206.99.13zm-.783.4c-.512-.098-.588.01-.707.097l.49.086c-.034-.108.325-.032.217-.184zm257.801-9.601c-.294.054-.968.032-.99.151.207.054.99-.01.99-.151zm-4.949.572c-.936.054-2.165.183-2.97.41.881-.151 2.187-.216 2.97-.41zM47.642 89.594c.533.054.49.15.794.226 0-.237-1.022-.356-1.435-.388.184.043.163.097.13.151.316.076.337.01.511.01zm260.815-9.158c-.501.075-1.425.064-1.654.205.729-.054 1.142-.022 1.654-.205zm7.429-.799c1.381-.15 3.372-.356 4.786-.507.402-.043.816.033.99-.129-1.893.183-3.111.302-4.297.41-.424.043-1.251-.054-1.479.226zM38.81 88.051c.37-.01.468.151.968.238.413-.13-1.48-.378-.968-.238zm.294.184c-.337-.043-.642-.205-.957-.28-.425-.109-.816-.13-1.306-.238-.783-.173-1.403-.432-1.936-.442.37.064.61.14.63.205.425.043.817.172 1.295.28.512.097 1.175.216 1.306.237-.12-.043 1.022.4.968.238zM298.22 81.59c-.827.043-1.327.205-1.816.183-.164.162 1.62.033 1.816-.183zM38.103 88.094c-.294-.043-.674-.129-.838-.107.24.107.914.258.838.107zm5.003 1.198c-.337 0-.794-.248-.946-.291.033.01-.076.053-.174.01-.196-.086-.217-.14-.12-.183-.065.032.229.075.327.065.141-.011-.066-.173.359-.054.054.086-.283.194.272.248-.066-.162.163-.184.402-.216-.772-.097-1.936-.41-2.458-.431.163.032.185.108-.022.075-.63-.075.011-.172-.62-.248-.196.086-.12.162-.718.119-.511-.108-.979-.184-1.011-.065.641.194.533.032.99.14.326.065.173.14.63.216.033-.043 0-.108.196-.076.62.227.675.108 1.305.238l-.032.108c-.435-.097-.947-.227-.99-.14.794.248.761.129 1.631.312.12.119.773.227.98.173zm4.166 1.11c.131-.118-.576-.172-.12-.193-.88-.248-1.674-.27-2.262-.507-.206.118.533.183.61.28-.751-.15.12.173-.381.14.62.14.544-.043.87-.043.664.087.522.238 1.284.324zm-1.718.022c-.62-.118-1.034-.205-.468-.172-.348-.108-1.218-.14-1.827-.227.424.173.685.108 1.131.26 0-.12 1.675.334 1.164.14zm-1.86-1.402c.555-.01 1.925.442 1.653.205.707.065 1.262.356 1.48.216-.37-.162-1.12-.227-1.795-.313-.468-.054-1.425-.291-1.338-.108zm3.404.69c-.696-.021-.63-.194-1.457-.302-.142.151.653.249.924.378-.445.097-.674-.183-.957-.259-.467-.13-1.044-.216-1.446-.345-.196.086.348.14.63.194-.108.086.229.097.468.173.065.021.065.086.142.108.184.053.467.064.652.118.076.022.533.302.642.162-.598-.183.37 0 .359-.065-.196-.054-.316-.118-.294-.183.13.022.326.065.337.022zm-15.315-2.998c-.729-.173-.49.054-1.175-.119-.14-.043-.674-.259-.293-.173.446.087.304.14.62.216.217-.13-1.49-.464-1.294-.291.413.108.391.162.783.259.609.162 1.218.194 1.36.108zm-9.724-2.222c.424.172.674.129 1.294.302.512.118.338.161.947.29.315-.053.794.173 1.457.346-.109-.162-1.577-.485-2.382-.68-.63-.15-1.153-.27-1.316-.258zm266.264-1.845c.261.27 1.131-.065 1.816-.119 1.36-.14 2.589-.259 4.123-.42.555-.065 1.523-.065 1.805-.302-1.327.183-2.556.258-3.633.366-1.392.14-2.784.464-4.111.475zM29.521 86.196c-.196.022-.718-.248-.98-.216.501.108.164.14.784.26-.261-.152.729.118.196-.044zm-1.306-.302c-.74-.086-1.936-.593-2.131-.42.88.118 1.816.57 2.425.582-.391-.151-.511-.087-.294-.162zm1.023.593c.424.108.663.248 1.099.378.163.054.348.054.652.14.327.086.392.183.631.194a2.31 2.31 0 01-.609-.28c-.663-.065-1.294-.475-1.773-.432zm.533-.507a6.643 6.643 0 01-1.131-.27c-.033.044-.425-.075-.348 0 .74.14 1.185.346 1.479.27zm-3.6-.226c-.577-.173-.599-.108-.011.021 1.153.28 2.697.734 3.372.885.195.043.108-.011.021-.054-1.055-.324-2.24-.583-3.382-.852zm-3.35-.95s-.077.033-.175 0c0 0-.37-.15-.467-.172.087.108-.61-.119-.675-.076.762.184 1.23.28 1.588.464.055-.032-.163-.097-.12-.13.186.055.566.249.795.227-.163-.043-.185-.097.021-.043l.327.086c0 .033-.098.033-.185.033l.642.172c.141-.032-.305-.13-.283-.183-.783-.173-1.12-.291-1.469-.378zm-1.436-.841c.076-.032.652.13.837.13-.478-.184-1.566-.356-1.773-.421.033.01-.01-.043.022-.043a3.795 3.795 0 00-.674-.098c-.272-.075-.403-.129-.468-.172a22.787 22.787 0 01-1.131-.291c-.62-.14.01-.087-.62-.227-.229-.054-.033.033.141.076-.141.01-.903-.238-1.284-.335.207.033.62.14.827.162-.022-.022-.152-.065-.141-.075-.36-.087-.522-.097-.827-.162.174-.022-1.207-.367-1.577-.475.315.065.576.108.979.205-.044-.032-.392-.119-.631-.183.522.086 2.393.55 3.394.82.272.075.304.086.304.118.174.032.13 0 .337.043.338.076.24.108.305.119.196.054.283.032.5.086.348.087.816.26 1.262.378.718.15 1.381.302 2.11.453.577.15 1.273.345 1.915.518.272.064.424.075.49.086 1.076.237 2.099.582 3.067.712.108.054.282.108.467.172-.152.033-1-.237-.848-.075.478.065.968.14 1.338.162.729.28 2.153.528 3.22.766.391.097.337.13.62.226.391.13.978.205 1.109.324-.174.13-.947-.162-1.305-.237-.5-.108-1.077-.216-1.458-.303-.185-.021-.348-.021-.348-.021-.12-.032-.413-.162-.468-.173-.185-.032-.587-.118-.816-.161-.565-.14-.728-.205-1.294-.281-.01-.086.685.054.044-.14-.24-.043.054.054-.033.086-.37-.054-.903-.183-1-.119-1.252-.345-2.09-.517-3.035-.809-.631-.13-1.1-.194-1.35-.172a23.496 23.496 0 00-1.446-.378l.033-.086c-.424-.108-.696-.162-.675-.086-.25-.097-.652-.216-1.262-.378.098-.065 1.143.227 1.143.259zm5.96 1.435c-.021-.043-.163-.087-.304-.13-.044.119.435.162.946.28-.13-.086-.01-.15-.26-.237-.36-.021.173.173-.382.087zm-1.11-.324c.501.13.458.032.838.119-.01.021.272.097.327.075-.61-.118-.218-.162-.783-.27.141.13-.425-.021-.381.076zm-1.109-.313c.055.087.588.216.936.335.163-.044-.207-.119-.109-.162-.392-.119-.37-.054-.827-.173zm-6.863-1.844c-.12-.033-.174-.065-.142-.076-.391-.097-.826-.205-.837-.14.457.119.816.205.979.216zm4.797 1.272c.522.098 1.566.432 1.294.303-.196-.065-1.653-.432-1.294-.303zm-.544.044c.054.161 1.642.41 1.806.356-.925-.248-.816-.076-1.806-.356zm4.786 1.294c-.957-.226-1.643-.431-2.404-.636.022.075-.892-.238-.674-.087.304.076.37.065.652.13.457.108 2.665.733 2.426.593zM15.13 82.67c-.674-.184-1.457-.486-1.762-.507.479.129 2.045.625 1.762.507zm23.386 6.386c.316.129 1.719.42 1.316.226-.098.086-1.207-.313-1.316-.227zm249.154-6.343c-1.164.118-2.251.259-3.132.453 1.305-.097 2.393-.173 3.459-.367-.011-.065-.055-.14-.327-.086zm-272.899.668c.49.13 1.186.443 1.708.648-.827-.26-1.795-.583-1.947-.54-.163-.064-.087-.064-.305-.14-.478-.162.13.086-.032.054-.588-.226-.762-.259-1.262-.442-.141-.097.359.097.642.194.174-.01-1.088-.42-1.251-.453-.5-.173-.337-.162-.925-.367l-.49-.14c-.01.032.501.183.469.172.206.076.228.108.456.195.25.097.718.237 1.251.453-1.381-.486-2.839-.982-4.23-1.564.206.043.206 0 .064-.087-.457-.183-.467-.183-.935-.366-.424-.162.402.183.13.107l-.772-.312c.044.064.468.226 1.066.463-.402-.118-1.599-.625-2.338-.927.087.032.174.054.174.043-.316-.13-.523-.205-.784-.313.066.032.13.065.294.14-.663-.259-1.838-.755-2.785-1.154.175.065.175.065-.14-.075-.338-.151-.643-.27-.327-.119-.468-.183-.653-.27-.903-.378l-.881-.399c.413.162.924.367 1.273.497.14.053.478.194.772.312.26.097.772.302 1.403.55.25.097.533.195.783.292l5.123 1.984c-.185-.064-.326-.107-.478-.161.087.075.402.172.772.313.098.075.903.388 1.23.485a23.771 23.771 0 00-1.371-.572c.848.291 1.076.367 1.892.648-.293-.055.435.204-.337-.065.207.097.761.302.936.345-.011-.054-.599-.248-.425-.248l.783.27c-1.022-.335.142.15.599.27.032-.012-.338-.13-.468-.173-.359-.151.881.302 1.273.41.098.043.358.14.293.15zM2.382 78.796c.054.01-.163-.086-.598-.27-.142-.054.5.216.446.205-.163-.075-.13-.054.152.065zm3.611 1.402c.066 0-.304-.14-.598-.27-.185-.043.185.109.598.27zm-1.73-.668c-.238-.097-.369-.108.131.086.13.054.446.15-.13-.087zm1.24.507c-.195-.087-.315-.13-.608-.26l-.022.022c.38.162.49.194.63.237zm2.013.798c-.032-.033-.674-.27-.761-.324-.229-.043-.718-.27-1.11-.399.61.259.762.313 1.088.431.218.087.99.41.783.292zm3.753 1.424c-.49-.195-.392-.119-.642-.205-.62-.238-1.142-.518-1.697-.69.457.215.631.28.414.258.794.335.26.033.5.13.217.14 1.447.593 1.425.507zm1.718.615c-.435-.173-.641-.227-1.25-.453-.033.032 1.152.474 1.25.453zm207.951 8.338c.251.097.871-.01.816-.248-.413.032-.805.064-.816.248zm50.079-6.537c.424-.076.903-.13 1.142-.259-.37.086-1.294.01-1.142.259zm8.735-1.068c-.664.108-1.763.097-2.143.291.359.022 2.197-.043 2.143-.291zm.337.032c.435.033 1.338-.118 1.653-.172-.544-.033-1.262-.065-1.653.172z" fill="#C20E1A"/></svg>