<svg width="635" height="403" fill="none" xmlns="http://www.w3.org/2000/svg"><path d="M13.428 28.5l-5 14c.834.833 3.4 2.9 7 4.5 4.5 2 29.5 10.5 32 11 2.001.4-.833 5.167-2.5 7.5l4.5 9-1 11.5c1.5 2.5 5.1 7.9 7.5 9.5 1.201 2.8 3.5 7.5 4.5 9.5l4.5 25c-.666 1.5-2.5 4.7-4.5 5.5-1.999.8-.832 3.667 0 5l-12 5.5c1.5 1.667 4.5 6 4.5 10 0 5 1.5 9.5 5 15.5 2.8 4.8 1.167 5.667 0 5.5-.5 0-1.9.2-3.5 1s-3.333-2.333-4-4h-4.5l-7.5 10-16-8-3 1h-2.5c-1.833 5.667-5.5 17.3-5.5 18.5 0 1.5 1 11.5 0 15s2 1 2 7c0 4.8-4.333 6.667-6.5 7-1.833 1.167-5.1 4.7-3.5 9.5 4.8 3.2 6 5.667 6 6.5 2.334 1.5 7.6 4.5 10 4.5 2.4 0 15.334 2.333 21.5 3.5l1.5 4-7.5 2.5 3.5 10.5v4.5h4l6.5 9.5c1.334-2.167 4.3-6.8 5.5-8 1.2-1.2 2.834-.5 3.5 0l5 4.5v2c.834-.667 2.7-2 3.5-2 .8 0 1 1.333 1 2l-9.5 6c3.167 4.667 10.4 16.3 14 25.5 4.5 11.5 23 27 28 31.5 4 3.6 13.334 8.833 17.5 11l4-2c.167-1.333.4-4.3 0-5.5-.4-1.2 4.167-2.833 6.5-3.5.667.833 2 2.7 2 3.5v7.5l2 5c0 2.833.3 9.1 1.5 11.5-2.8 5.2-7.166 6.833-9 7v3l3.5 1 2 2.5 2 1-2 15 38.5 2.5 11-7.5v-10l12-13.5 4 1.5c1.334-2.5 5.5-8.3 11.5-11.5 6-3.2 7.834-1.333 8 0 1.334-.167 4.9-1.7 8.5-6.5-2 0-4-2-4.5-3s5-11 12.5-11c6 0 12.834-5.667 15.5-8.5-1.333-1.333-4-4.7-4-7.5 0-3.5-2.5-4.5-9-9-5.2-3.6-4.833-10.5-4-13.5 1.167-.667 3.4-2.1 3-2.5-.4-.4-2.166-2.5-3-3.5l6.5-9-9.5-1.5c0-7 .6-21.4 3-23 12.5-7 21.5-31 24-40.5s14-12.5 14-20.5 5-7 9-3 14.5.5 20.5 0-1.5-16-6-22.5c3.6-2 6.834-6.167 8-8h4.5c1 0-1.5 3 8 6.5 14 5.5 38 4.5 42 9s4 29 4.5 30.5c.4 1.2 11.834 13.5 17.5 19.5h-2c.5 1 2 3.2 4 4 3.5 7.5 1 8 3 13.5 3.2-.4 7.667 1.833 9.5 3l8.5-12c3 3.167 9.4 10 11 12 2 2.5-2 5.5-2 6.5s17-3.5 19-5.5c1.6-1.6 4.334-2.333 5.5-2.5-.166-4-1.5-14.1-5.5-22.5-5-10.5-5-23-2-30s.5-12 0-14.5 3.5-.5 4 0c.4.4.834-4.167 1-6.5 3.167 1.5 10 5 12 7 2.5 2.5 4.5 1 8.5-3.5s11.5-7.5 14.5-9.5 5-3.5 9.5-4.5 2.5-7 6-6 11 4.5 11.5 5c.4.4-4.833 5.167-7.5 7.5-.166.5 2 2.4 12 6s16.834 1.5 19 0c5.834 5.167 18 16.1 20 18.5 2.5 3 4 1.5 6.5.5s3 .5 7.5 1.5 11-5 11-13.5c2-1.2 2.167-5.167 2-7 1.667 1 5.4 2.6 7 1-1.5-15 3-22 3.5-22s7.5-.5 9.5 3c1.6 2.8 3.334 2.167 4 1.5 0-.5-.1-1.8-.5-3s5.5-5.833 8.5-8c5.334 4.667 16.8 14 20 14 0 6.5 3 4.5 4.5 6s2.5-12 2.5-13 5.5-1.5 5.5-6c0-3.6-1.333-5.167-2-5.5 2-1.167 6.2-5.1 7-11.5 1-8 1-5.5-7-12s-11.5-6.5-14.5-6.5-6.5-5-10-6.5c-2.8-1.2-6.166-11.167-7.5-16 .167-.333-.7-.9-5.5-.5-6 .5-8-5-9.5-8s-6-1-3-4 3.5-7 3-8-13-2.5-14-2c-.8.4-3.333 4.833-4.5 7-.666-.333-3-.6-7 1-5 2-3.5-1-11 6s-6.5 12-7 15-.5-.5-3.5-.5c-2.4 0-4.333 2.333-5 3.5-.5-.833-1.9-2.7-3.5-3.5-1.6-.8-1.666 1.333-1.5 2.5-2.333-.833-7.7-2.5-10.5-2.5-3.5 0-1.5-5.5 1.5-7.5s3.5-8 2-10.5 1.5-6.5 4-9c2.422-2.421 2.029-6.72 1.547-11.984l-.047-.516c-.4-4.4 1.834-10.5 3-13-2 .333-7.2 1.3-12 2.5-6 1.5-7 5.5-10 8s-1.5-3-2-4-22.5-3.5-25.5-3.5-7-4.5-11-4.5-5-1.5-5.5-4 5-15.5 4.5-20c-1-2-5.5 2-8.5 4.5s-8 3.5-5 9.5 2 6 1.5 12.5c-3 1-7.5-2-9-2.5-1.2-.4-.5-2.833 0-4-2.5-1.167-8.3-3.2-11.5-2-3.2 1.2-4.333 7.5-4.5 10.5l-32-13-3 11c1-1.667 3.2-3.6 4 2 1 7-6.5 2-4 7.5s3 4.5 5 8.5 0 1.5 2.5 5.5c2 3.2 1.5 4.333 1 4.5-.666.5-2.5 1.5-4.5 1.5-6.4 1.6-9 7-9.5 9.5-1.333-2-4.2-6.7-5-9.5-.8-2.8-9-5.167-13-6-1.833-2.167-6.1-6.5-8.5-6.5-2.5-13.5-3.5-20-5-21-1.2-.8-22.5-.333-33 0V36c-2-1.5-7-4.8-11-6-5-1.5-5-3.5-4.5 0s-3 3.5-3.5 6-3 1.5-6.5 2-6-3.5-14-3.5c-6.4 0-9.666-3-10.5-4.5 0 .5-.2 1.9-1 3.5-1 2-3-1-21-3s-52.5 2-56.5 2.5-13-2-20-2.5-4-3-8.5-2.5c-3.6.4-10.5-2.167-13.5-3.5-1.5-.833-4.6-2-5 0-1.2 10.4-6.5 14.333-9 15l-1-2c-1.333-.333-4.3-.8-5.5 0-1.6-4-5-1.667-6.5 0-3.666-3.5-12-12-16-18s-1.666-10.167 0-11.5l-31-6c-.333.333-2.2 2.5-7 8.5-6 7.5-2.5 6.5-6.5 10-3.2 2.8-12-1.167-16-3.5l-6.5 7.5c.667 1.833.9 6-3.5 8s-16.166-1.833-21.5-4z" stroke="url(#paint0_linear)" stroke-width="4" stroke-linecap="round" stroke-linejoin="round"/><path d="M72.333 65.008v20.613a4.042 4.042 0 008.084 0V65.008a20.208 20.208 0 10-8.084 0z" fill="#C20E1A"/><ellipse cx="67" cy="37" rx="2" ry="5" transform="rotate(32.857 67 37)" fill="#fff" fill-opacity=".5"/><path d="M70.595 38.368c-4.316 4.41-7.18 10.914-9.253 9.575-2.073-1.339-1.602-9.241 1.746-14.424 3.347-5.183 10.18-6.914 12.254-5.575 2.073 1.338 0 5.575-4.747 10.424z" fill="#fff" fill-opacity=".3"/><defs><linearGradient id="paint0_linear" x1="317.691" y1="2" x2="317.691" y2="400.5" gradientUnits="userSpaceOnUse"><stop stop-color="#BDA180"/><stop offset=".113" stop-color="#AD844C"/><stop offset="1" stop-color="#BDA180"/></linearGradient></defs></svg>