<svg width="66" height="74" fill="none" xmlns="http://www.w3.org/2000/svg"><path d="M64.546 44.338c-.231 0-.455.052-.664.157l-7.688 3.858-3.744-2.119 11.611-5.826a1.412 1.412 0 00.63-1.918 1.45 1.45 0 00-1.293-.775c-.228 0-.459.055-.664.157L49.452 44.54l-5.007-2.834 6.145-3.475c.447-.252.727-.726.727-1.234s-.28-.98-.727-1.235l-6.354-3.595 5.22-2.951 13.282 6.667c.209.105.428.157.663.157a1.45 1.45 0 001.294-.775 1.4 1.4 0 00.09-1.089 1.424 1.424 0 00-.72-.829l-11.61-5.826 3.743-2.12 7.688 3.858c.209.106.429.158.66.158a1.45 1.45 0 001.294-.775 1.4 1.4 0 00.09-1.089 1.424 1.424 0 00-.72-.829l-6.014-3.017 5.53-3.127a1.42 1.42 0 00.678-.866 1.39 1.39 0 00-.146-1.082 1.465 1.465 0 00-1.26-.712c-.253 0-.503.066-.727.19l-5.53 3.127.34-6.612a1.396 1.396 0 00-.373-1.026 1.461 1.461 0 00-1.007-.468 1.437 1.437 0 00-1.525 1.352l-.433 8.453L51 25.054l.656-12.764a1.397 1.397 0 00-.373-1.027 1.46 1.46 0 00-1.003-.467 1.438 1.438 0 00-1.525 1.351l-.75 14.602-5.22 2.951v-7.189a1.43 1.43 0 00-.726-1.235 1.512 1.512 0 00-1.455 0L34.46 24.75v-5.662l12.532-7.938c.328-.208.552-.526.634-.899a1.387 1.387 0 00-.202-1.074 1.454 1.454 0 00-1.223-.65c-.28 0-.552.08-.787.23l-10.958 6.937V11.46l7.256-4.595c.328-.208.552-.526.634-.899a1.388 1.388 0 00-.202-1.074 1.454 1.454 0 00-1.223-.65c-.28 0-.551.08-.786.23L34.46 8.067V1.809c0-.785-.653-1.425-1.455-1.425-.801 0-1.454.64-1.454 1.425v6.258l-5.675-3.595a1.462 1.462 0 00-.787-.23c-.495 0-.954.245-1.223.65a1.384 1.384 0 00-.2 1.074c.081.373.305.69.633.899l7.252 4.595v4.234L20.593 8.757a1.462 1.462 0 00-.787-.23c-.496 0-.955.245-1.223.65a1.384 1.384 0 00-.201 1.074c.082.373.305.69.633.899l12.532 7.938v5.907l-6.144-3.474a1.512 1.512 0 00-1.454 0 1.425 1.425 0 00-.728 1.235v6.952l-5.22-2.952-.75-14.609a1.444 1.444 0 00-1.524-1.351 1.462 1.462 0 00-1.007.467 1.397 1.397 0 00-.373 1.027l.656 12.764-3.743-2.12-.433-8.452a1.434 1.434 0 00-1.443-1.356c-.026 0-.056 0-.082.004a1.461 1.461 0 00-1.006.468 1.396 1.396 0 00-.373 1.026l.339 6.612-5.533-3.127a1.487 1.487 0 00-.727-.19c-.519 0-1.003.274-1.26.712a1.412 1.412 0 00.533 1.948l5.53 3.127L.79 26.723a1.414 1.414 0 00-.63 1.918c.25.479.745.775 1.294.775.23 0 .454-.052.66-.158l7.688-3.857 3.744 2.119-11.608 5.826a1.412 1.412 0 00-.63 1.915c.25.478.746.774 1.294.774.231 0 .455-.051.66-.157l13.281-6.667 5.008 2.835-6.141 3.481a1.425 1.425 0 00-.727 1.235c0 .508.28.979.727 1.235l6.357 3.594-5.22 2.952-13.281-6.667a1.442 1.442 0 00-.664-.157 1.45 1.45 0 00-1.294.774c-.175.34-.209.724-.09 1.085.12.362.377.658.72.83l11.611 5.826-3.743 2.12-7.689-3.858a1.442 1.442 0 00-.663-.158 1.45 1.45 0 00-1.294.775 1.414 1.414 0 00.63 1.918l6.014 3.017-5.53 3.127a1.413 1.413 0 00-.533 1.947c.258.439.742.713 1.26.713.254 0 .504-.066.728-.19l5.53-3.127-.34 6.612c-.019.38.112.745.373 1.026.26.282.619.45 1.003.468.026 0 .048.004.074.004.776 0 1.414-.596 1.45-1.352l.433-8.453 3.744-2.12-.656 12.765c-.019.38.112.745.373 1.026.26.282.619.45 1.003.468.026 0 .048.004.074.004.776 0 1.413-.596 1.45-1.352l.75-14.601 5.22-2.952v7.19c0 .507.28.978.727 1.234a1.488 1.488 0 001.454 0l6.145-3.474v5.666l-12.532 7.938a1.432 1.432 0 00-.634.899c-.082.372-.01.752.202 1.074a1.478 1.478 0 002.009.423l10.955-6.937v4.234l-7.252 4.596a1.431 1.431 0 00-.634.898c-.082.373-.011.753.202 1.074.268.41.727.65 1.223.65.28 0 .551-.08.786-.23l5.675-3.594v6.258c0 .785.653 1.424 1.454 1.424.802 0 1.455-.639 1.455-1.424v-6.258l5.675 3.594a1.472 1.472 0 002.01-.42c.212-.318.283-.701.2-1.074a1.418 1.418 0 00-.633-.898l-7.256-4.596v-4.234l10.955 6.937a1.473 1.473 0 002.01-.42c.212-.318.283-.701.2-1.074a1.418 1.418 0 00-.633-.898l-12.517-7.95v-5.903L40.6 52.24c.44.248 1.014.248 1.454 0 .447-.252.727-.727.727-1.235v-6.952l5.22 2.952.75 14.602c.037.76.674 1.351 1.45 1.351.026 0 .049 0 .075-.003a1.462 1.462 0 001.006-.468c.261-.281.392-.647.373-1.026L51 48.697l3.743 2.118.433 8.454c.037.76.675 1.351 1.45 1.351.027 0 .049 0 .075-.003a1.462 1.462 0 001.007-.468c.26-.281.391-.647.373-1.026l-.34-6.613 5.53 3.128c.22.124.474.19.727.19.518 0 1.003-.275 1.26-.713a1.39 1.39 0 00.146-1.081 1.421 1.421 0 00-.679-.866l-5.53-3.127 6.015-3.017c.347-.176.6-.468.72-.83a1.394 1.394 0 00-.09-1.085 1.452 1.452 0 00-1.294-.77zM26.13 42.41l5.418-3.065v6.367l-5.418 3.065V42.41zm13.744-11.062l-5.418 3.065v-6.367l5.418-3.065v6.367zm-3.964 5.53l5.418-3.064 5.626 3.182-5.417 3.065-5.627-3.182zm-4.362-2.465l-5.418-3.065v-6.13l5.418 3.065v6.13zm-1.455 2.466l-5.417 3.065-5.63-3.182 5.417-3.065 5.63 3.182zm4.363 2.466l5.418 3.065v6.13l-5.418-3.065v-6.13z" fill="url(#paint0_linear)"/><defs><linearGradient id="paint0_linear" x1="53.5" y1="6.884" x2="22.5" y2="73.384" gradientUnits="userSpaceOnUse"><stop stop-color="#AD844C"/><stop offset=".724" stop-color="#AD844C" stop-opacity=".33"/><stop offset="1" stop-color="#AD844C"/></linearGradient></defs></svg>