<svg width="1722" height="116" fill="none" xmlns="http://www.w3.org/2000/svg"><path d="M273.973 85.334c.607-.712 2.936.153 4.657.509-.911.509-3.138-.204-4.657-.509zm214.491-5.241c-.608-.102-1.519-.051-1.519-.356 1.822-.204 5.315-.662 6.885 0-.152-1.12-3.392-.916-6.075-1.018-.304 1.018-2.379 1.17-3.949 1.628 1.266.56 3.999.357 4.658-.254zm143.466 4.681c-4.151.153-8.049-.05-10.783.713 5.569-.356 14.934-.204 19.996-.662 6.683-.61-5.72-.102-9.213-.05zm21.565-.916c-3.037.306-4.708-.661-6.176.662 1.671-.204 8.201-.102 6.176-.662zm-173.384-4.63c2.733-.509 1.873.254 4.556.407.506-.763-4.911-1.68-4.556-.407zm392.684 4.07c-1.772-1.068-4.607-.101-6.125.917 2.48-1.018 10.631.05 8.454-1.527-.152.509-1.215.56-2.329.61zm44.701-3.612c2.632.661 8.909-.458 10.732-1.425-2.278.153-6.429.05-8.454 1.17-1.114.153-2.532-1.424-2.278.255zM1721.14 3.46c-.36 0-1.06.051-1.62.051-.41 0-1.11 0-1.57.05-.81.052.35.001-.86.052-.41 0-.96 0-1.52.05-.81.052-1.42.052-3.14.153-2.68.102-3.09.102-5.41.204-.92.05-.66.05-.81.102-3.7.05-11.04.305-13.82.254l-6.18.153c-.36.254 2.33.254 2.94.407-5.12.254.45.203-1.68.407l-3.08.153c-.05.101 1.31.05.71.203-4.26.204-4.86.255-8.46.458-.4-.102-1.47-.102-3.04-.05-2.68.152.05.152-1.57.254l-3.08.152.05-.254c-3.04.203-5.32.05-6.18.356.05.102 4.61-.356 3.85 0-8 .407-15.95.916-23.9 1.425-1.01.102-1.21.254-2.32.305-.05.204 1.31.153.7.458-3.74.356-3.34.56-7.74.763-.81.357 1.72.051 3.09-.05 2.43-.102-1.37.203-2.33.254-5.32.305-14.43 1.374-16.15.865-1.52.305-2.53.61-6.18.763.21-.152 2.28-.203 2.33-.407-.15-.102-.76-.05-.76-.152-1.82.203-3.59.407-3.89.712-5.37.509-9.57.356-13.88 1.018 3.95-.662-3.24-.102-3.84.254-4.81.407-10.43.865-14.63 1.221-11.24 1.17-25.72 1.629-33.87 3.053-1.37 0-.1-.305 0-.509-.91.102-1.37.051-1.52-.05-2.18.203-1.82.458-3.85.661-1.36.102-3.24-.102-4.6 0-1.62.153-2.03.61-3.85.662-1.67.152-2.43.05-2.33-.357-1.67.357-1.87.967-5.36 1.018.2-.203 1.51-.254 1.51-.509-.91-.254-3.24.306-5.36.255-.26 0-1.42-.255-1.52-.255-5.62.306-11.85 1.323-15.39 1.476-.71.203-1.16.458-1.52.712-2.99-.458-8.4.51-12.3 1.069v-.61c-1.72.305-4.15.457-4.61 1.017-2.38 0 .86-.662.76-.916-2.68.204-3.64.713-5.36 1.069-3.4.05-8.05.56-10.79 1.323l-3.08-.153c-10.89 1.985-23.49 3.664-36.1 4.274-1.82.407-3.69.814-5.37 1.273-3.08.101-5.51-.051-9.21.356l-.05-1.018c-2.73.662-7.39 2.239-9.97 1.425.86-.814 4-.357 5.36-.51 1.88-.406 1.67-1.271 4.61-1.424-.51-.305-1.67-.305-3.09-.254 2.48-.61 1.12-1.68 2.23-2.24 2.73-1.322 6.83-.966 10.73-1.882 1.47 0 3.34-.203 3.09.509 1.01-.255 2.08-.509 3.09-.763-.2-.407-1.32-.458-3.09-.255 1.77-.712 7.24-.763 9.26-.763-.86.814-.35.661.81 1.12 1.93-.204 2.54-1.12 4.61-.611-.15-.255.15-.458.76-.56-.2-.712-6.33.916-5.42-.305 3.34-.255 6.94-.61 9.27-.51 2.88-.406.05-.813 1.52-1.322-2.38.152-4.36.916-6.18.458.1-.458.51-.814 1.52-1.069-.46-.305-1.22-.509-2.33-.56-2.78.662 1.37.56.81 1.12-1.67 0-1.47.458-1.52.814-2.33.356-2.83-.05-4.6.102.25-.356 1.92-.356 3.08-.458-1.21-.967-4.1.458-5.36.916-2.89.254-3.75-.305-5.42-.56-1.57.255-.2 1.272-3.04 1.221-1.31-.152-1.72-.661-2.33-1.068-1.01.305-.96.916-2.27 1.17-7.29.61-16.91 1.374-26.18 2.137-1.77.051-.81.865-2.27 1.018.5.305 1.67.356 3.08.254-2.07 1.069.92 1.578 1.62 2.24l-1.51.152-1.52.153c1.06-.916.6-1.578-2.38-1.374-.56.865 2.68.102 1.57 1.17-3.04-.458-5.17.153-7.7.967 1.37.407 2.94-.305 4.61-.407 2.99-.153 4.61.356 6.98.407-1.06.458-2.73 1.68.06 1.577-2.49.611-4.92 1.272-6.89 2.036-2.08.407-1.57-.356-3.09-.255-2.12-.05-3.9.61-6.12.865-1.27.153-1.32-.152-2.33-.05-2.63.305-4.61.864-6.89.966-4.65.204-14.17 1.374-19.18 1.883-1.42.153-3.85-.407-4.61.763-2.07.407-1.57-.407-3.09-.254-1.31.05-1.41.356-1.52.763-2.48.509-1.11-.865-3.08-.56-2.84.051-4.26 1.17-6.13.611-.91.153-.61.61-.71.967-2.38-.356-5.87-.102-10.02.458-.71.305-1.12.661-1.47 1.068-8.5.866-29.51 2.8-43.74 4.885-2.18.306-3.79.916-6.12 1.323-4.96.814-9.82.713-13.82 1.832 3.94-.152 2.78.61-1.47 1.17 2.48-.305-15.8 1.527-22.28 2.443-1.26.153-1.31-.204-2.32-.102-1.37.153-3.4.764-5.37.916-1.67.153-2.99-.05-3.85.102-1.82.254-2.98 1.323-6.88 1.425-.81 0-2.53-.407-2.33-.407-1.17.152-2.43 1.17-3.75 1.475-.4.102-1.42-.203-2.33-.101-1.97.254-3.95 1.12-6.07 1.373-1.98.255-10.28.865-13.06 1.425-.86.153-.66 1.018-2.28.967-.25-.56.66-.661.71-1.12-1.37.102-1.57.611-3.04.713-.1.407.2.61.81.61-.25 1.018-2.43.306-1.57-.56-1.77.662-2.73.764-4.6.866-.61.05-4.16 1.17-5.32 1.323-1.47.153-2.94-.05-4.61.153-4.6.61-10.48 1.679-14.58 1.984-1.97.153-4.15 1.17-6.07 1.425-1.22.152-1.37-.153-2.33-.102-2.33.051-4.4.916-6.13 1.069-1.51.102-2.88-.306-3.89-.306-1.42 0-3.65 0-4.66.153-.66.102-1.97.967-2.23.967-1.26.203-1.31-.204-2.33-.102-1.36.102-1.62.56-3.03.712-1.62.153-3.14-.101-4.61.153-2.23.305-8.05 2.493-12.25 1.73-.61.763-6.23 1.781-10.68 2.29-1.12.153-2.74-.102-3.85.05-8.2 1.171-16.6 3.156-23.74 3.36-1.52.05-2.94-.815-4.66.101.15.407 1.42.153 2.33.153-1.62.865-8.76 1.78-8.51.152-.45 1.018-1.87.611-4.55 1.273-1.32.305-3.09 1.628-6.89 1.526-.4-.763 1.07-.865 2.23-1.018-.51-.305-1.87-1.22.71-1.22-.61-1.07-1.62.559-3.09.304.56-.407.76-.966.66-1.628-2.18-.102-1.98.763-3.8.814.76-1.628-2.48-1.628-3.95-.763 1.07 1.221 4.36 1.018 4.86 2.595-1.11.713-3.19 1.018-3.74 1.934-1.17-.356-1.27-1.323-2.43-1.68-2.23.306-1.72 2.036.86 1.476-2.63 1.629-5.01-.305-5.52-1.374-1.37.967-4.45 1.272-3.64 3.104-1.12.102-2.18.153-2.28.662-1.62-.61-5.12 0-5.52-1.374 2.02-.305 3.85-.56 3.14.814l3.85-.407c.5-1.526-3.75-.05-3.24-1.628 2.37-.713 2.02-.407 3.89 0-.3-1.272-3.49-.764-4-1.934-2.37.204-3.34 1.73-5.36.967-.1-1.781 5.31-3.46 4.35-4.376 1.72-.916 4.15-.102 6.89-1.12-1.22.916.1.51.1 1.527 3.64-.255 1.26-2.748 5.21-2.9 1.98-.204.96.203.81.712 1.72.05 1.07-.865 2.23-1.018 3.49-.814 3.09.763 6.23.102 2.48-.865-1.67-.763-.92-1.832.51.61 3.65-.407 3.9.356 1.83-.305-.91-.967-1.62-.967 1.88-.865 5.52-.203 7.65-1.577-1.57-1.17-2.64.916-4.61.865-.4-.865-3.49-.662-1.67-1.781-3.54-.102-2.94 1.374-6.08 1.425-2.68.152-.7-.865-3.84 0-1.47.407-2.33.916-3.8 1.17-1.52-.407-3.39-.56-5.47-.61-2.58.661 2.13-.102.86 1.068-2.83 1.578-9.66.305-10.73 1.883-1.31-.356-2.63-.763-5.41-.204 1.16-2.239 4.35.407 6.12-1.017-2.78-1.222-6.48-1.883-9.52-2.952-2.63 1.578 2.18 1.883 4 1.934-.2 1.425-5.97.712-4.45 2.799-1.32.152-2.03-.102-2.38-.56-1.27 1.17-5.06 1.323-8.405 1.628.152-.814 3.395-.458 2.985-1.475-1.669-.306-3.592-.458-5.465-.611-1.975.254-1.418 1.476-1.367 2.493-1.873-.05-5.569 1.069-6.176.204-.355-1.832 3.392.152 4.556-1.221-2.329-1.578-4.404.865-6.935.305-.051.712 1.012.712.86 1.476l-6.935.712c-2.43-.61 5.518-.305 4.505-1.628-1.923-.713-5.518 1.12-8.454 1.22 4.252.866-4.202 1.019-6.885 1.477-2.278-.458 3.898-.713 5.366-.916-1.265-1.578-5.973.203-7.694.763-2.127-.865-7.847-.916-10.024.61 1.114.815 5.366-.407 7.746-.356.202.865-2.734.458-3.797.764-2.784.305-6.075.356-6.885 1.475-4.455-.661-7.593.305-13.162.458-.81.204-.456.865-1.468.916-2.025.305-2.582-.305-2.43-1.374-5.062 1.781-8.505 0-13.061 1.221-1.62-.661.304-.814.658-1.679-1.215.255-1.366-.254-2.328-.203-.962.203-.911 1.272.101 1.17-1.974 1.781-5.417 1.221-8.403 1.985-.051.56-.051 1.12.86 1.12-1.721.915-4.151.05-6.885 1.068 1.62-1.018.152-2.188-1.67-2.24.455-1.22 1.67.204 3.088-.305.101-.865-.709-1.22-2.379-.966-3.342.661.556 2.035-1.367 2.95-3.493-.457-3.746-.355-8.505 0l-.051-1.17c-3.847.357-4.859 1.883-9.162 1.985 1.012-1.12-1.317-.814-1.62-1.069-.557-.457.405-1.73-1.62-1.475-2.481 1.17 2.885.916 1.721 2.646-3.037.509-2.278-1.323-5.467-.713-1.064.255 0 .713.81.713-1.57 1.221-3.342-.102-5.417.05-1.873.153-4.202 1.07-6.126 1.324-1.923.254-3.847-.255-5.416.458-.253-.61.708-.764.708-1.272-2.328.101-2.936 1.526-4.606.814-.304-.916 2.177-.662 2.227-1.374-2.885-.153-2.126 1.17-4.556 1.221.557 1.018 3.291.712 3.24 2.137-.607-.152-2.632.51-3.088.255-.253-.102 1.114-.713.709-.865-1.873-.815-3.696-1.323-7.796-1.323-2.076.56 2.379.712.101 1.577-2.076-.102-4.101-.153-6.227-.254l-.05-1.17c-1.671-.408-1.721.305-3.088.254-2.734-.051-2.936-1.17-4.607.763 1.62.254 5.113.967.861 1.526 1.366.815 5.872-.305 8.504-.305.355 1.323-3.442 1.069-5.366 1.272-2.43.204-5.214.407-6.935.56l-.101-1.984c-3.24.203-4.152 1.119-2.987 2.239l-4.607.356c.253-.56 1.316-.713 1.468-1.323-3.493.509-4.86-.306-8.505.254.152-.356.76-.458.76-.865-5.974 0-9.214.763-14.681.763-.557 1.476-2.885 2.138-6.834 2.138.304 1.526 4.354-.764 6.227.305-1.266 1.017-5.873.61-8.454 1.068-.304-.661.556-.814 1.518-.916-2.733-.203.051-1.475-1.62-1.882-3.594-.051 1.114.966-1.468 1.323-3.442.712-1.822-1.629-5.467-.814-1.468.152 1.265 1.373-.658 2.035-1.873-.865-6.531 1.221-4.658-.458-3.695.967-7.391 1.272-10.782 1.12-1.013 1.984 3.29.763 5.467.814-.557 1.577-3.341.458-5.417.763-1.822.254-2.632 1.17-4.606 1.12-.81-1.273 1.012-1.374 3.037-1.374-.152-.865-1.974-.713-3.898-.51.354-1.017.962-1.475-.861-1.933-1.012.254 1.013 1.628-1.468 2.086-.81 1.069 3.392 1.17.861 1.934-1.974.153-.962-.254-.81-.763-3.999.661-5.012.458-9.264.61-.203-1.984 3.949.306 3.797-1.425-1.671-.966-2.228-.101-4.658-.457-1.721.101 0 1.323.051 1.17-.658 1.425-2.784-.102-2.278 1.73-2.886-.05-4.86 1.323-6.936.458-1.67 1.425-8.757 1.12-14.63 1.68-3.29.305-3.594.762-6.176-.052-.86.153-.506.814-1.518.865-9.973.204-15.694 1.832-23.945 1.272-.861.153-.506.815-1.519.865-1.873.255-1.721-.61-3.847-.203-.861-1.425 1.62-1.323 2.278-2.035 1.367.61 4.505 1.577 6.986.407-.456-1.12-2.835 0-4.657-.51-.456-.152-.456-1.068-.81-1.119-1.367-.305-3.038 0-4.658-.152-.911 1.323 2.481.152 1.57 1.475-1.165.61-5.822 1.629-2.279 2.087-.354.56-6.935 1.272-6.176-.102-3.847 1.526-9.719.763-16.25 1.017-7.087.255-15.946 1.12-21.666 1.578-2.127.356-1.57-.712-3.088-.662-1.671.458-3.645.102-3.848.153-1.265.204-1.164 1.374-3.847.916-1.468-1.221 1.316-.763 2.329-1.221.506-.204 1.012-1.069 1.518-1.221 1.013-.255 4.354.915 3.848-.51-.253-.66-1.114.306-2.329.103-.354-.051-.557-1.883-3.088-1.018-.304.916 3.493-.356 2.329 1.068-3.645.611-8.252-.61-11.593-.407.05 1.374 5.062.204 6.176 1.018 1.063 1.527-1.671 1.221-1.519 2.29-7.745.814-14.174.102-20.148-.356-4.556 1.221-9.821 1.577-14.731 1.017-.608 1.374.86 1.781 3.088 1.781-.253.865-3.392.407-3.898 1.171.05 1.374 2.177 0 3.088-.051 2.582-.102 5.315.356 8.505.203.86-.101.506-.763 1.569-.763 2.784-.254 3.746.356 5.417.662 1.771-.255-.962-.56.759-1.12 5.315.662 11.137-.814 16.301.051-2.127 1.323 4.353.865 4.657 2.137 2.075.051-.759-2.086 2.329-1.577-.102-.458-1.418-.255-2.329-.306-2.481-.203 1.367-.559 2.329-.458 1.771.357 2.733 1.069 5.416.967.76-1.17-1.721-.61-3.088-.661.102-1.272 2.278-.407 3.898-.509 3.24-.255 8.1-.967 12.403-.814.354.814-1.114.763-2.329.865 1.418 1.781 4.354-.255 5.417-.967 6.227-.102 6.834 1.577 12.403 1.069.607-1.476-3.696-.357-5.417-.56 5.872-2.087 13.668-.407 18.579-1.069.557-.102 1.417-.865 1.518-.865 1.165-.102-.101.763 0 .763 1.519-.05 3.24-.916 4.607-1.017 2.987-.153 3.797 1.119 6.227.865.911-.102.658-.764.759-1.221 7.239.101 13.668-1.832 18.579-.56.962-.051.304-.51 0-.407 2.582-.814 9.77-1.069 11.593-.204 1.62-.458 3.391-.763 4.606-1.425 6.227-.203 14.782.051 21.718.56 1.164 1.73 3.391 2.188 3.24 3.766 6.631-.916 9.77-.662 16.25-1.069a4.311 4.311 0 001.518-1.272c1.772-.255 2.987-.153 3.898.153 1.823-.255-.911-1.018-1.62-1.069-3.543-.254-4.201 1.934-6.935.865 1.468-.916 3.847-1.425 6.885-1.628-.355-.306-.709-.662-1.57-.713.405-.763 1.165-.203 1.57-.102.557.153 2.025.306 1.62 1.476 1.012 0 2.075-.203 3.088-.203.962 0 2.379.661 2.379.661 1.417-.102 1.417-1.374 3.847-1.068.304 1.475 4.354.61 4.759 2.035 2.329-.662-1.215-1.425.658-2.035 2.379-.357 3.746.203 2.379 1.017 1.823-1.374 5.771.56 5.366-1.628-.658-1.374-3.594 1.476-3.847.305-.861-1.272 3.291-.865 4.607-1.17.658-.153 1.923-.916 2.278-.967 4.05-.661 10.327-1.221 12.402-.153 2.025-.763 5.518-.152 8.505-.661 1.823-.305 3.493-1.12 4.556-1.578-3.493-.864-6.075 1.018-9.264.713 1.316-1.476 4.556-1.527 6.885-1.73 2.43-.204 5.619.356 9.315-.305.759 1.22-1.975.966-2.228 1.78 2.329-.56 3.696-1.526 6.075-2.086 1.721 1.069 3.341 0 6.986.204.202-1.069-4.303.763-3.139-.916 2.329-.306 6.025-.102 6.126-1.323 1.923.458 4.607.407 5.518 1.526 1.113-.458 2.987-.56 2.227-1.78 1.974-.662 3.392.915 3.038-.662 2.834-.255 3.037 1.12 4.758 1.577 2.076-.56-2.075-.56-.911-1.933 5.467.814 9.77-1.069 14.681-.865.759-.306.759-.967 2.278-1.018-1.924 1.883 1.822.56 2.43 1.78.86-.813 6.176-1.78 4.505-2.39.658-1.375 1.569.305 2.329.203 2.126-.61-1.165-.967.658-1.68 7.492-.406 14.073-1.526 19.996-2.29 1.266-.152 1.367.306 2.329.153 1.974-.254 3.543-1.322 6.125-1.373.81 0 2.329-.153 3.139.508 2.733-.457 6.277-.814 9.213-1.272 8.404-1.272 14.985-1.679 19.439.916-.151 1.629.203 2.9 2.532 2.9-.152.713-1.266 1.018-3.038 1.12 1.721.61-1.569 3.206 2.531 2.9-2.632.56-2.328 2.29-3.644 3.155-.608.407-3.139.051-2.228 1.018-7.897-.203-16.807 1.018-24.755 1.221-1.265.051-2.48-.508-3.898-.407-1.974.102-3.948.916-6.125.967-1.316.051-1.671-.254-3.088-.102-2.683.306-4.151 1.68-6.176.611-.81.153-.456.814-1.468.916-2.126.05-4.151.61-6.176.61-.911 0-2.38-.56-2.38-.56-.86.052-1.366.815-2.278 1.019-1.822.407-3.847-.153-5.416.101-1.468.204-1.721.814-3.038 1.069-2.48.56-4.961.509-7.745.254-1.316-.05-1.417.458-1.468.916-4.657-.254-10.935.814-17.769 1.578-1.519-.458 1.266-1.781-1.67-1.883-2.329.712 1.215 1.425-.658 2.086-6.025.407-8.05.407-13.922 1.221.304-.508.962-.916 2.278-1.017-2.733-1.272-3.847 1.374-3.797 1.526-3.594.611 1.013-1.119-1.62-1.068-1.67-.051-1.417.661-1.468 1.323l-5.416.407c-1.316-.713.05-.509-.101-1.578l-3.139.306c-1.62.356 2.936 1.424-1.468 1.73-3.139.356.101-.56-.861-1.527-2.126.204-1.62-.56-3.088.255-1.721.203-.253 1.73-.658 2.442l-5.417.407c.608-.407.81-.967.709-1.628-.962.61-4.1.356-2.987 1.832-4.303.712-6.53.152-7.796-1.018-1.468 0-3.442 2.239-3.847.305-2.126.509 1.873 1.476-2.278 1.374.354.306.709.662 1.569.662-.405.152-6.986 1.781-5.467-.407-2.379.152-1.772 1.577-4.607 1.526l-.05-1.17c-.456.712-2.329.814-3.038 1.425-2.278.152-2.936-.713-3.948-1.323-.051 1.781-5.721 1.374-6.936 1.628-.152.051 1.671.56 2.329.254-4.151 1.476-9.619.255-14.731.916-1.418-1.272-2.278-2.239-5.569-3.205-2.379-.153-1.468 1.17-3.847 1.017 2.328 1.323-2.38 1.883.86 2.341-.911.865-5.518.153-3.797 2.239-8.96 1.628-21.16 1.17-29.462 2.035.405-1.475 4.657-.916 7.745-1.17 2.835-.204 5.923-.204 7.745-.814-1.518-.458-3.948-.356-4.707-1.272-3.139-.102-1.874 1.73-4.607 1.781v-.764c-3.696.357-5.822-.203-7.796-.814-.861.153-.506.814-1.519.865l-5.467.255c-1.924-.458-.506-.764-1.57-1.12-3.088.102.254.611-1.518 1.272-2.025.102-4.86-.152-3.848 1.374-4.758-.61-11.744.509-15.541.356 2.582-1.017 8.505-.559 12.403-.966.911-.611 2.227-1.069 2.278-2.036-2.025 0-3.341.305-3.088 1.323-2.987-.661-5.113.56-9.315.458.911-.56.304-.61-.05-1.17-6.632.763-13.061 1.272-21.718 1.628-1.924-.458 1.367-1.221-.81-1.526-3.341.101 1.164 1.984-3.847 1.679-1.62-.865 1.063-2.036 3.088-2.392-.557-1.374-5.113-.407-3.848 1.272-1.518-.101-2.784.356-1.569.458-15.187.764-37.36.713-52.091 1.679-.861.102-.456.408 0 .357-1.772.305-5.012.152-8.556.458-.455-1.171 2.785-.56.81-1.476-2.126-.814-3.239-.204-3.898-.305-2.024-.407 2.785-.102 3.898-.815-2.986-.407-5.416-1.068-8.555-1.373-.81 1.73-3.645 2.493-6.277 3.409-1.873-.204-3.999-.255-3.848-1.425-3.594 1.323-8.049.051-15.541.356-.607-.305-.81-.814-.759-1.475-1.671-.204-1.468.508-1.57 1.068-3.543-.356-7.694-.051-12.453-.102-6.935-.05-13.668-.966-19.389-1.221-2.784-.102-5.568.662-6.986-.458-1.012.102-1.265.611-2.379.662-1.974-.102-2.683-.713-3.847-1.171-6.024 1.171-14.175-.407-24.097-.356-1.873-.865 1.215-.61.861-1.679-3.746-.051-3.038 2.035-7.847 1.476.709-.56 2.228-.814 1.671-1.985-2.785-.305-3.088 1.323-5.468.204.557-.662 3.645-.153 3.949-.916-1.772-.814-4.05 1.068-7.796.458-.202-.916 1.164-1.069 3.189-.916-1.417-1.171-2.733.509-4.657.203-.152-.661-3.392-.203-3.847-.814-2.127.458-5.012 1.934-7.088 1.323.81-.407.861-1.17 1.671-1.577 1.417.051 1.62.509 3.088.509.506-1.578-4.354-1.12-6.176-.967-.152-.967 1.822-.916 1.67-1.934-1.215.305-1.974.865-3.189 1.171-2.683.05-2.632-.967-3.797-1.527 3.696.051 12.353-.814 15.491 1.069 1.772-.102-.911-.56.861-.967 3.29.203 7.998-.153 10.074.559.759 0 .607-.407.81-.661 4.556 0 7.543 1.221 10.884-.102 2.075 1.069 10.074.56 13.162-.051 1.063.916 4.404.916 6.935 1.222.152-1.323-3.138-1.222-4.556-1.832 1.063-1.374 1.569.152 3.847.101 1.671.102.405-1.221.861-1.73-4.759-.407-6.378.764-8.606 1.578-9.72-.509-15.389-.153-22.426-.814 1.924-.357 1.62-1.832 3.999-1.985-.304-.763-4.1-.102-4.606-.763-.304.661.101 1.068 1.468 1.068-.254 1.069-3.898.509-6.227.56-.051-.56.456-1.272-.709-1.374-2.784-.356-.455 1.629-3.948.967 1.417-1.069 1.417-.814-.659-1.68-1.316.154-.556.764.709.713-.202.509-2.328.051-2.379.611-1.823-.662-3.594-1.069-2.177-2.086-3.139-.255-3.189.966-6.986.407-3.037-.051-2.278-1.527-5.315-1.527-2.228.356-4.607.662-3.24 1.883-4.303-.204-6.429.305-6.328 1.374-2.228.152-1.974-.56-3.847-.51-.304-.711 1.164-.559 2.379-.559 0-.967-1.671-1.272-2.987-1.78-3.139.203-2.43.254-5.467-.408-.861-1.068 2.531-.153 1.62-1.221.05-.763-2.126.05-1.57.61-2.531-.101-3.898.408-6.986.051-.303.713 0 1.222.658 1.629 1.013-.407 3.392-.204 5.417-.102-.607 1.577 4.05 1.221 3.645 2.748-4.404-.356-10.53-.509-16.554-.713-6.024-.356-11.896-.814-15.895-1.424.202-1.425 1.822-.204 3.138-.102 6.48.56 16.503.967 23.186 1.323-2.076-.713-6.075-.713-6.835-1.883-2.632-.356-1.113 1.272-3.948.814-1.721.051-1.063-.661-2.278-.814-1.772-.661-2.126.458-2.379.458-.355 0-.962-.356-1.519-.407-1.013-.102-1.316.204-1.57.204-3.442-.255-6.125-1.12-10.023-.662-1.316 0-1.417-.356-1.468-.712-2.329.05.658.712-.101 1.22-1.924-.1-1.823-.813-2.987-1.119-1.671-.152-.456 1.069-.911 1.476-6.126-.203-11.846-.203-17.06-.56-.861-.05-1.114-.661-1.468-.712-.861-.102-3.392.05-4.658 0-1.569-.051-3.847-.56-4.657-.102-.607-.305-2.076-.356-2.227-.814-3.949.509-12.656-1.374-18.579-1.221-.557-.967 2.075-.407 2.48-.916 3.038.56 4.607.712 7.695.712 1.519 0 .759-1.068 3.189-.56-2.278-1.22-4.657.153-6.986-.101-.708-.764-5.163-.458-4.454-1.578-1.418.306.607 1.323-1.772 1.578-2.228 0-1.924-.61-3.797-.662-.911.763 1.671.662 2.987.865-1.215.61-5.316.255-7.847.102-2.177-.153-4.404-.356-6.176-.61-.962-.153-2.227-.764-2.227-.764-.912-.102-1.114.407-1.62.407-1.721 0-2.936-.916-4.658-.203-1.316-.051-1.417-.356-1.468-.713-2.227-.305-2.43.356-4.708 0 .253-.458 1.418-.458 3.139-.152-.456-.611-2.227-.916-2.936-1.476-1.772-.153-3.645-.255-3.24.712-.506-.254-4.455-1.272-3.898-.203.658.763 2.987 0 5.366.661-.709.306-2.531.051-3.949.051.355.865 4.05 1.069 4.405 1.934 3.493.05 4.1.458 6.074 1.272-.455.61-3.189-1.374-3.898-.204.152.357 1.469.458 1.519.204 2.379.967-3.847 1.374 2.076 1.883-.557 1.272-6.075-1.374-7.037-.102 2.835.61 4.455 1.577 8.353 1.883 2.278 0-.911-.814.202-1.374 1.924.407 1.823 1.323 2.835 1.984 1.823.102 3.291-.203 4.658.509-3.038 1.069-8.1-.56-13.264-.712.405-.356 2.481.102 1.722-.865-2.937-.662-1.418 1.017-4.759.152-.152.306.101.51.709.662-2.633.203-5.822.05-6.531 1.272-2.48-.153-2.328-.763-3.746-1.069-3.392-.712-4.708-.305-7.745-.865-.051-.56.759-.712 2.43-.458-2.126-1.577-8.201-1.068-8.201-2.747-3.291-.153-.101 1.475 1.215 2.035.05.56-2.734-.254-3.898-.305 2.43-.458-1.013-1.272-1.215-1.985-3.898-.102-5.67.814-11.036-.05-2.076-.153-1.367-.713-2.177-1.07-.658-.05-.81.153-1.569 0-1.62.052 2.126.968-.962.866-1.671-.102-1.418-.61-1.418-.967-2.379-.102-4.302.05-7.795-.61-1.975-.459-1.975-1.12-5.265-1.425.05.305 1.367.458 2.278.661-2.43.305-10.732-2.035-15.44-2.29-1.519-.509-.405-1.272-2.835-1.679-1.165-.102.253.356-.152.662-4.404-.815-8.859-1.629-12.302-1.985.051-.661-.708-1.221-3.644-1.526.455.305 1.721.508 1.366.915-1.569 0-1.113-.61-1.417-.712-1.62-.407-3.645 0-5.366-1.018 2.683-.152 5.113.764 9.264 1.272 1.822.255 1.569-.508 3.949 0-2.532.407 5.517 1.17 6.732 1.883.81-.102 1.62-.203 2.43-.254 1.924.509 1.772 1.272 2.785 1.883 2.43-.255 2.581 1.017 6.074 1.322 1.367-1.17-4.505-1.78-1.873-2.493 1.924.763 3.696 1.527 3.443 2.544 3.29.764 3.645 0 1.721-.661.557-.305 1.772.153 1.468.509 2.784.356 3.645.916 5.265 1.425 1.468.356 1.316-.866-.608-.866 1.165-.56 3.341 1.018 4.658.56.303-.356-.658-.56-.608-.865-1.316.102-4.86-.916-4.758-.102-3.088-.305-2.177-1.12-5.265-1.424-.304-.611 1.519-.102 1.67-.458-.151-.56-1.417 0-1.569-.051-.962-.153-1.164-.713-2.227-.865-1.266-.153-2.127.152-3.898-.204-1.063-.102-.76.458-.962.763-3.139-.458-3.392-1.22-5.164-1.831-2.379-.51-2.278.203-3.24.356-1.67-.61-2.278-1.374-3.543-1.985-1.671.662-6.328-.203-10.176-.61.912-.662-2.936-.764-4.505-1.272-2.379-.357-1.772.814-5.518-.255.608-.102 1.468-.05 2.379.051-.101-.509-3.29-.814-3.796-.814.556.305.81.61 1.366.916 1.975 1.068 3.544.967 2.076 1.323 2.278.458 4.556 1.017 6.885 1.374-1.519.56-4.809-.865-8.454-1.527-2.734-.458-7.493-1.425-12.201-2.595.709-.509-.607-.916-.455-1.374-3.898-1.12-5.771-1.12-9.062-2.086.456-.356 1.519-.407 3.24-.153-2.025-1.068-3.543 0-5.518-.356-2.733-.458-1.67-1.069-4.404-1.527-1.417-.305 0 .865 2.126 1.069-1.772.61-2.632-.865-4.455-1.323-3.138-.407-1.113.458-2.581.661-2.987-.712 1.113-.61-2.025-1.424-.557.356-3.898-.662-3.291.254-2.227-.763-6.581-1.272-4.455-1.374-2.075-.407-5.923-1.679-6.834-1.526-1.316-.458 0-.356.152-.51-2.379-.762-1.215.306-2.43.154-1.063-.967-2.126-.204-6.024-1.527.557-.255 1.721-.153 2.48-.255 14.175 3.817 20.098 4.02 32.804 6.514 1.063.152.152-.306-.658-.56 2.734.407 5.619.662 7.695 1.17.607.153 1.215.662 2.177.865.506.102 1.873.204 1.569.102 1.164.356-1.164.356 2.936 1.018-1.569.967-5.366-.763-7.745-.967 3.139 1.425 7.846 2.748 13.415 4.07-.456.103-.861.154-.911.459 3.138.458 1.974-.61 1.164-1.476-3.29-.916-2.683.153-5.467-.509.607-.814 3.797-1.17-1.013-2.34 6.176 1.12 14.934 2.188 22.123 4.07 2.48-.254 7.897.916 12.352 1.629 1.518.152.81-.763 3.189-.153 1.721.916 1.62 1.374 1.974 1.985 3.696.407 2.937.458 7.695 1.068.405-.458-.405-.712-.557-1.068-1.316.305-4.353-.306-5.568 0-4.354-2.24 3.493-1.476 7.239-.458-.051 0-.962.305-.861.356.355.05 4.556.712 3.898.153 4.404.763 13.871 2.29 20.806 2.696 4.759.357 9.72 1.476 13.82 1.832 1.975.204 4.557-.102 7.037.153 3.038.254 5.974.763 7.796.203-.304-.966-4.353-1.17-4.353-2.188-3.493.102-9.113-.814-9.872-2.035-.911.865-3.392.916-6.429.763-.76.61.962.814.557 1.374-4.759-.305-2.228-1.73-1.165-2.239-.708-.254-3.898-.458-6.125-1.017-1.468-.153 1.012 1.068-1.013 1.17.254.509 3.797-.356 5.367.712-.81.255-2.177.204-2.481.713-5.569-1.018-12.2-1.425-20.705-3.003-2.329-.865 4.759.865 3.949-.101.05-.61-2.481-.865-4.506-1.221-1.974-.408-.759.814-3.189.203 1.974-.407-.81-1.069-2.177-1.069-1.772 0-.202 1.069-1.569 0-1.114-.865-3.291-1.475-5.265-1.323.658.56 3.291.916 2.835 1.629-2.43-.255-1.873-.967-3.696-1.323-.607-.051-.81.102-1.569 0-.658.509 1.468.712 2.126 1.068.608.61-2.278-.152-2.328-.152-1.772-.102-1.873.101-3.139-.051-3.392-.407-7.998-1.425-12.251-1.985 2.025-.305 2.987.306 6.176.763.051-.56-2.48-.864-4.505-1.17.101-.661-1.57-1.068-2.835-1.577-2.582 0 1.873.865.455 1.425-4.454-.56-2.784-1.782-4.961-2.596-2.835-.458-4.758-1.12-6.733-1.679-1.417-.254-.607.61-1.721.56-3.948-.56-2.936-1.527-7.441-2.035.658-.866-2.633-1.374-1.823-2.24 2.481 1.018 5.417.764 6.986.611-.152-.305-1.873-.509-2.987-.763.608-.051.912-.305.962-.662 1.671.255 2.38.611 2.126 1.018 1.064.305 2.025-.458 2.329.204 1.013.56.608.61-1.62.152 1.316.61.506 1.222-1.063 1.12.911.814 2.683.102 4.607.61.152.56 1.012 1.018.405 1.629 2.278.458.962-.916 3.29-.51.355-.508-2.885-.712-2.075-1.271 1.063.305 3.999.458 3.746.916 1.316-.102 2.025-.458 4.708.05-1.468.51-1.215 1.17 2.835 1.527 1.923.814-2.177.255-.253 1.069.961-.102 1.518-.407 3.898.152-.355.356.506.51 1.417.662-.607.458-1.822 1.12-.405 1.78 1.418 0 1.164-.762 3.949-.05.81 1.069-2.633.05-1.823 1.12 2.936.763 2.126-.306 3.24-.408 1.468.306-.152 1.018 2.936 1.17.507-.152.405-.814 2.531-.763-.556-.661-2.024.306-4.657-.508 1.316-.407-1.62-.713-2.177-1.018-.303-.204.304-.458.152-.662-.202-.305-1.873-.508-1.367-.916.912-.05 2.127 0 3.848.357-.355.254-1.418.152-1.671.458 1.873.305 3.189.356 3.898.152-.101-1.17-3.746-1.475-6.733-1.73-.607-.763 1.772-.153 3.139 0-1.316-.814-1.974-1.374.354-1.577-.152-.255-1.468-.356-1.417-.662-1.924-.203-2.734.458-4.607-.458.759-.916 7.037.458 11.593.967 2.582.305 4.657.254 6.935.763.051.204-2.379.051-3.088-.203 2.329.814 2.633.152 4.607.407 1.164.153 2.126.763 2.177.814 1.367.153 2.48-.254 3.948-.153 1.266.102 1.671.51 2.987.662 2.531.356 5.923.203 7.644 1.12-.81 1.17-3.948 1.17-7.846.101.101.814 3.341 1.17 5.973 1.628 2.278.102.911-.254.962-.865 1.519.306 2.379.255 2.379-.203 1.367.102 3.797.661 3.139-.153 0-.458-2.936.051-3.797-.661 3.696-.255 7.897.916 12.302 1.12.961.05 1.974-.255 3.138-.153 3.392.305 8.049.712 11.542 1.017 5.771.51 12.201 1.12 16.099 1.781.101 0-.203.509-.102.56.709.356 2.177-.254 3.088.05-1.873 1.578 1.671-.254 5.366.51.912.05.709-.458.912-.764 3.138.306 7.441.357 8.352 1.272 2.38.357 1.873-.712 4.708-.203.456 1.018-.607 1.323-3.239.865-.203.865 2.227 1.018 4.505 1.221.658-.814-.658-1.068-.557-1.73 9.163.458 18.376 1.018 27.539 1.68 9.163.508 18.376.966 27.489 1.475 9.112.509 18.224 1.069 27.286 1.578 9.061.305 18.072.661 26.982.966 6.024.204 10.934.204 16.958.56 1.266.05 1.367-.305 2.329-.254 2.633.101 7.644.407 12.302.458 2.581.05 5.011-.458 7.745-.255 3.645.255 14.681.56 20.806.204 3.594-.204 8.15-1.17 13.111.05 4-.508 6.987-.865 10.024-.101-.506-.356-1.772-.356-1.519-1.069 5.721.458 10.024-.305 16.959-.153-.304.459-1.367.56-1.569 1.12 3.138.356 2.025-1.272 3.898-1.476 1.822.102.405 1.578-.051 1.832 2.177-.203 3.291-.916 5.417-1.12 2.43.56 3.999 0 6.935-.05 1.367-.051 2.633.407 3.847.356 1.924-.05 5.063-1.272 9.265-.967 1.113.102 1.974.662 2.328.662 1.316.05 2.025-1.323 3.848-.102 2.632-.305 8.808-1.578 12.352-1.832 1.417-.102 2.733.305 3.088.305 1.366 0 1.62-.458 3.088-.458 1.569 0 1.569.611 2.328.662.405.05 1.418-.458 2.329-.458 3.341 0 8.505.407 11.542.05 1.367-.152 2.228-.762 3.847-.915.557.305 1.418.509 2.329.661 1.569-.814 4.657-.61 6.936-.661 1.619-.05 3.644-.865 5.366-1.018 1.366-.102 1.62.356 3.088.255 5.163-.458 12.048-1.069 17.718-1.527 1.265-.102 1.367.356 2.328.305 5.215-.407 9.821-1.323 13.061-1.374 1.671 0 1.165.459 2.329.662 4.151-.458 7.644-1.221 12.301-1.476.507.357 1.772.306 1.57 1.069.911-.102.607-.763.759-1.221 5.012-.102 8.505-2.29 12.301-.713 2.734-.458 2.785-.203 6.126-.763.86.407 2.227.56 1.62 1.883 3.442-.204.962-.967 2.278-1.68 3.543-.56 3.746.764 6.935.408 1.418-.153.405-1.374 1.468-1.68 3.898.408 9.163-.966 14.63-1.017 1.62 0 3.544.509 5.417.407 4.759-.204 13.213-2.443 16.2-.713.708-.356 1.113-.814 1.468-1.272 5.163.662 8.049-1.577 13.87-.966 1.114-1.832 2.936-1.018 6.075-1.68.253-.458-1.316-1.068-1.62-1.068-.81 0-1.316.865-2.278.966-1.164.153-1.468-.406-2.329-.203-1.113.204-2.024.916-3.037 1.018-1.67.203-2.835-.153-4.657-.102-1.823.102-4.303.712-7.695.56-.962-.051-2.177-.61-2.329-.61-.86 0-3.341.711-5.366.762-2.581.051-2.936.306-6.176.407-2.733.102-6.53.306-10.783.764-.253-.61.709-.713.709-1.222-2.328.204-5.062.611-4.657-.865-.911.153-.608.764-.709 1.222-.101.865 2.734 0 3.848.101-2.228 1.578-7.594 1.578-11.543 1.222-1.923-.407-2.328 1.679-3.088.56-1.619-.713.304-.764 1.519-1.273.759-.305-.253-.865 1.519-.865.607 0 .759.407 1.569.306-.101.457-1.367.407-2.278.56 2.531.915 5.062-.611 7.695-.153 1.063-2.24-6.024.356-4.708-2.036-4.253.865-5.467 2.799-10.732 2.24-.962 1.73 3.695.254 3.138 1.78-3.543.305-6.682.407-8.504-.305 1.316-.61 5.669-.916 3.037-2.137-1.468.254-.557 1.577-3.037 1.373.607-2.29-5.164-1.119-6.176-.05.708.661 2.43.712 4.657.508-.658 1.578-3.898.56-6.125.764 1.721-1.629-1.469-1.476-3.139-2.137-.81 1.577 2.734 1.22.81 2.29-2.076-.102-1.974-1.527-4.657-1.273-2.177.356 1.265.51 1.569.713-7.442 1.272-18.478 1.882-28.45 2.391-.912.051-4.253-.814-5.366.61-4.303-.406-12.757.052-16.149.357 1.164-1.374 5.214-.916 8.454-1.17 4.657-.306 9.011-.255 12.301-.967-.303-1.374-2.126-.865-.81-2.29-2.784.458-4.1-.509-5.366.254.962.153 1.57.357 3.848.611-1.722 2.035-4.658-.05-7.695.356-.304.916 3.493-.356 2.329 1.069-17.719.712-42.676 1.73-61.508 2.442-1.265.051-2.581-.305-3.847-.254-1.721.102-3.037.56-4.607.509-2.582-.051-5.72-1.578-7.694-.102-.254-.814-3.089-.407-3.848-.967-.962.102-.81.764 0 .713-13.516 2.29-28.45 0-39.233 1.73-1.114-.153.101-.306.051-.713-2.683.458-5.518.865-9.264.865.101-.915 3.037-.56 3.138-1.475-2.43 0-5.821 1.424-7.694.458.101-1.527 3.24.356 3.898-1.12 2.43-.203 2.683.61 5.366.255.607-.102.759-.357 1.569-.357.253-.814-.152-1.323-1.468-1.424 2.48-.458 2.936-2.036 3.139-2.545-1.215-1.373-4.506.153-6.126-.61-.405-1.12 2.481-.356 3.088-.407.81-.102.456-.662.81-.713 2.228-.305 5.113-.203 8.454-.508 1.266.61 1.114 2.645-.86 2.9-.608.814 2.784 1.425 3.037.661 2.379.56-1.62 1.17-1.569 1.832 1.67.051 2.43-.356 2.328-1.12 2.43-.203 1.722 1.07 4.607.662-1.367 1.476-4.961-.356-6.176 1.17-2.632.052-5.771-1.475-8.454-.203-1.063 1.527 6.125-.102 3.037 1.374 3.19-.916 5.316-.153 7.695-1.221 1.468.152 3.291.05 3.037 1.017 3.24-1.119 9.72-.56 15.39-.203 2.885-.916 6.986-1.374 9.213-.916 2.127-.509 3.898-1.221 6.936-1.323.101.662-.962.814-.76 1.527 1.924 0 1.873-.865 3.088-1.222 2.633-.203 6.227.102 7.695-.61-.506-.458-1.62-.61-3.088-.662 1.468-.712 4.911-.509 6.126-1.323 3.442-.05 4.454 1.17 7.694 1.221 1.165-.203-.303-.458 0-1.119 3.24-.204 4.151.865 7.695.509.759-.255.81-.865 2.329-.814.303-.662-.608-.713-1.519-.713 2.481-.814 4.404-.356 6.125.153 1.722-.254-.911-.56.76-1.17 2.531.152 1.063 2.442 5.366 1.679-.506-.356-1.772-.305-1.519-1.069 2.633.61 2.835-1.068 4.607-.61-.203-.051-.81 1.068 0 1.119.709.102 2.075-.967.759-.814-.354-1.018 4.202.102 3.848-.967-.962-1.018-7.088.814-6.126-1.221-1.063.153-.658.967-.759 1.526l-3.848.153c.304-3.257 6.683-3.562 11.492-2.442 1.063-.204.051-.662-.759-.713 2.176-1.272 5.011.305 6.884.407.962-.05.304-.509 0-.407 1.772-.56 6.834-.763 8.454-.05 1.165-.611 4.354-.306 3.797-1.73 3.038.966 6.48.203 10.732-.153 1.873.407 1.772 1.831 4.658 1.679 1.822-.865-4.303-.61-1.57-2.24 1.519-.203 2.38-.05 2.329.662 5.214-.458 12.149-.203 16.098-1.323 1.671-.152 2.43.153 2.329 1.018 1.063-1.476 5.416-1.781 9.163-1.374.759-1.069 4.151-1.018 6.125-1.526.405.814-1.063.814-2.278.916 2.025 1.017 4.809-.866 6.935-.051.861-.153.405-.407 0-.407.76-1.527 1.266.203 2.329.254 0 0 3.392-.204 3.847-.254 1.266 0 2.582-.255 3.848-.255.911 0 2.328.662 2.328.662.861-.051 1.873-1.12 3.038-1.374 1.215-.255 1.367.356 2.328.254.608-.05.76-.458 1.519-.509 2.987-.05 5.012.56 6.936-.102.253-.101-1.165-.407-1.975-.305 3.392-.814 7.088-.203 10.378-.305 1.215-.051 2.43-.61 3.797-.662.455 0 1.721.357 3.088.153 1.063-.153.101-.61.759-.865 1.367-.56 3.949.05 5.366-.407-.152.712-1.265 1.018-3.037 1.018 3.088.356-.962 1.526.86 2.34.608-.102.76-.458 1.519-.509 2.278-.407-.759-.814-.051-1.577.557-.712 1.671.05 3.088-.203.304-.051 2.127-.916 2.278-.967.355-.051 3.544 1.017 3.038-.61 1.67-.357 1.114.66 2.329.61 1.316.05 1.417-.407 1.518-.916 3.341.56 5.822.712 9.214-.662 1.974.306 3.543.814 6.176.713.253-.713-.658-.713-1.57-.662 1.266-.712 2.785-.102 5.367-.814 1.417-.153.404-1.374 1.468-1.73 2.429.407 3.239-1.272 4.556-1.578.708-.152 2.531-.05 3.847-.305 5.417-1.17 16.098-1.425 24.552-1.984 1.671-.102 4.253-1.374 5.417-.051 1.721.101 1.063-.865 2.278-.967 8.859-.509 15.238-1.73 21.515-1.069-2.734 1.323-6.126 0-9.163 1.222-.962 1.526 2.784.61 4.657.407.912-.102 2.43.203 2.329.203 1.823-.305 2.582-1.221 3.797-1.12 4.151.56 9.264.306 11.491-1.373 6.834-.051 12.302-1.73 16.959-.662 4.303-1.831 12.858-1.526 18.427-1.679 1.62-1.832 7.644-1.069 13.01-1.577 4.101-.407 7.999-1.527 11.492-1.832 4.859-.458 9.77-.865 13.82-1.221 4.151-.458 8.606.203 11.491-1.476 2.126 1.069 3.696-.305 6.126-.56 1.265-.153 1.316.255 2.328.204 4.253-.306 9.467-1.578 14.529-2.137 2.734-.306 5.214 0 7.695-.306 1.569-.203 2.936-.967 4.556-1.221 1.721-.254 3.594.153 5.417-.102 2.577-.356 5.117-1.526 7.647-1.12.76-.101.55-.508.71-.864 1.87.05 3.54.254 6.17-.204 2.43.662 3.9 1.934 8.61 1.17 1.62 1.018-2.99 2.138-2.03 4.071.96.967 4-.407 5.37-.508 1.11-.459-.25-.56.66-1.629 2.88-.56 1.77 1.323 3.95 1.17 2.88.153 2.12-1.17 4.55-1.22-.05.712 1.01.712.86 1.475 2.69.05 2.94-.865 5.37-.916.25.61-.66.712-.71 1.221 2.78-.509 5.21-1.221 6.93-.254.92-.102.36-.509-.05-.407 2.18-.662 7.29-1.069 9.27-.51 1.42-.406.45-1.17 2.28-.61 2.07-.458 3.54-1.12 4.5-1.984 1.06.254 1.12 1.17 2.43 1.323.61-.255 1.22-.51 2.28-.61-.05-.917-1.42-.968-.91-2.189 1.97-.203.96.204.81.662 2.18.203 1.97-.814 3.8-.764 1.92.102 4.1 2.748 5.41.255-.2-.458-2.33-.255-2.33.203-1.31-.254-.96-1.526-1.72-2.137 1.82-.407 3.49-.865 6.13-.967-.26.865-4.2.356-3.75 1.476 2.94.61 8.71-.814 9.92-2.035 2.53.152 7.34-1.018 7.04.865 2.89.152 2.13-1.12 4.56-1.17 1.41.152-.46.457-1.52.508.4 1.17 5.06 1.069 2.53 2.748 1.06.458 4.4.102 5.36-.509-.7-.509-2.53-.305-3.89-.407 1.21-.661-1.37-2.035 2.12-2.443 3.6-.305-.81.611.1 1.476 2.59-.305 3.24-1.577 4.61-.407 2.28-.458-.81-.712-.1-1.476 1.52.51 5.11-.203 7.74-.305 1.52.407-1.21 1.68 1.68 1.68 1.31-.102 1.97-.459 2.27-.968-.2-.508-2.33.102-2.38-.508-.86-1.17 2.38-.815 3.8-1.069-.81-1.323-3.09 0-5.42.102 1.17-2.035 5.22-.916 9.22-1.578-.26.51-1.32.713-1.47 1.222 4.96-1.12 5.01.61 7.09 1.22.6-.1.76-.457 1.52-.508-1.27-1.069-3.45-1.526-4.1-2.951 1.72.152 3.13.458 3.18 1.577 2.43-.05 3.14-.763 3.8-1.425 1.06.153 1.47.662 1.62 1.323 2.43-.458.86-.916 4.61-.763 1.21.051 3.09-.102 3.14.458 2.83-.509-.41-1.069 1.41-1.934l-2.32.204c.7-.763 5.56-.763 4.7.662 3.39-.611 4.66.05 7.75-.306-1.87-.56-8.25-.05-6.33-1.628 2.18-.255 1.87.916 3.95.763.61-.102.76-.407 1.52-.509.05-.661-1.01-.661-.86-1.374-1.62 0-2.03.407-3.04.611-1.47-.814 4.71-1.12 6.18-.56.15.61-.92.865-.66 1.527 2.93-.916 8.1-1.272 9.31-.102 1.42-.763-.76-1.17-1.67-1.628 4.15-1.374 8.15 1.272 13.16-.407 2.38-.458 1.02 1.12 3.9.356 2.48.102 1.52-1.069 2.99-1.323 3.74.407 6.07-.458 8.55.305.76-.305.76-.865 2.28-.916 1.01-.407.91-1.272 2.23-1.577-.86-.356-.71-.662.71-.764.25 1.018-2.03 2.29.91 2.341 1.97-.254-1.11-.509-.1-1.374 2.99-.05 4.76-1.12 6.88-1.272 2.89-.254 4.96.764 8.56.306 1.87 0-.51-1.527 2.23-1.222 2.38-.356.4.407.81.61.5.306 2.48-.05 2.38.815 3.08-.661.86-1.221 2.17-2.239 2.38.254 6.18-.05 8.51-.712 1.72.56 0 1.068-.66 1.73 1.31.61 4.76-.407 7.69-.967-.6 1.221.61 1.425-2.17 2.188.25.458 1.97.102 3.08.102 1.73-.204.26-1.425.66-2.087 2.38-.152 1.77-1.322 4.56-1.373.91-.102.61-.662.71-1.069 5.06.05 9.67-.763 13.92-.763.76-.051.56-.458.71-.713 3.24-.101 5.62-.661 7.69-.61.15 0-.1.61.05.661.66.204 3.04-.458 3.85-.305.81-.153.51-.662 1.52-.763.91-1.12-2.53-.051-1.62-1.17 3.39-1.171 2.02 1.73 6.23.203.25.509-.71.61-.71 1.018 2.43.254 4.25-1.272 5.41-.407.91-.102.61-.611.71-1.018 4.61.203 7.44-.458 11.59-1.12-.15.458-2.27.255-2.27.764 1.01.966 8.4-1.832 3.03-1.17.31-.713 3.8-.408 5.42-.662-.3.661.56.763.86 1.17.86-.102.41-.356 0-.305 1.77-1.221 7.54.509 8.46-1.17 2.43-.306 1.82.814 4.65.305.31-.662-1.11-.51-2.33-.458.71-.713 4.46-.255 5.42-.051 1.32-.204-1.06-.967 2.28-1.069 1.62-.254 1.52.357 1.57.815 2.58.05 4.81-1.018 7.69-1.425.46-.051.97.203 1.57.203 1.01-.05 1.27-.407 1.52-.407 1.92-.102 5.27-.203 8.51-.56 1.41-.152 3.94-.254 5.41-.356 2.03-.101 3.75-.967 5.42-.305.35.153 1.97.356 3.09.102.1-.051.76-.61.76-.61.3 0 5.46 1.017 6.17-.612 3.04-.254 4.81-.407 9.27-.814.91-.05 3.34-.458 3.08-.458 1.02 0 1.22.458 2.33.407 2.48-.101 2.08-1.017 3.85-.203l2.28-.916a835.86 835.86 0 0032.5-2.646c.71.153 1.16.407 1.57.712 7.34-1.577 14.98-1.73 22.42-2.391 2.03 0 .61-.967 3.09-.814-.35.763 1.01.915 2.33 1.119.56-.763-2.13-.356-1.57-1.12 1.93-.101 3.75-.152 3.9.357 1.01-.204 1.42-.56 1.52-.967 5.36-.356 7.24-.254 13.16-.458-2.08 1.12-1.97 1.272-2.28 2.595 1.67.051 1.47-.407 1.52-.763 2.18.05 2.18.763 3.14 1.221 3.75-.61 7.19.153 9.31-.763 1.73-.153 1.12.407 2.33.356.86-.102.51-.458 1.57-.458 2.69-.254 2.99.254 5.42.05.45.408 1.21.764 3.9.51 1.77-.764-6.33-.051-1.57-.56 1.26-.153 2.83-.05 3.09-.102 1.92-.152 2.32-.458 3.08-.509 1.37-.101 1.67.153 3.09.102 6.03-.203 13.52-.814 17.06-.712.91-.051.66-.356.76-.61 3.75.254 10.28-.204 13.97-.917 1.57-.102 2.53.102 3.9.102 1.42 0 1.87-.356 2.33-.407.96 0 1.06.305 1.57.356.4 0 3.59-.203 3.9-.203 1.41-.051 2.38-.255 4.65-.204-.25-.254-1.92-.102-3.08-.153-1.88-.305 5.11-.152 6.98-.254-1.82.458 2.28.509-.81.865.71.458 1.47-.458 3.9-.204 1.06-.407-1.97-.61 0-.661 3.09-.05-.25.254 1.52.458 1.47.05.96-.407 1.57-.509.61-.102 4.1.153 3.09-.356 4.3-.102 7.29.05 10.83.102-.41.509 1.67.56-.05.916 2.99.203 10.73.101 13.97-.153.66-.051.66-.153.76-.305 6.43-.204 13.57.203 17.06-.204 3.34.153 8.45.356 8.56-.203 2.12.152 4-.051 6.22-.051 1.42.05 3.5.101 4.66.152.86 0 1.82-.203 2.33-.203 3.09-.102 6.88 0 10.07 0 2.69 0 7.29.05 11.65.05 2.68-.05 4.55-.152 6.98-.152 2.84.05 5.67.153 8.56.102-.61.203.76.305.71.458-2.89-.102-1.73.254-3.9.254.71.204 2.43-.102 4.66.051-1.98.204-2.64.61.65.814.46 0 1.72-.102 2.33-.102 1.72.051 5.32.102 8.51.153 2.83 0 4.2-.102 6.98.051 1.77-.153 9.77.05 14.78.102h3.9c4.86.152 9.12.305 13.16.407-.45.05 1.93.102 2.23.203 2.48.102 5.93.204 8.36.255-1.62 0 0 .05 2.22.05-2.88 0 1.93.052 2.18.052h-2.33 3.09c-1.27 0-1.32 0-2.38.05-.2.611.66.611 1.62.56zM553.717 77.6c.101 1.119.456 2.137 2.987 2.086l.05-2.137-3.037.05zm.658 4.63l2.329-.05c-.76-1.07-.709-2.494-4.556-2.087-1.367 1.73 3.543.458 2.227 2.137zm58.369-.61c-2.278-.051-.658-2.138-4.607-1.324-.911 1.222 1.215.865 1.519 1.425-.557.61 3.594.458 3.088-.102zm35.284-5.14c1.924-.407 6.632.407 6.125-1.069-1.923.408-6.581-.407-6.125 1.07zm8.505 4.936v-1.934c-1.468.51-3.544.713-3.848 1.73 2.177-.407 1.975.458 3.848.204zm2.987-5.496c-5.215.357-6.227 1.323-11.492.967.304 1.629 6.429.051 9.213.305.102-.763 2.532-.407 2.279-1.272zm3.088-.916c1.771.357-1.469 1.578-2.279 2.036 1.772.05 2.937-.204 3.848-.56.557-.916-.911-2.544-1.569-1.476zm24.552-1.577c-.355 1.221.962 1.526 2.328 1.781.304-.509.962-.865 2.278-.916.355-1.221-1.012-1.526-2.328-1.78.101.66-.759.915-2.278.915zm-4.607.203c.405.967 1.468 1.527 2.329 2.189-.253-1.018 1.012-2.9-2.329-2.189zm9.315 5.7c-1.316-.458-.911.305-2.278.508-2.329.408-7.189-.152-6.885 1.527 2.885-.712 8.403-.305 9.163-2.035zm32.146-7.022c-2.025 1.017-3.898-.357-5.367.712 1.064.458 5.367.407 5.367-.712zm33.259 4.07c-.354-2.34-5.366-.101-6.125.814.506.204 2.379 1.425 3.088.204-2.025-1.628 1.923-.356 3.037-1.018zm3.088.61c-.152-.711-.557-1.271-1.62-1.475 1.063 1.629-2.126 1.425-2.987 2.188 1.924-.101 3.746-.203 4.607-.712zm-513.927.306c-1.823.051-4.961-.61-4.809.306 2.379.661 1.721-.255 3.189-.102-.253.509-.354 1.017 1.266 1.323l.354-1.527zm40.144 12.314c-2.177-.407-3.898-.61-4.708-.305 2.835.051 2.278.407 4.556 1.018l.152-.713zm15.592 5.343c-.607-.305-5.872-1.526-5.417-.508.507.56 5.62 1.17 5.417.508zm8.201-1.73c-3.898-.356-6.48-1.933-9.973-1.628-1.063 1.221 3.24 1.526 4.506 1.12 3.088.305 3.948 1.119 5.467.508zm2.278.306c1.114 1.577 6.024 1.22 8.454 1.17-2.379-1.221-6.024 0-8.454-1.17zm11.087 4.477c-3.493-.508-7.29-2.239-10.024-1.424 4.05.203 7.492 1.78 10.024 1.424zm-41.461-14.807l2.278.356c-.405-.814.962-.763 1.063-1.323-2.784-.458-2.48.56-3.341.967zm-1.114-2.34c1.772-.459 1.013-1.019 4.152-1.12-2.734-.356-7.543.102-4.152 1.12zm-13.972-.917c.152-.661 3.493-.865-.506-1.475.608.966-1.772.508-2.531.814 1.468.152 1.62.509 3.037.661zm.456 1.527c-.253.305-1.316.203-1.671.458 1.013.254 1.367.56 2.987.712.355-.509.051-.916-1.316-1.17zm4.354-1.985c.303-.254 1.164-.305.961-.814-1.316-.153-2.379-.407-2.986-.661-.304.661-.405 1.22 2.025 1.475zm13.921 5.292c-2.278-1.017-4.91-.508-8.403-1.323-.102-.356-1.165-.61-1.367-.916.05-.305 1.367 0 1.62-.254-1.823-.509-1.519-1.323-4.405-1.628-1.569-.153-2.126.152-3.189.254.051 1.17 1.316 2.188 4.911 2.9.607-.407-.962-.457-1.418-.712-.759-.356-2.126-1.374-.557-1.272 1.823.509 3.19 1.069 2.785 1.883 3.847.61 7.34 1.068 10.023 1.068zm4.455 1.425c1.417-.61 0-.967-2.886-1.425-1.012 1.476 6.531 2.697 8.91 2.748.658-.916-4.151-.763-6.024-1.323zm6.378-.407c-2.48-.102-2.328-.662-2.936-1.12-1.417-.101-2.582-.152-3.138.052 2.986.56 3.29.864 1.366 1.22 1.924.306 5.721.102 4.708-.152zm.507-2.951c.354-.61-.912-.916-2.937-1.12-.354.61.102 1.069 2.127 1.272.101-.152.202-.305.81-.152zm.911-.662c2.126.56 1.114 1.68 5.163 1.883.912-.458-1.316-.662-1.366-1.17 0-.102 1.873-.102 1.67-.56-.101-.255-.202-.662-2.987-.865.557 1.475-1.265.356-2.48.712zm17.364 3.562c.556 1.68-6.328-1.17-4.05.814-2.633-.509-3.291-.102-4.708-.05-2.481-.815-4.911-1.629-8.201-2.29l-.203 1.017c3.443.306 5.366.764 3.645 1.476 4.101.407 6.986.254 10.884.56-.658-1.222 7.391 0 2.633-1.527zm9.061-2.646c-3.088-.153-5.366.051-7.846.204-2.683-.764-6.48-1.272-10.631-1.73-.355.56-.051.966.557 1.373 1.417-.152 4.454.458 5.467.102-1.873-.661-2.734 0-3.797-.712 2.228-.407 5.012.61 6.024 1.221-4.1-.05-1.367.865-4.1 1.069-1.468-.102-1.62-.51-3.038-.61-.253.712 2.177.864 2.076 1.526-.304.101-3.797-.051-1.62.305 2.582.05 2.632-1.12 6.379-.56-1.874-1.374 1.316-1.068 2.531-1.017-1.468-.204.658-.967 1.721-.866-.506 1.273 5.265 1.222 5.872 2.29l.203-1.323c-2.025-.254-4.556-.356-4.506-1.068 2.076.203 5.569 1.068 4.708-.204zm3.038 5.19c2.227.051 1.923.611 3.796.713 1.57-1.018-3.898-1.425-3.796-.713zm5.062-2.137c-3.291-.509-1.114.61-2.43.51-2.025-.255-4.505-.662-4.708 0 2.886.559 4.961.152 6.125.712-.506-.764 1.215-.51 1.013-1.222zm4.809-.814c-1.367-.102-3.695-1.17-4.607-.509.608.102.861.305.709.61 1.873.255 3.696.51 3.898-.1zm5.974 1.73c-.81-.152-1.772-.61-.709-.61 2.531-.102.456.916 2.987.814 1.215 0 .759-.814 3.138-.306 1.063-.814-2.48-.407-1.366-1.22 2.278.1 3.644 1.424 4.606.406-2.278-.102-2.278-.814-4.556-.916-2.885.204-4.809.967-8.656.61-.152.306 0 .764-.912.713-3.796-.102 2.025.51 2.329 0 1.114.051 2.227 1.272 3.139.51zm8.251 2.137c-.86-.407-2.683-.56-4.556-.712-1.063.814 2.481.458 1.367 1.221-2.379 0-2.784-.56-4.607-.712-1.367.407 0 .356-.152 1.12 2.329-.052 6.176.559 7.037-.204-3.594-.306.658-.407.911-.713zm6.48 3.715c-2.43-.56-.709.865-3.139.254-1.215-.152-.506-.763-2.227-.763l-.152 1.12c2.936.05 3.645.712 6.125.865.507-.865-2.581-1.018-.607-1.476zm-.658-.916c-.101-.56-4.354-1.374-5.366-.763 1.012.305 7.34 1.425 5.366.763zm2.885-3.715c-2.683-.101-4.303-.458-6.125-.814-1.012-.102-5.569-.509-3.139 0l3.848.356c.607.662 1.164 2.748 3.594 2.036-1.367-.204-1.671-.662-1.367-1.272 1.367 0 3.848.61 3.189-.306zm-.202 1.374c3.088-.102 1.468 1.069 4.556.967 1.012-.814-6.53-1.577-4.556-.967zm7.29 3.817c-2.126-.458-3.038-1.222-6.024-1.425-.557.967 4.302 1.984 6.024 1.425zm8.555-.051c-1.873-.356-5.974-1.73-6.935-.662 1.873.356 6.631 1.578 6.935.662zm3.442-2.595c-1.923-.051-3.391-1.629-4.556-.967.962.509 3.544 2.086 4.556.967zm.355-2.646c-1.772-.713-6.126-.713-9.163-1.069-.911 1.069 4.303.458 3.695 1.476-1.063-.051-.911.661.709.661.456-.407-.709-1.577.962-1.374.608.713 2.683.916 3.797.306zm28.399 2.239c1.823.101 2.228.661 4.607.56 1.164-.917-4.556-1.018-4.607-.56zm-26.881 4.121c.608 0 1.519.153 1.57-.152-3.038-.56-2.481.61-3.24 1.17l3.088.305c.658-.763-1.468-.763-1.418-1.323zm2.987-5.394c.203-.712-1.063-1.017-2.177-1.373-.303.356-1.164.457-.911 1.119l3.088.254zm10.125 6.463c-3.999-.61-4.961.153-7.796 0 .101-.763 2.227-.56 3.24-.916-2.278-.967-4.202.203-5.518.661 4.05.815 6.631.357 9.163 1.68-.557-.865 1.164-.662.911-1.425zm-1.772-4.63c7.796.152-2.987-1.018-3.139.101 1.418.102 1.772-.102 3.139-.102zm9.973.915l.152-1.526c.101-.407 5.568.152 3.138-.407-2.986-.102-5.669-.306-7.644-.764-1.367 1.425 3.949.662 2.886 1.985-1.468-.153-1.721.254-3.139.102.608-1.578-6.986-3.104-8.353-1.425 3.088.254 5.923.56 6.885.712 1.316 1.578-2.632.662-2.531 1.68 3.594.254 4.404-.866 8.606-.357zm11.086 5.038c-2.126.102-1.468-.713-3.037-.814-1.772.305.911.814-.861.865-.253-.56-1.012 0-2.328-.153-.355-1.018 1.569-.865.152-1.526-1.165 0-2.835-.306-3.139.101.405.051.861.306-.051.306-3.999.152-3.189-1.12-5.265-1.578.102 1.221-1.569 1.578-1.113 2.951 3.24-.101 3.796.306 6.935.764.152-.356.304-.713 1.62-.51 2.379.154 2.126 1.12 5.366.968.405-.51 2.329-.356 1.721-1.374zm-.557-1.934c-2.885-.967-1.316-1.17-3.847-.56.962-1.068-1.822-.966-1.367-1.933-1.569-.356-3.037.814-1.62.814.051-.305 1.418-.305 1.519.102l-.051.61c-1.62.102-5.011-.712-5.416-.05 1.417.712 3.645.407 5.416.356 1.924 1.272 4.557.865 7.645 1.425.607-.764-1.317-.408-2.279-.764zm8.708-1.933c-1.367-.255-3.19-.357-3.797-.865l5.417.305c.658-.305 1.113-.763.911-1.527-4.556-.661-4.86.713-8.555.407-.557.611 1.316.662 1.468 1.018 0-.05-1.57.356-1.62.509 0-.153 1.468.356 1.518.407.304.305-1.67.61.709.662-1.417-1.527 3.544-.153 3.949-.916zm6.733 2.95c-1.418-.66-5.063-.559-7.695-.813.354 1.882 5.417 1.374 7.695.814zm3.239-1.678c.152.356-.253.407-.607.407-.81-.153-.456 0 0 0 .253.05.658.152 1.316.254.911.204.506.662 2.278.764.557.05 2.936.356 3.139-.459-1.316-.254-4.556.102-4.607-.61 3.645.509 2.228-.662 3.189-.763.861.407 2.683.508 4.607.56-.354-1.374-6.024-.967-8.353-1.73 0-.306.658-.357.81-.56-2.328-.357-1.468-.306-3.847-.255-1.266 1.12 3.442.255 2.177 1.374l-3.848-.254c-.911 1.323 3.443.407 3.746 1.272zm11.441 2.188c-4.1-.458-1.873.458-3.138.509-3.24.101-6.683-1.17-9.214-.865 1.114.152.658.814.658 1.323 3.645-.713 6.278.254 11.593.356l.101-1.323zm20.806 1.475c.051-.458-.303-.712-.708-1.017-1.924-.153-2.481.407-3.19.865 1.013.458 2.835.56 3.898.152zm8.708-2.646c-1.367.153-4.506-.56-4.658.153.962.509 4.556.763 4.658-.153zm17.11-1.73c-1.518-.61-.962.051-3.088-.05-.708 1.272 3.595 1.373 3.088.05zm.557 3.359c-1.772-.255-5.518-1.476-7.695-.56 1.873.254 6.43 1.221 7.695.56zm14.478 4.681c-1.215-.153-.607-1.068-3.037-.763l-.051 1.018c1.114 0 2.785.203 3.088-.255zm3.088-.254c2.481.356 2.43-.458 3.139-.967-2.582-.662-5.822-.407-5.467 1.272.455.102 2.936.916 3.088.051-.456-.051-.911-.102-.76-.356zm13.922.61c.405-1.628-3.088-.101-4.658-.101-1.873.05-5.315-1.069-6.226.203 3.594-.051 8.555.56 10.884-.102zm6.328-3.714c-.962-.51-4.607-.662-4.658.254 1.418-.203 4.556.509 4.658-.254zm-42.929 6.971c-2.531-.153-2.885-1.069-6.176-.967-.202 1.679 3.797 1.425 6.176.967zm8.505.611c-2.632.356-3.999-1.425-5.417-.458 3.088.407 1.772.814-.101 1.323 2.329-.051 4.759-.102 5.518-.865zm32.551.763c.911.102.81.56.708 1.068 1.367.051 2.43 0 3.139-.254.608-.865-3.24-1.577-3.847-.814zm-23.439 2.544c-.709-.814-.152-2.188-2.987-2.137-.405 1.272 1.57 1.577 2.987 2.137zm2.43-1.679c-4.202-.56 2.987-1.985-2.227-2.086-1.215 1.068.303 2.697 2.227 2.086zm27.033 3.867c-.101-.509.354-1.272-.709-1.425.203.713-2.227-.152-2.329-.407.102-.559 1.975-.203 1.57-1.017-3.443-.204-8.151.458-11.644.05-1.923-.254-2.733-1.373-4.606-1.526 2.48 0 6.884-.916 5.518-1.628-1.62 1.119-6.885.916-7.847 1.882.101-.101 2.481.306 1.519.713-1.367-.255-3.291.916-3.898-.102.911-.051 2.177.102 2.328-.305-1.164-.458-3.138-.509-3.847-1.12.911-.458.861-.814-.709-1.068.507 1.068-2.683.356-1.62 1.679 1.975 0 2.481-.611 3.088.407-.86 1.018-1.67 2.035-2.48 3.053l3.088.102c1.063-.814-3.038-1.171-.709-1.374.759 0 3.442.051 3.088.407.051-.051-2.177.153-1.569.305 2.177.509 4.505.153 6.986.204 1.62 0 4.353 1.068 4.657-.204-3.695-.051-4.657-1.272-7.695-1.577 2.278-1.018 4.455.865 6.176 1.221 1.57-.102 5.822-.712 6.986.204.102 1.017-5.062-.56-3.948.916 3.746-.509 4.809.356 8.606.61zm15.035-8.04c-.354-1.017-2.683-2.951-5.366-1.781.86.051 1.215.407 1.519.713-1.013.509-3.392.356-5.417.356.911-1.12-1.164-.865-1.519-1.425-2.683-.356-2.987.458-5.417.255.507 1.068.507.712-.05 1.781 5.417.152 10.833.152 16.25.101zm21.717-1.424c-2.835-.102-5.062.05-6.986.356-.202-.814 2.228-.407 2.329-1.069-.608-.102-1.519 0-1.519-.356h-1.569c-.152.56.253 1.323-.81 1.425-1.012-1.578-3.999-.051-6.176 0l.051-1.069c-3.19 1.12-8.1-1.221-8.505.356 3.24-.305 5.67.815 3.797 1.781 3.037-.051 5.669-.254 6.986-1.068 4.049-.306 10.934 2.086 12.402-.356zm16.098 10.584c-2.278.508-2.885-.407-3.898.712 1.823.458 1.469-.051 3.898.407v-1.119zm4.759-7.022c-.911-.408-2.734-.357-4.657-.306-1.114 1.171 4.657.916 4.657.306zm.81-3.308c-5.164.254.709-1.272-1.519-1.781-3.442-.102-5.821.204-8.504.407-1.924.509 1.366 1.12-.81 1.476-1.823-.713-3.341-1.578-6.176-1.781-1.317.458-2.127 1.221-2.38 2.188 2.785 0 6.176.102 3.139-.713 2.683.204 4.1.967 6.935 1.069 1.823-1.73 6.986.305 9.315-.865zm.81-1.883c.911.051.456.407 0 .713 2.076-.051 1.671 1.119 3.847 1.017 1.519-.509-2.126-2.85-3.847-1.73zm346.01-7.785c.911-.153 2.177-.153 2.278-.61-2.835 0 1.924-2.189-1.671-1.425-.81.406-.202.763-.607 2.035zm-39.183-6.259c3.392-.254 5.367.102 7.695-1.12-.911-.152-6.176.357-7.695 1.12zm-35.638 13.586c2.328-.509 2.835.153 4.657 0 0-1.22-4.607-1.272-4.657 0zm-11.542 1.374c2.024-1.119 4.454.305 6.176-.916-.81-.305-6.784-.56-6.176.916zm-74.265 5.598c.76-.56.709-1.527 1.468-2.087l-3.088.204c-.101.967-.101 1.933 1.62 1.883zm-35.942-6.005c2.936-.356 1.62 1.73 5.467.814.354-1.272-2.683-.865-.86-1.933-2.228.101-3.898.356-4.607 1.119zm-12.099 10.432c2.43-.56 1.924.508 3.138.61.152-1.17-1.518-1.272-2.379-1.832 0-.763 2.076-.61 1.519-1.628-4.657.051-1.772 1.119-2.278 2.85zm-44.245.915c2.228 0 3.949-.203 4.657-.915-2.885.356-4.606-.916-4.657.915zm-20.3-6.971l3.898-.152c.709-1.578-4.657-1.374-3.898.152zm-6.125 5.954c2.075-.051 4.556.051 4.657-.916-1.62.254-5.417-.458-4.657.916zm-12.454-.764c2.633.153 6.48-1.068 4.658-1.679-.304.509-6.024-.509-4.658 1.679zm-17.87-5.19c.557 1.12 2.43 1.527 5.417 1.425 1.367-2.086-2.632-1.425-5.417-1.425zm-14.731 7.735c2.379 1.017 5.113-.102 7.745 1.017.507-1.017-1.316-.407-2.328-.712-1.823-.509-4.607-1.832-5.417-.305zm-5.366-12.925c-2.126.153-5.417-.967-6.935.153 1.721.101.607 1.933 0 2.239 3.341-.357 5.315-1.323 6.935-2.392zm12.403.458c.455-1.476-4.253-.356-6.176-.61-1.063.152-1.468.559-3.088.457.455-.967-.304-1.323-2.329-1.068-.607 1.17 2.126.661 1.519 1.832-2.987-.255-3.341.712-4.658 1.221 4.708-.56 10.53-2.29 14.732-1.832zm40.954-.916c-.608-.05-.911-.305-.81-.712-2.379.356-1.468.305-3.847.152-.658 1.171 5.163.814 4.657.56zm14.731-.153v-1.17c-1.771-.05-2.885.204-3.088.865 1.013.102 1.468.509 3.088.305zm5.417-.966c-.962-1.07-1.316-2.392-4.708-2.138-.81 1.425.962.713 1.569 1.476-.05-.102-1.113.61 0 .763l3.139-.102zm51.737-3.46l-.051-1.578c-2.227.05-3.898.305-4.606 1.018 2.278-.204 2.379.763 4.657.56zm78.82-33.788c-1.67-.713-4.201.203-4.556 1.17 2.886-.05 3.544.204 4.556-1.17zm5.316 12.772c-3.291-.255-3.898.254-5.316 1.628 1.924-.509 4.303-.763 5.316-1.628zm13.111-14.655c-2.075.814-3.645-.356-4.556 1.17 1.063.458 4.607 0 4.556-1.17zm7.746.967c-1.62-.255-1.671-1.425-3.949-1.272-.608 1.323 2.025.661 2.379 1.424.051.357 1.418.357 1.57-.152zm6.074-1.73c-.911 0-.506-.407-.05-.815-2.582.866-5.164-.864-6.075 1.73 3.189-.305 4.252.357 6.125-.915zm106.917 15.57c-.912-1.068-4.961-.152-6.986-.508-.102.61.354 1.424-.659 1.679-.151-.713-2.632 0-3.138-.509-4.86 1.577-1.772.509.81.712 1.772.153 3.088 1.069 4.657.357 0-.56-.405-.815-.86-1.12 2.581-1.475 4.758.407 6.176-.61zm4.505-1.628c-2.227.255-2.784 1.17-3.746 1.934 1.468-.255 1.721.254 3.088.102-.658-1.069 1.063-1.12.658-2.036zm50.774-5.037c-1.21-1.069.15-1.527-.91-2.24-2.83.917-5.67 1.222-7.644 1.527.607.051.911.255.81.713 2.224.203 5.214-1.17 5.364-.56-.15.814-3.39.458-2.98 1.475 2.83.459 2.83-.457 5.36-.915zm35.94-6.412c-2.07.255-3.64 1.272-2.17 1.781 2.02-.102 2.48-.814 2.17-1.78zm-17.77 11.55c.36.713-1.62 1.222-3.74 1.935 1.52-.153 1.06.966 3.14.458.4-.56 3.74-2.85.6-2.392zm16.86-2.543c-.6 0-.91-.204-.81-.713-2.58 0-2.48 1.069-3.74 1.578 1.31-.356 4.55 0 4.55-.865zm14.28-6.514c-2.38-.101-2.53-1.628-5.52-1.373-.86.661-.81 1.068.1 1.526-1.31.102-1.97.509-2.28 1.018 3.85-1.323 6.28.356 7.7-1.17zm23.18-21.83c1.93-.101 3.75-.254 3.8-1.119-1.21-.458-4.4-.102-3.8 1.12zm-6.12.968c0-.662-.25-1.17-.86-1.425-1.93.102-2.38.814-2.99 1.425 2.13-.51 2.03.356 3.85 0zm11.29 16.384c-2.79 0-5.82 1.222-6.94.357.2.152 2.43-.56.76-.458-1.21 1.018-6.93.356-6.02 2.137 2.93.254 1.41-1.17 3.79-1.17 1.47.203 7.75.966 8.41-.866zm5.46-20.608c.26-1.221-1.72-1.068-3.94-.763-.26 1.221 1.72 1.069 3.94.763zm6.99.509c-2.73.153-4.61.662-5.31 1.628 2.32.764 3.64-1.068 5.31-1.628zm2.43 23.05c.71-1.322-2.43-.304-3.9-.355 0 1.526 2.08.814 3.9.356zm3.14.459c-1.27-.509-4 .102-4.61.865 1.32.509 4-.102 4.61-.865zm7.24 3.714c-.56-.56-2.99-1.984-3.95-1.068.46-.051.91-.051.81.305-1.42.204-2.53.509-3.04 1.069 2.23-.204 5.01-.764 6.18-.306zm12.45-10.33c-.45 1.324 2.79 1.019 3.9.357.4-1.323-2.84-1.018-3.9-.356zm99.32-31.192c1.57.51 4.76-.305 6.13-.865-3.04.407-4.71-.356-6.13.865zm-20.75 2.443c2.83-.967 2.83.203 5.42.254.05-.865 1.36-1.17-.11-1.73-1.26.662-5.61.255-5.31 1.476zm-43.89 4.885c1.01.407 3.8.203 3.85-.713-1.02-.407-3.8-.203-3.85.713zm9.67 27.528c.6-1.373-5.12-.254-4.61.51 1.82-.102 3.24.305 4.61-.51zm9.06-3.51c-2.99-.408-2.94 1.933-1.42 1.933-.66-1.018 2.63-.712 1.42-1.933zm-3.95-1.374c1.82-.102 1.52 1.068 3.9.661 3.95-1.374-2.68-2.544-3.9-.661zm90.11-17.81c.46-2.392-5.77-.102-8.5.153-4.71.457-9.07.305-13.12.56.05.559-.55.915-1.46 1.17-6.69.05-10.08 1.22-16.1 2.238-.56-.712 2.12-1.272-.86-.915-.86.712-2.89 1.017-3.75 1.73-5.67.305-11.04 1.679-13.87 1.017-2.94.967-6.23 1.222-8.45.865 1.06 1.629-3.85 1.17-5.27 1.934.2-.712 2.03-.916 2.23-1.628-2.58.916-3.7.305-6.94.712-1.11 1.527 3.34-.203 3.14.763-.4 1.323-3.69.255-6.88 1.069-.05.458-.15.865-1.47.865 1.42-1.272-.3-.203-2.33-.102-3.24.153-5.72.306-6.88 1.425-.11-.61.1-1.12.65-1.476-2.88-.101-2.43 1.018-3.79 1.476-4.96.254-9.57.814-10.84.05.1-.457 1.32-.966-.05-1.068-1.11.56-1.11 1.476-2.17 2.036-2.08.203-3.7-1.17-4.61.458 3.34.152 5.87-.916 6.99 0-1.27.458-3.45.865-5.32 1.272-3.24.763-1.16-.051-3.85.05-3.64 2.8 14.28.204 13.87-.712 2.74.407 3.45-.508 6.13-1.017-.61 1.475 2.93.05 3.09.05 1.62-.101 2.07.815 3.89.662-.65-1.527 4.16-1.12 4.51-2.239 1.37-.05 3.85-.763 3.14.407-2.38.407-3.19-.509-3.8.763 1.27.204 2.48.255 3.85-.05 1.37-.306 6.23-3.155 6.88-1.425-.4.05-.86.356 0 .356.92-1.12 4.61 1.069 5.37-.916-.51-.458-2.94.254-3.14-.356 3.7-.509 6.48.254 8.46-1.221.6-.051 1.31.865 1.62.865.65.05 4.91-.662 5.36-.56.1 0-.05.712.05.712 1.52-.102 3.09-1.017 4.61-.814.15.407-.05.967.86.967 1.62-.865-.15-1.12-.86-1.628 3.19-.662.76-1.476 4.5-2.188 1.52-.153 1.02.814 3.14.356.51-.61 2.03-.814 3.04-1.018 4.56-.865 10.13-1.425 15.39-1.527.66-.56 1.06-1.17 3.04-1.322 8-1.273 11.84-1.782 20.5-2.8zm4.61-.407c.15-.967-1.78-.814-1.67-1.781.6-.153 1.51-.153 1.51-.458-4.1.458-4.55 2.595.16 2.239zm19.13-4.071c-2.88-.05-7.24 1.17-11.49 1.73-2.23.255-5.42-.56-6.12.916 1.82-.05 3.64.56 5.41.458 2.08-.102 2.33-.763 3.8-1.018.76-.102.61.255.81.255.71 0 .71-.407.76-.407 3.9-.51 6.02-.916 6.83-1.934zm104.03-6.564c.21-1.12-4.5.203-5.36.458 1.77 0 3.95.203 5.36-.458zm-.86-2.595c-1.47.05-1.67.458-3.09.509-.3-.611-3.03-.713-4.65-.713-1.42 0-1.93.458-3.85.61-1.87.153-4.4-.203-6.18-.05-1.01.05-1.01.458-2.27.458-2.08.05-7.7.254-7.7 1.476 2.08-.357 1.52.457 2.33.661 3.09-.153 5.67-.458 6.88-1.12.21.357 1.73.153 2.33.357 4.1-1.272 10.18-1.323 14.63-1.476-.71-.509 4.46-.61 1.57-.712zm12.35-1.272c-.1-.611-3.44-1.17-4.65-.407 1.87-.051 1.67.864 4.65.407zm11.55-.407c-1.47.305-7.65.763-6.13.966 2.28-.102 7.44-.763 6.13-.966zm9.36 3.053c-1.92.356-3.19-.866-4.6.152.8.102 3.54.662 4.6-.152zm11.59.712c-1.36.153-1.82-.102-1.56-.61-2.43.101-2.69.66-5.37.712-.2.458 3.8.763 4.66.56.35-.051-.16-.611.76-.56 0 .458 2.07.661 1.51-.102zm13.07-2.544c.35-.61-4.05-.61-4.61-.102 1.42.102 2.78.153 4.61.102zm56.95-8.396v-.814l-2.33.152c-.2.56.3.865 2.33.662zm57.76.712c-1.82.102-1.42-.458-3.85-.153-.46.458 3.14.51 3.85.153zm50.72-13.586c-3.54-.153-7.29.509-3.9.661 1.17-.254 3.9-.254 3.9-.661zm9.37-.356c-2.94 0-4.51.661-7.8.254-.71.305 2.48.254 3.85.254 1.92-.05 4.91-.203 3.95-.508zm6.93 8.752c-.66-.255-1.16.305-3.09.305-.05-.102-.2-.203-1.51-.102 1.16.306-2.64.255-2.33.458 2.12-.254 7.19-.305 6.93-.661zm.81-8.803c-2.68.05-3.24-.153-4.6-.255-.26.204 1.01.204 1.51.306-.5.254-1.62.508 1.52.508.05-.152-.35-.203-.76-.305 1.67.051 2.43-.05 2.33-.254zm18.58.305c-1.31-.05-1.87-.05-3.09-.102 1.02.153-.35.51 2.28.51.66-.103 1.01-.204.81-.408zm10.02 5.648c.51-.305-2.22-.102-4.6.051-.1.255 2.28.051 4.6-.05zm16.31-1.323l-.06.204c2.94-.102 3.04-.356.06-.204zM809.617 88.896c4.556-.509 7.695-.56 10.024-1.17-2.683-.306-7.29.407-10.024 1.17zm67.836-5.597c3.644-.458 6.429-.407 9.264-.407-.507-1.68-7.341-.713-9.264.407zm11.035 3.46c1.468.05 1.975.661 3.898.458.203-.255 1.823-1.68-.101-1.578-.101 1.68-3.24 0-3.797 1.12zm-572.903 3.46c.253.61 3.797.61 5.316.967.05-.356.455-.509.911-.662-1.873-.661-5.265.662-6.885-1.12-2.379-.304-2.329.51-5.467-.152-.304 1.272 4.404 1.018 6.125.967zm-60.95-14.4l-7.644-1.12c.202 1.018 6.176 1.069 7.644 1.12zm.962 2.85c-.051-.713-.507-1.375-1.165-1.985-1.417-.255-1.721 0-3.088-.204.102.865 1.975 1.578 4.253 2.188zm-52.345-6.87c1.013-.56-2.784-.815-2.025-1.374 2.481.305 2.278.712 3.696 1.068.455-.814-2.582-.966-4.455-1.22-.962-.153-2.126-.459-3.037-.56-.152 0-.405.254-.861.203-.861-.051-2.126-.458-3.037-.61-.507.406 2.379 1.577 3.645 1.322-1.064-.966 4.049.662 6.074 1.17zm35.943 2.493c2.632.509 4.86.814 6.176.61-2.835-.712-4.506-1.475-7.543-1.526.962.305 1.519.56 1.367.916zm-51.838-5.8c-.254-.306-.861-.56-2.177-.866.911.916-2.177-.153-1.772.509 2.784.814 2.531.203 3.949.356zm4.961 2.442l-3.038-.713c-.455.305 1.62 1.476 2.886 1.221-1.316-.356.202-.203.152-.508zm261.114 15.621c3.088-.712 6.784.967 8.505-.407-2.835.102-7.847-.763-8.505.407zm-26.83-1.374c10.479.865 13.314.865 23.793 1.273.962 0 1.822-.051 1.569-.611-6.176-.102-15.136-.458-20.755-.713-1.823-.101-6.986-.508-4.607.051zM17.921 20.1c.202 0 1.316.305 3.037.763.101-.051-1.215-.356.05-.102 3.392.865 5.924 1.476 9.012 2.29a6836.99 6836.99 0 0015.085 3.765c.962.255 2.025.611 2.177.662 7.543 1.883 15.187 3.256 22.73 4.936 1.266.305 3.139.763 4.505 1.12.659.101 2.38.406 3.088.508 1.114.255 2.633.661 3.746.916 5.215 1.12 11.745 2.493 17.314 3.867-.709.153.961.51.556.662 3.089.458-.151-.255.203-.51 5.619.968 8.252 1.63 10.732 1.731 1.823.05 2.076.509 2.987.712 1.62.356 3.29.255 5.315 1.018-.607-.916 2.278.204 3.949.255-1.519-.408-1.974-.764-2.784-1.17-1.317-.052.202.508-1.772.406-2.43-.407-2.582-.712-5.265-1.12l.152-.457c-2.531-.51-.658.509-4.05-.051 0-.204 1.013-.051.911-.305-2.936-.611-4.1-.357-6.125-1.018-2.228-.153-4.303-.305-8.505-1.323 1.114.102 2.683.356 4.607.712-.658-.305-1.924-.661-2.886-.967-1.67-.356.659.357.659.357-.456.05-1.317-.255-2.279-.407-1.214-.153-1.366.203-3.847-.662-.658-.407 1.67.255 2.329.305.658.051-.05-.407 1.67-.05-2.733-1.018-4.454-1.12-7.441-1.832-.203.407 2.986.712 3.645 1.068.759.61-2.633-.305-3.19-.203-2.48-.662-.303-.255-.557-.611-1.316-.458-1.873-.865-5.112-1.476.151-.305 2.986.051 3.898.56 2.075.356-1.924-.56-.557-.61 1.67.101 3.493.712 5.264 1.119.659.102 1.772.305 3.038.56 3.442.763 7.441 1.73 11.238 2.391a92.13 92.13 0 003.088.407c5.417 1.018 12.099 2.24 17.364 3.206 2.278.356 3.898.814 6.024 1.221 6.379 1.273 12.858 2.494 19.288 3.766 6.479 1.12 12.959 2.188 19.085 3.41 1.215.254 1.873.559 2.936.813 2.582.61 5.214.815 8.353 1.323 2.429.407 3.341.865 6.074.967 2.38.305 1.873.763 3.645 1.12 3.848.305 7.897 1.526 12.2 1.628 1.367.102-.151.712-1.67.356 2.632 1.018 6.885.662 6.226.255 2.734.56 6.328 1.017 6.582 1.882 3.796-.407 9.618 1.985 13.01 1.374 1.468 0 1.721.61 2.176.713.507.101 1.317-.051 2.329.101 3.291.61 8.96 1.883 13.517 2.545 1.113.101 3.796.356 3.898 0 .911.152.556.457.607.712 4.202.254 7.543.56 10.682 1.17.759.051.658-.203.86-.356 2.784.712 4.354.305 5.974 1.12 1.67.305 1.164-.306 2.379-.204 1.671.458 5.062 1.018 8.302 1.425 1.974.254 5.721.458 6.885.56 1.62.101 3.189-.051 4.657.05 5.619.51 11.239 1.018 15.997 1.476 4.506.458 9.315-.153 12.2 1.018 1.317.05 1.772-.356 3.139-.255 1.215.051 1.316.407 2.227.458 1.722.051 4.253-.152 6.177 0 4.302.306 8.352 1.17 12.908 1.374 1.165.051 1.367-.152 2.329-.152 1.316.05 2.481.458 3.797.508.962.051 2.227-.356 3.138-.356.405 0 1.367.356 2.279.407 1.366.102 1.67-.203 3.088-.101 5.922.356 12.301 1.017 17.566 1.017 1.265 0 1.265.407 2.278.407 2.784.051 6.429-.814 10.732.356 3.088-.661 7.442.306 13.01.255-.152.56-2.531.102-2.379.814 1.924.102 2.43-.356 3.139-.814 1.366.61 5.011.407 7.593.56 1.772.152.962-.865 2.379-.814 7.746 0 14.782.915 21.363.763 1.772-.051 2.987-.458 4.658-.458 4.809-.051 9.669.407 14.478.56 1.468 0 3.189-.357 4.607-.255 1.417.051 2.227.56 3.796.713 1.367.101 2.38-.306 3.848-.255 5.619.102 12.251.56 18.325.916.405 1.018-2.986.102-5.366.255-1.468.101-5.062 1.475-5.366-.102-2.683-.204-1.974 1.12-4.657.916.05-.56-.506-.865-1.468-1.018.304.712-2.734 1.425-4.607.254-.911 1.222 2.835.56 2.177 1.68-5.214.05-7.29.101-11.492.101-.759 1.222 3.291.61 2.127 1.985-5.316-.814-9.062 1.017-13.011-.56-1.62.153-1.67.458-.86.967-1.772.407-2.784-.916-3.088-.102-1.823-.153.962-.814.86-1.221-5.416.509-8.859.763-14.579 0 0 .305.911.305 1.519.356-2.734-.102-9.872.305-13.77-.61-2.683-.255-1.974 1.017-4.708.712-.911-.458-2.582-.662-4.505-.814-1.266-.153-1.468.152-1.62.56-1.671-.204-4.101-.866-4.607.101.506.713 4.303.305 6.075.56-.304.763.152 1.323 2.177 1.323.607-.05.81-.254 1.569-.254-.456-.306-1.721-.407-1.418-.967 18.934 1.425 27.286 1.17 45.207 2.086.911.458.253.509-.101.967 4.91.05 9.061-.102 13.061.305.86-.05.556-.661 1.569-.61 2.075.254 4.252.457 3.695 1.73 2.076-.357 2.43-.204 1.62-1.273.76.255.76.764 2.278.713-.405 1.17-3.341 1.17-4.758 1.883-2.785-.662-2.734-.51-6.885-.51-1.114-1.17 2.632-.152 2.379-.915-1.468-.814-6.075-.204-3.898.865-2.986-.407-4.505.61-6.125-.153-.304-.712 1.164-.61 2.329-.61-1.013-.865-4.911-.306-4.658.508-3.847-.457-8.302-.508-13.061-.356-2.176-.254-3.189-.916-5.264-1.221-.861.05-.557.61-1.57.56-7.138-.56-16.402-.407-22.223-1.374-.658-1.069 2.43-.356 3.898-.407-2.633-1.221-5.62.152-6.986.61-9.568-1.068-16.706-1.272-26.021-1.831-.506-.611-2.278-.357-.658-.916-2.379-.51-1.923.305-3.138.356-6.025-.865-12.859-1.425-18.326-1.578-2.886-.101-6.48-.203-9.213-.356-2.38-.152-3.949-.56-6.075-.712-1.215-.102-2.633 0-3.848-.102-1.164-.102-1.721-.662-2.986-.814-1.064-.102-7.341-.407-9.264-.356-.81 0-.608.458-1.62.356-1.772-.56-2.532-.56-5.316-.763-2.582-.204-3.138-.916-4.607-.204-2.429-.203-2.429-.916-5.264-1.018.05.306 1.366.357 2.227.458-.962.916-2.885-.05-4.607-.203-9.567-.814-18.173-1.578-29.766-3.41-3.544-.56-10.175-1.322-15.238-1.882-1.367-.153-1.569-.458-2.986-.61-3.089-.306-6.986-.204-8.353-1.273-.76.509-7.796-.254-9.214-.865-.303-.102 1.823-.05 2.329.153.304-.357-4.151-1.018-3.088-.255-1.164-.56-3.037-1.017-5.974-1.374-.05.204.912.306 1.468.458-3.138 0-9.365-1.374-13.718-1.883-2.683-.966-5.772-1.831-11.188-2.493.354.458 3.847.61 2.835 1.221-4.354-.865-5.164-.254-9.973-1.12-2.734-.559-5.923-1.22-9.011-1.83.202-.205 1.417.1 2.329.254-1.519-.764-5.063-.916-3.19-.051-1.721-.255-2.835-.56-2.936-.916-4.606-.306-11.846-2.087-17.515-2.9 2.733 0-3.038-1.222-4.455-1.171.304.661 3.948.254 2.936.865-7.29-1.323-16.098-2.951-21.211-3.867.304-.204-.658-.356-.608-.56h-2.379c-3.24-.713-6.581-1.425-9.77-2.137-5.468-1.069-11.289-2.595-17.263-3.867-1.367-.255-3.189-.611-4.556-.865-6.429-1.374-17.667-3.715-25.666-5.75-2.328-.51-4.607-1.018-6.834-1.476-4.91-1.221-9.467-2.34-14.225-3.511-5.923-1.425-11.846-2.799-17.313-4.122-1.367-.356-1.57-.458-2.987-.865-1.316-.356-2.126-.56-2.987-.814-1.923-.56-4.05-1.272-5.973-1.628-9.113-2.545-10.226-2.85-19.338-5.394-.051-.102.961.203.81.101l5.973 1.629c1.62.458.405 0 .86.05-1.62-.457-1.113-.203-2.277-.508-1.873-.509-.659-.255-1.469-.458-1.164-.305-2.024-.56-2.227-.61-1.873-.51-2.126-.662-3.695-1.018zm395.114 61.62c1.569 0 2.987 1.527 4.556.51-1.519 0-2.936-1.477-4.556-.51zm32.601-3.46c1.418.356 3.595.458 5.316.763.557-1.17-3.898-1.984-4.455-1.679 2.227.204-1.215.458-.861.916zm-7.34-3.613c-.101.916 5.012 1.323 6.075.764-1.671-.459-3.088-.866-6.075-.764zm-26.071-.05c1.721.254 6.328 1.017 6.885-.052-2.633.458-4.506-.661-6.885.051zM392.381 80.5c.962.712 6.884 0 5.416-.356-.708.61-4.859-.306-5.416.356zm-51.383-8.243c1.974.458 3.847.56 5.366.101-1.62-.254-4.809-.966-5.366-.101zm-22.932-1.476c.101.61 2.126-.102 2.379-.305l-6.885-.611c-.86.865 2.936.61 4.506.916zm-92.59-8.498c2.379.458 3.189.204 3.949-.05-1.924-.255-3.898-.56-3.949.05zm-4.252 1.221c2.834.204 8.808 2.24 9.922 1.323-2.835-.712-1.165-.254-2.329-.152-2.531.254-6.935-2.443-7.593-1.17zm-16.807-2.188c1.366.56 4.657.764 4.708.102-2.886-.56-3.342-.152-4.708-.102zm-1.418-.56c-2.227-.305-2.227-.763-4.455-1.068-1.113.458 3.645 1.323 4.455 1.069zm-31.437-9.464l3.038.509c1.417-.56-3.747-1.17-3.038-.509zm-11.441-1.68c4.101.459 2.126 1.12 5.873 1.63.101-.51-2.43-.917-3.544-1.375-.759-.661 2.481.255 1.721-.356-2.582-.458-2.987-.05-4.05.102zm-23.742-5.647l-3.037-.56c-.76.407 3.442 1.17 3.037.56zm-5.012.458c2.177.457 3.848.712 4.607.61-.861-.203-1.114-.356-1.417-.56-1.873-.356-2.937-.356-3.19-.05zm-38.929-8.498c-1.417-.51-2.025-.916-4.303-1.527-1.367.051 2.025.713 2.835 1.018.253.102-.253.102-.05.204.151.05 1.265.356 1.467.407 1.266.305 1.823.457 2.987.763.86-.102-1.62-.509-2.936-.865zm5.366.865c1.266.254 2.531.56 3.797.763 1.265-.102-4.81-1.272-3.797-.763zm6.53 1.984c-.455-.661-3.897-.763-5.163-1.374.152.255-2.228-.356-2.38-.203 2.835.814 4.202.814 7.543 1.577zm6.43.153c-1.873-.458-2.228-.203-3.898-.458-.81-.102-3.949-1.069-3.848-.56 1.418.407 7.746 1.527 7.746 1.018zm12.048 2.443c-1.873-.255-3.949-.611-3.949-.204 1.873.254 3.898.56 3.949.204zm-78.01-14.096c.253.204.151.306 2.126.814 1.367.255 1.772.306.911-.101-2.025-.56-1.57-.306-3.037-.713zm-10.58-2.595c.81.255 1.113.356 1.417.51-.76-.255-1.873-.56-.76-.204 1.671.356 2.532.763 5.215 1.475.354-.102-2.633-.865-4.405-1.323.254 0-.962-.407-1.468-.458zm294.424 52.412c2.886.254 7.644 1.22 9.973.712-3.088-.153-8.049-1.17-9.973-.712zm91.831 7.48c-2.43-.102-7.796-1.17-11.492-.56 2.177.509 9.214 1.018 11.492.56zm-76.644-5.19c4.05.101 10.732.203 16.098 1.17-.304-1.12-3.948-.763-6.075-1.018-3.088-.356-8.707-1.577-10.023-.153zm39.79 3.205c3.493.306 8.656.662 13.061.814 3.189.153 12.25.815 10.782.204-10.225 0-16.503-1.781-23.843-1.018zM189.584 69c-2.177-.662 1.114-.204.253-.865-3.088-.967-.354.865-2.531.356.152.458 1.974.865 2.278.509zm412.428 6.666c4.454-.865 10.276-.712 15.338-.204 2.43.102 1.722-1.22 4.607-.916-.152.306-.759.407-.759.764 4.151.254 5.67-.662 8.454-1.069-.962 1.883 1.923 1.73 3.847 2.137-1.822 1.832-6.986.255-8.454-.458-.506 1.425-3.999 3.003-6.125 2.443-.304-1.018 2.885-.458 3.088-1.221-.76-1.12-2.582.254-3.088.458-.76-.357-3.645.61-4.607.152-.101-.05.101-.763 0-.763-.962 0-1.772.661-3.088.865-1.164.153-1.114-.305-1.519-.305-1.063 0-1.974.916-3.847.152-.304-.152-1.215-.152-1.519-.305-.962-.407 1.62-1.934-2.328-1.73zm3.088.967c3.442-.458 6.074 1.78 6.125-.967-2.329.204-5.974-.153-6.125.967zm-7.746 3.256c.709.611-.05 1.985 2.278 1.781.709-.966 1.063-2.035-2.278-1.78zm-5.366-.56c3.544.153 1.063-1.424 2.329-1.577l5.366-.203c.152-.306.05-.713.759-.764.962 1.527-2.582 1.069-3.088 1.985 2.278-.153 5.417.865 6.126-.61-3.24.203-.507-.815 0-1.12-1.62-1.272-5.012.102-4.607-1.68-3.088.306-4.911 1.171-1.569 1.527-4.557.509-5.367-1.78-8.455-.05 6.227-.306 1.671 1.424 3.139 2.493zM946.25 47.528c2.834-.51 7.694-.204 9.213-1.273-2.835.51-7.695.204-9.213 1.273zM634.967 75.207c.203-1.018-1.063-1.221-3.088-1.018-.202 1.018 1.114 1.222 3.088 1.018zm-67.43 1.374c-2.885.56-6.885-.153-7.695 1.984 2.025-.152 2.481.458 2.278 1.374 3.19.255 3.038-1.017 4.658-1.526 0 .509-.355.814-.81 1.12 5.265-.052 8.606-.917 10.783-2.392 1.214-.051 2.632 0 2.328-.764-1.012-.102-5.67.458-5.366.102-.101.102 2.126-.356 1.569-.407-2.328-.203-2.885-.56-4.606.458 3.645-.254 1.113.305 1.518 1.425.608.05 1.519 0 1.519.356-1.367-.204-4.505.509-4.607-.254 0-.458 1.367-.357 1.57-.764-2.38-.356-1.873.61-3.088.764-1.367-.713 0-.458-.051-1.476zM549.06 80.55c-2.582-.102-3.291.661-4.658 1.17 1.924-.203 4.607-.102 4.658-1.17zm14.528.814c1.064-.05 1.671.153 2.279.305.253-.763 2.075-.763 2.328-1.475-2.582-.102-3.29.712-4.607 1.17zm13.112-2.748c-.608 1.17 1.721.865 2.278 1.069.405.152-1.013.661-.759.763.607.255 3.695-.356 3.037 1.069-2.531 0-3.797-.56-6.885-.255.456-.763 2.228-1.221.81-1.832-1.67 0-7.441-.05-4.607.815.254-.764 3.645-.153 3.038.661-1.569.407-5.569.204-6.935 1.578 4.201-.865 12.757.61 17.667-.611-1.873 0-.152-1.221.81-1.12 3.139.051 4.455.916 7.644.865-.81-2.035-9.669-1.78-13.01-1.526 1.468-.713.101-.916.051-1.832 2.784 1.17 7.289 1.12 9.213-.56-1.215 0-2.683.153-2.278-.661-4.607-.407-5.366.967-9.214.916-.253.203-.151.61-.86.661zm909.45-75.31c.45-.457-2.69-.56-3.9-.508-1.42.05-4.51.407-4.66.763 4.25-.102 5.16-.458 8.56-.254zm-464.62 36.078l-5.37.509c-.25 1.577 5.21.153 5.37-.509zm234.18-20.761c-.91 0-2.18.203-2.33-.153-1.11.713-9.57.56-6.88 1.527 1.06-.662 8.2.102 9.21-1.374zm-150 17.555c.05-1.068-1.97-.916-3.95-.763-.25 1.221 1.73 1.069 3.95.763zM537.771 74.394c-.507-.458-1.62-.662-3.038-.713 3.088-.152 5.721-1.424 8.454-1.933 2.025-.356 1.013.56 3.038-.102 3.948-1.272 10.732-1.73 19.135-2.29.76.458 2.582.407 3.038 1.018.202 1.628-4.405 1.069-2.329 2.595-2.734.61-3.392-.102-6.125.509 0 1.526 4.556.865 7.644.916.101.661-.962.763-.81 1.475-3.848-1.272-8.961 0-14.529-.05-.355-.764 1.114-.713 2.329-.764 1.771-.305 2.328-1.12 3.138-1.882-2.733-.967-2.43.356-3.847.814-6.126.102-11.39-.865-16.098.407zm11.491-1.68c.203.51 1.671.357 2.278.662.557-1.425-2.885-.967-5.315-.916-5.214.204.86.509 3.037.255zM1070.02 35.67c-.5-1.373-4.65-.254-7.74-.05-3.14.203-6.79.915-8.51.407 1.57 2.239 11.19-.407 16.25-.357zm-5.87 4.783c-2.73.357-2.88-.864-5.47-.661-.7 1.476 2.94.356 2.43 1.68 1.83-.052 2.94-.357 3.04-1.019zm-13.06.815c-.15 1.425 4.15.102 5.47.661-.05-1.323-2.94-.865-5.47-.661zm-20.05 1.475c-2.68.051-3.49-1.068-6.98-.509-.76 1.832 6.83.56 6.98.51zM497.677 80.398c.456-1.068-2.582-.916-.658-1.679h-2.278c.354.814.506 1.73 2.936 1.68zm554.783-41.573c.4 1.018-4.2.102-3.8 1.12 3.85-.61 5.97-.204 9.26-.458.51-1.629-4.75.254-5.46-.662zM469.328 80.042c-.456-.916 1.62-.61 2.379-.967-1.67.763.709 2.137 2.228 1.374-2.278-.56 2.683-.56 2.379-1.272-1.012.05-2.227-1.374-3.037-.407.405 0 .86.305 0 .305-2.785-.712-5.063.305-6.835-.763-1.012.814.304 1.018-.86 1.323-.81-.204-3.189.203-3.847-.05-.152-.052.202-.611.05-.662-1.974-.306-4.353 0-6.885-.458-1.215 1.22 3.443.152 2.177 1.323 4.151-.102 6.784.61 12.251.254zm47.94 7.328c2.278-.102 4.658 1.017 5.417-.306-1.62.153-5.012-.509-5.417.306zm-49.307-10.33c-1.114.152-3.948-.458-3.847.254 1.164.56 3.493 1.018 3.847-.254zm18.883 5.037c-2.683 0-6.025.102-6.986 1.527 1.164.102 2.835-.05 3.037.407-1.266 0-.506.916-1.62.967-1.772.05-.81-.967-2.227-1.069-.304.764-2.43.713-3.139 1.272 2.126.458 3.949.51 6.125.153.355 1.069 9.163 1.476 7.695-.509-2.48-.05-3.29.51-6.176.204l.101-1.323c2.228 1.475 8.353-.764 11.492.814-1.519.61-1.924.05-3.847 0 1.012 2.697 10.175.712 10.833-.967 2.025-.102 3.29.153 3.037 1.018-2.835 0-4.151.661-5.467 1.323 3.29-.458 6.935-.764 8.555-2.036-1.569-.763-3.189-1.526-5.265-2.086-3.442.61-3.999 1.323-7.745 1.374-2.885 0-5.872-1.069-8.403-1.069zm53.103-4.885c.102-1.119-2.278-.966-4.556-1.017-.759 1.425 4.05.254 4.556 1.017zm-62.975 3.003c1.873.356 1.62.152 4.556.407 1.165-1.018-4.505-.916-4.556-.407zm-.405 6.31l-6.935-.204c-.456 1.221 7.087 1.069 6.935.203zm-2.075-3.715c-1.772-.153-3.24-.764-3.848.254.911.458 3.696.61 3.848-.254zm.658 2.035c-1.721-.203-4.101-.865-4.607.204 1.671.203 4.05.865 4.607-.204zm-25.919-3.256c2.834-.357 6.024.763 6.884.152-1.873-.254-6.631-1.17-6.884-.152zm86.515 5.902c1.67.204 4.961.814 5.416-.407-1.62.255-5.062-.356-5.416.407zm-2.126-4.58c-.405.408-.861.815-1.57 1.07-1.114-.306-2.43-.56-2.227-1.426.962-.05 1.822-.101 1.569-.712-3.29 0-6.125.254-6.227 1.73 3.139.102 4.86-.865 4.557 1.069 4.303.61 4.252-.865 6.935-1.018.101 1.018-3.037.865-.051 1.425 1.975-.662.507-.865 2.38-1.781-2.532.254-3.595-.255-5.366-.356zm-.102 2.8c2.835-.153 7.644.406 9.264-.408-2.885.305-7.694-.356-9.264.407zm1.721-5.954c2.228-.458 4.202.56 5.367.305.556-.153-.254-.712.809-.712.709 0 1.317 1.577 2.279.305-2.582-.255-.355-.662-.709-1.781 1.367-.102 3.847.305 3.088-.763-2.481-.356-3.949 1.068-4.658 1.17-.961.102-1.063-.509-2.278-.305-.151 0-.303.61-.81.712-1.366.305-3.138-.407-3.847.356.658.051.911.306.759.713zm-19.135.305c-2.43-.254-5.417-1.425-6.176.356 1.873-.203 5.568.458 6.176-.356zm-.203 4.173c-2.025.203-2.733-.153-2.278-1.069 2.481.153 3.949.763 4.506 1.73-2.734.509-8.556.662-9.163-.712.304 1.068-2.683.916-.861 1.73 2.734-.407 6.885-.051 10.783-.306 1.165-.05 2.683-.56 3.898-.661 1.468-.153 4.657.661 3.848-.662-4-.254-6.278.764-8.455-.356l.051-1.017c2.177-.306 1.974.508 3.847.356-.151-1.069-3.391-.967-6.074-1.069h-6.126c-.05.56-2.126.204-2.328.662 2.936.152 5.366 2.34 8.352 1.374zm18.579-4.478c-1.924.458-1.772-1.629-3.037-.356.86.05 1.164.407 1.518.712-1.215.509-3.594.458-4.657 1.069 1.62.457 4.759-.713 6.176-1.425zm-7.543-2.137c-1.417-.662-1.923-.051-3.847 0-.759-.407-4.101-1.273-5.366-.357 2.227.306 6.631 1.374 9.213.357zm-72.543 26.511c-1.569-.255-1.873.508-.81.61-1.519.916-3.645-.559-6.176-.305l.051-.662c5.923.051 11.593-.814 16.351-.559 2.582.152 2.886 1.119 6.176.61.911.458.253.56-.05.967.658.916 3.847.967 6.125 1.272.658 1.323-6.328-.661-4.708.407-1.569.967-2.227-1.068-2.987-1.475-1.974.407-1.873-.662-2.278-.764-.81-.203-2.329.102-3.088-.152-.354-.102-.05-.967-1.519-.713-.81.051-.354.357-.05.662.962.865 1.62.102 3.847.814.152.051-1.164.56-.81.611 1.316.356 4.556-.357 3.848.865-6.278-.407-9.416-.916-13.922-1.323.456-.102 1.165-.713 0-.865zm1.519.101c1.468.204 1.316 1.018 3.847.815 1.013-.916-3.189-1.527-3.847-.815zm-92.185-5.902c.152.763-4.303-.713-3.189.509 4.05.407 7.138.305 7.948-.916-5.215-.815-7.442-.764-12.302-1.527 1.063 1.628 5.316.712 7.543 1.934zm21.869.458c.456 1.068-2.885.203-3.24.865 4-.102 5.619.814 7.746.763.354-1.018-2.734-1.12-4.506-1.628zm10.175 6.309c3.139.051 8.201 1.069 10.125.509-2.987-.661-6.53-.865-10.125-.509zm33.817-2.035c-4.607-.204-.861 1.73 2.177 1.73.506-1.068-4.961-.865-2.177-1.73zm-4.658-.661c.709 1.475-2.176 1.119-2.531 1.984 2.835.56 1.316-1.069 3.949-.661.304-.662-.051-1.171-1.418-1.323zm-28.652-1.527c-.304.611-2.936.051-3.19.661 2.278.611 2.683-.05 4.607.662-.05-.56-.405-1.018-1.417-1.323zm21.616 1.934c2.379-.051 2.227.712 4.607.661-.102-.611.911-.61.911-1.17-2.025.102-5.113.763-3.088-.56-4.05-.254-5.012.967-7.948 1.272 0-.407-.962-.509-.658-.967 1.215.051 2.683.255 2.379-.458-2.075-.356-1.62.509-3.139.407-.607-.814-4.353-.458-4.657-.05 2.278.356-.81.61-.152 1.221 1.367.102 2.38.254 3.038.56.81-.509-2.228-1.171.151-1.222 1.57.204 1.469.916 2.177 1.425 3.19-.56 7.442 1.374 9.366.102-2.025-.102-3.291-.407-2.987-1.221zm-51.13-3.562c3.392.152 4.303.966 7.695 1.119-.051-1.018-4.202-.967-6.075-1.526-.05.356-1.417.101-1.62.407zm43.081 6.055c1.974 1.17 9.365 1.425 10.074.814-1.924-.509-5.569-.356-7.746-.61-.911-.153-2.936-1.425-2.328-.204zm-43.992-4.987c1.013.814 7.239.814 4.708-.102-1.012.967-3.797-.457-4.708.102zM175.308 65.591c-.101.203-1.012 0-.911.305 2.43.56 2.582 0 3.999.05 3.088.306 5.771 1.578 8.353 1.68-1.772-.458-1.215-.916-3.645-1.374-2.784-.458-4.91-.254-6.834-1.323-.202.153 0 .51-.911.305-5.164-1.119-11.846-3.205-14.529-2.595 1.519.51 3.291 1.018 4.404 1.476.456-1.221 5.569.712 10.074 1.476zm36.247 14.248c-.405-.102-.355-.306-1.469-.51-1.164-.203-2.48-.203-3.898-.457-1.67-.255-4.758-1.17-4.657-.61 2.177.813 4.354.61 7.695 1.271 4.252.814 9.517 2.697 13.719 2.951-3.848-1.17-3.645-1.119-7.594-1.628-.658-.814-2.936-.814-3.796-1.017zM164.88 68.084c-.658.662 5.012 1.781 5.973 1.68 3.088.966 5.974 1.73 6.936 1.17-2.683-.814-8.606-1.781-12.909-2.85zm1.822-5.954c-2.733-.915-3.442-.763-6.834-1.323-.405-.61 2.177.153 1.772-.457l-1.519-.306c.051-.101-.557-.305-.759-.152 1.924.661-.557.763-2.481.254-.405-.56 1.468-.153 1.063-.712-3.341-.611-1.417.152-3.29.254 2.076.509.962.712 2.886 1.12.556.101.809-.255 2.379.203 1.721.458 1.164.763 3.645 1.272 1.215.051 2.936.306 3.138-.153zM378.51 98.971c-1.924-.458-5.214-1.068-5.467.051-.051.916 3.138-.61 3.088.305-2.38.357.911 1.629 2.075 1.985 1.418-.611 6.176.407 6.379-.814-3.746-.662-4.05.407-7.796-.204.405-.56 2.278-.356 1.721-1.323zm-72.543-3.256c.506 1.679-3.898-.713-4.101.712 2.43 0 2.177.407 5.417.763-.253-.509 1.316-1.323-1.316-1.475zm53.002 3.256c-.455-.05-.911-.152-.708-.356.455.05.911.05.81-.203-1.823-.102-3.24 0-4.708.05-2.38-1.73-8.91-.966-9.366-.407 1.873.102 1.62.662 3.797.662.152-2.036 7.644 1.272 10.175.254zm-6.733-2.391c-.759-1.374-4.454-1.018-7.644-1.323 0 .966-2.025.966-2.581 1.679 4.859.61.759-1.527 5.619-1.069-2.025.916 2.328.255 4.606.713zm31.994 6.818c-4.91.204-9.669-.814-16.3-1.17.405-.611-2.127-1.832-2.987-1.17.759.101.911.61-.051.559-1.772-.712-3.189-.102-5.467-.305-1.822-.153-6.632-1.73-7.037-.204a677.466 677.466 0 0121.667 2.392c1.468.204 1.721-.102 3.139.051 1.468.153 1.67.509 3.037.611 2.936.254 6.024 0 7.745.865-.253-.815-2.328-1.12-3.746-1.629zm77.403-2.544c10.682.661 25.16 1.73 36.398 1.374-5.214-1.018-16.807.153-19.287-1.628-2.076-.102-3.696 1.221-4.657-.204.961-.458 2.683-.509 4.657-.458 1.164.509 1.417 1.425 4.556 1.221 2.379-.814-2.582-.559-3.037-.814-.253-.102.354-.916.05-1.018-1.772-.457-4.353.102-6.176-.61-1.063.153-.202 1.272-1.62 1.272-.152-1.018-3.189-.763-3.847-.153 1.468.204 4.708-.254 3.847.814-1.923.916-9.011-.661-10.884.204zm501.423-12.467l2.329-.254c-.658-1.018 1.468-.967 1.418-1.73-1.165.203-2.835.152-3.038.712 2.228 0-1.164.763-.709 1.272zm-528.81 14.35l3.847.305c1.317-.916-4.91-1.374-3.847-.305zm527.798-17.81c2.126-.61 3.189-.712 5.366-.56.759-1.78-6.429-1.017-5.366.56zm9.821-3.41c.759-.61.607-1.526 2.177-1.831 1.822-.509 5.72.305 3.847-.407-2.025-1.17-5.417-.051-6.885 1.12-2.025-.968-4.1-.866-6.176.61 3.848-.713 3.898.916 7.037.509zm-1.164 5.293l-3.848.407c-.557 1.679 3.898.814 3.848-.407zm16.756-3.715c1.114 1.578-2.076 1.476-2.936 2.29 1.063 0 1.518.407 3.088.05.607-.305 1.569-2.34-.152-2.34zm8.505-.865c-1.114.763-9.062 1.425-2.228 1.018 1.468 0 1.468.967 3.898.356l1.519-.153c0-1.068-2.278-.712-3.189-1.22zm-17.567 4.173c1.215.508 4.405.101 3.797-1.17-1.924.152-3.746.305-3.797 1.17zm2.835-4.224c.253-1.272-2.126-.814-2.43-1.73-2.632.814-3.645-.05-5.366.916.861.814 5.468-.763 6.227.153-1.62-.306-3.645.966-1.468.966.354-1.22 1.62.204 3.037-.305zm-11.643.407c-.557 1.527 2.632.204 3.898.407.455.051.05 1.222 1.569.611-.05-.509 1.316-.509 1.468-.967-1.67-.407-3.695-.61-6.935-.05zM157.236 61.367c-4.303-.56-7.138-2.29-10.631-2.239 2.784.713 5.163 1.73 1.265 1.069 3.24.865 4.303.712 6.177.916.202.407 4.1 1.068 3.847.712-.557-.152-.81-.305-.658-.458zm853.914 16.538c.5-1.629.86-1.883 1.31-2.9.92-.051 2.18-.306 2.33.152-1.57.763-1.01 2.392-2.88 3.053 4.25-.61 3.39-3.256 5.87-4.529.61-.152 1.52-.152 1.52-.56-2.23.611-3.24-.05-4.66.103-1.97.203-2.78 1.526-5.36.966-.97 1.68 1.77 1.069 1.72 2.188-.97.56-1.78-.61-1.57-.61-3.65.254-6.28 2.748-10.684 2.29-.203-1.527-3.443-1.07-6.277-.916-.152.814 1.113.661 1.619 1.017-3.543-.102-8.96-1.12-12.402.051 1.468.764 3.948.509 6.176-.254 1.924.814 2.632 2.391 7.087 1.628 1.063-.356 0-1.526 1.418-1.73-.254 1.272 2.126.814 2.429 1.73-.961-.05-4.758.56-2.278.61l7.692-.814c1.07-.356 0-1.526 1.42-1.73 2.43.153 2.03-.05 3.8-.814.2.662.05 1.425 1.72 1.069zm11.49-1.221c-2.68-.56-3.29 1.272-6.94.712 1.27 1.374-1.72.967-2.17 1.781.1-.153 1.77 1.018.1 1.17-.91-.254-2.08-.305-3.85 0-.56 1.323 2.58.357 3.9.357 1.37 0 2.48.458 3.9 0 .15-.764-1.12-.662-1.62-1.018 3.59-.306-1.12-1.425 2.17-1.781-.05.865 2.74-.102 3.85 0-.1-.509.31-.865.66-1.221zm-584.597 27.63c2.329.356 1.873.407 3.088.153 2.025-.407 5.214.712 6.277-.662-.709 0-10.631-1.832-9.365.509zm521.824-16.792c0 1.069 1.316.662.101 1.578l2.329-.255-.101-1.577-2.329.254zM472.77 107.978c-4.556.203-10.074-1.018-14.782-.407 4.152.865 10.884.763 16.301 1.17.405-.916 3.392-.61 3.999-1.476-2.379-.05-3.138.611-5.518.713zm243.194 6.259c5.67-.153 10.024.407 12.403-1.781-2.177 0-3.746.814-6.176 1.068-2.43.306-5.619-.61-6.227.713zm-237.018-5.241c-.455 1.017 2.177.814 3.088.814 1.772.051 3.696-.814 5.468-.051.202-.255.05-.662.81-.662 1.265.662 3.442 1.018 4.657.102-3.29.051-4.505-.814-6.935-.916-1.975 0-3.797 1.323-7.088.713zm728.114-63.454c1.16-.203 2.84-.153 3.04-.662-.46.051-.91.051-.81-.254 1.31-.102 1.97-.458 2.28-.916-2.48.306-4.1.865-4.51 1.832zM6.632 17.555C4.1 16.741 4.252 16.792 0 15.418c1.772.56 8.403 2.748 6.632 2.137zm12.453 4.122c2.886.967 6.378 2.086 9.568 3.104a744.593 744.593 0 00-9.568-3.104zm211.099 50.58c-1.924-.51-3.443-.916-4.607-.611 1.924.509 3.443.916 4.607.61zm-3.645 1.882c-2.379-.458-2.734.051-3.291.458l2.279.407c-.152-.508 1.518-.152 1.012-.865zM1426.36 28.852c-1.37.254-4.51.152-4.61.712.97.204 4.61-.05 4.61-.712zm-23.03 2.697c-4.36.254-10.08.865-13.82 1.933 4.1-.712 10.17-1.068 13.82-1.933zm-1181.6 39.64c2.48.254 2.278.711 3.695 1.068 0-1.12-4.758-1.68-6.682-1.832.861.203.759.458.607.712 1.469.356 1.57.051 2.38.051zm1213.84-43.202c-2.33.356-6.63.305-7.69.966 3.39-.254 5.31-.152 7.69-.966zm34.58-3.766c6.43-.712 15.69-1.679 22.27-2.391 1.88-.204 3.8.152 4.61-.611-8.81.865-14.48 1.425-20 1.934-1.97.203-5.82-.255-6.88 1.068zM180.624 63.911c1.721-.05 2.177.713 4.505 1.12 1.924-.61-6.885-1.781-4.505-1.12zm1.367.865c-1.57-.203-2.987-.966-4.455-1.322-1.975-.51-3.797-.611-6.075-1.12-3.645-.814-6.53-2.035-9.011-2.086 1.721.305 2.835.661 2.936.967 1.974.203 3.797.814 6.024 1.323 2.38.458 5.468 1.017 6.075 1.12-.557-.205 4.759 1.882 4.506 1.118zM1387.94 33.431c-3.85.204-6.18.967-8.46.866-.76.763 7.55.101 8.46-.866zM177.333 64.115c-1.367-.203-3.138-.61-3.898-.509 1.114.509 4.253 1.17 3.898.509zm23.287 5.648c-1.569 0-3.696-1.17-4.404-1.374.152.051-.355.255-.81.051-.912-.407-1.013-.661-.557-.865-.304.153 1.063.356 1.519.305.658-.05-.304-.814 1.67-.254.253.407-1.316.916 1.266 1.17-.304-.763.759-.865 1.873-1.017-3.595-.458-9.011-1.934-11.441-2.036.759.153.86.51-.101.357-2.937-.357.05-.815-2.886-1.17-.911.406-.557.762-3.341.559-2.379-.509-4.556-.865-4.708-.305 2.987.916 2.481.152 4.607.661 1.518.305.81.662 2.936 1.018.152-.204 0-.509.911-.356 2.886 1.068 3.139.508 6.075 1.12l-.152.508c-2.025-.458-4.404-1.069-4.607-.662 3.696 1.17 3.544.611 7.594 1.476.557.509 3.594 1.069 4.556.814zm19.389 5.241c.607-.56-2.683-.814-.557-.916-4.101-1.17-7.796-1.272-10.53-2.391-.962.56 2.481.865 2.835 1.323-3.493-.712.557.814-1.772.661 2.886.662 2.531-.203 4.05-.203 3.088.407 2.43 1.069 5.974 1.526zm-7.999.051c-2.885-.56-4.809-.967-2.177-.814-1.62-.509-5.669-.661-8.504-1.068 1.974.814 3.189.508 5.264 1.22 0-.508 7.796 1.63 5.417.662zm-8.656-6.564c2.581-.05 8.96 2.086 7.694.967 3.291.305 5.873 1.68 6.885 1.018-1.721-.764-5.214-1.069-8.353-1.476-2.177-.305-6.631-1.425-6.226-.509zm15.845 3.257c-3.24-.102-2.937-.916-6.784-1.425-.658.712 3.037 1.17 4.303 1.781-2.075.458-3.139-.865-4.455-1.221-2.177-.61-4.86-1.018-6.733-1.629-.911.407 1.62.662 2.936.916-.506.407 1.064.458 2.177.814.304.102.304.408.658.51.861.254 2.177.305 3.038.56.354.1 2.48 1.424 2.987.762-2.785-.865 1.721 0 1.67-.305-.911-.254-1.468-.56-1.367-.865.608.102 1.519.305 1.57.102zm-71.278-14.146c-3.392-.814-2.278.254-5.467-.56-.658-.203-3.139-1.221-1.367-.814 2.076.407 1.417.661 2.885 1.018 1.013-.611-6.935-2.189-6.024-1.374 1.924.508 1.823.763 3.645 1.22 2.835.764 5.67.917 6.328.51zm-45.257-10.533c1.974.814 3.139.61 6.024 1.424 2.379.56 1.569.764 4.404 1.374 1.468-.254 3.696.814 6.784 1.629-.506-.764-7.341-2.29-11.087-3.206-2.936-.662-5.366-1.221-6.125-1.221zm1239.206-8.702c1.22 1.272 5.26-.305 8.45-.56 6.33-.661 12.05-1.22 19.19-1.984 2.58-.305 7.09-.305 8.4-1.425-6.17.865-11.89 1.221-16.9 1.73-6.48.662-12.96 2.24-19.14 2.24zM137.391 55.108c-.911.102-3.341-1.17-4.556-1.017 2.329.509.76.661 3.645 1.22-1.215-.66 3.392.612.911-.203zm-6.074-1.373c-3.443-.408-9.011-2.8-9.922-1.985 4.1.56 8.454 2.697 11.288 2.748-1.822-.713-2.379-.407-1.366-.764zm4.758 2.798c1.975.509 3.088 1.17 5.113 1.781.76.255 1.62.255 3.038.662 1.518.407 1.822.865 2.936.916-1.316-.408-2.228-.916-2.835-1.323-3.088-.306-6.024-2.24-8.252-2.036zm2.481-2.442c-2.177-.357-3.189-.61-5.265-1.272-.152.203-1.974-.357-1.62 0 3.442.712 5.518 1.628 6.885 1.272zM121.8 53.022c-2.684-.814-2.785-.509-.051.102 5.366 1.323 12.554 3.46 15.693 4.172.911.204.506-.05.101-.254-4.91-1.476-10.428-2.697-15.743-4.02zm-15.592-4.427s-.355.153-.81 0c0 0-1.722-.712-2.177-.814.405.509-2.835-.56-3.139-.356 3.544.865 5.721 1.323 7.391 2.188.253-.153-.759-.458-.557-.61.861.254 2.633 1.17 3.696 1.068-.76-.204-.861-.458.101-.204l1.519.407c0 .153-.456.153-.861.153l2.987.814c.658-.152-1.418-.61-1.316-.865-3.645-.865-5.215-1.374-6.834-1.78zm-6.683-3.969c.355-.152 3.038.61 3.898.61-2.227-.864-7.29-1.678-8.251-1.984.151.051-.05-.203.1-.203-1.619-.356-2.328-.407-3.138-.458-1.265-.357-1.873-.61-2.177-.814-1.873-.458-4.15-1.018-5.264-1.374-2.886-.662.05-.407-2.886-1.069-1.063-.254-.152.153.658.356-.658.051-4.202-1.12-5.973-1.577.962.153 2.885.661 3.847.763-.101-.102-.709-.305-.658-.356-1.67-.407-2.43-.458-3.847-.763.81-.102-5.62-1.73-7.34-2.24 1.467.306 2.682.51 4.555.967-.202-.152-1.822-.56-2.936-.864 2.43.407 11.137 2.595 15.795 3.867 1.265.356 1.417.407 1.417.56.81.152.608 0 1.57.203 1.569.356 1.113.509 1.417.56.911.254 1.316.152 2.329.407 1.62.407 3.796 1.221 5.872 1.78 3.341.713 6.429 1.426 9.821 2.138 2.683.712 5.923 1.628 8.909 2.442 1.266.306 1.975.357 2.278.407 5.012 1.12 9.771 2.748 14.276 3.359.506.254 1.316.509 2.177.814-.709.153-4.657-1.12-3.949-.356 2.228.305 4.506.661 6.227.763 3.392 1.323 10.023 2.493 14.985 3.613 1.822.458 1.569.61 2.885 1.069 1.822.61 4.556.966 5.164 1.526-.81.61-4.405-.763-6.075-1.12-2.329-.508-5.012-1.017-6.784-1.424-.86-.102-1.62-.102-1.62-.102-.556-.152-1.923-.763-2.176-.814-.861-.153-2.734-.56-3.797-.763-2.633-.662-3.392-.967-6.024-1.323-.051-.407 3.189.254.202-.662-1.114-.203.253.255-.152.407-1.721-.254-4.201-.865-4.657-.56-5.822-1.628-9.72-2.442-14.124-3.816-2.936-.61-5.113-.916-6.277-.814-1.823-.56-3.949-1.12-6.733-1.781l.152-.407c-1.975-.509-3.24-.763-3.139-.407-1.164-.458-3.037-1.018-5.872-1.781.456-.305 5.315 1.018 5.315 1.221zm27.742 6.768c-.101-.204-.76-.407-1.418-.61-.202.559 2.025.763 4.405 1.322-.608-.407-.051-.712-1.215-1.12-1.671-.101.81.764-1.772.408zm-5.164-1.527c2.329.61 2.126.153 3.898.56-.05.102 1.266.458 1.519.356-2.835-.56-1.013-.763-3.645-1.272.658.61-1.974-.102-1.772.356zm-5.163-1.526c.253.407 2.733 1.017 4.353 1.577.76-.203-.962-.56-.506-.763-1.822-.509-1.721-.204-3.847-.814zm-31.944-8.65c-.556-.153-.81-.306-.658-.357-1.822-.458-3.847-.967-3.898-.661 2.127.56 3.797.966 4.556 1.017zm22.325 6.004c2.43.458 7.29 2.035 6.024 1.425-.911-.306-7.694-2.036-6.024-1.425zm-2.531.203c.253.763 7.644 1.934 8.404 1.68-4.303-1.17-3.797-.357-8.404-1.68zm22.274 6.106c-4.455-1.068-7.644-2.035-11.187-3.002.101.356-4.152-1.12-3.139-.407 1.417.356 1.721.305 3.037.61 2.127.51 12.403 3.46 11.289 2.8zM70.417 38.47c-3.139-.865-6.784-2.29-8.201-2.392 2.227.662 9.517 3.003 8.2 2.392zm108.84 30.124c1.468.61 7.998 1.984 6.125 1.069-.455.457-5.619-1.476-6.125-1.07zm1159.573-29.87c-5.41.56-10.48 1.222-14.58 2.138 6.08-.458 11.14-.814 16.1-1.73-.05-.357-.25-.662-1.52-.407zM68.746 41.879c2.278.61 5.518 2.087 7.948 3.053-3.847-1.22-8.353-2.747-9.061-2.544-.76-.305-.405-.305-1.418-.661-2.227-.764.608.407-.152.254-2.733-1.069-3.543-1.221-5.872-2.086-.658-.458 1.67.458 2.987.916.81-.051-5.063-1.985-5.822-2.137-2.328-.815-1.57-.764-4.303-1.73l-2.278-.662c-.05.153 2.329.865 2.177.814.962.356 1.063.509 2.126.916 1.164.458 3.341 1.12 5.822 2.137-6.43-2.29-13.213-4.63-19.693-7.378.962.203.962 0 .304-.407-2.126-.763-2.177-.814-4.354-1.628-1.974-.764 1.874.865.608.508l-3.594-1.526c.202.305 2.176 1.068 4.96 2.188-1.872-.56-7.44-2.952-10.883-4.376.405.152.81.254.81.203-1.468-.56-2.48-.966-3.645-1.424.304.152.607.305 1.367.661-3.088-1.221-8.556-3.562-12.96-5.445.86.306.86.306-.607-.356-1.57-.712-2.987-1.272-1.519-.56-2.227-1.017-3.088-1.373-4.252-1.882-1.215-.56-2.987-1.374-4.1-1.883 1.923.763 4.251 1.73 5.922 2.34.658.255 2.228.917 3.594 1.476 1.215.458 3.595 1.425 6.53 2.595 1.165.458 2.481.916 3.646 1.374 10.377 4.071 16.452 6.463 23.843 9.363-.86-.305-1.519-.509-2.227-.763.405.356 1.873.814 3.594 1.475.456.357 4.202 1.832 5.72 2.29-2.025-.916-4.1-1.832-6.378-2.646 3.949 1.374 5.011 1.73 8.808 3.053-1.366-.254 2.025.967-1.569-.305.962.458 3.544 1.425 4.354 1.629-.051-.255-2.785-1.17-1.975-1.17l3.645 1.271c-4.758-1.577.658.713 2.784 1.272.152-.05-1.569-.61-2.176-.814-1.671-.712 4.1 1.425 5.922 1.934.456.153 1.671.61 1.367.661zm-57.66-21.626c.254.051-.759-.407-2.784-1.272-.658-.254 2.329 1.018 2.076.916-.76-.305-.608-.204.708.356zm16.807 6.615c.304 0-1.417-.661-2.784-1.272-.86-.203.86.509 2.784 1.272zm-8.049-3.155c-1.113-.458-1.72-.509.608.407.607.255 2.075.662-.608-.407zm5.771 2.392a87.405 87.405 0 00-2.885-1.221l-.05.102c1.771.763 2.277.915 2.935 1.119zm9.366 3.765c-.152-.152-3.139-1.272-3.544-1.526-1.063-.204-3.341-1.272-5.164-1.934 2.835 1.222 3.544 1.476 5.063 2.036 1.012.407 4.607 1.984 3.645 1.424zm17.465 6.717c-2.278-.916-1.823-.56-2.987-.966-2.936-1.12-5.316-2.443-7.897-3.257 2.126 1.017 2.936 1.323 1.923 1.221 3.696 1.577 1.215.153 2.329.61 1.013.662 6.733 2.748 6.632 2.392zm7.998 2.9c-2.025-.813-2.987-1.068-5.822-2.136-.151.101 5.367 2.239 5.822 2.137zm967.816 39.335c1.16.458 4.05-.051 3.8-1.17-1.93.101-3.75.305-3.8 1.17zm233.07-30.887c1.97-.357 4.2-.611 5.31-1.222-1.72.458-6.02.051-5.31 1.222zm40.65-4.987c-3.09.509-8.2.458-9.97 1.374 1.67.102 10.22-.204 9.97-1.374zm1.57.153c2.02.152 6.22-.56 7.69-.815-2.53-.152-5.87-.305-7.69.815z" fill="url(#paint0_linear)"/><defs><linearGradient id="paint0_linear" x1="615.5" y1="116" x2="1426" y2="116" gradientUnits="userSpaceOnUse"><stop offset=".448" stop-color="#AAD047"/><stop offset="1" stop-color="#3E703D"/></linearGradient></defs></svg>