<svg width="80" height="55" fill="none" xmlns="http://www.w3.org/2000/svg"><path d="M20.138 38.093c-4.596 0-8.337 3.741-8.337 8.337 0 4.595 3.741 8.337 8.337 8.337 4.595.007 8.336-3.734 8.336-8.337 0-4.604-3.74-8.337-8.336-8.337zm0 14.142a5.81 5.81 0 01-5.806-5.805 5.81 5.81 0 015.806-5.806 5.81 5.81 0 015.805 5.806 5.81 5.81 0 01-5.805 5.805z" fill="url(#paint0_linear)"/><path d="M20.138 42.95a3.48 3.48 0 100 6.96 3.48 3.48 0 000-6.96z" fill="url(#paint1_linear)"/><path d="M62.77 38.093c-4.595 0-8.336 3.741-8.336 8.337 0 4.595 3.741 8.337 8.337 8.337 4.595 0 8.336-3.742 8.336-8.337 0-4.596-3.74-8.337-8.336-8.337zm0 14.142a5.81 5.81 0 01-5.805-5.805 5.81 5.81 0 015.806-5.806 5.81 5.81 0 015.805 5.806 5.815 5.815 0 01-5.805 5.805z" fill="url(#paint2_linear)"/><path d="M62.77 42.95a3.48 3.48 0 100 6.96 3.48 3.48 0 000-6.96z" fill="url(#paint3_linear)"/><path d="M78.677 21.451l-6.992-2.926c-.894-1.59-4.28-7.467-6.937-9.777a1.269 1.269 0 00-.83-.308H53.54V1.503A1.27 1.27 0 0052.275.238H1.265A1.27 1.27 0 000 1.503v30.935c0 .696.57 1.265 1.266 1.265h2.198v9.246c0 .697.57 1.266 1.266 1.266h5.584c.538 0 1.013-.34 1.194-.838a9.172 9.172 0 018.63-6.09 9.18 9.18 0 018.621 6.09c.182.506.657.838 1.195.838h22.993c.538 0 1.012-.34 1.194-.838a9.172 9.172 0 018.63-6.09c3.867 0 7.324 2.451 8.63 6.09.181.506.656.838 1.194.838h5.6a1.27 1.27 0 001.265-1.266V22.623a1.291 1.291 0 00-.783-1.17zm-25.113-10.48h9.855c2.658 2.586 6.225 9.088 6.257 9.16.134.252.356.45.625.56l6.62 2.777v7.854H53.564V10.971zM2.53 6.47h3.203v21.102H2.531V6.47zm4.833 0h3.401v21.102h-3.4V6.47zm5.03 0h3.402v21.102h-3.402V6.47zm5.039 0h3.4v21.102h-3.4V6.47zm5.03 0h3.401v21.102h-3.4V6.47zm5.03 0h3.402v21.102h-3.401V6.47zm5.04 0h3.4v21.102h-3.4V6.47zm5.03 0h3.4v21.102h-3.4V6.47zm5.03 0h3.401v21.102h-3.4V6.47zm5.039 0h3.377v21.102h-3.377V6.47zm-45.1-3.702h48.477v1.89H2.531v-1.89zm0 28.403v-1.788h48.477v1.788H2.531zM76.92 41.684h-3.472c-1.867-4.184-6.051-6.937-10.678-6.937a11.722 11.722 0 00-10.678 6.937H30.816c-1.867-4.184-6.051-6.937-10.678-6.937-4.627 0-8.811 2.753-10.678 6.937H6.003v-7.838h70.918v7.838z" fill="url(#paint4_linear)"/><path d="M61.774 13.154h-6.676v7.91h12.316l-.064-.111c-1.376-2.318-3.78-5.861-5.576-7.8z" fill="url(#paint5_linear)"/><path d="M60.904 24.07h-4.01v1.455h4.01v-1.456z" fill="url(#paint6_linear)"/><defs><linearGradient id="paint0_linear" x1="20.138" y1="38.093" x2="20.138" y2="54.767" gradientUnits="userSpaceOnUse"><stop stop-color="#AD844C"/><stop offset=".641" stop-color="#BDA180"/><stop offset="1" stop-color="#AD844C"/></linearGradient><linearGradient id="paint1_linear" x1="20.138" y1="42.95" x2="20.138" y2="49.91" gradientUnits="userSpaceOnUse"><stop stop-color="#AD844C"/><stop offset=".641" stop-color="#BDA180"/><stop offset="1" stop-color="#AD844C"/></linearGradient><linearGradient id="paint2_linear" x1="62.771" y1="38.093" x2="62.771" y2="54.767" gradientUnits="userSpaceOnUse"><stop stop-color="#AD844C"/><stop offset=".641" stop-color="#BDA180"/><stop offset="1" stop-color="#AD844C"/></linearGradient><linearGradient id="paint3_linear" x1="62.771" y1="42.95" x2="62.771" y2="49.91" gradientUnits="userSpaceOnUse"><stop stop-color="#AD844C"/><stop offset=".641" stop-color="#BDA180"/><stop offset="1" stop-color="#AD844C"/></linearGradient><linearGradient id="paint4_linear" x1="39.73" y1=".238" x2="21" y2="50.884" gradientUnits="userSpaceOnUse"><stop stop-color="#AD844C"/><stop offset=".641" stop-color="#BDA180"/><stop offset="1" stop-color="#AD844C"/></linearGradient><linearGradient id="paint5_linear" x1="61.256" y1="13.154" x2="61.256" y2="21.063" gradientUnits="userSpaceOnUse"><stop stop-color="#AD844C"/><stop offset=".641" stop-color="#BDA180"/><stop offset="1" stop-color="#AD844C"/></linearGradient><linearGradient id="paint6_linear" x1="58.899" y1="24.069" x2="58.899" y2="25.525" gradientUnits="userSpaceOnUse"><stop stop-color="#AD844C"/><stop offset=".641" stop-color="#BDA180"/><stop offset="1" stop-color="#AD844C"/></linearGradient></defs></svg>