<svg width="944" height="508" viewBox="0 0 944 508" fill="none" xmlns="http://www.w3.org/2000/svg">
<path d="M205.15 23.21L199.25 24.87C115.63 49.66 83.45 84.54 79.71 88.3C73.85 94.18 63.86 87.4 45.59 87.4C27.35 87.4 21.89 101.05 21.89 111.37C21.89 121.68 37.14 130.97 37.14 133.33C26.2 133.33 25.72 137.82 22.55 137.82C11.76 137.82 6.46 124.18 5.14 124.18C3.79 124.18 0 123.68 0 130.97C0 148.47 19.14 155.3 31.52 155.3C43.9 155.3 51.18 151.74 51.18 151.74C51.18 160.82 48.31 175.47 48.31 186.36C48.31 202.91 54.51 226.77 61.72 248.39L65.93 259.66C72.87 279.67 76.56 286.77 80.07 293.2L82.34 298.17C90.85 292.79 185.81 233.46 226.06 247.67C226.16 245.58 226.32 243.47 226.56 241.36C227.3 234.89 228.11 228.16 228.95 221.17C231.94 196.55 235.31 168.66 236.63 141.13V137.36C236.71 110.98 236.23 89.08 205.15 23.21ZM777.83 93.72C736.02 63.45 718.77 45.13 689.92 33.84C685.76 32.2 679.52 30.31 671.44 28.31C673.84 39.08 683.72 88.86 665.92 111.66C662.75 115.73 658.88 118.76 654.36 120.63C654.34 120.66 654.32 120.68 654.3 120.68C654.24 120.69 654.18 120.73 654.1 120.77C651.89 121.91 636.1 129.89 609.02 139.97C597.5 145.52 585.44 151.96 575.03 158.77C576.23 158.66 577.42 158.58 578.64 158.55C599.25 158.11 637.15 161.82 659.34 191.69C672.78 209.77 678.32 234.5 675.97 265.51C684.88 244.27 696.46 222.22 709.46 200.13L714.33 191.96C734.58 158.46 757.77 125.16 779.64 95.04C779.04 94.59 778.42 94.16 777.83 93.72ZM652.94 196.47C632.91 169.47 597.9 166.11 578.8 166.55C565.78 166.83 554.56 173.61 546.34 186.19C533.22 206.24 529.61 236.83 535.36 270.42C571.28 285.17 650.59 277.95 666.88 276.26C671.42 241.83 666.78 215.11 652.94 196.47ZM673.68 489.72C664.55 482.89 655.34 459.66 655.34 459.66C650.77 444.01 645.63 430.76 644.89 396.39C639.19 405.5 626.15 420.22 600.97 421.32C602.14 426.11 602.34 430.29 602.34 432.29V460.57C602.34 478.55 617.28 495.35 621.6 495.35C625.91 495.35 628.06 495.35 628.06 495.35V489.54C628.06 489.54 629.72 489.54 630.04 489.54C643.99 504.85 660.24 502.83 670.53 502.83C680.79 502.83 682.79 496.51 673.68 489.72ZM605.63 287.57C581.51 287.57 555.59 285.76 537.15 279.6C539.8 291.85 540 305.92 545.09 318.42C563.53 366.5 580.15 395.04 590.54 403.54C594.03 406.39 596.48 409.92 598.22 413.54C629.32 412.66 644.71 380.42 645.23 379.11C645.23 379.1 645.23 379.1 645.23 379.1C647.44 354.85 657.71 332.42 657.71 332.42C658.51 322.32 660.52 311.66 663.59 300.61C663.59 300.57 663.61 300.55 663.61 300.54C664.23 294.94 664.78 289.54 665.64 284.44C655.44 285.48 631.57 287.57 605.63 287.57ZM231.34 474.39L217.59 474.73L228.53 471.55C228.53 471.55 219.24 457.6 212.94 440.11C206.64 422.66 205.47 403.2 205.47 403.2L206.48 397.51C206.48 397.51 206.48 396.7 206.48 388.22C206.48 375.83 212.82 359.82 217.99 345.89L222.83 332.64C228.13 317.35 232.16 312.7 232.62 308.57L235.51 304.67C233.28 297.44 229.05 282.61 227.2 269.57C227.1 268.88 227 268.17 226.9 267.45L165.02 405.23C164.8 405.57 163.64 407.33 161.69 409.85V413.16C161.69 417.32 165.67 424.66 167.99 428.79C170.32 432.95 175.64 443.61 181.26 458.92C186.91 474.23 193.37 478.89 197.03 479.39C200.66 479.89 199.35 467.57 198.85 465.42C199.43 467.05 202.3 477.04 202.99 479.72C207.8 491.54 215.1 493.54 228.37 493.54C241.63 493.54 247.75 491.85 247.75 487.85C247.75 483.89 231.34 474.39 231.34 474.39ZM86.39 305.11C90.13 310.14 94.46 315.11 98.11 319.61C102.53 325.14 105.98 329.95 106.14 333.27L106.38 342.22C105.13 352.1 100.26 355.94 100.26 359.82C100.26 364.26 107.34 385.11 108.89 401.98C109.55 408.98 110.09 415.11 110.83 425.73L112.82 426.26C133.7 436.04 156.1 404.14 158.2 401.07L224.77 255.69C195.3 242.63 115.81 286.32 86.39 305.11ZM169.16 486.88H153.41V484.05H164.2C164.2 484.05 165.51 481.88 165.51 479.22C165.51 476.55 162.03 472.92 158.4 469.23C154.73 465.57 154.91 445.45 154.91 427.48C154.91 423.32 155.27 419.76 155.84 416.77C147.73 425.57 135.11 436.16 121.17 436.16C117.99 436.16 114.72 435.6 111.45 434.33C112.36 447.85 113.1 461.29 113.1 468.57C113.1 482.38 125.86 488.55 125.86 488.55V472.05C125.86 472.05 133.02 475.55 133.02 488.38C133.02 501.17 146.28 508 159.55 508C172.81 508 180.29 506.01 180.29 502.01C180.29 485.72 169.16 486.88 169.16 486.88ZM663.23 28.24L663.05 26.34C638.81 20.63 604.9 14.97 559.26 9.7L547.3 8.35C501.6 3.48 449.19 0 395.7 0C318.77 0 258.9 8.85 213.02 21.04C244.35 87.54 244.68 109.47 244.6 136.38V137.61C344.4 145.19 472.98 131.5 558.38 122.41C596.12 118.4 625.93 115.22 640.96 115.22C644.01 115.22 646.76 114.81 649.25 114.04C649.39 113.98 649.51 113.94 649.65 113.9C649.7 113.88 649.76 113.87 649.81 113.84C649.87 113.83 649.93 113.81 649.98 113.78C650.09 113.75 650.19 113.71 650.29 113.66C650.33 113.64 650.36 113.63 650.4 113.62L650.44 113.61C650.5 113.59 650.55 113.57 650.61 113.54C650.72 113.5 650.82 113.46 650.93 113.41C651.03 113.37 651.09 113.36 651.15 113.33C654.48 111.94 657.29 109.73 659.64 106.72C676.87 84.66 663.37 28.79 663.23 28.24Z" fill="#C21620"/>
<path d="M528.38 276.44C530.6 288 533.88 299.84 538.21 311.66L536.33 309.82C529.16 307.67 520.4 305.92 484.6 305.92C438.82 305.92 408.08 308.77 324.73 308.77C291.33 308.77 258.38 307.92 253.31 305.92C250.58 304.85 247.93 305.04 244.64 303.55L242.89 298.14C243.05 298.51 243.17 298.82 243.29 299.05C242.26 296.1 237.89 283.45 235.51 269.66C279.3 276.03 512.2 276.42 528.38 276.44Z" fill="#C21620"/>
<path d="M243.33 202.2L239.27 201.89C240 195.68 240.7 189.33 241.35 182.88L242.15 174.94C243.07 165.25 243.86 155.44 244.38 145.63C264.74 147.17 286.25 147.82 308.36 147.82C368.14 147.82 432.06 143 488.36 137.63C505.66 135.87 510.63 142.95 510.87 144.18C511.23 146.08 507.85 153.62 488.1 165.64C470.16 176.55 445.99 186.65 420.02 194.09C361.09 210.98 278.56 204.82 243.33 202.2Z" fill="#C21620"/>
<path d="M605.58 132.7C605.52 132.73 605.46 132.76 605.4 132.8L568.57 153.54C568.49 153.59 568.41 153.64 568.33 153.69C557.9 160.77 549.1 168.29 544.01 175.9C543.97 175.96 543.92 176.03 543.87 176.09C542.4 177.86 540.99 179.78 539.65 181.82C533.27 191.58 528.97 203.55 526.71 217.05L525.46 226.72C524.34 238.61 524.68 251.44 526.46 264.77C526.72 266.69 525.24 268.41 523.3 268.4C490.48 268.25 282.16 267.08 236.87 261.41C235.36 261.22 234.2 259.98 234.1 258.46C234.02 257.25 233.96 256.06 233.93 254.87C233.91 253.87 233.91 252.87 233.91 251.87V251.84C233.93 248.67 234.11 245.48 234.46 242.26C235.1 236.78 235.78 231.09 236.5 225.2L237.44 217.26V217.25C237.62 215.8 237.79 214.35 237.97 212.89C238.17 211.2 239.67 209.96 241.37 210.08L242.72 210.18C259.55 211.44 287.03 213.49 317.71 213.49C352.04 213.49 390.36 210.92 422.21 201.8C448.85 194.16 473.72 183.75 492.24 172.49C492.9 172.09 493.56 171.68 494.22 171.27C496.69 169.72 499.18 168.21 501.71 166.78C511.51 161.25 520.51 154.39 528.51 146.48C532.92 142.12 537.11 137.98 538.81 136.3C539.32 135.8 539.98 135.48 540.69 135.4C557.16 133.57 610.18 125.36 623.39 124.08L605.58 132.7Z" fill="#C21620"/>
<path d="M650.93 113.42C650.51 113.6 650.09 113.76 649.65 113.9C650.23 113.68 650.67 113.51 650.93 113.42Z" fill="#C21620"/>
<path d="M936.86 341.95C936.86 347.77 933.39 364.57 922.27 370.91C911.17 377.23 907.7 383.05 898.56 383.05H796.07C787.44 383.05 779.32 378.55 770.03 374.55C760.74 370.55 733.05 354.09 726.25 352.43C719.43 350.77 706.67 346.45 700.37 344.27C694.05 342.11 667.1 333.17 667.1 333.17C672.34 266.83 733.79 174.27 787.3 100.55C821.47 125.09 831.72 131.15 831.72 131.15C831.72 131.15 832 131.41 832.58 131.89C829.59 133.31 826.66 134.61 823.85 135.75C800.22 145.21 787.37 152.89 783.16 185.01C778.95 217.15 797.87 216.07 843.03 211.87C868.69 209.47 889.58 180.35 897.66 153.93C918 152.99 918.53 144.45 921.13 138.21C923.8 131.89 930.1 120.47 935.53 120.47C940.93 120.47 943.03 126.79 943.03 138.79C943.03 150.77 931.09 177.71 917.83 178.17C904.55 178.59 895.42 192.09 895.42 192.09C895.42 192.09 897.09 223.53 890.96 239.35C884.8 255.15 883.32 261.65 883.32 266.97C883.32 272.29 886.49 276.45 892.11 286.11C897.75 295.75 913.84 321.03 924.11 326.53C934.39 331.98 936.86 336.14 936.86 341.95Z" fill="#C21620"/>
<path d="M880.36 119.33C904.18 127.31 878.59 200.51 840.55 204.07C802.51 207.61 786.58 208.51 790.11 181.45C793.64 154.37 808.25 151.73 828.15 143.73C848.06 135.74 875.04 117.58 880.36 119.33Z" fill="#C21620"/>
</svg>
