<svg width="944" height="508" fill="none" xmlns="http://www.w3.org/2000/svg"><path d="M205.15 23.21l-5.9 1.66C115.63 49.66 83.45 84.54 79.71 88.3c-5.86 5.88-15.85-.9-34.12-.9-18.24 0-23.7 13.65-23.7 23.97 0 10.31 15.25 19.6 15.25 21.96-10.94 0-11.42 4.49-14.59 4.49-10.79 0-16.09-13.64-17.41-13.64-1.35 0-5.14-.5-5.14 6.79 0 17.5 19.14 24.33 31.52 24.33 12.38 0 19.66-3.56 19.66-3.56 0 9.08-2.87 23.73-2.87 34.62 0 16.55 6.2 40.41 13.41 62.03l4.21 11.27c6.94 20.01 10.63 27.11 14.14 33.54l2.27 4.97c8.51-5.38 103.47-64.71 143.72-50.5.1-2.09.26-4.2.5-6.31.74-6.47 1.55-13.2 2.39-20.19 2.99-24.62 6.36-52.51 7.68-80.04v-3.77c.08-26.38-.4-48.28-31.48-114.15zm572.68 70.51c-41.81-30.27-59.06-48.59-87.91-59.88-4.16-1.64-10.4-3.53-18.48-5.53 2.4 10.77 12.28 60.55-5.52 83.35-3.17 4.07-7.04 7.1-11.56 8.97-.02.03-.04.05-.06.05-.06.01-.12.05-.2.09-2.21 1.14-18 9.12-45.08 19.2-11.52 5.55-23.58 11.99-33.99 18.8 1.2-.11 2.39-.19 3.61-.22 20.61-.44 58.51 3.27 80.7 33.14 13.44 18.08 18.98 42.81 16.63 73.82 8.91-21.24 20.49-43.29 33.49-65.38l4.87-8.17c20.25-33.5 43.44-66.8 65.31-96.92-.6-.45-1.22-.88-1.81-1.32zM652.94 196.47c-20.03-27-55.04-30.36-74.14-29.92-13.02.28-24.24 7.06-32.46 19.64-13.12 20.05-16.73 50.64-10.98 84.23 35.92 14.75 115.23 7.53 131.52 5.84 4.54-34.43-.1-61.15-13.94-79.79zm20.74 293.25c-9.13-6.83-18.34-30.06-18.34-30.06-4.57-15.65-9.71-28.9-10.45-63.27-5.7 9.11-18.74 23.83-43.92 24.93 1.17 4.79 1.37 8.97 1.37 10.97v28.28c0 17.98 14.94 34.78 19.26 34.78h6.46v-5.81h1.98c13.95 15.31 30.2 13.29 40.49 13.29 10.26 0 12.26-6.32 3.15-13.11zm-68.05-202.15c-24.12 0-50.04-1.81-68.48-7.97 2.65 12.25 2.85 26.32 7.94 38.82 18.44 48.08 35.06 76.62 45.45 85.12 3.49 2.85 5.94 6.38 7.68 10 31.1-.88 46.49-33.12 47.01-34.43v-.01c2.21-24.25 12.48-46.68 12.48-46.68.8-10.1 2.81-20.76 5.88-31.81 0-.04.02-.06.02-.07.62-5.6 1.17-11 2.03-16.1-10.2 1.04-34.07 3.13-60.01 3.13zM231.34 474.39l-13.75.34 10.94-3.18s-9.29-13.95-15.59-31.44c-6.3-17.45-7.47-36.91-7.47-36.91l1.01-5.69v-9.29c0-12.39 6.34-28.4 11.51-42.33l4.84-13.25c5.3-15.29 9.33-19.94 9.79-24.07l2.89-3.9c-2.23-7.23-6.46-22.06-8.31-35.1-.1-.69-.2-1.4-.3-2.12l-61.88 137.78c-.22.34-1.38 2.1-3.33 4.62v3.31c0 4.16 3.98 11.5 6.3 15.63 2.33 4.16 7.65 14.82 13.27 30.13 5.65 15.31 12.11 19.97 15.77 20.47 3.63.5 2.32-11.82 1.82-13.97.58 1.63 3.45 11.62 4.14 14.3 4.81 11.82 12.11 13.82 25.38 13.82 13.26 0 19.38-1.69 19.38-5.69 0-3.96-16.41-13.46-16.41-13.46zM86.39 305.11c3.74 5.03 8.07 10 11.72 14.5 4.42 5.53 7.87 10.34 8.03 13.66l.24 8.95c-1.25 9.88-6.12 13.72-6.12 17.6 0 4.44 7.08 25.29 8.63 42.16.66 7 1.2 13.13 1.94 23.75l1.99.53c20.88 9.78 43.28-22.12 45.38-25.19l66.57-145.38c-29.47-13.06-108.96 30.63-138.38 49.42zm82.77 181.77h-15.75v-2.83h10.79s1.31-2.17 1.31-4.83c0-2.67-3.48-6.3-7.11-9.99-3.67-3.66-3.49-23.78-3.49-41.75 0-4.16.36-7.72.93-10.71-8.11 8.8-20.73 19.39-34.67 19.39-3.18 0-6.45-.56-9.72-1.83.91 13.52 1.65 26.96 1.65 34.24 0 13.81 12.76 19.98 12.76 19.98v-16.5s7.16 3.5 7.16 16.33c0 12.79 13.26 19.62 26.53 19.62 13.26 0 20.74-1.99 20.74-5.99 0-16.29-11.13-15.13-11.13-15.13zM663.23 28.24l-.18-1.9C638.81 20.63 604.9 14.97 559.26 9.7L547.3 8.35C501.6 3.48 449.19 0 395.7 0c-76.93 0-136.8 8.85-182.68 21.04 31.33 66.5 31.66 88.43 31.58 115.34v1.23c99.8 7.58 228.38-6.11 313.78-15.2 37.74-4.01 67.55-7.19 82.58-7.19 3.05 0 5.8-.41 8.29-1.18.14-.06.26-.1.4-.14.05-.02.11-.03.16-.06.06-.01.12-.03.17-.06.11-.03.21-.07.31-.12.04-.02.07-.03.11-.04l.04-.01c.06-.02.11-.04.17-.07.11-.04.21-.08.32-.13.1-.04.16-.05.22-.08 3.33-1.39 6.14-3.6 8.49-6.61 17.23-22.06 3.73-77.93 3.59-78.48zm-134.85 248.2c2.22 11.56 5.5 23.4 9.83 35.22l-1.88-1.84c-7.17-2.15-15.93-3.9-51.73-3.9-45.78 0-76.52 2.85-159.87 2.85-33.4 0-66.35-.85-71.42-2.85-2.73-1.07-5.38-.88-8.67-2.37l-1.75-5.41c.16.37.28.68.4.91-1.03-2.95-5.4-15.6-7.78-29.39 43.79 6.37 276.69 6.76 292.87 6.78zM243.33 202.2l-4.06-.31c.73-6.21 1.43-12.56 2.08-19.01l.8-7.94c.92-9.69 1.71-19.5 2.23-29.31 20.36 1.54 41.87 2.19 63.98 2.19 59.78 0 123.7-4.82 180-10.19 17.3-1.76 22.27 5.32 22.51 6.55.36 1.9-3.02 9.44-22.77 21.46-17.94 10.91-42.11 21.01-68.08 28.45-58.93 16.89-141.46 10.73-176.69 8.11z" fill="#C21620"/><path d="M605.58 132.7c-.06.03-.12.06-.18.1l-36.83 20.74-.24.15c-10.43 7.08-19.23 14.6-24.32 22.21-.04.06-.09.13-.14.19a63.787 63.787 0 00-4.22 5.73c-6.38 9.76-10.68 21.73-12.94 35.23l-1.25 9.67c-1.12 11.89-.78 24.72 1 38.05.26 1.92-1.22 3.64-3.16 3.63-32.82-.15-241.14-1.32-286.43-6.99a3.18 3.18 0 01-2.77-2.95c-.08-1.21-.14-2.4-.17-3.59-.02-1-.02-2-.02-3v-.03c.02-3.17.2-6.36.55-9.58.64-5.48 1.32-11.17 2.04-17.06l.94-7.94v-.01c.18-1.45.35-2.9.53-4.36a3.2 3.2 0 013.4-2.81l1.35.1c16.83 1.26 44.31 3.31 74.99 3.31 34.33 0 72.65-2.57 104.5-11.69 26.64-7.64 51.51-18.05 70.03-29.31.66-.4 1.32-.81 1.98-1.22 2.47-1.55 4.96-3.06 7.49-4.49 9.8-5.53 18.8-12.39 26.8-20.3l10.3-10.18a3.2 3.2 0 011.88-.9c16.47-1.83 69.49-10.04 82.7-11.32l-17.81 8.62zm45.35-19.28c-.42.18-.84.34-1.28.48.58-.22 1.02-.39 1.28-.48zm285.93 228.53c0 5.82-3.47 22.62-14.59 28.96-11.1 6.32-14.57 12.14-23.71 12.14H796.07c-8.63 0-16.75-4.5-26.04-8.5s-36.98-20.46-43.78-22.12c-6.82-1.66-19.58-5.98-25.88-8.16-6.32-2.16-33.27-11.1-33.27-11.1 5.24-66.34 66.69-158.9 120.2-232.62 34.17 24.54 44.42 30.6 44.42 30.6s.28.26.86.74a165.65 165.65 0 01-8.73 3.86c-23.63 9.46-36.48 17.14-40.69 49.26-4.21 32.14 14.71 31.06 59.87 26.86 25.66-2.4 46.55-31.52 54.63-57.94 20.34-.94 20.87-9.48 23.47-15.72 2.67-6.32 8.97-17.74 14.4-17.74 5.4 0 7.5 6.32 7.5 18.32 0 11.98-11.94 38.92-25.2 39.38-13.28.42-22.41 13.92-22.41 13.92s1.67 31.44-4.46 47.26c-6.16 15.8-7.64 22.3-7.64 27.62s3.17 9.48 8.79 19.14c5.64 9.64 21.73 34.92 32 40.42 10.28 5.45 12.75 9.61 12.75 15.42z" fill="#C21620"/><path d="M880.36 119.33c23.82 7.98-1.77 81.18-39.81 84.74-38.04 3.54-53.97 4.44-50.44-22.62 3.53-27.08 18.14-29.72 38.04-37.72 19.91-7.99 46.89-26.15 52.21-24.4z" fill="#C21620"/></svg>