<svg width="17" height="27" viewBox="0 0 17 27" fill="none" xmlns="http://www.w3.org/2000/svg">
<path d="M6.75045 16.7056V25.3124C6.75045 25.76 6.92825 26.1892 7.24474 26.5057C7.56123 26.8222 7.99048 27 8.43806 27C8.88564 27 9.31489 26.8222 9.63138 26.5057C9.94786 26.1892 10.1257 25.76 10.1257 25.3124V16.7056C12.1745 16.2874 13.9951 15.1233 15.2344 13.4391C16.4737 11.7548 17.0435 9.67043 16.8334 7.58994C16.6232 5.50945 15.648 3.58111 14.0969 2.17877C12.5457 0.776435 10.5291 0 8.43806 0C6.34698 0 4.33039 0.776435 2.77925 2.17877C1.22811 3.58111 0.25292 5.50945 0.042748 7.58994C-0.167424 9.67043 0.402393 11.7548 1.64173 13.4391C2.88106 15.1233 4.70162 16.2874 6.75045 16.7056Z" fill="#C20E1A"/>
<ellipse cx="4.59322" cy="8.26509" rx="0.835105" ry="2.08776" transform="rotate(32.8571 4.59322 8.26509)" fill="white" fill-opacity="0.5"/>
<path d="M6.09454 8.83591C4.29244 10.677 3.09633 13.3933 2.23068 12.8342C1.36502 12.2751 1.56199 8.97537 2.95973 6.81124C4.35748 4.6471 7.2107 3.92409 8.07635 4.48319C8.94201 5.04228 8.07635 6.81124 6.09454 8.83591Z" fill="white" fill-opacity="0.3"/>
</svg>
