<svg width="75" height="100" fill="none" xmlns="http://www.w3.org/2000/svg"><path fill-rule="evenodd" clip-rule="evenodd" d="M34.146.814l.241.995 4.457 18.388 1.127.577 2.432-4.063.249-.416.407.215 8.05 4.253.455.24-.28.463-2.35 3.897 4.477 2.292.71.364-.45.71-6.37 10.052-.366.577-.584-.281-3.016-1.45L9.567 90.94l-.395-.253.395.253c-1.51 2.385-4.653 3.324-7.038 2.103C.119 91.81-.607 88.84.907 86.428l33.38-53.146-1.246-.598-2.926-1.406-.103.032a948.205 948.205 0 01-4.866 1.528c-3.147.98-7.346 2.276-11.554 3.533l-.716.214-.176-.727c-.326-1.345-.38-3.996.3-7.342.686-3.369 2.127-7.495 4.85-11.794 2.727-4.306 6.596-8.138 9.756-10.88 1.584-1.375 3-2.484 4.021-3.25a56.605 56.605 0 011.627-1.174l.023-.016.006-.004.002-.001.386.627-.386-.628.861-.582zm6.691 20.403l7.23 3.702 2.108-3.493-7.19-3.798-2.148 3.59zm-2.984.197l1.328.68-.065.11.46.236 8.093 4.143.404.206.066-.11 3.856 1.975-5.554 8.764-4.543-2.185-8.183-3.927-3.178-1.528-.252-.12-.273.086.188.723-.188-.723h-.002l-.004.002-.018.006-.072.023-.28.088a988.51 988.51 0 01-4.86 1.526c-2.951.92-6.828 2.116-10.767 3.298-.138-1.252-.095-3.323.435-5.926.65-3.192 2.022-7.133 4.632-11.253 2.606-4.114 6.341-7.828 9.452-10.527a72.003 72.003 0 014.674-3.725l4.288 17.69.077.321.286.146zm3.371 15.197l-6.056-2.906-24.01 38.229 7.02 3.597 24.277-38.328-1.23-.592h-.001zM17.629 76.399l-7.018-3.596-1.689 2.689 7.007 3.59 1.7-2.683zm-11.11 2.92l1.857-2.957 7.003 3.588-1.868 2.95-6.993-3.58zm6.443 4.448l-6.99-3.578-4.245 6.759c-1.195 1.903-.63 4.213 1.272 5.187 1.938.992 4.523.22 5.751-1.719l4.212-6.649zm55.845-39.393l.353.353c4.5 4.497 5.712 9.043 4.97 13.262-.737 4.183-3.38 7.963-6.425 11.005L56.812 79.886l-4.528 4.528-1.357 1.358-.368.367-.095.096-.025.024-.006.006-.001.002-.354-.353.353.353-.353.354-.354-.354-3.57-3.57-.045.052a633.155 633.155 0 01-4.675 5.283c-2.81 3.142-6.181 6.847-8.403 9.07-2.48 2.483-4.773 2.88-6.485 2.587a6.018 6.018 0 01-2.527-1.075 3.891 3.891 0 01-.188-.15l-.013-.011-.004-.004-.001-.001c-.001-.001-.001-.001.333-.37-.335.368-.335.368-.336.367l-.002-.001-.004-.004-.013-.012a3.106 3.106 0 01-.188-.193 6.41 6.41 0 01-.462-.564 6.594 6.594 0 01-1.023-2.079c-.51-1.812-.276-4.254 2.37-6.9l23.879-23.878 13.928-13.928 4.477-4.477 1.243-1.243.327-.327.083-.083.021-.022.005-.005.002-.001.354.353-.354-.354.354-.353zM24.146 98.078l-.334.369-.001-.001.335-.368zm44.576-52.205l-1.243 1.243-4.477 4.477-13.928 13.928-9.338 9.338 6.369 6.375.152.153.227.225 3.594 3.595.142-.142 1.357-1.358 4.528-4.528 10.893-10.892c2.976-2.974 5.46-6.577 6.146-10.471.66-3.75-.333-7.85-4.34-12.024l-.082.08zM34.106 80.489l4.922-4.922 6.418 6.422-.089.102a637.986 637.986 0 01-4.532 5.122l-6.719-6.724zm-.707.707l-2.231 2.231 6.873 6.878c.715-.787 1.428-1.579 2.116-2.346L33.4 81.196zm-5.17 5.17l2.232-2.232 6.906 6.911c-.727.796-1.448 1.58-2.138 2.32l-7-7zm-.706.706L25.196 89.4c-2.41 2.41-2.521 4.483-2.116 5.922.21.74.564 1.342.87 1.76a5.444 5.444 0 00.502.594l.027.027.004.003.002.002.002.002.024.02a4.433 4.433 0 00.551.376c.39.225.955.48 1.652.599 1.365.232 3.337-.035 5.61-2.31.653-.653 1.408-1.438 2.22-2.3l-7.021-7.022z" fill="url(#paint0_linear)"/><defs><linearGradient id="paint0_linear" x1="38.729" y1="-43.589" x2="38.729" y2="97.69" gradientUnits="userSpaceOnUse"><stop stop-color="#AD844C"/><stop offset=".76" stop-color="#BDA180"/><stop offset="1" stop-color="#AD844C"/></linearGradient></defs></svg>