<svg width="252" height="140" fill="none" xmlns="http://www.w3.org/2000/svg"><path d="M251.97 1.83c-.03 4.32-.28 8.54-.74 12.64-.23 2.21-.53 4.39-.89 6.54-1.54 9.46-4.1 18.32-7.31 26.66-1.3 3.37-2.71 6.65-4.2 9.85-9.16 19.72-21.47 36.3-31.24 50.59-3.73 5.46-7.09 10.58-9.77 15.42-2.49 4.5-4.4 8.77-5.45 12.82-2.62.17-5.24.33-7.86.49l-6.01.36a1718.716 1718.716 0 01-26.32 1.32c-6.71.29-13.4.53-20.08.73-1.94.06-3.88.11-5.81.16-6.6.16-13.17.28-19.69.34-1.9.02-3.8.04-5.69.04-6.47.04-12.9.02-19.27-.07-1.86-.02-3.72-.05-5.57-.09-6.34-.12-12.6-.3-18.79-.55-1.81-.07-3.62-.15-5.42-.24-6.18-.28-12.27-.64-18.26-1.08l-2.02-.15v-1.23c0-.76.01-1.52.01-2.27 0-6.24-.06-12.28-.58-18.76-.14-1.68-.3-3.4-.51-5.15-.59-5.06-1.5-10.45-2.89-16.46-.34-1.47-.71-2.98-1.11-4.54-1.19-4.58-2.65-9.51-4.44-14.9-.46-1.37-.94-2.78-1.45-4.21-1.53-4.38-3.28-9.06-5.28-14.07-.52-1.32-1.06-2.66-1.62-4.03-1.75-4.28-3.67-8.79-5.78-13.57-.56-1.28-1.14-2.58-1.74-3.91C4.31 30.3 2.28 25.89.1 21.26c-.03-.07-.07-.15-.1-.22.14-.04.29-.08.43-.11 8.03-2.13 16.48-4.15 25.38-6.04 2.34-.5 4.71-.99 7.12-1.47 7.54-1.5 15.39-2.9 23.55-4.2a870 870 0 016.68-1.03c7.18-1.06 14.6-2.04 22.27-2.92 2.1-.25 4.22-.48 6.36-.71 6.91-.73 14.01-1.39 21.31-1.96 2.02-.15 4.06-.3 6.11-.45 6.68-.47 13.52-.87 20.52-1.18 1.96-.1 3.92-.18 5.91-.25a892.01 892.01 0 0125.65-.65c3.75-.05 7.55-.07 11.39-.07 2.67 0 5.33.01 7.99.03 1.87.01 3.74.02 5.6.05 6.36.06 12.71.18 19.01.34 1.84.04 3.67.09 5.5.15 6.26.18 12.49.41 18.67.68 1.81.07 3.61.15 5.41.24 2.38.1 4.75.22 7.11.34z" fill="#C21921"/><path fill-rule="evenodd" clip-rule="evenodd" d="M.43 20.93l-.33.33c-.03-.07-.07-.15-.1-.22.14-.04.29-.08.43-.11zm32.5-7.51l-25 25c-.56-1.28-1.14-2.58-1.74-3.91l19.62-19.62c2.34-.5 4.71-.99 7.12-1.47zm30.23-5.23L15.33 56.02c-.52-1.32-1.06-2.66-1.62-4.03L56.48 9.22a870 870 0 016.68-1.03zm28.63-3.63L22.06 74.3c-.46-1.37-.94-2.78-1.45-4.21L85.43 5.27c2.1-.25 4.22-.48 6.36-.71zm27.42-2.41l-91.6 91.59c-.34-1.47-.71-2.98-1.11-4.54l86.6-86.6c2.02-.15 4.06-.3 6.11-.45zM145.64.72L31.01 115.35c-.14-1.68-.3-3.4-.51-5.15L139.73.97c1.96-.1 3.92-.18 5.91-.25zm25.65-.65L33.6 137.76l-2.02-.15v-1.23c0-.76.01-1.52.01-2.27L165.55.15c1.9-.03 3.82-.06 5.74-.08zm24.98.01l-138.99 139c-1.81-.07-3.62-.15-5.42-.24L190.67.03c1.87.01 3.74.02 5.6.05zm24.51.49L81.64 139.72c-1.86-.02-3.72-.05-5.57-.09L215.28.42c1.84.04 3.67.09 5.5.15zm24.08.92L106.6 139.75c-1.9.02-3.8.04-5.69.04L239.45 1.25c1.81.07 3.61.15 5.41.24zm6.37 12.98c-.23 2.21-.53 4.39-.89 6.54L132.1 139.25c-1.94.06-3.88.11-5.81.16L251.23 14.47zm-8.2 33.2c-1.3 3.37-2.71 6.65-4.2 9.85l-80.73 80.74c-1.97.09-3.95.18-5.92.26l90.85-90.85zm-35.44 60.44c-3.73 5.46-7.09 10.58-9.77 15.42l-13.31 13.31-6.01.36 29.09-29.09z" fill="#9E1B1E"/></svg>