<svg width="276" height="283" fill="none" xmlns="http://www.w3.org/2000/svg"><mask id="mask0" maskUnits="userSpaceOnUse" x="0" y="0" width="276" height="283"><path d="M269.76 241.4c0 5.82-3.47 22.62-14.59 28.96-11.1 6.32-14.57 12.14-23.71 12.14H128.97c-8.63 0-16.75-4.5-26.04-8.5s-36.98-20.46-43.78-22.12c-6.82-1.66-19.58-5.98-25.88-8.16C26.95 241.56 0 232.62 0 232.62 5.24 166.28 66.69 73.72 120.2 0c34.17 24.54 44.42 30.6 44.42 30.6s.28.26.86.74a165.65 165.65 0 01-8.73 3.86c-23.63 9.46-36.48 17.14-40.69 49.26-4.21 32.14 14.71 31.06 59.87 26.86 25.66-2.4 46.55-31.52 54.63-57.94 20.34-.94 20.87-9.48 23.47-15.72 2.67-6.32 8.97-17.74 14.4-17.74 5.4 0 7.5 6.32 7.5 18.32 0 11.98-11.94 38.92-25.2 39.38-13.28.42-22.41 13.92-22.41 13.92s1.67 31.44-4.46 47.26c-6.16 15.8-7.64 22.3-7.64 27.62s3.17 9.48 8.79 19.14c5.64 9.64 21.73 34.92 32 40.42 10.28 5.45 12.75 9.61 12.75 15.42z" fill="#C21620"/></mask><g mask="url(#mask0)"><path d="M269.86 241.95c0 5.82-3.47 22.62-14.59 28.96-11.1 6.32-14.57 12.14-23.71 12.14H129.07c-8.63 0-16.75-4.5-26.04-8.5s-36.98-20.46-43.78-22.12c-6.82-1.66-19.58-5.98-25.88-8.16C27.05 242.11.1 233.17.1 233.17 5.34 166.83 66.79 74.27 120.3.55c34.17 24.54 44.42 30.6 44.42 30.6s.28.26.86.74a165.65 165.65 0 01-8.73 3.86c-23.63 9.46-36.48 17.14-40.69 49.26-4.21 32.14 14.71 31.06 59.87 26.86 25.66-2.4 46.55-31.52 54.63-57.94 20.34-.94 20.87-9.48 23.47-15.72 2.67-6.32 8.97-17.74 14.4-17.74 5.4 0 7.5 6.32 7.5 18.32 0 11.98-11.94 38.92-25.2 39.38-13.28.42-22.41 13.92-22.41 13.92s1.67 31.44-4.46 47.26c-6.16 15.8-7.64 22.3-7.64 27.62s3.17 9.48 8.79 19.14c5.64 9.64 21.73 34.92 32 40.42 10.28 5.45 12.75 9.61 12.75 15.42z" fill="#C21620"/><path d="M320-146l-444 444m444-419l-444 444M320-96l-444 444M320-71l-444 444M320-46l-444 444M320-21l-444 444M320 4l-444 444M320 29l-444 444M320 54l-444 444M320 79l-444 444m444-694l-444 444m444-169l-444 444m444-419l-444 444m444-419l-444 444m444-419l-444 444" stroke="#9E1B1E" stroke-width="4"/></g></svg>