<svg width="139" height="175" fill="none" xmlns="http://www.w3.org/2000/svg"><path d="M138.38 2.396l-15.89 34.7-4.77 10.42-16.35 35.7-4.77 10.42-16.34 35.69-4.78 10.43-3.67 8.02c-1.59 2.33-14.9 21.29-30.35 26-2.2.67-4.44 1.05-6.7 1.05-2.77 0-5.56-.56-8.33-1.86l-1.99-.53c-.16-2.25-.3-4.3-.45-6.19-.14-1.88-.27-3.62-.4-5.25-.37-4.5-.71-8.26-1.09-12.31-.16-1.73-.38-3.51-.64-5.31-.23-1.61-.5-3.23-.8-4.85-1-5.48-2.3-10.96-3.52-15.83-.4-1.58-.78-3.09-1.14-4.51-1.43-5.61-2.53-9.91-2.53-11.66 0-2.45 1.95-4.89 3.69-8.85.95-2.13 1.83-4.71 2.32-7.97.04-.26.08-.52.11-.78l-.24-8.95c-.09-1.81-1.16-4.07-2.84-6.65-.67-1.05-1.46-2.16-2.33-3.32-.88-1.19-1.84-2.42-2.86-3.69-1.81-2.24-3.8-4.59-5.79-7.01-.85-1.03-1.7-2.07-2.53-3.12-1.17-1.44-2.31-2.9-3.4-4.37 5.14-3.28 11.8-7.32 19.46-11.69 3.97-2.26 8.21-4.61 12.64-6.99 11.62-6.23 24.57-12.65 37.51-18.16 3.19-1.36 6.38-2.66 9.55-3.9 9.81-3.81 19.41-6.93 28.22-8.87 2.38-.54 4.71-.98 6.97-1.32 7.32-1.12 13.91-1.24 19.35 0 1.53.33 2.96.78 4.3 1.35.13.05.26.1.38.16z" fill="#C21921"/><path fill-rule="evenodd" clip-rule="evenodd" d="M32.1 33.136L5.93 59.306c-.85-1.03-1.7-2.07-2.53-3.12l16.06-16.06c3.97-2.26 8.21-4.61 12.64-6.99zm47.06-22.061l-62.25 62.25c-.67-1.05-1.46-2.16-2.33-3.32l55.03-55.03c3.19-1.36 6.38-2.66 9.55-3.9zM114.35.885l-96.79 96.79c.95-2.13 1.83-4.71 2.32-7.97l87.5-87.5c2.38-.54 4.71-.98 6.97-1.32zM138 2.236L17.54 122.695c-.4-1.58-.78-3.09-1.14-4.51L133.7.885c1.53.33 2.96.78 4.3 1.35zm-15.51 34.86l-4.77 10.42-95.86 95.859c-.23-1.61-.5-3.23-.8-4.85l101.43-101.43zm-21.12 46.12l-4.77 10.42-72.61 72.61c-.14-1.88-.27-3.62-.4-5.25l77.78-77.78zm-21.11 46.109l-4.78 10.43-34.02 34.02c-2.2.67-4.44 1.05-6.7 1.05l45.5-45.5z" fill="#9E1B1E"/></svg>