<svg width="174" height="62" fill="none" xmlns="http://www.w3.org/2000/svg"><path d="M173.08 0c-.01.39-.03.77-.05 1.16-.15 2.25-.57 4.54-1.21 6.85-4.91 17.67-22.71 36.43-28.73 48.09-.99 1.91-1.65 3.63-1.9 5.12l-3.16-.06c-6.36-.11-12.71-.23-18.99-.37-1.85-.03-3.7-.07-5.53-.11-6.4-.14-12.73-.29-18.92-.44-1.84-.05-3.67-.09-5.49-.15-6.46-.16-12.75-.34-18.83-.53l-5.46-.18c-6.53-.22-12.78-.45-18.66-.7-1.84-.07-3.65-.15-5.41-.23-6.72-.3-12.89-.63-18.39-.97-1.84-.12-3.6-.23-5.29-.35-5.66-.41-10.42-.84-14.1-1.3a3.207 3.207 0 01-2.37-1.59c-.23-.41-.37-.87-.4-1.36-.08-1.21-.14-2.4-.17-3.59v-.12C0 48.21 0 47.25 0 46.29v-.03c.02-3.17.2-6.36.55-9.58.32-2.74.65-5.53.99-8.38v-.01c.25-2.11.51-4.25.78-6.42l.27-2.25.94-7.94v-.01c.18-1.45.35-2.9.53-4.36a3.2 3.2 0 013.4-2.81l1.35.1c3.02.23 6.38.48 10.04.74 1.69.12 3.45.24 5.27.37 5.57.37 11.7.75 18.28 1.08 1.76.1 3.55.18 5.37.27 5.95.26 12.22.49 18.72.64 1.82.05 3.67.08 5.53.11 3.86.07 7.79.1 11.78.1 2.49 0 5-.01 7.53-.05 1.9-.01 3.81-.04 5.73-.09 6.63-.13 13.36-.37 20.11-.75 2.01-.12 4.02-.24 6.03-.39 7.14-.48 14.28-1.13 21.34-1.98 2.16-.25 4.31-.53 6.46-.82 7.51-1.03 14.91-2.29 22.08-3.83z" fill="#C21921"/><path fill-rule="evenodd" clip-rule="evenodd" d="M24.12 5.71L1.54 28.29c.25-2.11.51-4.25.78-6.42L18.85 5.34c1.69.12 3.45.24 5.27.37zm23.65 1.35L.59 54.24c-.23-.41-.37-.87-.4-1.36-.08-1.21-.14-2.4-.17-3.59v-.12L42.4 6.79c1.76.1 3.55.18 5.37.27zm24.25.75L22.35 57.48c-1.84-.12-3.6-.23-5.29-.35L66.49 7.7c1.82.05 3.67.08 5.53.11zm25.04-.04L46.15 58.68c-1.84-.07-3.65-.15-5.41-.23L91.33 7.86c1.9-.01 3.81-.04 5.73-.09zm26.14-1.14L70.27 59.56l-5.46-.18 52.36-52.36c2.01-.12 4.02-.24 6.03-.39zm27.8-2.8L94.59 60.24c-1.84-.05-3.67-.09-5.49-.15l55.44-55.44c2.16-.25 4.31-.53 6.46-.82zm22.03-2.67c-.15 2.25-.57 4.54-1.21 6.85l-52.78 52.78c-1.85-.03-3.7-.07-5.53-.11l59.52-59.52zM143.09 56.1c-.99 1.91-1.65 3.63-1.9 5.12l-3.16-.06 5.06-5.06z" fill="#9E1B1E"/></svg>