<svg width="264" height="135" fill="none" xmlns="http://www.w3.org/2000/svg"><path d="M262.84 75.48a95.58 95.58 0 01-.52 6.17v.01c-1.06 9.02-3.46 17.33-8.07 23.23-2.35 3.01-5.16 5.22-8.49 6.61-.06.03-.12.04-.22.08-.11.05-.21.09-.32.13-.06.03-.11.05-.17.07l-.04.01c-.04.01-.07.02-.11.04-.1.05-.2.09-.31.12-.05.03-.11.05-.17.06-.05.03-.11.04-.16.06-.14.04-.26.08-.4.14-2.49.77-5.24 1.18-8.29 1.18-1.54 0-3.24.03-5.09.1-1.83.06-3.81.16-5.93.28-5.95.34-13 .91-20.99 1.64-2.02.19-4.1.38-6.24.59-6.64.64-13.84 1.37-21.52 2.17-2.07.22-4.17.44-6.31.66-5.3.56-10.81 1.15-16.5 1.75-1.7.18-3.41.36-5.14.54-2.08.23-4.19.45-6.33.68-6.97.74-14.19 1.5-21.62 2.27-2.08.21-4.17.43-6.29.64-7 .72-14.18 1.45-21.51 2.16-2.07.21-4.16.41-6.27.62-6.99.66-14.12 1.33-21.34 1.99-2.06.18-4.12.36-6.2.55-6.97.61-14.02 1.21-21.13 1.78a2200.817 2200.817 0 01-27.03 2.03l-6.07.42c-1.35.08-2.71.17-4.06.26 2.74-10.53 11.19-22.44 20.89-36.44 3.75-5.41 7.69-11.14 11.56-17.21 7.42-11.63 14.58-24.55 19.69-39.04.95-2.7 1.83-5.45 2.62-8.27 2.14-7.5 3.67-15.4 4.38-23.73.18-1.98.3-3.99.37-6.02.05-1.26.08-2.53.09-3.81 1.18.06 2.36.12 3.53.19 1.79.09 3.58.19 5.36.29 6.12.36 12.19.74 18.19 1.16l5.26.39a1504.857 1504.857 0 0123.13 1.87c5.98.54 11.88 1.09 17.68 1.67 1.72.18 3.43.35 5.13.52 1.35.15 2.69.29 4.03.43l11.96 1.35c.47.05.95.11 1.42.16 1.7.2 3.38.4 5.05.6 5.94.71 11.68 1.42 17.21 2.14a1467.61 1467.61 0 0121.96 3.04c1.66.25 3.3.5 4.91.74 5.83.89 11.38 1.79 16.66 2.69 1.63.27 3.24.55 4.82.83 5.77 1.02 11.19 2.04 16.28 3.07 1.59.32 3.15.65 4.68.97 3.79.8 7.39 1.6 10.8 2.4l.18 1.9c.02.08.31 1.27.74 3.33.27 1.27.59 2.86.93 4.72.82 4.39 1.78 10.28 2.48 16.87.18 1.68.34 3.41.48 5.17.49 6.11.71 12.62.37 18.98z" fill="#C21921"/><path fill-rule="evenodd" clip-rule="evenodd" d="M68.49.48l-9.35 9.35c.18-1.98.3-3.99.37-6.02L63.13.19c1.79.09 3.58.19 5.36.29zm23.45 1.55l-39.8 39.8c.95-2.7 1.83-5.45 2.62-8.27L86.68 1.64l5.26.39zm23.13 1.87L20.89 98.08c3.75-5.41 7.69-11.14 11.56-17.21l77.42-77.42 5.2.45zm22.81 2.19L10.13 133.84l-6.07.42L132.75 5.57c1.72.18 3.43.35 5.13.52zm22.46 2.54L37.16 131.81c-2.04.17-4.09.33-6.14.49L155.29 8.03c1.7.2 3.38.4 5.05.6zm22.2 2.8L64.49 129.48c-2.06.18-4.12.36-6.2.55L177.55 10.77c1.68.22 3.35.44 4.99.66zm21.88 3.12L92.1 126.87c-2.07.21-4.16.41-6.27.62L199.51 13.81c1.66.25 3.3.5 4.91.74zm21.48 3.52l-106 106c-2.08.21-4.17.43-6.29.64L221.08 17.24c1.63.27 3.24.55 4.82.83zm20.96 4.04l-99.01 99.01c-2.08.23-4.19.45-6.33.68L242.18 21.14c1.59.32 3.15.65 4.68.97zm12.65 12.35l-83.71 83.71c-2.07.22-4.17.44-6.31.66l89.09-89.09c.27 1.27.59 2.86.93 4.72zm2.96 22.04l-58.91 58.91c-2.02.19-4.1.38-6.24.59l64.67-64.67c.18 1.68.34 3.41.48 5.17zm.37 18.98a95.58 95.58 0 01-.52 6.17v.01l-31.84 31.83c-1.83.06-3.81.16-5.93.28l38.29-38.29z" fill="#9E1B1E"/></svg>