<svg width="264" height="135" viewBox="0 0 264 135" fill="none" xmlns="http://www.w3.org/2000/svg">
<path d="M262.84 75.48C262.73 77.56 262.56 79.62 262.32 81.65V81.66C261.26 90.68 258.86 98.99 254.25 104.89C251.9 107.9 249.09 110.11 245.76 111.5C245.7 111.53 245.64 111.54 245.54 111.58C245.43 111.63 245.33 111.67 245.22 111.71C245.16 111.74 245.11 111.76 245.05 111.78L245.01 111.79C244.97 111.8 244.94 111.81 244.9 111.83C244.8 111.88 244.7 111.92 244.59 111.95C244.54 111.98 244.48 112 244.42 112.01C244.37 112.04 244.31 112.05 244.26 112.07C244.12 112.11 244 112.15 243.86 112.21C241.37 112.98 238.62 113.39 235.57 113.39C234.03 113.39 232.33 113.42 230.48 113.49C228.65 113.55 226.67 113.65 224.55 113.77C218.6 114.11 211.55 114.68 203.56 115.41C201.54 115.6 199.46 115.79 197.32 116C190.68 116.64 183.48 117.37 175.8 118.17C173.73 118.39 171.63 118.61 169.49 118.83C164.19 119.39 158.68 119.98 152.99 120.58C151.29 120.76 149.58 120.94 147.85 121.12C145.77 121.35 143.66 121.57 141.52 121.8C134.55 122.54 127.33 123.3 119.9 124.07C117.82 124.28 115.73 124.5 113.61 124.71C106.61 125.43 99.43 126.16 92.1 126.87C90.03 127.08 87.94 127.28 85.83 127.49C78.84 128.15 71.71 128.82 64.49 129.48C62.43 129.66 60.37 129.84 58.29 130.03C51.32 130.64 44.27 131.24 37.16 131.81C35.12 131.98 33.07 132.14 31.02 132.3C24.1 132.84 17.14 133.36 10.13 133.84C8.11 133.98 6.09 134.12 4.06 134.26C2.71 134.34 1.35 134.43 0 134.52C2.74 123.99 11.19 112.08 20.89 98.08C24.64 92.67 28.58 86.94 32.45 80.87C39.87 69.24 47.03 56.32 52.14 41.83C53.09 39.13 53.97 36.38 54.76 33.56C56.9 26.06 58.43 18.16 59.14 9.83C59.32 7.85 59.44 5.84 59.51 3.81001C59.56 2.55001 59.59 1.28 59.6 0C60.78 0.06 61.96 0.120002 63.13 0.190002C64.92 0.280002 66.71 0.380003 68.49 0.480003C74.61 0.840003 80.68 1.22 86.68 1.64C88.44 1.77 90.19 1.9 91.94 2.03C97.99 2.47 103.97 2.95 109.87 3.45C111.61 3.6 113.34 3.75 115.07 3.9C121.05 4.44 126.95 4.99 132.75 5.57C134.47 5.75 136.18 5.92 137.88 6.09C139.23 6.24 140.57 6.38 141.91 6.52L153.87 7.87C154.34 7.92 154.82 7.98 155.29 8.03C156.99 8.23 158.67 8.43001 160.34 8.63C166.28 9.34 172.02 10.05 177.55 10.77C179.23 10.99 180.9 11.21 182.54 11.43C188.44 12.22 194.09 13.02 199.51 13.81C201.17 14.06 202.81 14.31 204.42 14.55C210.25 15.44 215.8 16.34 221.08 17.24C222.71 17.51 224.32 17.79 225.9 18.07C231.67 19.09 237.09 20.11 242.18 21.14C243.77 21.46 245.33 21.79 246.86 22.11C250.65 22.91 254.25 23.71 257.66 24.51L257.84 26.41C257.86 26.49 258.15 27.68 258.58 29.74C258.85 31.01 259.17 32.6 259.51 34.46C260.33 38.85 261.29 44.74 261.99 51.33C262.17 53.01 262.33 54.74 262.47 56.5C262.96 62.61 263.18 69.12 262.84 75.48Z" fill="#C21921"/>
<path fill-rule="evenodd" clip-rule="evenodd" d="M68.4901 0.479942L59.1401 9.82994C59.3201 7.84994 59.4401 5.83994 59.5101 3.80994L63.1301 0.189941C64.9201 0.279941 66.7101 0.379942 68.4901 0.479942Z" fill="#9E1B1E"/>
<path fill-rule="evenodd" clip-rule="evenodd" d="M91.9401 2.02989L52.1401 41.8299C53.0901 39.1299 53.9701 36.3799 54.7601 33.5599L86.6801 1.63989C88.4401 1.76989 90.1901 1.89989 91.9401 2.02989Z" fill="#9E1B1E"/>
<path fill-rule="evenodd" clip-rule="evenodd" d="M115.07 3.89995L20.8901 98.0799C24.6401 92.6699 28.5801 86.9399 32.4501 80.8699L109.87 3.44995C111.61 3.59995 113.34 3.74995 115.07 3.89995Z" fill="#9E1B1E"/>
<path fill-rule="evenodd" clip-rule="evenodd" d="M137.88 6.08983L10.1301 133.84C8.11007 133.98 6.09006 134.12 4.06006 134.26L132.75 5.56982C134.47 5.74982 136.18 5.91983 137.88 6.08983Z" fill="#9E1B1E"/>
<path fill-rule="evenodd" clip-rule="evenodd" d="M160.34 8.63004L37.16 131.81C35.12 131.98 33.07 132.14 31.02 132.3L155.29 8.03003C156.99 8.23003 158.67 8.43004 160.34 8.63004Z" fill="#9E1B1E"/>
<path fill-rule="evenodd" clip-rule="evenodd" d="M182.54 11.43L64.4901 129.48C62.4301 129.66 60.37 129.84 58.29 130.03L177.55 10.77C179.23 10.99 180.9 11.21 182.54 11.43Z" fill="#9E1B1E"/>
<path fill-rule="evenodd" clip-rule="evenodd" d="M204.42 14.5501L92.1 126.87C90.03 127.08 87.9401 127.28 85.8301 127.49L199.51 13.8101C201.17 14.0601 202.81 14.3101 204.42 14.5501Z" fill="#9E1B1E"/>
<path fill-rule="evenodd" clip-rule="evenodd" d="M225.9 18.07L119.9 124.07C117.82 124.28 115.73 124.5 113.61 124.71L221.08 17.24C222.71 17.51 224.32 17.79 225.9 18.07Z" fill="#9E1B1E"/>
<path fill-rule="evenodd" clip-rule="evenodd" d="M246.86 22.1099L147.85 121.12C145.77 121.35 143.66 121.57 141.52 121.8L242.18 21.1399C243.77 21.4599 245.33 21.7899 246.86 22.1099Z" fill="#9E1B1E"/>
<path fill-rule="evenodd" clip-rule="evenodd" d="M259.51 34.46L175.8 118.17C173.73 118.39 171.63 118.61 169.49 118.83L258.58 29.74C258.85 31.01 259.17 32.6 259.51 34.46Z" fill="#9E1B1E"/>
<path fill-rule="evenodd" clip-rule="evenodd" d="M262.47 56.4998L203.56 115.41C201.54 115.6 199.46 115.79 197.32 116L261.99 51.3298C262.17 53.0098 262.33 54.7398 262.47 56.4998Z" fill="#9E1B1E"/>
<path fill-rule="evenodd" clip-rule="evenodd" d="M262.84 75.48C262.73 77.56 262.56 79.62 262.32 81.65V81.66L230.48 113.49C228.65 113.55 226.67 113.65 224.55 113.77L262.84 75.48Z" fill="#9E1B1E"/>
</svg>
