<svg width="136" height="113" fill="none" xmlns="http://www.w3.org/2000/svg"><path d="M135.837 86.297c0 1.89-.04 3.82-.12 5.77-.23 5.65-.74 11.54-1.55 17.68-3.43.36-9.66.96-17.68 1.55-1.92.14-3.95.28-6.07.42-6.13.39-13.02.75-20.34.99-1.91.07-3.84.12-5.81.16-6.3.14-12.84.18-19.42.07-1.84-.03-3.68-.07-5.52-.13-6.17-.18-12.33-.52-18.31-1.04-1.73-.15-3.45-.32-5.15-.5-5.87-.64-11.52-1.48-16.78-2.57-1.58-.32-3.11-.66-4.61-1.04-4.3-1.05-8.28-2.29-11.83-3.75-.19-1.08-.36-2.16-.53-3.24-.25-1.66-.48-3.31-.69-4.96-.78-6.13-1.24-12.14-1.38-17.97-.05-1.9-.06-3.77-.03-5.62.1-7.46.75-14.59 1.95-21.3.44-2.46.95-4.86 1.54-7.19 2.26-9.02 5.64-17.1 10.12-23.95 8.22-12.58 19.44-19.36 32.46-19.64.34-.01.68-.01 1.03-.02 1.76-.03 3.63-.02 5.62.03 5.29.14 11.31.63 17.63 1.72 1.56.27 3.14.58 4.73.92 4.89 1.08 9.9 2.54 14.83 4.52 1.32.53 2.64 1.09 3.95 1.7 4.21 1.95 8.32 4.29 12.23 7.12 1.08.78 2.14 1.6 3.19 2.46 3.43 2.82 6.66 6.05 9.6 9.75.46.56.9 1.14 1.33 1.72.37.5.73 1 1.09 1.51 2.67 3.82 4.98 7.97 6.91 12.44a62.69 62.69 0 011.62 4.03c1.75 4.75 3.12 9.83 4.11 15.24.29 1.6.54 3.22.77 4.88.78 5.74 1.15 11.82 1.11 18.24z" fill="#C21921"/><path fill-rule="evenodd" clip-rule="evenodd" d="M52.737.047l-50.77 50.77c.44-2.46.95-4.86 1.54-7.19L47.117.017c1.76-.03 3.63-.02 5.62.03zm22.36 2.64L.047 77.737c-.05-1.9-.06-3.77-.03-5.62l70.35-70.35c1.56.27 3.14.58 4.73.92zm18.78 6.22l-91.76 91.76c-.25-1.66-.48-3.31-.69-4.96l88.5-88.5c1.32.53 2.64 1.09 3.95 1.7zm15.42 9.58l-90.21 90.21c-1.58-.32-3.11-.66-4.61-1.04l91.63-91.63c1.08.78 2.14 1.6 3.19 2.46zm12.02 12.98l-80.3 80.3c-1.73-.15-3.45-.32-5.15-.5l83.03-83.03c.46.56.9 1.14 1.33 1.72.37.5.73 1 1.09 1.51zm8.53 16.47l-65 65c-1.84-.03-3.68-.07-5.52-.13l68.9-68.9a62.69 62.69 0 011.62 4.03zm4.88 20.12l-44.65 44.65c-1.91.07-3.84.12-5.81.16l49.69-49.69c.29 1.6.54 3.22.77 4.88zm1.11 18.24c0 1.89-.04 3.82-.12 5.77l-19.23 19.23c-1.92.14-3.95.28-6.07.42l25.42-25.42z" fill="#9E1B1E"/></svg>