<svg width="79" height="107" fill="none" xmlns="http://www.w3.org/2000/svg"><path d="M70.54 106.42c-.32.01-.64.02-.98.02-4.86 0-11.06.45-17.71-.69-1.51-.26-3.05-.6-4.6-1.04a37.604 37.604 0 01-12.81-6.55c-1.01-.8-2.02-1.67-3.02-2.62-.79-.74-1.57-1.54-2.35-2.39h-1.98v5.81h-6.46c-1.44 0-4.08-1.88-6.94-5.05-.83-.92-1.69-1.96-2.54-3.1-2.57-3.4-5.09-7.68-6.93-12.43-.54-1.37-1.01-2.78-1.41-4.23-.9-3.21-1.44-6.57-1.44-9.97V35.9c0-1-.05-2.53-.25-4.42a48.54 48.54 0 00-.74-4.9c-.12-.54-.24-1.09-.38-1.65.73-.03 1.45-.08 2.16-.13 2.26-.17 4.42-.46 6.48-.84C28.24 20.34 38.91 8 43.92 0c.06 2.72.14 5.31.26 7.78.08 1.85.18 3.63.29 5.35.43 6.7 1.06 12.45 1.83 17.53.25 1.68.52 3.29.8 4.84 1.08 5.94 2.35 10.97 3.69 15.67.42 1.48.85 2.93 1.27 4.37.77 2.58 1.55 5.12 2.31 7.73 0 0 1.06 2.68 2.83 6.49.54 1.18 1.15 2.47 1.82 3.82 1.96 3.96 4.41 8.44 7.06 12.3a50.24 50.24 0 002.41 3.23c1.38 1.7 2.8 3.16 4.22 4.22 2.67 1.99 4.39 3.94 5.22 5.7 1.92 4.05-.84 7.12-7.39 7.39z" fill="#C21921"/><path fill-rule="evenodd" clip-rule="evenodd" d="M8.64 23.96l-7.52 7.52a48.54 48.54 0 00-.74-4.9l1.78-1.78c2.26-.17 4.42-.46 6.48-.84zm35.83-10.83l-43.1 43.1v-5.64L44.18 7.78c.08 1.85.18 3.63.29 5.35zM47.1 35.5L4.22 78.38c-.54-1.37-1.01-2.78-1.41-4.23L46.3 30.66c.25 1.68.52 3.29.8 4.84zm4.96 20.04L13.69 93.91c-.83-.92-1.69-1.96-2.54-3.1l39.64-39.64c.42 1.48.85 2.93 1.27 4.37zm6.96 18.04L34.44 98.16c-1.01-.8-2.02-1.67-3.02-2.62L57.2 69.76c.54 1.18 1.15 2.47 1.82 3.82zm9.47 15.53l-16.64 16.64c-1.51-.26-3.05-.6-4.6-1.04l18.83-18.83a50.24 50.24 0 002.41 3.23zm2.05 17.31l7.39-7.39c1.92 4.05-.84 7.12-7.39 7.39z" fill="#A51B1E"/></svg>