<svg width="238" height="275" fill="none" xmlns="http://www.w3.org/2000/svg"><path d="M237.288 116.01c0 1.93-.04 3.85-.11 5.77-.24 6.98-.82 13.89-1.62 20.96-.24 2.13-.5 4.27-.77 6.43-.9 7.16-1.97 14.55-3.06 22.4-.31 2.15-.61 4.34-.91 6.57-.93 6.92-1.86 14.21-2.69 22.03-.22 2.06-.431 4.15-.631 6.29-.55 5.71-1.03 11.69-1.429 18-4.241-1.49-9.091-2.18-14.38-2.19-1.911-.01-3.88.08-5.91.25-7.47.59-15.62 2.29-24.07 4.73-2.72.78-5.47 1.65-8.241 2.58-10.839 3.62-21.929 8.25-32.489 13.15-3.71 1.72-7.361 3.48-10.901 5.24-19.26 9.57-35.57 19.25-43.38 24.04a333.05 333.05 0 00-4.35 2.7c-.45-.84-.9-1.72-1.37-2.64-1.93-3.82-4.01-8.28-6.15-13.19-.56-1.29-1.13-2.61-1.7-3.96-1.83-4.35-3.69-8.98-5.53-13.81-.51-1.36-1.03-2.73-1.54-4.12-1.72-4.67-3.41-9.48-5.01-14.33-.48-1.42-.94-2.84-1.39-4.27-1.6-4.98-3.09-9.99-4.43-14.91-.42-1.49-.81-2.98-1.2-4.46-1.4-5.46-2.61-10.77-3.54-15.8-.31-1.64-.59-3.26-.83-4.83-.89-5.7-1.38-10.94-1.34-15.49 0-.83.02-1.69.05-2.56.07-1.94.21-3.98.39-6.05.64-7.35 1.82-15.24 2.26-21.6.11-1.58.17-3.05.17-4.41-.76.46-1.66.89-2.68 1.26-5.03 1.87-12.99 2.65-21.02 1.68-1.63-.19-3.26-.45-4.87-.79-5.02-1.08-9.83-2.89-13.72-5.62-1.11-.78-2.15-1.64-3.09-2.57-3.44-3.41-5.65-7.86-5.8-13.54-.01-.39-.01-.79 0-1.19 0-7.29 3.79-6.79 5.14-6.79.27 0 .71.58 1.34 1.5 1.67 2.46 4.65 7.38 9.2 10.14 1.22.74 2.55 1.33 4 1.66.91.22 1.87.34 2.87.34 3.17 0 3.65-4.49 14.59-4.49 0-1.06-3.07-3.52-6.46-6.84-.93-.9-1.87-1.87-2.78-2.89-3.21-3.57-6.01-7.81-6.01-12.23 0-.37.01-.75.03-1.13.07-2.16.4-4.45 1.04-6.7 1.86-6.66 6.41-13.03 15.28-15.28 1.95-.5 4.11-.79 6.5-.84.28-.02.56-.02.85-.02 6.61 0 12.13.89 16.77 1.74 1.71.32 3.3.63 4.78.88 5.6.99 9.61 1.25 12.57-1.72-.26-.88 12.5-12.89 35.51-27.02 4.16-2.56 8.67-5.19 13.49-7.83a332.032 332.032 0 0136.601-17.26c2.98-1.18 6.03-2.35 9.14-3.48 8.88-3.24 18.289-6.24 28.179-8.84.83-.23 1.681-.44 2.521-.66.41.87.82 1.73 1.22 2.58 2.149 4.58 4.17 9 6.06 13.28.58 1.33 1.15 2.65 1.71 3.95 2.05 4.74 3.92 9.3 5.64 13.7.539 1.38 1.07 2.74 1.58 4.08 1.87 4.96 3.55 9.71 5.05 14.29.47 1.45.92 2.88 1.36 4.3 1.63 5.27 3.02 10.31 4.18 15.16.38 1.55.73 3.09 1.06 4.6 1.25 5.73 2.18 11.2 2.86 16.48a177.898 177.898 0 011.41 23.59z" fill="#C21921"/><path fill-rule="evenodd" clip-rule="evenodd" d="M6.487 102.47l-6.48 6.48c-.01-.39-.01-.79 0-1.19 0-7.29 3.79-6.79 5.14-6.79.27 0 .71.58 1.34 1.5zm38.261-38.26l-22.82 22.82c.07-2.16.4-4.45 1.04-6.7l15.28-15.28c1.95-.5 4.11-.79 6.5-.84zm-29.06 48.4c1.22.74 2.55 1.33 4 1.66l-10.79 10.79c-1.11-.78-2.15-1.64-3.09-2.57l9.88-9.88zm51.459-45.8l-36.46 36.47c-.93-.9-1.87-1.87-2.78-2.89l34.46-34.46c1.71.32 3.3.63 4.78.88zm61.57-36.57L27.487 131.47c-1.63-.19-3.26-.45-4.87-.79l92.61-92.61c4.16-2.56 8.67-5.19 13.49-7.83zm-77.699 102.7c.11-1.58.17-3.05.17-4.41-.76.46-1.66.89-2.68 1.26l116.81-116.81c2.98-1.18 6.03-2.35 9.14-3.48L51.018 132.94zM206.377 2.58L48.367 160.59c.07-1.94.21-3.98.39-6.05L202.637.66c.83-.23 1.68-.44 2.52-.66.41.87.82 1.73 1.22 2.58zm7.77 17.23L50.487 183.47c-.31-1.64-.59-3.26-.83-4.83l162.78-162.78c.58 1.33 1.15 2.65 1.71 3.95zm7.221 17.78L55.228 203.73c-.42-1.49-.81-2.98-1.2-4.46l165.76-165.76c.54 1.38 1.07 2.74 1.58 4.08zm6.409 18.59L61.047 222.91c-.48-1.42-.94-2.84-1.39-4.27l166.76-166.76c.47 1.45.92 2.88 1.36 4.3zm5.241 19.76L67.598 241.36c-.51-1.36-1.03-2.73-1.54-4.12l165.9-165.9c.38 1.55.73 3.09 1.06 4.6zm3.429 21.57L74.827 259.13c-.56-1.29-1.13-2.61-1.7-3.96l162.75-162.75c.21 1.72.41 3.41.57 5.09zm.841 18.5c0 1.93-.04 3.85-.11 5.77L86.698 272.26a333.05 333.05 0 00-4.35 2.7c-.45-.84-.9-1.72-1.37-2.64l156.31-156.31zm-1.731 26.73c-.24 2.13-.5 4.27-.77 6.43l-93.81 93.81a444.41 444.41 0 00-10.9 5.24l105.48-105.48zm-3.829 28.83c-.31 2.15-.61 4.34-.91 6.57l-49.11 49.11c-2.72.78-5.47 1.65-8.24 2.58l58.26-58.26zm-3.6 28.6c-.22 2.06-.43 4.15-.63 6.29l-15.81 15.81c-1.91-.01-3.88.08-5.91.25l22.35-22.35z" fill="#9E1B1E"/></svg>