<svg width="249" height="145" fill="none" xmlns="http://www.w3.org/2000/svg"><path d="M248.29 0l-17.81 8.62c-.06.03-.12.06-.18.1l-4.33 2.44-12.93 7.28-19.57 11.02-.24.15c-10.43 7.08-19.23 14.6-24.32 22.21-.04.06-.09.13-.14.19a63.787 63.787 0 00-4.22 5.73c-3.47 5.3-6.32 11.25-8.56 17.75-.9 2.6-1.7 5.28-2.4 8.05-.78 3.05-1.44 6.2-1.98 9.43l-1.25 9.67c-.12 1.25-.22 2.51-.3 3.78-.14 1.96-.23 3.94-.29 5.94-.16 6.08.02 12.37.55 18.8.14 1.7.31 3.41.51 5.14.15 1.46.33 2.92.53 4.39.26 1.92-1.22 3.64-3.16 3.63-1.45-.01-3.25-.02-5.36-.03a18949.525 18949.525 0 01-24.85-.15c-1.81-.02-3.68-.03-5.6-.05-5.92-.04-12.35-.1-19.19-.16-1.83-.01-3.7-.03-5.6-.05-6.12-.06-12.53-.12-19.15-.2-1.85-.01-3.71-.04-5.59-.06-6.22-.07-12.61-.14-19.12-.23-1.84-.02-3.7-.05-5.57-.08-6.29-.08-12.66-.17-19.08-.27l-5.56-.09c-4.5-.07-9.02-.15-13.53-.23.48-2.92 2.59-6.71 5.51-11.1 3.7-5.56 8.7-12.08 13.36-19.01 6.77-10.06 12.8-20.99 13.02-31.11 5.2-1.11 10.29-2.37 15.22-3.78 3.2-.92 6.38-1.88 9.52-2.87 2.84-.9 5.66-1.83 8.44-2.79 11.56-3.98 22.55-8.43 32.54-13.19 4-1.9 7.84-3.85 11.49-5.84a191.997 191.997 0 0010.02-5.84c2.47-1.55 4.96-3.06 7.49-4.49 9.8-5.53 18.8-12.39 26.8-20.3l10.3-10.18a3.2 3.2 0 011.88-.9c1.46-.16 3.21-.38 5.2-.63 1.96-.25 4.15-.54 6.51-.86 6.52-.89 14.39-2.01 22.53-3.17 2.18-.32 4.39-.64 6.6-.96 7.86-1.13 15.69-2.26 22.57-3.22 2.3-.32 4.5-.62 6.55-.9C241.06.83 245.54.27 248.29 0z" fill="#C21921"/><path fill-rule="evenodd" clip-rule="evenodd" d="M65.07 72.06L5.51 131.62c3.7-5.56 8.7-12.08 13.36-19.01l37.76-37.76c2.84-.9 5.66-1.83 8.44-2.79zm44.03-19.03l-90.01 90.01-5.56-.09 84.08-84.08c4-1.9 7.84-3.85 11.49-5.84zm68.2-43.2L43.74 143.39c-1.84-.02-3.7-.05-5.57-.08L170.79 10.69c1.96-.25 4.15-.54 6.51-.86zm29.13-4.13L68.45 143.68c-1.85-.01-3.71-.04-5.59-.06L199.83 6.66c2.18-.32 4.39-.64 6.6-.96zM87.6 143.88l68.39-68.39c-.9 2.6-1.7 5.28-2.4 8.05L93.2 143.93c-1.83-.01-3.7-.03-5.6-.05zM235.55 1.58l-9.58 9.58-12.93 7.28L229 2.48c2.3-.32 4.5-.62 6.55-.9zm-85.49 104.84c-.14 1.96-.23 3.94-.29 5.94l-31.78 31.78c-1.81-.02-3.68-.03-5.6-.05l37.67-37.67zm.77 29.88l-7.99 7.99c-1.68-.01-3.56-.02-5.62-.03l13.1-13.1c.14 1.7.31 3.41.51 5.14z" fill="#9E1B1E"/></svg>