<svg width="129" height="134" fill="none" xmlns="http://www.w3.org/2000/svg"><path d="M128.49 4.84c-.79 4.68-1.32 9.62-1.88 14.73l-.15 1.37c0 .01-.02.03-.02.07-.55 1.99-1.07 3.97-1.55 5.94-1.99 8.08-3.38 15.92-4.12 23.46-.08.81-.15 1.61-.21 2.41 0 0-.99 2.17-2.43 5.89-2.31 5.98-5.76 15.97-8.05 27.39-.46 2.24-.87 4.54-1.21 6.87-.32 2.15-.59 4.33-.79 6.53v.01c-.47 1.2-13.35 28.2-39.28 33.53-2.09.44-4.26.72-6.51.85-.41.02-.81.04-1.22.05-1.74-3.62-4.19-7.15-7.68-10-.09-.07-.18-.15-.27-.22-.92-.78-1.88-1.7-2.88-2.78-2.54-2.7-5.34-6.36-8.37-10.97-.73-1.09-1.46-2.24-2.21-3.45-2.24-3.61-4.6-7.7-7.05-12.29-.65-1.2-1.3-2.44-1.95-3.71-2.07-3.99-4.2-8.31-6.38-12.96a507.4 507.4 0 01-7.7-17.3c-.56-1.3-1.11-2.63-1.68-3.98a755.79 755.79 0 01-5.55-13.79c-.46-1.21-.94-2.43-1.41-3.67-.06-.14-.11-.28-.16-.42-1.97-4.91-3.18-10.06-4.1-15.24-.28-1.63-.54-3.26-.78-4.88C2.05 12.57 1.38 6.89.31 1.53.22 1.02.11.51 0 0c.46.15.92.3 1.39.45 4.78 1.51 10.03 2.75 15.6 3.74 1.59.29 3.21.56 4.86.8 5.59.85 11.43 1.49 17.4 1.94 1.76.14 3.52.26 5.3.36 6.2.38 12.48.58 18.69.65 1.75.02 3.5.03 5.24.03h.39c6.79-.01 13.44-.15 19.73-.39 2-.07 3.97-.16 5.9-.24 7.71-.37 14.74-.84 20.65-1.31 2.22-.17 4.29-.34 6.17-.51 2.82-.25 5.24-.48 7.17-.68z" fill="#C21921"/><path fill-rule="evenodd" clip-rule="evenodd" d="M1.39.45L.31 1.53C.22 1.02.11.51 0 0c.46.15.92.3 1.39.45zm20.46 4.54L3.68 23.16c-.28-1.63-.54-3.26-.78-4.88L16.99 4.19c1.59.29 3.21.56 4.86.8zm22.7 2.3l-35.2 35.2c-.46-1.21-.94-2.43-1.41-3.67-.06-.14-.11-.28-.16-.42L39.25 6.93c1.76.14 3.52.26 5.3.36zm24.32.68L16.58 60.26c-.56-1.3-1.11-2.63-1.68-3.98L63.24 7.94c1.75.02 3.5.03 5.24.03h.39zm25.63-.63L24.28 77.56c-.59-1.26-1.19-2.55-1.79-3.87L88.6 7.58c2-.07 3.97-.16 5.9-.24zm26.82-1.82L32.61 94.23c-.65-1.2-1.3-2.44-1.95-3.71l84.49-84.49c2.22-.17 4.29-.34 6.17-.51zm5.29 14.05l-.15 1.37c0 .01-.02.03-.02.07-.55 1.99-1.07 3.97-1.55 5.94l-83.02 83.02c-.73-1.09-1.46-2.24-2.21-3.45l86.95-86.95zm-5.84 30.84c-.08.81-.15 1.61-.21 2.41 0 0-.99 2.17-2.43 5.89l-65.01 65.01c-.92-.78-1.88-1.7-2.88-2.78l70.53-70.53zM110.08 86.1c-.46 2.24-.87 4.54-1.21 6.87L68.8 133.04c-2.09.44-4.26.72-6.51.85l47.79-47.79z" fill="#A51B1E"/></svg>