<svg width="205" height="238" fill="none" xmlns="http://www.w3.org/2000/svg"><path d="M204.61 66.73c-12.55 17.29-25.54 35.63-38.16 54.45-3.68 5.49-7.33 11.01-10.92 16.57-5.56 8.58-11 17.24-16.23 25.9l-4.87 8.17c-2.94 4.99-5.8 9.98-8.58 14.96-2.31 4.14-4.56 8.26-6.73 12.38-6.65 12.55-12.66 24.98-17.8 37.15-.13.3-.26.59-.38.89.01-.18.03-.37.04-.55.5-6.88.61-13.44.33-19.68-.08-1.8-.19-3.57-.34-5.31-.48-5.9-1.33-11.49-2.56-16.79-.35-1.53-.73-3.03-1.15-4.5-1.39-4.99-3.14-9.7-5.24-14.11-.6-1.27-1.23-2.52-1.9-3.75a74.728 74.728 0 00-5.81-9.13c-.63-.85-1.27-1.67-1.93-2.48-.85-1.05-1.72-2.06-2.61-3.04a72.194 72.194 0 00-10.12-9.23c-1.09-.82-2.19-1.61-3.3-2.35-4.03-2.72-8.22-4.99-12.47-6.88-1.32-.6-2.65-1.15-3.98-1.67-4.95-1.94-9.96-3.4-14.85-4.5-1.58-.35-3.15-.67-4.7-.95-6.18-1.12-12.09-1.69-17.42-1.93-1.92-.09-3.76-.13-5.51-.14-1.33-.01-2.6 0-3.81.03-1.22.03-2.41.11-3.61.22 5.51-3.6 11.48-7.1 17.59-10.42 3.89-2.12 7.84-4.16 11.76-6.11 1.55-.77 3.1-1.53 4.64-2.27 11.59-4.31 21.11-8.24 28.39-11.41 4.21-1.84 7.66-3.43 10.33-4.68 3.49-1.65 5.64-2.74 6.36-3.11.08-.04.14-.08.2-.09.02 0 .04-.02.06-.05 4.52-1.87 8.39-4.9 11.56-8.97 2.78-3.56 4.89-7.78 6.45-12.41.83-2.46 1.51-5.04 2.06-7.71 1.39-6.79 1.92-14.09 1.91-21.26 0-1.86-.04-3.71-.11-5.54-.24-6.33-.83-12.42-1.54-17.81A215.02 215.02 0 0096.41 0c4.94 1.22 9.19 2.4 12.7 3.52 1.56.49 2.97.96 4.23 1.42.55.2 1.06.4 1.55.59 4.16 1.63 8.08 3.4 11.87 5.34 1.24.63 2.47 1.29 3.69 1.96 4.07 2.24 8.03 4.68 12.01 7.34 1.11.74 2.23 1.51 3.35 2.3 3.64 2.52 7.34 5.23 11.2 8.15a460 460 0 013.21 2.44c3.47 2.65 7.08 5.46 10.91 8.44 1.05.81 2.11 1.63 3.19 2.46 3.45 2.68 7.08 5.48 10.93 8.42 1.06.79 2.13 1.61 3.22 2.43 3.5 2.64 7.19 5.39 11.1 8.25 1.06.77 2.14 1.56 3.23 2.35.01.01.03.02.04.03.58.43 1.18.85 1.77 1.29z" fill="#C21921"/><path fill-rule="evenodd" clip-rule="evenodd" d="M113.34 4.94L99.66 18.62c-.22-1.73-.46-3.38-.7-4.95l10.15-10.15c1.56.49 2.97.96 4.23 1.42zm-95.75 115.1c3.89-2.12 7.84-4.16 11.76-6.11l-16.42 16.42c-1.92-.09-3.76-.13-5.51-.14l10.17-10.17zM130.45 12.83l-29.14 29.14c0-1.86-.04-3.71-.11-5.54l25.56-25.56c1.24.63 2.47 1.29 3.69 1.96zm-68.07 87.42c4.21-1.84 7.66-3.43 10.33-4.68l-37.66 37.66c-1.58-.35-3.15-.67-4.7-.95l32.03-32.03zm83.43-77.78L97.34 70.94c.83-2.46 1.51-5.04 2.06-7.71l43.06-43.06c1.11.74 2.23 1.51 3.35 2.3zm14.41 10.59L53.88 139.4c-1.32-.6-2.65-1.15-3.98-1.67L157.01 30.62a460 460 0 013.21 2.44zm14.1 10.9L69.65 148.63c-1.09-.82-2.19-1.61-3.3-2.35L171.13 41.5c1.05.81 2.11 1.63 3.19 2.46zm14.15 10.85L82.38 160.9c-.85-1.05-1.72-2.06-2.61-3.04L185.25 52.38c1.06.79 2.13 1.61 3.22 2.43zm14.37 10.63L92.02 176.26c-.6-1.27-1.23-2.52-1.9-3.75L199.57 63.06c1.06.77 2.14 1.56 3.23 2.35.01.01.03.02.04.03zm-36.39 55.74c-3.68 5.49-7.33 11.01-10.92 16.57l-57.12 57.12c-.35-1.53-.73-3.03-1.15-4.5l69.19-69.19zm-40.6 65.6c-2.31 4.14-4.56 8.26-6.73 12.38l-17.81 17.81c-.08-1.8-.19-3.57-.34-5.31l24.88-24.88zm-24.53 49.53c-.13.3-.26.59-.38.89.01-.18.03-.37.04-.55l.34-.34z" fill="#9E1B1E"/></svg>