<svg width="100" height="87" viewBox="0 0 100 87" fill="none" xmlns="http://www.w3.org/2000/svg">
<path d="M99.9399 17.0239C99.9699 18.5839 99.9199 20.2139 99.7799 21.8939C99.7199 22.5339 99.66 23.1839 99.58 23.8439C99.47 24.7039 99.35 25.5739 99.21 26.4539C99.1 27.1239 98.97 27.8039 98.84 28.4839C98.23 31.5839 97.3799 34.7839 96.3099 38.0139C96.1499 38.4939 95.9899 38.9639 95.8199 39.4439L95.8099 39.4539C95.6799 39.8439 95.5399 40.224 95.4099 40.604C95.1899 41.194 94.96 41.7939 94.73 42.3939C94.69 42.4939 94.65 42.5939 94.61 42.6939C94.31 43.4539 93.9999 44.2039 93.6799 44.9639C93.6599 45.0039 93.64 45.054 93.62 45.104C93.32 45.814 92.9999 46.5339 92.6699 47.2439C92.6599 47.2839 92.64 47.3239 92.62 47.3639C92.61 47.3839 92.6 47.4039 92.59 47.4239C92.36 47.9239 92.12 48.4339 91.88 48.9339C91.85 48.9939 91.8299 49.044 91.7999 49.104L91.7899 49.1139C91.5699 49.5739 91.34 50.0339 91.11 50.4939C90.85 51.0139 90.5799 51.5339 90.3099 52.0439C88.9499 54.6139 87.47 57.1439 85.87 59.5739C85.55 60.0639 85.2199 60.5439 84.8899 61.0239C84.5399 61.5539 84.1699 62.0639 83.7999 62.5739C83.4999 63.0039 83.18 63.434 82.86 63.854C82.52 64.314 82.1699 64.774 81.8099 65.224C81.4499 65.684 81.09 66.1239 80.73 66.5639C80.37 67.0039 80.0099 67.4339 79.6399 67.8639C78.8599 68.7739 78.06 69.6539 77.24 70.5039C76.89 70.8739 76.5299 71.2439 76.1599 71.6139C75.7799 71.9939 75.39 72.3639 75 72.7339C73.7 73.9739 72.36 75.1439 70.98 76.2139C70.63 76.4939 70.2899 76.7539 69.9399 77.0139C69.5299 77.3239 69.12 77.6139 68.71 77.9039C68.64 77.9639 68.57 78.0139 68.5 78.0539C68.2 78.2639 67.89 78.464 67.58 78.664C66.23 79.564 64.8399 80.3839 63.4299 81.0939C63.0599 81.284 62.6899 81.4739 62.3099 81.6439C62.2699 81.6639 62.2299 81.6839 62.1899 81.7039C61.9499 81.8239 61.7 81.9339 61.45 82.0439C61.18 82.1639 60.9099 82.2839 60.6399 82.3839C60.0399 82.6439 59.4299 82.8739 58.8099 83.0939C58.5499 83.1939 58.2899 83.274 58.0299 83.354C57.7999 83.434 57.5599 83.5139 57.3199 83.5839C56.8899 83.7139 56.4599 83.8339 56.0299 83.9539C54.3499 84.3839 52.6499 84.694 50.9199 84.854C50.7299 84.874 50.55 84.8839 50.36 84.9039C50.01 84.9339 49.6599 84.9739 49.3199 85.0039C44.2499 85.4739 39.5799 85.8839 35.3099 86.1839C34.5599 86.2339 33.82 86.2839 33.09 86.3339C31.81 86.4039 30.58 86.4739 29.38 86.5239C29.06 86.5339 28.7399 86.5439 28.4199 86.5639C28.3099 86.5639 28.2 86.5739 28.09 86.5739C27.17 86.6039 26.2699 86.6339 25.4099 86.6439C24.7899 86.6439 24.19 86.6539 23.61 86.6539C23.29 86.6539 22.9899 86.6539 22.6799 86.6439C22.4199 86.6439 22.1599 86.6339 21.8999 86.6339C21.5599 86.6239 21.2199 86.614 20.8899 86.604C20.3999 86.584 19.93 86.5639 19.46 86.5439C19.15 86.5239 18.8299 86.5039 18.5199 86.4839C18.2899 86.4639 18.06 86.4539 17.83 86.4339C16.24 86.3039 14.7599 86.1139 13.3899 85.8439C13.0499 85.784 12.7199 85.7139 12.3999 85.6439C11.4299 85.4239 10.5099 85.1639 9.65991 84.8639C9.41991 84.7739 9.17995 84.6939 8.94995 84.5939C8.86995 84.5639 8.78996 84.5339 8.70996 84.5039C8.47996 84.4039 8.25992 84.3039 8.03992 84.2039C7.77992 84.0839 7.52991 83.9639 7.27991 83.8339C7.23991 83.8039 7.1899 83.7839 7.1499 83.7539C6.9499 83.6539 6.74994 83.5439 6.55994 83.4239C6.25994 83.2439 5.96995 83.0639 5.69995 82.8639C5.46995 82.7039 5.24991 82.534 5.02991 82.354C4.92991 82.284 4.83999 82.204 4.73999 82.104C4.56999 81.964 4.39998 81.8139 4.22998 81.6439C4.12998 81.5539 4.02993 81.4439 3.92993 81.3339C3.78993 81.1939 3.65992 81.0539 3.53992 80.9039C3.50992 80.8839 3.48998 80.8639 3.47998 80.8439C3.46998 80.8339 3.44995 80.8239 3.44995 80.8039C3.30995 80.6439 3.17994 80.4839 3.05994 80.3139C2.91994 80.1439 2.78991 79.9539 2.65991 79.7639C2.34991 79.3039 2.06995 78.8239 1.81995 78.3139C1.69995 78.0839 1.59 77.8539 1.5 77.6139C1.48 77.5739 1.45994 77.5239 1.43994 77.4839C1.31994 77.2139 1.22 76.9239 1.12 76.6339C0.989995 76.2839 0.879907 75.9139 0.779907 75.5239C0.699907 75.2739 0.639956 75.0139 0.579956 74.7439C0.529956 74.5339 0.489951 74.3139 0.449951 74.0839C0.409951 73.8939 0.369966 73.6939 0.339966 73.4939C0.289966 73.2139 0.249971 72.9339 0.219971 72.6439C0.189971 72.4639 0.169912 72.284 0.159912 72.0939C0.129912 71.8739 0.109966 71.644 0.0899659 71.414V71.3339C0.0599659 70.9839 0.0399073 70.6239 0.0299073 70.2539C0.0299073 70.2139 0.0198975 70.1639 0.0198975 70.1139C0.00989752 69.7139 5.41947e-08 69.3139 5.41947e-08 68.9039C5.41947e-08 68.6539 -0.00011225 68.3939 0.00988775 68.1239C0.00988775 67.9339 0.0198975 67.7439 0.0198975 67.5439C0.0398975 66.9839 0.0699952 66.3939 0.119995 65.7939V65.784C0.139995 65.4539 0.169951 65.1239 0.199951 64.784C0.269951 63.964 0.369981 63.1139 0.479981 62.2339C0.609981 61.2439 0.749912 60.284 0.909912 59.354C0.979912 58.964 1.05 58.5739 1.12 58.2039C1.43 56.5639 1.78994 55.0239 2.18994 53.5839C2.26994 53.3139 2.34993 53.0439 2.42993 52.7839C2.59993 52.2039 2.77997 51.6439 2.96997 51.0939C3.11997 50.6639 3.26993 50.2339 3.42993 49.8239C4.31993 47.4639 5.36994 45.3939 6.55994 43.5539C6.68994 43.3539 6.81995 43.1639 6.94995 42.9739C8.50995 40.6639 10.32 38.7239 12.33 37.0439C12.67 36.7639 13.01 36.4939 13.35 36.2239C13.7 35.964 14.0499 35.7039 14.4099 35.4539C14.7499 35.2139 15.0899 34.9739 15.4399 34.7439C15.4599 34.7339 15.4899 34.7139 15.5199 34.6839C15.8799 34.4539 16.25 34.2239 16.62 34.0039C17 33.7639 17.3899 33.5439 17.7799 33.3239C18.1699 33.1039 18.56 32.8839 18.96 32.6739C20.17 32.0239 21.42 31.4239 22.71 30.8439C23.14 30.6439 23.5799 30.4539 24.0199 30.2639C24.4599 30.0739 24.9 29.8839 25.35 29.6939C25.8 29.5039 26.26 29.3239 26.71 29.1339C27.17 28.9439 27.63 28.7639 28.1 28.5739C29.04 28.2039 29.99 27.8339 30.96 27.4639L32.4299 26.8939C32.6399 26.8139 32.8499 26.7339 33.0699 26.6439C33.2199 26.5939 33.3699 26.534 33.5199 26.474C33.6599 26.424 33.7999 26.3639 33.95 26.3139C34.25 26.1939 34.55 26.0739 34.85 25.9539C36.05 25.4939 37.2799 25.0139 38.5199 24.5139C39.6199 24.0739 40.74 23.604 41.88 23.104C42.43 22.854 42.9899 22.614 43.5499 22.354C44.7099 21.834 45.8899 21.2839 47.0699 20.7139C47.6299 20.4539 48.1899 20.1739 48.7599 19.8939C49.3999 19.5839 50.0399 19.2639 50.6899 18.9339C51.0099 18.7739 51.3299 18.6139 51.6499 18.4539C54.6099 16.9639 57.58 15.3939 60.5 13.8339C61.34 13.3839 62.17 12.9339 63 12.4839C66.92 10.3839 70.6899 8.32392 74.1399 6.50392C74.5199 6.30392 74.8999 6.10395 75.2799 5.91395C76.4799 5.28395 77.63 4.69393 78.73 4.14393C79.23 3.89393 79.7199 3.6539 80.2 3.4239C80.66 3.2039 81.0999 2.9939 81.5299 2.7939C81.5599 2.7739 81.58 2.76392 81.61 2.75392C82.17 2.48392 82.72 2.24393 83.25 2.01393L83.2599 2.00392C83.3499 1.96392 83.4299 1.92393 83.5199 1.89393C83.5399 1.88393 83.56 1.8739 83.58 1.8639C84.19 1.6039 84.78 1.36394 85.33 1.15394C85.54 1.07394 85.7299 0.993903 85.9299 0.923903C86.2899 0.793903 86.63 0.683927 86.96 0.573927C87.29 0.473927 87.6099 0.373907 87.8999 0.303907C87.9099 0.293907 87.9199 0.293898 87.9299 0.293898C88.4899 0.163898 88.9799 0.0639391 89.4199 0.0239391C89.6199 0.00393913 89.8 -0.0060804 89.98 0.0039196C90.12 0.0039196 90.25 0.0139489 90.37 0.0339489C90.5 0.0539489 90.62 0.0739049 90.73 0.113905C90.74 0.113905 90.7599 0.123924 90.7699 0.133924C91.0099 0.213924 91.25 0.293934 91.48 0.393934C91.78 0.513934 92.06 0.643898 92.34 0.793898C92.55 0.893898 92.76 1.01392 92.96 1.13392C93.14 1.23392 93.32 1.35395 93.49 1.47395C93.61 1.54395 93.7099 1.62393 93.8199 1.70393C93.9999 1.82393 94.17 1.96396 94.34 2.10396C94.52 2.24396 94.69 2.39391 94.86 2.55391C94.94 2.62391 95.02 2.70394 95.09 2.77394C95.24 2.91394 95.3799 3.06395 95.5199 3.22395C95.6799 3.38395 95.82 3.5539 95.97 3.7339C96.03 3.8139 96.0999 3.89395 96.1499 3.97395C96.2999 4.14395 96.4299 4.32393 96.5599 4.51393L96.5699 4.52394C96.6999 4.70394 96.8199 4.88393 96.9299 5.07393C97.0099 5.19393 97.0899 5.32394 97.1699 5.46394C97.3699 5.79394 97.56 6.14393 97.73 6.51393C97.78 6.61393 97.8399 6.72395 97.8899 6.84395C97.9899 7.04395 98.0799 7.25394 98.1599 7.46394C98.5199 8.33394 98.83 9.26391 99.08 10.2439C99.08 10.2739 99.09 10.2939 99.1 10.3139C99.13 10.4339 99.1499 10.544 99.1799 10.664C99.2099 10.774 99.23 10.8939 99.25 11.0139C99.29 11.1439 99.32 11.2739 99.34 11.4039C99.4 11.6739 99.45 11.9539 99.49 12.2339C99.51 12.3039 99.5199 12.3839 99.5299 12.4639C99.5599 12.5939 99.58 12.7439 99.6 12.8839C99.64 13.1439 99.68 13.4139 99.71 13.6839C99.72 13.7839 99.73 13.8939 99.74 14.0039C99.78 14.3239 99.81 14.6339 99.83 14.9639C99.84 15.0139 99.84 15.0739 99.85 15.1339C99.87 15.4239 99.8799 15.7139 99.8999 16.0039C99.8999 16.1239 99.9099 16.2439 99.9199 16.3639C99.9299 16.5839 99.9299 16.8039 99.9399 17.0239Z" fill="#C21921"/>
<path fill-rule="evenodd" clip-rule="evenodd" d="M41.88 23.104L0.199951 64.784C0.269951 63.964 0.36998 63.1139 0.47998 62.2339C0.60998 61.2439 0.749912 60.284 0.909912 59.354C0.979912 58.964 1.05 58.574 1.12 58.204L32.4299 26.894C32.6399 26.814 32.8499 26.734 33.0699 26.644C33.2199 26.594 33.3699 26.534 33.5199 26.474C33.6599 26.424 33.7999 26.364 33.95 26.314C34.25 26.194 34.55 26.074 34.85 25.954C36.05 25.494 37.2799 25.014 38.5199 24.514C39.6199 24.074 40.74 23.604 41.88 23.104Z" fill="#711E1B"/>
<path fill-rule="evenodd" clip-rule="evenodd" d="M89.98 0.0039196L6.55994 83.4239C6.25994 83.2439 5.96995 83.0639 5.69995 82.8639C5.46995 82.7039 5.24991 82.534 5.02991 82.354C4.92991 82.284 4.83999 82.204 4.73999 82.104C4.56999 81.964 4.39998 81.8139 4.22998 81.6439C4.12998 81.5539 4.02993 81.4439 3.92993 81.3339C3.78993 81.1939 3.65992 81.0539 3.53992 80.9039C3.50992 80.8839 3.48998 80.8639 3.47998 80.8439L81.5299 2.7939C81.5599 2.7739 81.58 2.76392 81.61 2.75392C82.17 2.48392 82.72 2.24393 83.25 2.01393L83.2599 2.00392C83.3499 1.96392 83.4299 1.92393 83.5199 1.89393C83.5399 1.88393 83.56 1.8739 83.58 1.8639C84.19 1.6039 84.78 1.36394 85.33 1.15394C85.54 1.07394 85.7299 0.993903 85.9299 0.923903C86.2899 0.793903 86.63 0.683927 86.96 0.573927C87.29 0.473927 87.6099 0.373907 87.8999 0.303907C87.9099 0.293907 87.9199 0.293898 87.9299 0.293898C88.4899 0.163898 88.9799 0.0639391 89.4199 0.0239391C89.6199 0.00393913 89.8 -0.0060804 89.98 0.0039196Z" fill="#711E1B"/>
<path fill-rule="evenodd" clip-rule="evenodd" d="M99.85 15.1339L28.4199 86.5639C28.3099 86.5639 28.2 86.5739 28.09 86.5739C27.17 86.6039 26.2699 86.6339 25.4099 86.6439C24.7899 86.6439 24.19 86.6539 23.61 86.6539C23.29 86.6539 22.9899 86.6539 22.6799 86.6439L99.08 10.2439C99.08 10.2739 99.09 10.2939 99.1 10.3139C99.13 10.4339 99.1499 10.5439 99.1799 10.6639C99.2099 10.7739 99.23 10.8939 99.25 11.0139C99.29 11.1439 99.32 11.2739 99.34 11.4039C99.4 11.6739 99.45 11.9539 99.49 12.2339C99.51 12.3039 99.5199 12.3839 99.5299 12.4639C99.5599 12.5939 99.58 12.7439 99.6 12.8839C99.64 13.1439 99.68 13.4139 99.71 13.6839C99.72 13.7839 99.73 13.8939 99.74 14.0039C99.78 14.3239 99.81 14.6339 99.83 14.9639C99.84 15.0139 99.84 15.0739 99.85 15.1339Z" fill="#711E1B"/>
<path fill-rule="evenodd" clip-rule="evenodd" d="M96.3098 38.0139C96.1498 38.4939 95.9898 38.9639 95.8198 39.4439L95.8098 39.4539C95.6798 39.8439 95.5398 40.2239 95.4098 40.6039C95.1898 41.1939 94.9599 41.7939 94.7299 42.3939C94.6899 42.4939 94.6499 42.5939 94.6099 42.6939C94.3099 43.4539 93.9998 44.2039 93.6798 44.9639C93.6598 45.0039 93.6399 45.0539 93.6199 45.1039C93.3199 45.8139 92.9998 46.5339 92.6698 47.2439C92.6598 47.2839 92.6399 47.3239 92.6199 47.3639L56.0298 83.9539C54.3498 84.3839 52.6498 84.6939 50.9198 84.8539C50.7298 84.8739 50.5499 84.8839 50.3599 84.9039C50.0099 84.9339 49.6598 84.9739 49.3198 85.0039L96.3098 38.0139Z" fill="#711E1B"/>
<path d="M99.9399 17.0239C99.9699 18.5839 99.9199 20.2139 99.7799 21.8939C99.7199 22.5339 99.66 23.1839 99.58 23.8439C99.47 24.7039 99.35 25.5739 99.21 26.4539C99.1 27.1239 98.97 27.8039 98.84 28.4839C98.23 31.5839 97.3799 34.7839 96.3099 38.0139C96.1499 38.4939 95.9899 38.9639 95.8199 39.4439L95.8099 39.4539C95.6799 39.8439 95.5399 40.224 95.4099 40.604C95.1899 41.194 94.96 41.7939 94.73 42.3939C94.69 42.4939 94.65 42.5939 94.61 42.6939C94.31 43.4539 93.9999 44.2039 93.6799 44.9639C93.6599 45.0039 93.64 45.054 93.62 45.104C93.32 45.814 92.9999 46.5339 92.6699 47.2439C92.6599 47.2839 92.64 47.3239 92.62 47.3639C92.61 47.3839 92.6 47.4039 92.59 47.4239C92.36 47.9239 92.12 48.4339 91.88 48.9339C91.85 48.9939 91.8299 49.044 91.7999 49.104L91.7899 49.1139C91.5699 49.5739 91.34 50.0339 91.11 50.4939C90.85 51.0139 90.5799 51.5339 90.3099 52.0439C88.9499 54.6139 87.47 57.1439 85.87 59.5739C85.55 60.0639 85.2199 60.5439 84.8899 61.0239C84.5399 61.5539 84.1699 62.0639 83.7999 62.5739C83.4999 63.0039 83.18 63.434 82.86 63.854C82.52 64.314 82.1699 64.774 81.8099 65.224C81.4499 65.684 81.09 66.1239 80.73 66.5639C80.37 67.0039 80.0099 67.4339 79.6399 67.8639C78.8599 68.7739 78.06 69.6539 77.24 70.5039C76.89 70.8739 76.5299 71.2439 76.1599 71.6139C75.7799 71.9939 75.39 72.3639 75 72.7339C73.7 73.9739 72.36 75.1439 70.98 76.2139C70.63 76.4939 70.2899 76.7539 69.9399 77.0139C69.5299 77.3239 69.12 77.6139 68.71 77.9039C68.64 77.9639 68.57 78.0139 68.5 78.0539C68.2 78.2639 67.89 78.464 67.58 78.664C66.23 79.564 64.8399 80.3839 63.4299 81.0939C63.0599 81.284 62.6899 81.4739 62.3099 81.6439C62.2699 81.6639 62.2299 81.6839 62.1899 81.7039C61.9499 81.8239 61.7 81.9339 61.45 82.0439C61.18 82.1639 60.9099 82.2839 60.6399 82.3839C60.0399 82.6439 59.4299 82.8739 58.8099 83.0939C58.5499 83.1939 58.2899 83.274 58.0299 83.354C57.7999 83.434 57.5599 83.5139 57.3199 83.5839C56.8899 83.7139 56.4599 83.8339 56.0299 83.9539C54.3499 84.3839 52.6499 84.694 50.9199 84.854C50.7299 84.874 50.55 84.8839 50.36 84.9039C50.01 84.9339 49.6599 84.9739 49.3199 85.0039C44.2499 85.4739 39.5799 85.8839 35.3099 86.1839C34.5599 86.2339 33.82 86.2839 33.09 86.3339C31.81 86.4039 30.58 86.4739 29.38 86.5239C29.06 86.5339 28.7399 86.5439 28.4199 86.5639C28.3099 86.5639 28.2 86.5739 28.09 86.5739C27.17 86.6039 26.2699 86.6339 25.4099 86.6439C24.7899 86.6439 24.19 86.6539 23.61 86.6539C23.29 86.6539 22.9899 86.6539 22.6799 86.6439C22.4199 86.6439 22.1599 86.6339 21.8999 86.6339C21.5599 86.6239 21.2199 86.614 20.8899 86.604C20.3999 86.584 19.93 86.5639 19.46 86.5439C19.15 86.5239 18.8299 86.5039 18.5199 86.4839C18.2899 86.4639 18.06 86.4539 17.83 86.4339C16.24 86.3039 14.7599 86.1139 13.3899 85.8439C13.0499 85.784 12.7199 85.7139 12.3999 85.6439C11.4299 85.4239 10.5099 85.1639 9.65991 84.8639C9.41991 84.7739 9.17995 84.6939 8.94995 84.5939C8.86995 84.5639 8.78996 84.5339 8.70996 84.5039C8.47996 84.4039 8.25992 84.3039 8.03992 84.2039C7.77992 84.0839 7.52991 83.9639 7.27991 83.8339C7.22991 83.8139 7.18989 83.7839 7.13989 83.7639C6.93989 83.6539 6.74994 83.5439 6.55994 83.4239C6.25994 83.2439 5.96995 83.0639 5.69995 82.8639C5.46995 82.7039 5.24991 82.534 5.02991 82.354C4.92991 82.284 4.83999 82.204 4.73999 82.104C4.56999 81.964 4.39998 81.8139 4.22998 81.6439C4.12998 81.5539 4.02993 81.4439 3.92993 81.3339C3.78993 81.1939 3.65992 81.0539 3.53992 80.9039C3.50992 80.8839 3.48998 80.8639 3.47998 80.8439C3.46998 80.8339 3.44995 80.8239 3.44995 80.8039C3.30995 80.6439 3.17994 80.4839 3.05994 80.3139C2.91994 80.1439 2.78991 79.9539 2.65991 79.7639C2.34991 79.3039 2.06995 78.8239 1.81995 78.3139C1.69995 78.0839 1.59 77.8539 1.5 77.6139C1.48 77.5739 1.45994 77.5239 1.43994 77.4839C1.31994 77.2139 1.22 76.9239 1.12 76.6339C0.989995 76.2839 0.879907 75.9139 0.779907 75.5239C0.699907 75.2739 0.639956 75.0139 0.579956 74.7439C0.529956 74.5339 0.489951 74.3139 0.449951 74.0839C0.409951 73.8939 0.369966 73.6939 0.339966 73.4939C0.289966 73.2139 0.249971 72.9339 0.219971 72.6439C0.189971 72.4639 0.169912 72.284 0.159912 72.0939C0.129912 71.8739 0.109966 71.644 0.0899659 71.414V71.3339C0.0599659 70.9839 0.0399073 70.6239 0.0299073 70.2539C0.0299073 70.2139 0.0198975 70.1639 0.0198975 70.1139C0.00989752 69.7139 5.41947e-08 69.3139 5.41947e-08 68.9039C5.41947e-08 68.6539 -0.00011225 68.3939 0.00988775 68.1239C0.00988775 67.9339 0.0198975 67.7439 0.0198975 67.5439C0.0398975 66.9839 0.0699952 66.3939 0.119995 65.7939V65.784C0.139995 65.4539 0.169951 65.1239 0.199951 64.784C0.269951 63.964 0.369981 63.1139 0.479981 62.2339C0.609981 61.2439 0.749912 60.284 0.909912 59.354C0.979912 58.964 1.05 58.5739 1.12 58.2039C1.43 56.5639 1.78994 55.0239 2.18994 53.5839C2.26994 53.3139 2.34993 53.0439 2.42993 52.7839C2.59993 52.2039 2.77997 51.6439 2.96997 51.0939C3.11997 50.6639 3.26993 50.2339 3.42993 49.8239C4.31993 47.4639 5.36994 45.3939 6.55994 43.5539C6.68994 43.3539 6.81995 43.1639 6.94995 42.9739C8.50995 40.6639 10.32 38.7239 12.33 37.0439C12.67 36.7639 13.01 36.4939 13.35 36.2239C13.7 35.964 14.0499 35.7039 14.4099 35.4539C14.7499 35.2139 15.0899 34.9739 15.4399 34.7439C15.4599 34.7339 15.4899 34.7139 15.5199 34.6839C15.8799 34.4539 16.25 34.2239 16.62 34.0039C17 33.7639 17.3899 33.5439 17.7799 33.3239C18.1699 33.1039 18.56 32.8839 18.96 32.6739C20.17 32.0239 21.42 31.4239 22.71 30.8439C23.14 30.6439 23.5799 30.4539 24.0199 30.2639C24.4599 30.0739 24.9 29.8839 25.35 29.6939C25.8 29.5039 26.26 29.3239 26.71 29.1339C27.17 28.9439 27.63 28.7639 28.1 28.5739C29.04 28.2039 29.99 27.8339 30.96 27.4639L32.4299 26.8939C32.6399 26.8139 32.8499 26.7339 33.0699 26.6439C33.2199 26.5939 33.3699 26.534 33.5199 26.474C33.6699 26.414 33.81 26.3539 33.97 26.2939C34.26 26.1839 34.56 26.0739 34.85 25.9539C36.05 25.4939 37.2799 25.0139 38.5199 24.5139C39.6199 24.0739 40.74 23.604 41.88 23.104C42.43 22.854 42.9899 22.614 43.5499 22.354C44.7099 21.834 45.8899 21.2839 47.0699 20.7139C47.6299 20.4539 48.1899 20.1739 48.7599 19.8939C49.3999 19.5839 50.0399 19.2639 50.6899 18.9339C51.0099 18.7739 51.3299 18.6139 51.6499 18.4539C54.6099 16.9639 57.58 15.3939 60.5 13.8339C61.34 13.3839 62.17 12.9339 63 12.4839C66.92 10.3839 70.6899 8.32392 74.1399 6.50392C74.5199 6.30392 74.8999 6.10395 75.2799 5.91395C76.4799 5.28395 77.63 4.69393 78.73 4.14393C79.23 3.89393 79.7199 3.6539 80.2 3.4239C80.66 3.2039 81.0999 2.9939 81.5299 2.7939C81.5599 2.7739 81.58 2.76392 81.61 2.75392C82.17 2.48392 82.72 2.24393 83.25 2.01393L83.2599 2.00392C83.3499 1.96392 83.4299 1.92393 83.5199 1.89393C83.5399 1.88393 83.56 1.8739 83.58 1.8639C84.19 1.6039 84.78 1.36394 85.33 1.15394C85.54 1.07394 85.7299 0.993903 85.9299 0.923903C86.2899 0.793903 86.63 0.683927 86.96 0.573927C87.29 0.473927 87.5999 0.373907 87.8999 0.303907C87.9099 0.293907 87.9199 0.293898 87.9299 0.293898C88.4799 0.153898 88.9699 0.0639391 89.4199 0.0239391C89.6199 0.00393913 89.8 -0.0060804 89.98 0.0039196C90.12 0.0039196 90.25 0.0139489 90.37 0.0339489C90.5 0.0539489 90.62 0.0739049 90.73 0.113905C90.74 0.113905 90.7599 0.123924 90.7699 0.133924C91.0099 0.213924 91.25 0.293934 91.48 0.393934C91.78 0.513934 92.06 0.643898 92.34 0.793898C92.55 0.893898 92.76 1.01392 92.96 1.13392C93.14 1.23392 93.32 1.35395 93.49 1.47395C93.61 1.54395 93.7099 1.62393 93.8199 1.70393C93.9999 1.82393 94.17 1.96396 94.34 2.10396C94.52 2.24396 94.69 2.39391 94.86 2.55391C94.94 2.62391 95.02 2.70394 95.09 2.77394C95.24 2.91394 95.3799 3.06395 95.5199 3.22395C95.6799 3.38395 95.82 3.5539 95.97 3.7339C96.03 3.8139 96.0999 3.89395 96.1499 3.97395C96.2999 4.14395 96.4299 4.32393 96.5599 4.51393L96.5699 4.52394C96.6999 4.70394 96.8199 4.88393 96.9299 5.07393C97.0099 5.19393 97.0899 5.32394 97.1699 5.46394C97.3699 5.79394 97.56 6.14393 97.73 6.51393C97.78 6.61393 97.8399 6.72395 97.8899 6.84395C97.9899 7.04395 98.0799 7.25394 98.1599 7.46394C98.5199 8.33394 98.83 9.26391 99.08 10.2439C99.08 10.2739 99.09 10.2939 99.1 10.3139C99.13 10.4339 99.1499 10.544 99.1799 10.664C99.2099 10.774 99.2399 10.8939 99.2599 11.0039V11.0139C99.2899 11.1439 99.32 11.2739 99.34 11.4039C99.4 11.6739 99.45 11.9539 99.49 12.2339C99.51 12.3039 99.5199 12.3839 99.5299 12.4639C99.5599 12.5939 99.58 12.7439 99.6 12.8839C99.64 13.1439 99.68 13.4139 99.71 13.6839C99.72 13.7839 99.73 13.8939 99.74 14.0039C99.78 14.3239 99.81 14.6339 99.83 14.9639C99.84 15.0139 99.84 15.0739 99.85 15.1339C99.87 15.4239 99.8799 15.7139 99.8999 16.0039C99.8999 16.1239 99.9099 16.2439 99.9199 16.3639C99.9299 16.5839 99.9299 16.8039 99.9399 17.0239Z" fill="#C21921"/>
<path fill-rule="evenodd" clip-rule="evenodd" d="M43.55 22.354L0.120117 65.784C0.140117 65.454 0.170073 65.124 0.200073 64.784C0.270073 63.964 0.370103 63.1139 0.480103 62.2339C0.610103 61.2439 0.750034 60.284 0.910034 59.354L33.9701 26.2939C34.2601 26.1839 34.5601 26.074 34.8501 25.954C36.0501 25.494 37.28 25.014 38.52 24.514C39.62 24.074 40.7401 23.604 41.8801 23.104C42.4301 22.854 42.99 22.614 43.55 22.354Z" fill="#9E1B1E"/>
<path fill-rule="evenodd" clip-rule="evenodd" d="M90.7701 0.133924L7.14014 83.7639C6.94014 83.6539 6.75018 83.5439 6.56018 83.4239C6.26018 83.2439 5.9702 83.0639 5.7002 82.8639C5.4702 82.7039 5.25015 82.534 5.03015 82.354C4.93015 82.284 4.84023 82.204 4.74023 82.104C4.57023 81.964 4.40022 81.8139 4.23022 81.6439C4.13022 81.5539 4.03018 81.4439 3.93018 81.3339L83.2601 2.00392C83.3501 1.96392 83.4301 1.92393 83.5201 1.89393C83.5401 1.88393 83.5602 1.8739 83.5802 1.8639C84.1902 1.6039 84.7802 1.36394 85.3302 1.15394C85.5402 1.07394 85.7302 0.993903 85.9302 0.923903C86.2902 0.793903 86.6302 0.683927 86.9602 0.573927C87.2902 0.473927 87.6001 0.373907 87.9001 0.303907C87.9101 0.293907 87.9202 0.293898 87.9302 0.293898C88.4802 0.153898 88.9702 0.0639391 89.4202 0.0239391C89.6202 0.00393913 89.8002 -0.0060804 89.9802 0.0039196C90.1202 0.0039196 90.2502 0.0139489 90.3702 0.0339489C90.5002 0.0539489 90.6202 0.0739049 90.7302 0.113905C90.7402 0.113905 90.7601 0.123924 90.7701 0.133924Z" fill="#9E1B1E"/>
<path fill-rule="evenodd" clip-rule="evenodd" d="M99.9 16.0039L29.3801 86.5239C29.0601 86.5339 28.74 86.5439 28.42 86.5639C28.31 86.5639 28.2001 86.5739 28.0901 86.5739C27.1701 86.6039 26.27 86.6339 25.41 86.6439C24.79 86.6439 24.1901 86.6539 23.6101 86.6539L99.2501 11.0139H99.26C99.29 11.1439 99.3201 11.2739 99.3401 11.4039C99.4001 11.6739 99.4501 11.9539 99.4901 12.2339C99.5101 12.3039 99.52 12.3839 99.53 12.4639C99.56 12.5939 99.5801 12.7439 99.6001 12.8839C99.6401 13.1439 99.6801 13.4139 99.7101 13.6839C99.7201 13.7839 99.7301 13.8939 99.7401 14.0039C99.7801 14.3239 99.8101 14.6339 99.8301 14.9639C99.8401 15.0139 99.8401 15.0739 99.8501 15.1339C99.8701 15.4239 99.88 15.7139 99.9 16.0039Z" fill="#9E1B1E"/>
<path fill-rule="evenodd" clip-rule="evenodd" d="M95.8101 39.4539C95.6801 39.8439 95.54 40.2239 95.41 40.6039C95.19 41.1939 94.9601 41.7939 94.7301 42.3939C94.6901 42.4939 94.6501 42.5938 94.6101 42.6938C94.3101 43.4538 94.0001 44.2039 93.6801 44.9639C93.6601 45.0039 93.6401 45.0539 93.6201 45.1039C93.3201 45.8139 93 46.5338 92.67 47.2438C92.66 47.2838 92.6401 47.3238 92.6201 47.3638C92.6101 47.3838 92.6001 47.4038 92.5901 47.4238C92.3601 47.9238 92.1201 48.4338 91.8801 48.9338C91.8501 48.9938 91.83 49.0439 91.8 49.1039L91.79 49.1138L57.3201 83.5839C56.8901 83.7139 56.46 83.8339 56.03 83.9539C54.35 84.3839 52.65 84.6939 50.92 84.8539C50.73 84.8739 50.5501 84.8839 50.3601 84.9039L95.8101 39.4539Z" fill="#9E1B1E"/>
</svg>
