<svg width="272" height="69" fill="none" xmlns="http://www.w3.org/2000/svg"><path d="M251.28 26.77c-.79.5-1.6 1.01-2.45 1.52-10.23 6.22-22.48 12.18-35.94 17.53a304.27 304.27 0 01-9.13 3.47 356.08 356.08 0 01-23.01 7.45c-1.71.49-3.44.96-5.19 1.41-2.45.64-4.93 1.23-7.45 1.79-7.6 1.7-15.49 3.08-23.52 4.18-2.15.3-4.32.57-6.49.83-7.04.84-14.18 1.49-21.31 1.97-2.01.13-4.02.26-6.03.37-6.74.37-13.45.6-20.06.72-1.93.04-3.85.07-5.75.09-6.56.06-13 .03-19.25-.09-1.87-.03-3.71-.07-5.54-.12-6.49-.16-12.74-.39-18.67-.67-1.83-.09-3.63-.18-5.4-.26-6.58-.35-12.7-.74-18.23-1.11-1.83-.13-3.6-.25-5.29-.37-3.08-.23-5.92-.44-8.51-.63L0 64.54c.26-2.18.51-4.37.75-6.58.24-2.11.47-4.22.7-6.36.21-2.01.42-4.03.63-6.07l.8-7.94a1101.29 1101.29 0 001.19-13.61c.41-5.22.76-10.46 1.04-15.7 4.53.34 9.12.64 13.77.89 1.78.11 3.57.2 5.37.29 6.14.29 12.37.52 18.67.67 1.84.06 3.68.1 5.53.13 6.32.14 12.7.2 19.14.2.5.01 1 .01 1.5.01 1.38 0 2.77 0 4.16-.01a1170.817 1170.817 0 0025.36-.36c6.63-.16 13.29-.36 19.96-.62 1.96-.07 3.93-.15 5.89-.23 6.76-.28 13.54-.6 20.3-.96l5.99-.33c6.9-.39 13.78-.82 20.62-1.28 2.03-.13 4.05-.27 6.07-.41 7.01-.49 13.99-1.01 20.9-1.56 2.05-.15 4.1-.32 6.14-.48 7.12-.58 14.17-1.18 21.13-1.79 2.08-.19 4.15-.37 6.22-.56 5.82-.52 11.58-1.06 17.26-1.6 1.39-.14 2.7-.23 3.94-.26 2.02-.06 3.84.02 5.47.19 9.03.97 12.39 4.96 13.01 6.33.04.12.08.21.09.29.34 1.82-2.74 8.8-20.32 19.94z" fill="#C21921"/><path fill-rule="evenodd" clip-rule="evenodd" d="M24.25 9.46l-20.7 20.7c.18-2.05.35-4.11.52-6.18L18.88 9.17c1.78.11 3.57.2 5.37.29zm24.2.8L.75 57.96c.24-2.11.47-4.22.7-6.36l41.47-41.47c1.84.06 3.68.1 5.53.13zm24.8.2L17.86 65.85c-1.83-.13-3.6-.25-5.29-.37l55.02-55.02c.5.01 1 .01 1.5.01 1.38 0 2.77 0 4.16-.01zm25.36-.36L41.49 67.22c-1.83-.09-3.63-.18-5.4-.26l56.73-56.73c1.93-.04 3.86-.08 5.79-.13zm25.85-.85L65.7 68.01c-1.87-.03-3.71-.07-5.54-.12l58.41-58.41c1.96-.07 3.93-.15 5.89-.23zm26.29-1.29L90.7 68.01c-1.93.04-3.85.07-5.75.09l59.81-59.81 5.99-.33zm26.69-1.69l-60.65 60.65c-2.01.13-4.02.26-6.03.37l60.61-60.61c2.03-.13 4.05-.27 6.07-.41zm27.04-2.04l-59.89 59.89c-2.15.3-4.32.57-6.49.83l60.24-60.24c2.05-.15 4.1-.32 6.14-.48zm27.35-2.35l-56.27 56.27c-2.45.64-4.93 1.23-7.45 1.79l57.5-57.5c2.08-.19 4.15-.37 6.22-.56zM258.5.21l-45.61 45.61a304.27 304.27 0 01-9.13 3.47L253.03.02c2.02-.06 3.84.02 5.47.19zm-7.22 26.56l20.23-20.23c.04.12.08.21.09.29.34 1.82-2.74 8.8-20.32 19.94z" fill="#9E1B1E"/></svg>